<?xml version="1.0" encoding="utf-8" standalone="no"?>
<!DOCTYPE svg PUBLIC "-//W3C//DTD SVG 1.1//EN"
  "http://www.w3.org/Graphics/SVG/1.1/DTD/svg11.dtd">
<svg xmlns:xlink="http://www.w3.org/1999/xlink" width="1012.266pt" height="602.958419pt" viewBox="0 0 1012.266 602.958419" xmlns="http://www.w3.org/2000/svg" version="1.1">
 <metadata>
  <rdf:RDF xmlns:dc="http://purl.org/dc/elements/1.1/" xmlns:cc="http://creativecommons.org/ns#" xmlns:rdf="http://www.w3.org/1999/02/22-rdf-syntax-ns#">
   <cc:Work>
    <dc:type rdf:resource="http://purl.org/dc/dcmitype/StillImage"/>
    <dc:date>2026-04-09T02:35:08.232546</dc:date>
    <dc:format>image/svg+xml</dc:format>
    <dc:creator>
     <cc:Agent>
      <dc:title>Matplotlib v3.9.4, https://matplotlib.org/</dc:title>
     </cc:Agent>
    </dc:creator>
   </cc:Work>
  </rdf:RDF>
 </metadata>
 <defs>
  <style type="text/css">*{stroke-linejoin: round; stroke-linecap: butt}</style>
 </defs>
 <g id="figure_1">
  <g id="patch_1">
   <path d="M 0 602.958419 
L 1012.266 602.958419 
L 1012.266 0 
L 0 0 
z
" style="fill: #ffffff"/>
  </g>
  <g id="axes_1">
   <g id="patch_2">
    <path d="M 142.284375 560.251075 
L 867.684375 560.251075 
L 867.684375 23.591875 
L 142.284375 23.591875 
z
" style="fill: #ffffff"/>
   </g>
   <g id="matplotlib.axis_1">
    <g id="xtick_1">
     <g id="line2d_1">
      <path d="M 142.284375 560.251075 
L 142.284375 23.591875 
" clip-path="url(#pbb40510019)" style="fill: none; stroke-dasharray: 3.7,1.6; stroke-dashoffset: 0; stroke: #cccccc; stroke-opacity: 0.2"/>
     </g>
     <g id="text_1">
      <!-- 0.4 -->
      <g style="fill: #262626" transform="translate(135.216406 577.744825) scale(0.1 -0.1)">
       <defs>
        <path id="MicrosoftYaHei-30" d="M 284 2325 
Q 284 3606 709 4264 
Q 1134 4922 1941 4922 
Q 3478 4922 3478 2441 
Q 3478 1216 3045 567 
Q 2613 -81 1831 -81 
Q 1094 -81 689 534 
Q 284 1150 284 2325 
z
M 909 2353 
Q 909 425 1888 425 
Q 2850 425 2850 2384 
Q 2850 4413 1906 4413 
Q 909 4413 909 2353 
z
" transform="scale(0.015625)"/>
        <path id="MicrosoftYaHei-2e" d="M 372 322 
Q 372 491 487 606 
Q 603 722 775 722 
Q 950 722 1065 605 
Q 1181 488 1181 322 
Q 1181 159 1065 42 
Q 950 -75 772 -75 
Q 600 -75 486 42 
Q 372 159 372 322 
z
" transform="scale(0.015625)"/>
        <path id="MicrosoftYaHei-34" d="M 2906 4841 
L 2906 1644 
L 3631 1644 
L 3631 1138 
L 2906 1138 
L 2906 0 
L 2313 0 
L 2313 1138 
L 53 1138 
L 53 1616 
Q 656 2294 1265 3178 
Q 1875 4063 2272 4841 
L 2906 4841 
z
M 741 1644 
L 2313 1644 
L 2313 3950 
Q 1988 3366 1616 2817 
Q 1244 2269 741 1644 
z
" transform="scale(0.015625)"/>
       </defs>
       <use xlink:href="#MicrosoftYaHei-30"/>
       <use xlink:href="#MicrosoftYaHei-2e" x="58.642578"/>
       <use xlink:href="#MicrosoftYaHei-34" x="82.714844"/>
      </g>
     </g>
    </g>
    <g id="xtick_2">
     <g id="line2d_2">
      <path d="M 261.202408 560.251075 
L 261.202408 23.591875 
" clip-path="url(#pbb40510019)" style="fill: none; stroke-dasharray: 3.7,1.6; stroke-dashoffset: 0; stroke: #cccccc; stroke-opacity: 0.2"/>
     </g>
     <g id="text_2">
      <!-- 0.5 -->
      <g style="fill: #262626" transform="translate(254.134439 577.744825) scale(0.1 -0.1)">
       <defs>
        <path id="MicrosoftYaHei-35" d="M 3294 1494 
Q 3294 784 2823 350 
Q 2353 -84 1559 -84 
Q 878 -84 544 119 
L 544 744 
Q 1034 425 1544 425 
Q 2050 425 2361 704 
Q 2672 984 2672 1447 
Q 2672 1909 2348 2167 
Q 2025 2425 1434 2425 
Q 978 2425 613 2384 
L 791 4841 
L 3053 4841 
L 3053 4303 
L 1306 4303 
L 1206 2931 
L 1647 2950 
Q 2416 2950 2855 2567 
Q 3294 2184 3294 1494 
z
" transform="scale(0.015625)"/>
       </defs>
       <use xlink:href="#MicrosoftYaHei-30"/>
       <use xlink:href="#MicrosoftYaHei-2e" x="58.642578"/>
       <use xlink:href="#MicrosoftYaHei-35" x="82.714844"/>
      </g>
     </g>
    </g>
    <g id="xtick_3">
     <g id="line2d_3">
      <path d="M 380.120441 560.251075 
L 380.120441 23.591875 
" clip-path="url(#pbb40510019)" style="fill: none; stroke-dasharray: 3.7,1.6; stroke-dashoffset: 0; stroke: #cccccc; stroke-opacity: 0.2"/>
     </g>
     <g id="text_3">
      <!-- 0.6 -->
      <g style="fill: #262626" transform="translate(373.052472 577.744825) scale(0.1 -0.1)">
       <defs>
        <path id="MicrosoftYaHei-36" d="M 3181 4219 
Q 2803 4413 2391 4413 
Q 1763 4413 1381 3866 
Q 1000 3319 994 2372 
L 1009 2372 
Q 1353 3038 2106 3038 
Q 2734 3038 3109 2628 
Q 3484 2219 3484 1541 
Q 3484 831 3051 375 
Q 2619 -81 1947 -81 
Q 1209 -81 789 495 
Q 369 1072 369 2131 
Q 369 3413 920 4167 
Q 1472 4922 2372 4922 
Q 2888 4922 3181 4781 
L 3181 4219 
z
M 1031 1584 
Q 1031 1106 1286 765 
Q 1541 425 1963 425 
Q 2363 425 2613 719 
Q 2863 1013 2863 1475 
Q 2863 1975 2627 2253 
Q 2391 2531 1956 2531 
Q 1544 2531 1287 2250 
Q 1031 1969 1031 1584 
z
" transform="scale(0.015625)"/>
       </defs>
       <use xlink:href="#MicrosoftYaHei-30"/>
       <use xlink:href="#MicrosoftYaHei-2e" x="58.642578"/>
       <use xlink:href="#MicrosoftYaHei-36" x="82.714844"/>
      </g>
     </g>
    </g>
    <g id="xtick_4">
     <g id="line2d_4">
      <path d="M 499.038473 560.251075 
L 499.038473 23.591875 
" clip-path="url(#pbb40510019)" style="fill: none; stroke-dasharray: 3.7,1.6; stroke-dashoffset: 0; stroke: #cccccc; stroke-opacity: 0.2"/>
     </g>
     <g id="text_4">
      <!-- 0.7 -->
      <g style="fill: #262626" transform="translate(491.970505 577.744825) scale(0.1 -0.1)">
       <defs>
        <path id="MicrosoftYaHei-37" d="M 3422 4463 
Q 2659 3131 2223 1998 
Q 1788 866 1684 0 
L 1047 0 
Q 1163 853 1594 1947 
Q 2025 3041 2747 4300 
L 347 4300 
L 347 4841 
L 3422 4841 
L 3422 4463 
z
" transform="scale(0.015625)"/>
       </defs>
       <use xlink:href="#MicrosoftYaHei-30"/>
       <use xlink:href="#MicrosoftYaHei-2e" x="58.642578"/>
       <use xlink:href="#MicrosoftYaHei-37" x="82.714844"/>
      </g>
     </g>
    </g>
    <g id="xtick_5">
     <g id="line2d_5">
      <path d="M 617.956506 560.251075 
L 617.956506 23.591875 
" clip-path="url(#pbb40510019)" style="fill: none; stroke-dasharray: 3.7,1.6; stroke-dashoffset: 0; stroke: #cccccc; stroke-opacity: 0.2"/>
     </g>
     <g id="text_5">
      <!-- 0.8 -->
      <g style="fill: #262626" transform="translate(610.888537 577.744825) scale(0.1 -0.1)">
       <defs>
        <path id="MicrosoftYaHei-38" d="M 306 1350 
Q 306 1769 556 2122 
Q 806 2475 1200 2625 
Q 884 2803 700 3081 
Q 516 3359 516 3684 
Q 516 4028 692 4312 
Q 869 4597 1183 4759 
Q 1497 4922 1875 4922 
Q 2256 4922 2572 4761 
Q 2888 4600 3063 4315 
Q 3238 4031 3238 3684 
Q 3238 3366 3058 3086 
Q 2878 2806 2559 2625 
Q 2953 2472 3200 2119 
Q 3447 1766 3447 1350 
Q 3447 938 3250 611 
Q 3053 284 2690 103 
Q 2328 -78 1875 -78 
Q 1425 -78 1065 103 
Q 706 284 506 612 
Q 306 941 306 1350 
z
M 906 1378 
Q 906 947 1172 687 
Q 1438 428 1878 428 
Q 2309 428 2582 692 
Q 2856 956 2856 1378 
Q 2856 1778 2579 2051 
Q 2303 2325 1878 2325 
Q 1456 2325 1181 2058 
Q 906 1791 906 1378 
z
M 1081 3634 
Q 1081 3309 1312 3076 
Q 1544 2844 1878 2844 
Q 2206 2844 2445 3078 
Q 2684 3313 2684 3634 
Q 2684 3963 2454 4191 
Q 2225 4419 1878 4419 
Q 1534 4419 1307 4195 
Q 1081 3972 1081 3634 
z
" transform="scale(0.015625)"/>
       </defs>
       <use xlink:href="#MicrosoftYaHei-30"/>
       <use xlink:href="#MicrosoftYaHei-2e" x="58.642578"/>
       <use xlink:href="#MicrosoftYaHei-38" x="82.714844"/>
      </g>
     </g>
    </g>
    <g id="xtick_6">
     <g id="line2d_6">
      <path d="M 736.874539 560.251075 
L 736.874539 23.591875 
" clip-path="url(#pbb40510019)" style="fill: none; stroke-dasharray: 3.7,1.6; stroke-dashoffset: 0; stroke: #cccccc; stroke-opacity: 0.2"/>
     </g>
     <g id="text_6">
      <!-- 0.9 -->
      <g style="fill: #262626" transform="translate(729.80657 577.744825) scale(0.1 -0.1)">
       <defs>
        <path id="MicrosoftYaHei-39" d="M 578 656 
Q 978 425 1441 425 
Q 2091 425 2448 937 
Q 2806 1450 2806 2394 
Q 2800 2388 2794 2394 
Q 2475 1788 1722 1788 
Q 1113 1788 713 2206 
Q 313 2625 313 3294 
Q 313 4006 750 4464 
Q 1188 4922 1884 4922 
Q 2606 4922 3012 4355 
Q 3419 3788 3419 2703 
Q 3419 1363 2894 641 
Q 2369 -81 1441 -81 
Q 931 -81 578 84 
L 578 656 
z
M 931 3372 
Q 931 2884 1181 2598 
Q 1431 2313 1872 2313 
Q 2253 2313 2512 2573 
Q 2772 2834 2772 3206 
Q 2772 3728 2514 4070 
Q 2256 4413 1834 4413 
Q 1444 4413 1187 4116 
Q 931 3819 931 3372 
z
" transform="scale(0.015625)"/>
       </defs>
       <use xlink:href="#MicrosoftYaHei-30"/>
       <use xlink:href="#MicrosoftYaHei-2e" x="58.642578"/>
       <use xlink:href="#MicrosoftYaHei-39" x="82.714844"/>
      </g>
     </g>
    </g>
    <g id="xtick_7">
     <g id="line2d_7">
      <path d="M 855.792572 560.251075 
L 855.792572 23.591875 
" clip-path="url(#pbb40510019)" style="fill: none; stroke-dasharray: 3.7,1.6; stroke-dashoffset: 0; stroke: #cccccc; stroke-opacity: 0.2"/>
     </g>
     <g id="text_7">
      <!-- 1.0 -->
      <g style="fill: #262626" transform="translate(848.724603 577.744825) scale(0.1 -0.1)">
       <defs>
        <path id="MicrosoftYaHei-31" d="M 1781 0 
L 1781 4141 
Q 1638 3997 1295 3819 
Q 953 3641 663 3569 
L 663 4169 
Q 1047 4275 1484 4508 
Q 1922 4741 2156 4947 
L 2388 4947 
L 2388 0 
L 1781 0 
z
" transform="scale(0.015625)"/>
       </defs>
       <use xlink:href="#MicrosoftYaHei-31"/>
       <use xlink:href="#MicrosoftYaHei-2e" x="58.642578"/>
       <use xlink:href="#MicrosoftYaHei-30" x="82.714844"/>
      </g>
     </g>
    </g>
    <g id="text_8">
     <!-- Test AUC -->
     <g style="fill: #262626" transform="translate(480.249844 593.023888) scale(0.11 -0.11)">
      <defs>
       <path id="MicrosoftYaHei-Bold-54" d="M 3900 3997 
L 2519 3997 
L 2519 0 
L 1484 0 
L 1484 3997 
L 106 3997 
L 106 4841 
L 3900 4841 
L 3900 3997 
z
" transform="scale(0.015625)"/>
       <path id="MicrosoftYaHei-Bold-65" d="M 3528 1444 
L 1253 1444 
Q 1306 641 2222 641 
Q 2794 641 3231 922 
L 3231 181 
Q 2759 -84 1994 -84 
Q 1169 -84 711 381 
Q 253 847 253 1678 
Q 253 2506 740 3023 
Q 1228 3541 1966 3541 
Q 2700 3541 3114 3095 
Q 3528 2650 3528 1872 
L 3528 1444 
z
M 2588 2075 
Q 2588 2850 1959 2850 
Q 1700 2850 1500 2637 
Q 1300 2425 1250 2075 
L 2588 2075 
z
" transform="scale(0.015625)"/>
       <path id="MicrosoftYaHei-Bold-73" d="M 369 928 
Q 888 613 1384 613 
Q 2009 613 2009 947 
Q 2009 1184 1494 1344 
Q 850 1544 609 1789 
Q 369 2034 369 2453 
Q 369 2963 781 3252 
Q 1194 3541 1863 3541 
Q 2338 3541 2778 3400 
L 2778 2606 
Q 2375 2844 1891 2844 
Q 1650 2844 1503 2758 
Q 1356 2672 1356 2531 
Q 1356 2294 1794 2147 
Q 2263 1991 2498 1862 
Q 2734 1734 2857 1525 
Q 2981 1316 2981 1041 
Q 2981 506 2553 211 
Q 2125 -84 1409 -84 
Q 847 -84 369 94 
L 369 928 
z
" transform="scale(0.015625)"/>
       <path id="MicrosoftYaHei-Bold-74" d="M 2494 41 
Q 2266 -84 1803 -84 
Q 703 -84 703 1072 
L 703 2703 
L 134 2703 
L 134 3456 
L 703 3456 
L 703 4216 
L 1706 4503 
L 1706 3456 
L 2494 3456 
L 2494 2703 
L 1706 2703 
L 1706 1247 
Q 1706 694 2144 694 
Q 2313 694 2494 794 
L 2494 41 
z
" transform="scale(0.015625)"/>
       <path id="MicrosoftYaHei-Bold-20" transform="scale(0.015625)"/>
       <path id="MicrosoftYaHei-Bold-41" d="M 4759 0 
L 3634 0 
L 3272 1109 
L 1513 1109 
L 1156 0 
L 38 0 
L 1809 4841 
L 3022 4841 
L 4759 0 
z
M 3028 1906 
L 2478 3584 
Q 2425 3744 2403 4006 
L 2375 4006 
Q 2356 3794 2291 3597 
L 1738 1906 
L 3028 1906 
z
" transform="scale(0.015625)"/>
       <path id="MicrosoftYaHei-Bold-55" d="M 4466 2081 
Q 4466 -84 2453 -84 
Q 509 -84 509 2025 
L 509 4841 
L 1544 4841 
L 1544 2019 
Q 1544 809 2497 809 
Q 3434 809 3434 1975 
L 3434 4841 
L 4466 4841 
L 4466 2081 
z
" transform="scale(0.015625)"/>
       <path id="MicrosoftYaHei-Bold-43" d="M 4013 175 
Q 3484 -84 2634 -84 
Q 1541 -84 898 570 
Q 256 1225 256 2316 
Q 256 3463 973 4192 
Q 1691 4922 2825 4922 
Q 3534 4922 4013 4738 
L 4013 3741 
Q 3522 4028 2900 4028 
Q 2191 4028 1766 3575 
Q 1341 3122 1341 2391 
Q 1341 1678 1744 1243 
Q 2147 809 2834 809 
Q 3481 809 4013 1122 
L 4013 175 
z
" transform="scale(0.015625)"/>
      </defs>
      <use xlink:href="#MicrosoftYaHei-Bold-54"/>
      <use xlink:href="#MicrosoftYaHei-Bold-65" x="52.673828"/>
      <use xlink:href="#MicrosoftYaHei-Bold-73" x="110.876953"/>
      <use xlink:href="#MicrosoftYaHei-Bold-74" x="160.242188"/>
      <use xlink:href="#MicrosoftYaHei-Bold-20" x="201.648438"/>
      <use xlink:href="#MicrosoftYaHei-Bold-41" x="231.433594"/>
      <use xlink:href="#MicrosoftYaHei-Bold-55" x="304.753906"/>
      <use xlink:href="#MicrosoftYaHei-Bold-43" x="382.390625"/>
     </g>
    </g>
   </g>
   <g id="matplotlib.axis_2">
    <g id="ytick_1">
     <g id="text_9">
      <!-- SVM -->
      <g style="fill: #262626" transform="translate(110.479688 56.765409) scale(0.1 -0.1)">
       <defs>
        <path id="MicrosoftYaHei-53" d="M 400 909 
Q 622 716 994 591 
Q 1366 466 1700 466 
Q 2719 466 2719 1191 
Q 2719 1394 2609 1556 
Q 2500 1719 2309 1844 
Q 2119 1969 1594 2228 
Q 866 2591 634 2902 
Q 403 3213 403 3613 
Q 403 4216 887 4569 
Q 1372 4922 2109 4922 
Q 2831 4922 3169 4747 
L 3169 4066 
Q 2731 4369 2063 4369 
Q 1619 4369 1339 4183 
Q 1059 3997 1059 3666 
Q 1059 3372 1253 3187 
Q 1447 3003 2094 2684 
Q 2806 2344 3090 2003 
Q 3375 1663 3375 1238 
Q 3375 600 2912 259 
Q 2450 -81 1628 -81 
Q 1341 -81 958 -1 
Q 575 78 400 197 
L 400 909 
z
" transform="scale(0.015625)"/>
        <path id="MicrosoftYaHei-56" d="M 4272 4841 
L 2494 0 
L 1800 0 
L 56 4841 
L 750 4841 
L 2053 1056 
Q 2119 869 2150 622 
L 2166 622 
Q 2191 838 2275 1063 
L 3603 4841 
L 4272 4841 
z
" transform="scale(0.015625)"/>
        <path id="MicrosoftYaHei-4d" d="M 5003 0 
L 5003 3206 
Q 5003 3603 5050 4159 
L 5034 4159 
Q 4953 3809 4891 3672 
L 3294 0 
L 2947 0 
L 1353 3644 
Q 1297 3769 1209 4159 
L 1191 4159 
Q 1222 3822 1222 3178 
L 1222 0 
L 625 0 
L 625 4841 
L 1472 4841 
L 2900 1522 
Q 3063 1141 3116 928 
L 3138 928 
Q 3300 1375 3366 1534 
L 4819 4841 
L 5625 4841 
L 5625 0 
L 5003 0 
z
" transform="scale(0.015625)"/>
       </defs>
       <use xlink:href="#MicrosoftYaHei-53"/>
       <use xlink:href="#MicrosoftYaHei-56" x="57.714844"/>
       <use xlink:href="#MicrosoftYaHei-4d" x="125.341797"/>
      </g>
     </g>
    </g>
    <g id="ytick_2">
     <g id="text_10">
      <!-- Random Forest Optimized -->
      <g style="fill: #262626" transform="translate(7.2 88.652468) scale(0.1 -0.1)">
       <defs>
        <path id="MicrosoftYaHei-52" d="M 4159 0 
L 3422 0 
L 2619 1344 
Q 2378 1747 2178 1892 
Q 1978 2038 1700 2038 
L 1250 2038 
L 1250 0 
L 625 0 
L 625 4841 
L 2100 4841 
Q 2806 4841 3206 4500 
Q 3606 4159 3606 3547 
Q 3606 2541 2531 2241 
L 2531 2225 
Q 2731 2141 2876 1984 
Q 3022 1828 3253 1450 
L 4159 0 
z
M 1250 4294 
L 1250 2584 
L 1988 2584 
Q 2416 2584 2683 2834 
Q 2950 3084 2950 3491 
Q 2950 3869 2706 4081 
Q 2463 4294 1997 4294 
L 1250 4294 
z
" transform="scale(0.015625)"/>
        <path id="MicrosoftYaHei-61" d="M 628 3216 
Q 1144 3538 1819 3538 
Q 3069 3538 3069 2225 
L 3069 0 
L 2463 0 
L 2463 534 
L 2447 534 
Q 2088 -81 1388 -81 
Q 884 -81 587 191 
Q 291 463 291 925 
Q 291 1894 1438 2053 
L 2463 2197 
Q 2463 3044 1763 3044 
Q 1141 3044 628 2625 
L 628 3216 
z
M 1653 1625 
Q 1228 1569 1067 1412 
Q 906 1256 906 975 
Q 906 728 1081 572 
Q 1256 416 1544 416 
Q 1944 416 2203 697 
Q 2463 978 2463 1403 
L 2463 1734 
L 1653 1625 
z
" transform="scale(0.015625)"/>
        <path id="MicrosoftYaHei-6e" d="M 3469 0 
L 2859 0 
L 2859 1966 
Q 2859 3031 2081 3031 
Q 1678 3031 1418 2731 
Q 1159 2431 1159 1972 
L 1159 0 
L 547 0 
L 547 3456 
L 1159 3456 
L 1159 2884 
L 1172 2884 
Q 1563 3538 2306 3538 
Q 2875 3538 3172 3173 
Q 3469 2809 3469 2113 
L 3469 0 
z
" transform="scale(0.015625)"/>
        <path id="MicrosoftYaHei-64" d="M 3547 0 
L 2934 0 
L 2934 575 
L 2922 575 
Q 2544 -81 1747 -81 
Q 1091 -81 703 386 
Q 316 853 316 1647 
Q 316 2503 753 3020 
Q 1191 3538 1897 3538 
Q 2603 3538 2922 2988 
L 2934 2988 
L 2934 5116 
L 3547 5116 
L 3547 0 
z
M 2938 2056 
Q 2938 2472 2664 2751 
Q 2391 3031 1991 3031 
Q 1503 3031 1222 2667 
Q 941 2303 941 1675 
Q 941 1097 1211 761 
Q 1481 425 1931 425 
Q 2375 425 2656 754 
Q 2938 1084 2938 1575 
L 2938 2056 
z
" transform="scale(0.015625)"/>
        <path id="MicrosoftYaHei-6f" d="M 316 1691 
Q 316 2547 794 3042 
Q 1272 3538 2091 3538 
Q 2869 3538 3311 3061 
Q 3753 2584 3753 1744 
Q 3753 925 3281 422 
Q 2809 -81 2016 -81 
Q 1241 -81 778 406 
Q 316 894 316 1691 
z
M 941 1709 
Q 941 1113 1242 769 
Q 1544 425 2053 425 
Q 2578 425 2853 761 
Q 3128 1097 3128 1725 
Q 3128 2356 2853 2693 
Q 2578 3031 2053 3031 
Q 1538 3031 1239 2678 
Q 941 2325 941 1709 
z
" transform="scale(0.015625)"/>
        <path id="MicrosoftYaHei-6d" d="M 5522 0 
L 4909 0 
L 4909 1984 
Q 4909 2547 4734 2789 
Q 4559 3031 4159 3031 
Q 3822 3031 3581 2715 
Q 3341 2400 3341 1969 
L 3341 0 
L 2728 0 
L 2728 2047 
Q 2728 3031 1969 3031 
Q 1619 3031 1389 2731 
Q 1159 2431 1159 1966 
L 1159 0 
L 547 0 
L 547 3456 
L 1159 3456 
L 1159 2909 
L 1172 2909 
Q 1541 3538 2250 3538 
Q 2597 3538 2862 3347 
Q 3128 3156 3231 2831 
Q 3616 3538 4381 3538 
Q 5522 3538 5522 2131 
L 5522 0 
z
" transform="scale(0.015625)"/>
        <path id="MicrosoftYaHei-20" transform="scale(0.015625)"/>
        <path id="MicrosoftYaHei-46" d="M 3119 4284 
L 1250 4284 
L 1250 2666 
L 2981 2666 
L 2981 2116 
L 1250 2116 
L 1250 0 
L 625 0 
L 625 4841 
L 3119 4841 
L 3119 4284 
z
" transform="scale(0.015625)"/>
        <path id="MicrosoftYaHei-72" d="M 2400 2850 
Q 2247 2959 1978 2959 
Q 1622 2959 1390 2626 
Q 1159 2294 1159 1750 
L 1159 0 
L 547 0 
L 547 3456 
L 1159 3456 
L 1159 2753 
L 1172 2753 
Q 1434 3516 2078 3516 
Q 2288 3516 2400 3469 
L 2400 2850 
z
" transform="scale(0.015625)"/>
        <path id="MicrosoftYaHei-65" d="M 3363 1572 
L 944 1572 
Q 959 1019 1246 717 
Q 1534 416 2050 416 
Q 2631 416 3116 788 
L 3116 241 
Q 2659 -81 1906 -81 
Q 1156 -81 736 394 
Q 316 869 316 1713 
Q 316 2506 777 3022 
Q 1238 3538 1922 3538 
Q 2600 3538 2981 3102 
Q 3363 2666 3363 1881 
L 3363 1572 
z
M 2750 2063 
Q 2747 2531 2528 2787 
Q 2309 3044 1913 3044 
Q 1547 3044 1280 2772 
Q 1013 2500 944 2063 
L 2750 2063 
z
" transform="scale(0.015625)"/>
        <path id="MicrosoftYaHei-73" d="M 353 747 
Q 816 413 1350 413 
Q 2066 413 2066 881 
Q 2066 1081 1909 1211 
Q 1753 1341 1275 1519 
Q 700 1750 528 1976 
Q 356 2203 356 2525 
Q 356 2984 745 3261 
Q 1134 3538 1703 3538 
Q 2144 3538 2522 3384 
L 2522 2794 
Q 2134 3044 1644 3044 
Q 1350 3044 1165 2916 
Q 981 2788 981 2578 
Q 981 2372 1114 2256 
Q 1247 2141 1703 1959 
Q 2281 1744 2484 1512 
Q 2688 1281 2688 941 
Q 2688 466 2298 192 
Q 1909 -81 1291 -81 
Q 753 -81 353 122 
L 353 747 
z
" transform="scale(0.015625)"/>
        <path id="MicrosoftYaHei-74" d="M 2206 34 
Q 2006 -75 1666 -75 
Q 738 -75 738 953 
L 738 2950 
L 144 2950 
L 144 3456 
L 738 3456 
L 738 4288 
L 1347 4481 
L 1347 3456 
L 2206 3456 
L 2206 2950 
L 1347 2950 
L 1347 1063 
Q 1347 722 1462 575 
Q 1578 428 1847 428 
Q 2053 428 2206 544 
L 2206 34 
z
" transform="scale(0.015625)"/>
        <path id="MicrosoftYaHei-4f" d="M 313 2363 
Q 313 3534 947 4228 
Q 1581 4922 2666 4922 
Q 3675 4922 4290 4244 
Q 4906 3566 4906 2478 
Q 4906 1300 4275 609 
Q 3644 -81 2588 -81 
Q 1556 -81 934 597 
Q 313 1275 313 2363 
z
M 969 2413 
Q 969 1534 1417 1004 
Q 1866 475 2588 475 
Q 3363 475 3805 983 
Q 4247 1491 4247 2403 
Q 4247 3341 3814 3850 
Q 3381 4359 2628 4359 
Q 1888 4359 1428 3821 
Q 969 3284 969 2413 
z
" transform="scale(0.015625)"/>
        <path id="MicrosoftYaHei-70" d="M 1159 488 
L 1159 -1591 
L 547 -1591 
L 547 3456 
L 1159 3456 
L 1159 2859 
L 1172 2859 
Q 1578 3538 2359 3538 
Q 3022 3538 3398 3073 
Q 3775 2609 3775 1828 
Q 3775 966 3348 442 
Q 2922 -81 2200 -81 
Q 1534 -81 1172 488 
L 1159 488 
z
M 1156 1425 
Q 1156 1003 1428 714 
Q 1700 425 2109 425 
Q 2597 425 2872 800 
Q 3147 1175 3147 1838 
Q 3147 2397 2890 2714 
Q 2634 3031 2191 3031 
Q 1738 3031 1447 2709 
Q 1156 2388 1156 1884 
L 1156 1425 
z
" transform="scale(0.015625)"/>
        <path id="MicrosoftYaHei-69" d="M 472 4675 
Q 472 4838 583 4948 
Q 694 5059 856 5059 
Q 1022 5059 1136 4950 
Q 1250 4841 1250 4675 
Q 1250 4513 1136 4405 
Q 1022 4297 856 4297 
Q 691 4297 581 4405 
Q 472 4513 472 4675 
z
M 544 0 
L 544 3456 
L 1156 3456 
L 1156 0 
L 544 0 
z
" transform="scale(0.015625)"/>
        <path id="MicrosoftYaHei-7a" d="M 2978 0 
L 109 0 
L 109 203 
L 2119 2950 
L 297 2950 
L 297 3456 
L 2991 3456 
L 2991 3256 
L 994 506 
L 2978 506 
L 2978 0 
z
" transform="scale(0.015625)"/>
       </defs>
       <use xlink:href="#MicrosoftYaHei-52"/>
       <use xlink:href="#MicrosoftYaHei-61" x="65.283203"/>
       <use xlink:href="#MicrosoftYaHei-6e" x="120.556641"/>
       <use xlink:href="#MicrosoftYaHei-64" x="182.177734"/>
       <use xlink:href="#MicrosoftYaHei-6f" x="246.142578"/>
       <use xlink:href="#MicrosoftYaHei-6d" x="309.716797"/>
       <use xlink:href="#MicrosoftYaHei-20" x="403.417969"/>
       <use xlink:href="#MicrosoftYaHei-46" x="433.007812"/>
       <use xlink:href="#MicrosoftYaHei-6f" x="486.132812"/>
       <use xlink:href="#MicrosoftYaHei-72" x="549.707031"/>
       <use xlink:href="#MicrosoftYaHei-65" x="586.515625"/>
       <use xlink:href="#MicrosoftYaHei-73" x="643.253906"/>
       <use xlink:href="#MicrosoftYaHei-74" x="689.542969"/>
       <use xlink:href="#MicrosoftYaHei-20" x="726.798828"/>
       <use xlink:href="#MicrosoftYaHei-4f" x="756.388672"/>
       <use xlink:href="#MicrosoftYaHei-70" x="837.882812"/>
       <use xlink:href="#MicrosoftYaHei-74" x="901.75"/>
       <use xlink:href="#MicrosoftYaHei-69" x="939.005859"/>
       <use xlink:href="#MicrosoftYaHei-6d" x="965.617188"/>
       <use xlink:href="#MicrosoftYaHei-69" x="1059.318359"/>
       <use xlink:href="#MicrosoftYaHei-7a" x="1085.929688"/>
       <use xlink:href="#MicrosoftYaHei-65" x="1135.099609"/>
       <use xlink:href="#MicrosoftYaHei-64" x="1191.837891"/>
      </g>
     </g>
    </g>
    <g id="ytick_3">
     <g id="text_11">
      <!-- Random Forest -->
      <g style="fill: #262626" transform="translate(60.101563 120.539526) scale(0.1 -0.1)">
       <use xlink:href="#MicrosoftYaHei-52"/>
       <use xlink:href="#MicrosoftYaHei-61" x="65.283203"/>
       <use xlink:href="#MicrosoftYaHei-6e" x="120.556641"/>
       <use xlink:href="#MicrosoftYaHei-64" x="182.177734"/>
       <use xlink:href="#MicrosoftYaHei-6f" x="246.142578"/>
       <use xlink:href="#MicrosoftYaHei-6d" x="309.716797"/>
       <use xlink:href="#MicrosoftYaHei-20" x="403.417969"/>
       <use xlink:href="#MicrosoftYaHei-46" x="433.007812"/>
       <use xlink:href="#MicrosoftYaHei-6f" x="486.132812"/>
       <use xlink:href="#MicrosoftYaHei-72" x="549.707031"/>
       <use xlink:href="#MicrosoftYaHei-65" x="586.515625"/>
       <use xlink:href="#MicrosoftYaHei-73" x="643.253906"/>
       <use xlink:href="#MicrosoftYaHei-74" x="689.542969"/>
      </g>
     </g>
    </g>
    <g id="ytick_4">
     <g id="text_12">
      <!-- Voting Soft -->
      <g style="fill: #262626" transform="translate(79.1125 152.485179) scale(0.1 -0.1)">
       <defs>
        <path id="MicrosoftYaHei-67" d="M 3547 291 
Q 3547 -1628 1684 -1628 
Q 1041 -1628 566 -1388 
L 566 -797 
Q 1144 -1119 1675 -1119 
Q 2934 -1119 2934 206 
L 2934 572 
L 2922 572 
Q 2528 -81 1747 -81 
Q 1097 -81 706 384 
Q 316 850 316 1619 
Q 316 2503 747 3020 
Q 1178 3538 1897 3538 
Q 2588 3538 2922 2988 
L 2934 2988 
L 2934 3456 
L 3547 3456 
L 3547 291 
z
M 2934 2056 
Q 2938 2456 2666 2743 
Q 2394 3031 1997 3031 
Q 1497 3031 1219 2664 
Q 941 2297 941 1656 
Q 941 1106 1209 765 
Q 1478 425 1922 425 
Q 2369 425 2653 750 
Q 2938 1075 2934 1575 
L 2934 2056 
z
" transform="scale(0.015625)"/>
        <path id="MicrosoftYaHei-66" d="M 2319 4594 
Q 2147 4684 1947 4684 
Q 1372 4684 1372 3972 
L 1372 3456 
L 2181 3456 
L 2181 2950 
L 1372 2950 
L 1372 0 
L 766 0 
L 766 2950 
L 175 2950 
L 175 3456 
L 766 3456 
L 766 4000 
Q 766 4556 1086 4873 
Q 1406 5191 1900 5191 
Q 2163 5191 2319 5131 
L 2319 4594 
z
" transform="scale(0.015625)"/>
       </defs>
       <use xlink:href="#MicrosoftYaHei-56"/>
       <use xlink:href="#MicrosoftYaHei-6f" x="60.876953"/>
       <use xlink:href="#MicrosoftYaHei-74" x="124.451172"/>
       <use xlink:href="#MicrosoftYaHei-69" x="161.707031"/>
       <use xlink:href="#MicrosoftYaHei-6e" x="188.318359"/>
       <use xlink:href="#MicrosoftYaHei-67" x="249.939453"/>
       <use xlink:href="#MicrosoftYaHei-20" x="313.904297"/>
       <use xlink:href="#MicrosoftYaHei-53" x="343.494141"/>
       <use xlink:href="#MicrosoftYaHei-6f" x="401.208984"/>
       <use xlink:href="#MicrosoftYaHei-66" x="462.783203"/>
       <use xlink:href="#MicrosoftYaHei-74" x="499.451172"/>
      </g>
     </g>
    </g>
    <g id="ytick_5">
     <g id="text_13">
      <!-- XGBoost Optimized -->
      <g style="fill: #262626" transform="translate(38.776563 184.313644) scale(0.1 -0.1)">
       <defs>
        <path id="MicrosoftYaHei-58" d="M 4034 0 
L 3275 0 
L 2194 1822 
Q 2156 1884 2084 2072 
L 2069 2072 
Q 2063 2047 1956 1819 
L 844 0 
L 81 0 
L 1691 2431 
L 209 4841 
L 975 4841 
L 1931 3166 
Q 2016 3019 2100 2822 
L 2113 2822 
Q 2188 2991 2297 3181 
L 3297 4841 
L 4013 4841 
L 2500 2441 
L 4034 0 
z
" transform="scale(0.015625)"/>
        <path id="MicrosoftYaHei-47" d="M 4284 331 
Q 3559 -81 2647 -81 
Q 1597 -81 955 583 
Q 313 1247 313 2356 
Q 313 3478 1022 4200 
Q 1731 4922 2841 4922 
Q 3625 4922 4169 4672 
L 4169 3997 
Q 3588 4363 2784 4363 
Q 1994 4363 1481 3822 
Q 969 3281 969 2397 
Q 969 1488 1441 981 
Q 1913 475 2716 475 
Q 3269 475 3656 688 
L 3656 1997 
L 2606 1997 
L 2606 2550 
L 4284 2550 
L 4284 331 
z
" transform="scale(0.015625)"/>
        <path id="MicrosoftYaHei-42" d="M 625 0 
L 625 4841 
L 2047 4841 
Q 2684 4841 3065 4536 
Q 3447 4231 3447 3728 
Q 3447 3328 3220 3022 
Q 2994 2716 2597 2588 
L 2597 2575 
Q 3091 2519 3386 2201 
Q 3681 1884 3681 1397 
Q 3681 772 3232 386 
Q 2784 0 2084 0 
L 625 0 
z
M 1250 4294 
L 1250 2778 
L 1819 2778 
Q 2272 2778 2530 2998 
Q 2788 3219 2788 3609 
Q 2788 4294 1875 4294 
L 1250 4294 
z
M 1250 2234 
L 1250 547 
L 2000 547 
Q 2491 547 2758 773 
Q 3025 1000 3025 1403 
Q 3025 2234 1897 2234 
L 1250 2234 
z
" transform="scale(0.015625)"/>
       </defs>
       <use xlink:href="#MicrosoftYaHei-58"/>
       <use xlink:href="#MicrosoftYaHei-47" x="63.251953"/>
       <use xlink:href="#MicrosoftYaHei-42" x="137.617188"/>
       <use xlink:href="#MicrosoftYaHei-6f" x="200.361328"/>
       <use xlink:href="#MicrosoftYaHei-6f" x="263.935547"/>
       <use xlink:href="#MicrosoftYaHei-73" x="327.509766"/>
       <use xlink:href="#MicrosoftYaHei-74" x="373.798828"/>
       <use xlink:href="#MicrosoftYaHei-20" x="411.054688"/>
       <use xlink:href="#MicrosoftYaHei-4f" x="440.644531"/>
       <use xlink:href="#MicrosoftYaHei-70" x="522.138672"/>
       <use xlink:href="#MicrosoftYaHei-74" x="586.005859"/>
       <use xlink:href="#MicrosoftYaHei-69" x="623.261719"/>
       <use xlink:href="#MicrosoftYaHei-6d" x="649.873047"/>
       <use xlink:href="#MicrosoftYaHei-69" x="743.574219"/>
       <use xlink:href="#MicrosoftYaHei-7a" x="770.185547"/>
       <use xlink:href="#MicrosoftYaHei-65" x="819.355469"/>
       <use xlink:href="#MicrosoftYaHei-64" x="876.09375"/>
      </g>
     </g>
    </g>
    <g id="ytick_6">
     <g id="text_14">
      <!-- XGBoost -->
      <g style="fill: #262626" transform="translate(91.678125 216.200703) scale(0.1 -0.1)">
       <use xlink:href="#MicrosoftYaHei-58"/>
       <use xlink:href="#MicrosoftYaHei-47" x="63.251953"/>
       <use xlink:href="#MicrosoftYaHei-42" x="137.617188"/>
       <use xlink:href="#MicrosoftYaHei-6f" x="200.361328"/>
       <use xlink:href="#MicrosoftYaHei-6f" x="263.935547"/>
       <use xlink:href="#MicrosoftYaHei-73" x="327.509766"/>
       <use xlink:href="#MicrosoftYaHei-74" x="373.798828"/>
      </g>
     </g>
    </g>
    <g id="ytick_7">
     <g id="text_15">
      <!-- LightGBM Optimized -->
      <g style="fill: #262626" transform="translate(32.329688 248.087762) scale(0.1 -0.1)">
       <defs>
        <path id="MicrosoftYaHei-4c" d="M 3178 0 
L 625 0 
L 625 4841 
L 1250 4841 
L 1250 553 
L 3178 553 
L 3178 0 
z
" transform="scale(0.015625)"/>
        <path id="MicrosoftYaHei-68" d="M 3466 0 
L 2856 0 
L 2856 1988 
Q 2856 3031 2081 3031 
Q 1684 3031 1421 2726 
Q 1159 2422 1159 1959 
L 1159 0 
L 547 0 
L 547 5116 
L 1159 5116 
L 1159 2888 
L 1172 2888 
Q 1569 3538 2300 3538 
Q 3466 3538 3466 2128 
L 3466 0 
z
" transform="scale(0.015625)"/>
       </defs>
       <use xlink:href="#MicrosoftYaHei-4c"/>
       <use xlink:href="#MicrosoftYaHei-69" x="51.318359"/>
       <use xlink:href="#MicrosoftYaHei-67" x="77.929688"/>
       <use xlink:href="#MicrosoftYaHei-68" x="141.894531"/>
       <use xlink:href="#MicrosoftYaHei-74" x="203.466797"/>
       <use xlink:href="#MicrosoftYaHei-47" x="240.722656"/>
       <use xlink:href="#MicrosoftYaHei-42" x="315.087891"/>
       <use xlink:href="#MicrosoftYaHei-4d" x="377.832031"/>
       <use xlink:href="#MicrosoftYaHei-20" x="475.537109"/>
       <use xlink:href="#MicrosoftYaHei-4f" x="505.126953"/>
       <use xlink:href="#MicrosoftYaHei-70" x="586.621094"/>
       <use xlink:href="#MicrosoftYaHei-74" x="650.488281"/>
       <use xlink:href="#MicrosoftYaHei-69" x="687.744141"/>
       <use xlink:href="#MicrosoftYaHei-6d" x="714.355469"/>
       <use xlink:href="#MicrosoftYaHei-69" x="808.056641"/>
       <use xlink:href="#MicrosoftYaHei-7a" x="834.667969"/>
       <use xlink:href="#MicrosoftYaHei-65" x="883.837891"/>
       <use xlink:href="#MicrosoftYaHei-64" x="940.576172"/>
      </g>
     </g>
    </g>
    <g id="ytick_8">
     <g id="text_16">
      <!-- Logistic Regression -->
      <g style="fill: #262626" transform="translate(41.154688 279.945914) scale(0.1 -0.1)">
       <defs>
        <path id="MicrosoftYaHei-63" d="M 2934 156 
Q 2538 -81 1978 -81 
Q 1228 -81 772 400 
Q 316 881 316 1647 
Q 316 2497 808 3017 
Q 1300 3538 2125 3538 
Q 2600 3538 2938 3369 
L 2938 2763 
Q 2572 3031 2125 3031 
Q 1600 3031 1270 2667 
Q 941 2303 941 1697 
Q 941 1100 1252 762 
Q 1563 425 2091 425 
Q 2538 425 2934 719 
L 2934 156 
z
" transform="scale(0.015625)"/>
       </defs>
       <use xlink:href="#MicrosoftYaHei-4c"/>
       <use xlink:href="#MicrosoftYaHei-6f" x="51.318359"/>
       <use xlink:href="#MicrosoftYaHei-67" x="114.892578"/>
       <use xlink:href="#MicrosoftYaHei-69" x="178.857422"/>
       <use xlink:href="#MicrosoftYaHei-73" x="205.46875"/>
       <use xlink:href="#MicrosoftYaHei-74" x="251.757812"/>
       <use xlink:href="#MicrosoftYaHei-69" x="289.013672"/>
       <use xlink:href="#MicrosoftYaHei-63" x="315.625"/>
       <use xlink:href="#MicrosoftYaHei-20" x="365.771484"/>
       <use xlink:href="#MicrosoftYaHei-52" x="395.361328"/>
       <use xlink:href="#MicrosoftYaHei-65" x="457.644531"/>
       <use xlink:href="#MicrosoftYaHei-67" x="514.382812"/>
       <use xlink:href="#MicrosoftYaHei-72" x="578.347656"/>
       <use xlink:href="#MicrosoftYaHei-65" x="615.15625"/>
       <use xlink:href="#MicrosoftYaHei-73" x="671.894531"/>
       <use xlink:href="#MicrosoftYaHei-73" x="718.183594"/>
       <use xlink:href="#MicrosoftYaHei-69" x="764.472656"/>
       <use xlink:href="#MicrosoftYaHei-6f" x="791.083984"/>
       <use xlink:href="#MicrosoftYaHei-6e" x="854.658203"/>
      </g>
     </g>
    </g>
    <g id="ytick_9">
     <g id="text_17">
      <!-- Stacking -->
      <g style="fill: #262626" transform="translate(92.43125 311.861879) scale(0.1 -0.1)">
       <defs>
        <path id="MicrosoftYaHei-6b" d="M 3484 0 
L 2650 0 
L 1172 1666 
L 1159 1666 
L 1159 0 
L 547 0 
L 547 5116 
L 1159 5116 
L 1159 1872 
L 1172 1872 
L 2575 3456 
L 3363 3456 
L 1800 1794 
L 3484 0 
z
" transform="scale(0.015625)"/>
       </defs>
       <use xlink:href="#MicrosoftYaHei-53"/>
       <use xlink:href="#MicrosoftYaHei-74" x="54.214844"/>
       <use xlink:href="#MicrosoftYaHei-61" x="91.470703"/>
       <use xlink:href="#MicrosoftYaHei-63" x="146.744141"/>
       <use xlink:href="#MicrosoftYaHei-6b" x="196.890625"/>
       <use xlink:href="#MicrosoftYaHei-69" x="251.333984"/>
       <use xlink:href="#MicrosoftYaHei-6e" x="277.945312"/>
       <use xlink:href="#MicrosoftYaHei-67" x="339.566406"/>
      </g>
     </g>
    </g>
    <g id="ytick_10">
     <g id="text_18">
      <!-- LightGBM -->
      <g style="fill: #262626" transform="translate(85.23125 343.748938) scale(0.1 -0.1)">
       <use xlink:href="#MicrosoftYaHei-4c"/>
       <use xlink:href="#MicrosoftYaHei-69" x="51.318359"/>
       <use xlink:href="#MicrosoftYaHei-67" x="77.929688"/>
       <use xlink:href="#MicrosoftYaHei-68" x="141.894531"/>
       <use xlink:href="#MicrosoftYaHei-74" x="203.466797"/>
       <use xlink:href="#MicrosoftYaHei-47" x="240.722656"/>
       <use xlink:href="#MicrosoftYaHei-42" x="315.087891"/>
       <use xlink:href="#MicrosoftYaHei-4d" x="377.832031"/>
      </g>
     </g>
    </g>
    <g id="ytick_11">
     <g id="text_19">
      <!-- AdaBoost -->
      <g style="fill: #262626" transform="translate(86.478125 375.635997) scale(0.1 -0.1)">
       <defs>
        <path id="MicrosoftYaHei-41" d="M 4428 0 
L 3738 0 
L 3244 1325 
L 1228 1325 
L 763 0 
L 72 0 
L 1916 4841 
L 2584 4841 
L 4428 0 
z
M 3050 1872 
L 2319 3884 
Q 2284 3981 2244 4222 
L 2228 4222 
Q 2194 4003 2150 3884 
L 1425 1872 
L 3050 1872 
z
" transform="scale(0.015625)"/>
       </defs>
       <use xlink:href="#MicrosoftYaHei-41"/>
       <use xlink:href="#MicrosoftYaHei-64" x="70.361328"/>
       <use xlink:href="#MicrosoftYaHei-61" x="134.326172"/>
       <use xlink:href="#MicrosoftYaHei-42" x="189.599609"/>
       <use xlink:href="#MicrosoftYaHei-6f" x="252.34375"/>
       <use xlink:href="#MicrosoftYaHei-6f" x="315.917969"/>
       <use xlink:href="#MicrosoftYaHei-73" x="379.492188"/>
       <use xlink:href="#MicrosoftYaHei-74" x="425.78125"/>
      </g>
     </g>
    </g>
    <g id="ytick_12">
     <g id="text_20">
      <!-- Extra Trees -->
      <g style="fill: #262626" transform="translate(81.732813 407.523056) scale(0.1 -0.1)">
       <defs>
        <path id="MicrosoftYaHei-45" d="M 3228 0 
L 625 0 
L 625 4841 
L 3119 4841 
L 3119 4284 
L 1250 4284 
L 1250 2734 
L 2981 2734 
L 2981 2181 
L 1250 2181 
L 1250 553 
L 3228 553 
L 3228 0 
z
" transform="scale(0.015625)"/>
        <path id="MicrosoftYaHei-78" d="M 3163 3456 
L 2006 1716 
L 3147 0 
L 2434 0 
L 1775 1100 
Q 1722 1188 1625 1369 
L 1613 1369 
Q 1609 1350 1456 1100 
L 784 0 
L 81 0 
L 1256 1697 
L 134 3456 
L 847 3456 
L 1494 2300 
Q 1553 2194 1638 2025 
L 1650 2025 
L 2491 3456 
L 3163 3456 
z
" transform="scale(0.015625)"/>
        <path id="MicrosoftYaHei-54" d="M 3550 4284 
L 2153 4284 
L 2153 0 
L 1525 0 
L 1525 4284 
L 134 4284 
L 134 4841 
L 3550 4841 
L 3550 4284 
z
" transform="scale(0.015625)"/>
       </defs>
       <use xlink:href="#MicrosoftYaHei-45"/>
       <use xlink:href="#MicrosoftYaHei-78" x="54.980469"/>
       <use xlink:href="#MicrosoftYaHei-74" x="105.664062"/>
       <use xlink:href="#MicrosoftYaHei-72" x="142.919922"/>
       <use xlink:href="#MicrosoftYaHei-61" x="181.103516"/>
       <use xlink:href="#MicrosoftYaHei-20" x="236.376953"/>
       <use xlink:href="#MicrosoftYaHei-54" x="265.966797"/>
       <use xlink:href="#MicrosoftYaHei-72" x="313.916016"/>
       <use xlink:href="#MicrosoftYaHei-65" x="350.724609"/>
       <use xlink:href="#MicrosoftYaHei-65" x="407.462891"/>
       <use xlink:href="#MicrosoftYaHei-73" x="464.201172"/>
      </g>
     </g>
    </g>
    <g id="ytick_13">
     <g id="text_21">
      <!-- Neural Network -->
      <g style="fill: #262626" transform="translate(56.832813 439.410115) scale(0.1 -0.1)">
       <defs>
        <path id="MicrosoftYaHei-4e" d="M 4578 0 
L 3838 0 
L 1403 3766 
Q 1300 3925 1238 4081 
L 1219 4081 
Q 1244 3919 1244 3403 
L 1244 0 
L 625 0 
L 625 4841 
L 1409 4841 
L 3778 1141 
Q 3947 878 3978 806 
L 3991 806 
Q 3959 1013 3959 1513 
L 3959 4841 
L 4578 4841 
L 4578 0 
z
" transform="scale(0.015625)"/>
        <path id="MicrosoftYaHei-75" d="M 3400 0 
L 2784 0 
L 2784 544 
L 2772 544 
Q 2425 -81 1706 -81 
Q 478 -81 478 1388 
L 478 3456 
L 1084 3456 
L 1084 1478 
Q 1084 425 1891 425 
Q 2291 425 2537 720 
Q 2784 1016 2784 1466 
L 2784 3456 
L 3400 3456 
L 3400 0 
z
" transform="scale(0.015625)"/>
        <path id="MicrosoftYaHei-6c" d="M 544 0 
L 544 5116 
L 1156 5116 
L 1156 0 
L 544 0 
z
" transform="scale(0.015625)"/>
        <path id="MicrosoftYaHei-77" d="M 4975 3456 
L 3944 0 
L 3306 0 
L 2619 2425 
Q 2575 2581 2563 2756 
L 2550 2756 
Q 2541 2625 2478 2431 
L 1734 0 
L 1116 0 
L 78 3456 
L 716 3456 
L 1406 894 
Q 1438 778 1453 578 
L 1478 578 
Q 1491 750 1538 903 
L 2281 3456 
L 2847 3456 
L 3572 891 
Q 3603 778 3622 572 
L 3650 572 
Q 3656 709 3706 891 
L 4381 3456 
L 4975 3456 
z
" transform="scale(0.015625)"/>
       </defs>
       <use xlink:href="#MicrosoftYaHei-4e"/>
       <use xlink:href="#MicrosoftYaHei-65" x="81.298828"/>
       <use xlink:href="#MicrosoftYaHei-75" x="138.037109"/>
       <use xlink:href="#MicrosoftYaHei-72" x="199.658203"/>
       <use xlink:href="#MicrosoftYaHei-61" x="237.841797"/>
       <use xlink:href="#MicrosoftYaHei-6c" x="293.115234"/>
       <use xlink:href="#MicrosoftYaHei-20" x="319.726562"/>
       <use xlink:href="#MicrosoftYaHei-4e" x="349.316406"/>
       <use xlink:href="#MicrosoftYaHei-65" x="430.615234"/>
       <use xlink:href="#MicrosoftYaHei-74" x="487.353516"/>
       <use xlink:href="#MicrosoftYaHei-77" x="524.609375"/>
       <use xlink:href="#MicrosoftYaHei-6f" x="603.314453"/>
       <use xlink:href="#MicrosoftYaHei-72" x="666.888672"/>
       <use xlink:href="#MicrosoftYaHei-6b" x="705.072266"/>
      </g>
     </g>
    </g>
    <g id="ytick_14">
     <g id="text_22">
      <!-- Naive Bayes -->
      <g style="fill: #262626" transform="translate(75.296875 471.268267) scale(0.1 -0.1)">
       <defs>
        <path id="MicrosoftYaHei-76" d="M 3331 3456 
L 1963 0 
L 1344 0 
L 44 3456 
L 713 3456 
L 1556 988 
Q 1659 691 1678 491 
L 1694 491 
Q 1725 753 1803 975 
L 2688 3456 
L 3331 3456 
z
" transform="scale(0.015625)"/>
        <path id="MicrosoftYaHei-79" d="M 3359 3456 
L 1791 -522 
Q 1353 -1628 556 -1628 
Q 328 -1628 166 -1578 
L 166 -1041 
Q 344 -1109 509 -1109 
Q 925 -1109 1131 -622 
L 1397 6 
L 41 3456 
L 719 3456 
L 1622 859 
L 1697 575 
L 1713 575 
Q 1731 672 1788 853 
L 2731 3456 
L 3359 3456 
z
" transform="scale(0.015625)"/>
       </defs>
       <use xlink:href="#MicrosoftYaHei-4e"/>
       <use xlink:href="#MicrosoftYaHei-61" x="81.298828"/>
       <use xlink:href="#MicrosoftYaHei-69" x="136.572266"/>
       <use xlink:href="#MicrosoftYaHei-76" x="163.183594"/>
       <use xlink:href="#MicrosoftYaHei-65" x="215.048828"/>
       <use xlink:href="#MicrosoftYaHei-20" x="271.787109"/>
       <use xlink:href="#MicrosoftYaHei-42" x="301.376953"/>
       <use xlink:href="#MicrosoftYaHei-61" x="364.121094"/>
       <use xlink:href="#MicrosoftYaHei-79" x="419.394531"/>
       <use xlink:href="#MicrosoftYaHei-65" x="471.824219"/>
       <use xlink:href="#MicrosoftYaHei-73" x="528.5625"/>
      </g>
     </g>
    </g>
    <g id="ytick_15">
     <g id="text_23">
      <!-- KNN -->
      <g style="fill: #262626" transform="translate(110.176563 503.184232) scale(0.1 -0.1)">
       <defs>
        <path id="MicrosoftYaHei-4b" d="M 4069 0 
L 3213 0 
L 1394 2200 
Q 1300 2316 1266 2381 
L 1250 2381 
L 1250 0 
L 625 0 
L 625 4841 
L 1250 4841 
L 1250 2563 
L 1266 2563 
Q 1319 2647 1394 2741 
L 3150 4841 
L 3922 4841 
L 1891 2519 
L 4069 0 
z
" transform="scale(0.015625)"/>
       </defs>
       <use xlink:href="#MicrosoftYaHei-4b"/>
       <use xlink:href="#MicrosoftYaHei-4e" x="63.476562"/>
       <use xlink:href="#MicrosoftYaHei-4e" x="144.775391"/>
      </g>
     </g>
    </g>
    <g id="ytick_16">
     <g id="text_24">
      <!-- Decision Tree -->
      <g style="fill: #262626" transform="translate(69.225 535.071291) scale(0.1 -0.1)">
       <defs>
        <path id="MicrosoftYaHei-44" d="M 625 0 
L 625 4841 
L 2006 4841 
Q 3106 4841 3836 4200 
Q 4566 3559 4566 2481 
Q 4566 1356 3836 678 
Q 3106 0 1956 0 
L 625 0 
z
M 1250 4284 
L 1250 553 
L 1953 553 
Q 2875 553 3392 1056 
Q 3909 1559 3909 2466 
Q 3909 3372 3378 3828 
Q 2847 4284 1981 4284 
L 1250 4284 
z
" transform="scale(0.015625)"/>
       </defs>
       <use xlink:href="#MicrosoftYaHei-44"/>
       <use xlink:href="#MicrosoftYaHei-65" x="76.171875"/>
       <use xlink:href="#MicrosoftYaHei-63" x="132.910156"/>
       <use xlink:href="#MicrosoftYaHei-69" x="183.056641"/>
       <use xlink:href="#MicrosoftYaHei-73" x="209.667969"/>
       <use xlink:href="#MicrosoftYaHei-69" x="255.957031"/>
       <use xlink:href="#MicrosoftYaHei-6f" x="282.568359"/>
       <use xlink:href="#MicrosoftYaHei-6e" x="346.142578"/>
       <use xlink:href="#MicrosoftYaHei-20" x="407.763672"/>
       <use xlink:href="#MicrosoftYaHei-54" x="437.353516"/>
       <use xlink:href="#MicrosoftYaHei-72" x="485.302734"/>
       <use xlink:href="#MicrosoftYaHei-65" x="522.111328"/>
       <use xlink:href="#MicrosoftYaHei-65" x="578.849609"/>
      </g>
     </g>
    </g>
   </g>
   <g id="line2d_8">
    <path d="M 608.028192 52.768534 
L 731.562565 52.768534 
" clip-path="url(#pbb40510019)" style="fill: none; stroke: #555555; stroke-width: 1.8; stroke-linecap: round"/>
   </g>
   <g id="line2d_9">
    <path d="M 599.141889 84.655593 
L 735.955238 84.655593 
" clip-path="url(#pbb40510019)" style="fill: none; stroke: #555555; stroke-width: 1.8; stroke-linecap: round"/>
   </g>
   <g id="line2d_10">
    <path d="M 594.738442 116.542651 
L 735.510988 116.542651 
" clip-path="url(#pbb40510019)" style="fill: none; stroke: #555555; stroke-width: 1.8; stroke-linecap: round"/>
   </g>
   <g id="line2d_11">
    <path d="M 598.538321 148.42971 
L 733.554935 148.42971 
" clip-path="url(#pbb40510019)" style="fill: none; stroke: #555555; stroke-width: 1.8; stroke-linecap: round"/>
   </g>
   <g id="line2d_12">
    <path d="M 593.810587 180.316769 
L 731.776 180.316769 
" clip-path="url(#pbb40510019)" style="fill: none; stroke: #555555; stroke-width: 1.8; stroke-linecap: round"/>
   </g>
   <g id="line2d_13">
    <path d="M 589.493382 212.203828 
L 728.044789 212.203828 
" clip-path="url(#pbb40510019)" style="fill: none; stroke: #555555; stroke-width: 1.8; stroke-linecap: round"/>
   </g>
   <g id="line2d_14">
    <path d="M 588.650577 244.090887 
L 724.548721 244.090887 
" clip-path="url(#pbb40510019)" style="fill: none; stroke: #555555; stroke-width: 1.8; stroke-linecap: round"/>
   </g>
   <g id="line2d_15">
    <path d="M 582.708723 275.977946 
L 724.620404 275.977946 
" clip-path="url(#pbb40510019)" style="fill: none; stroke: #555555; stroke-width: 1.8; stroke-linecap: round"/>
   </g>
   <g id="line2d_16">
    <path d="M 582.530728 307.865004 
L 727.18855 307.865004 
" clip-path="url(#pbb40510019)" style="fill: none; stroke: #555555; stroke-width: 1.8; stroke-linecap: round"/>
   </g>
   <g id="line2d_17">
    <path d="M 581.131947 339.752063 
L 722.608337 339.752063 
" clip-path="url(#pbb40510019)" style="fill: none; stroke: #555555; stroke-width: 1.8; stroke-linecap: round"/>
   </g>
   <g id="line2d_18">
    <path d="M 577.292935 371.639122 
L 724.372319 371.639122 
" clip-path="url(#pbb40510019)" style="fill: none; stroke: #555555; stroke-width: 1.8; stroke-linecap: round"/>
   </g>
   <g id="line2d_19">
    <path d="M 576.594084 403.526181 
L 721.998805 403.526181 
" clip-path="url(#pbb40510019)" style="fill: none; stroke: #555555; stroke-width: 1.8; stroke-linecap: round"/>
   </g>
   <g id="line2d_20">
    <path d="M 573.913921 435.41324 
L 713.518988 435.41324 
" clip-path="url(#pbb40510019)" style="fill: none; stroke: #555555; stroke-width: 1.8; stroke-linecap: round"/>
   </g>
   <g id="line2d_21">
    <path d="M 561.045359 467.300299 
L 714.974564 467.300299 
" clip-path="url(#pbb40510019)" style="fill: none; stroke: #555555; stroke-width: 1.8; stroke-linecap: round"/>
   </g>
   <g id="line2d_22">
    <path d="M 513.087627 499.187357 
L 683.074896 499.187357 
" clip-path="url(#pbb40510019)" style="fill: none; stroke: #555555; stroke-width: 1.8; stroke-linecap: round"/>
   </g>
   <g id="line2d_23">
    <path d="M 391.584298 531.074416 
L 577.760423 531.074416 
" clip-path="url(#pbb40510019)" style="fill: none; stroke: #555555; stroke-width: 1.8; stroke-linecap: round"/>
   </g>
   <g id="line2d_24">
    <path d="M 608.028192 48.942087 
L 608.028192 56.594981 
" clip-path="url(#pbb40510019)" style="fill: none; stroke: #555555; stroke-width: 1.2; stroke-linecap: round"/>
   </g>
   <g id="line2d_25">
    <path d="M 731.562565 48.942087 
L 731.562565 56.594981 
" clip-path="url(#pbb40510019)" style="fill: none; stroke: #555555; stroke-width: 1.2; stroke-linecap: round"/>
   </g>
   <g id="line2d_26">
    <path d="M 599.141889 80.829146 
L 599.141889 88.48204 
" clip-path="url(#pbb40510019)" style="fill: none; stroke: #555555; stroke-width: 1.2; stroke-linecap: round"/>
   </g>
   <g id="line2d_27">
    <path d="M 735.955238 80.829146 
L 735.955238 88.48204 
" clip-path="url(#pbb40510019)" style="fill: none; stroke: #555555; stroke-width: 1.2; stroke-linecap: round"/>
   </g>
   <g id="line2d_28">
    <path d="M 594.738442 112.716204 
L 594.738442 120.369099 
" clip-path="url(#pbb40510019)" style="fill: none; stroke: #555555; stroke-width: 1.2; stroke-linecap: round"/>
   </g>
   <g id="line2d_29">
    <path d="M 735.510988 112.716204 
L 735.510988 120.369099 
" clip-path="url(#pbb40510019)" style="fill: none; stroke: #555555; stroke-width: 1.2; stroke-linecap: round"/>
   </g>
   <g id="line2d_30">
    <path d="M 598.538321 144.603263 
L 598.538321 152.256157 
" clip-path="url(#pbb40510019)" style="fill: none; stroke: #555555; stroke-width: 1.2; stroke-linecap: round"/>
   </g>
   <g id="line2d_31">
    <path d="M 733.554935 144.603263 
L 733.554935 152.256157 
" clip-path="url(#pbb40510019)" style="fill: none; stroke: #555555; stroke-width: 1.2; stroke-linecap: round"/>
   </g>
   <g id="line2d_32">
    <path d="M 593.810587 176.490322 
L 593.810587 184.143216 
" clip-path="url(#pbb40510019)" style="fill: none; stroke: #555555; stroke-width: 1.2; stroke-linecap: round"/>
   </g>
   <g id="line2d_33">
    <path d="M 731.776 176.490322 
L 731.776 184.143216 
" clip-path="url(#pbb40510019)" style="fill: none; stroke: #555555; stroke-width: 1.2; stroke-linecap: round"/>
   </g>
   <g id="line2d_34">
    <path d="M 589.493382 208.377381 
L 589.493382 216.030275 
" clip-path="url(#pbb40510019)" style="fill: none; stroke: #555555; stroke-width: 1.2; stroke-linecap: round"/>
   </g>
   <g id="line2d_35">
    <path d="M 728.044789 208.377381 
L 728.044789 216.030275 
" clip-path="url(#pbb40510019)" style="fill: none; stroke: #555555; stroke-width: 1.2; stroke-linecap: round"/>
   </g>
   <g id="line2d_36">
    <path d="M 588.650577 240.26444 
L 588.650577 247.917334 
" clip-path="url(#pbb40510019)" style="fill: none; stroke: #555555; stroke-width: 1.2; stroke-linecap: round"/>
   </g>
   <g id="line2d_37">
    <path d="M 724.548721 240.26444 
L 724.548721 247.917334 
" clip-path="url(#pbb40510019)" style="fill: none; stroke: #555555; stroke-width: 1.2; stroke-linecap: round"/>
   </g>
   <g id="line2d_38">
    <path d="M 582.708723 272.151499 
L 582.708723 279.804393 
" clip-path="url(#pbb40510019)" style="fill: none; stroke: #555555; stroke-width: 1.2; stroke-linecap: round"/>
   </g>
   <g id="line2d_39">
    <path d="M 724.620404 272.151499 
L 724.620404 279.804393 
" clip-path="url(#pbb40510019)" style="fill: none; stroke: #555555; stroke-width: 1.2; stroke-linecap: round"/>
   </g>
   <g id="line2d_40">
    <path d="M 582.530728 304.038557 
L 582.530728 311.691451 
" clip-path="url(#pbb40510019)" style="fill: none; stroke: #555555; stroke-width: 1.2; stroke-linecap: round"/>
   </g>
   <g id="line2d_41">
    <path d="M 727.18855 304.038557 
L 727.18855 311.691451 
" clip-path="url(#pbb40510019)" style="fill: none; stroke: #555555; stroke-width: 1.2; stroke-linecap: round"/>
   </g>
   <g id="line2d_42">
    <path d="M 581.131947 335.925616 
L 581.131947 343.57851 
" clip-path="url(#pbb40510019)" style="fill: none; stroke: #555555; stroke-width: 1.2; stroke-linecap: round"/>
   </g>
   <g id="line2d_43">
    <path d="M 722.608337 335.925616 
L 722.608337 343.57851 
" clip-path="url(#pbb40510019)" style="fill: none; stroke: #555555; stroke-width: 1.2; stroke-linecap: round"/>
   </g>
   <g id="line2d_44">
    <path d="M 577.292935 367.812675 
L 577.292935 375.465569 
" clip-path="url(#pbb40510019)" style="fill: none; stroke: #555555; stroke-width: 1.2; stroke-linecap: round"/>
   </g>
   <g id="line2d_45">
    <path d="M 724.372319 367.812675 
L 724.372319 375.465569 
" clip-path="url(#pbb40510019)" style="fill: none; stroke: #555555; stroke-width: 1.2; stroke-linecap: round"/>
   </g>
   <g id="line2d_46">
    <path d="M 576.594084 399.699734 
L 576.594084 407.352628 
" clip-path="url(#pbb40510019)" style="fill: none; stroke: #555555; stroke-width: 1.2; stroke-linecap: round"/>
   </g>
   <g id="line2d_47">
    <path d="M 721.998805 399.699734 
L 721.998805 407.352628 
" clip-path="url(#pbb40510019)" style="fill: none; stroke: #555555; stroke-width: 1.2; stroke-linecap: round"/>
   </g>
   <g id="line2d_48">
    <path d="M 573.913921 431.586793 
L 573.913921 439.239687 
" clip-path="url(#pbb40510019)" style="fill: none; stroke: #555555; stroke-width: 1.2; stroke-linecap: round"/>
   </g>
   <g id="line2d_49">
    <path d="M 713.518988 431.586793 
L 713.518988 439.239687 
" clip-path="url(#pbb40510019)" style="fill: none; stroke: #555555; stroke-width: 1.2; stroke-linecap: round"/>
   </g>
   <g id="line2d_50">
    <path d="M 561.045359 463.473851 
L 561.045359 471.126746 
" clip-path="url(#pbb40510019)" style="fill: none; stroke: #555555; stroke-width: 1.2; stroke-linecap: round"/>
   </g>
   <g id="line2d_51">
    <path d="M 714.974564 463.473851 
L 714.974564 471.126746 
" clip-path="url(#pbb40510019)" style="fill: none; stroke: #555555; stroke-width: 1.2; stroke-linecap: round"/>
   </g>
   <g id="line2d_52">
    <path d="M 513.087627 495.36091 
L 513.087627 503.013804 
" clip-path="url(#pbb40510019)" style="fill: none; stroke: #555555; stroke-width: 1.2; stroke-linecap: round"/>
   </g>
   <g id="line2d_53">
    <path d="M 683.074896 495.36091 
L 683.074896 503.013804 
" clip-path="url(#pbb40510019)" style="fill: none; stroke: #555555; stroke-width: 1.2; stroke-linecap: round"/>
   </g>
   <g id="line2d_54">
    <path d="M 391.584298 527.247969 
L 391.584298 534.900863 
" clip-path="url(#pbb40510019)" style="fill: none; stroke: #555555; stroke-width: 1.2; stroke-linecap: round"/>
   </g>
   <g id="line2d_55">
    <path d="M 577.760423 527.247969 
L 577.760423 534.900863 
" clip-path="url(#pbb40510019)" style="fill: none; stroke: #555555; stroke-width: 1.2; stroke-linecap: round"/>
   </g>
   <g id="line2d_56">
    <path d="M 261.202408 560.251075 
L 261.202408 23.591875 
" clip-path="url(#pbb40510019)" style="fill: none; stroke-dasharray: 4.44,1.92; stroke-dashoffset: 0; stroke: #bc3c29; stroke-opacity: 0.5; stroke-width: 1.2"/>
   </g>
   <g id="line2d_57">
    <path d="M 617.956506 560.251075 
L 617.956506 23.591875 
" clip-path="url(#pbb40510019)" style="fill: none; stroke-dasharray: 1,1.65; stroke-dashoffset: 0; stroke: #20854e; stroke-opacity: 0.4"/>
   </g>
   <g id="patch_3">
    <path d="M 142.284375 560.251075 
L 142.284375 23.591875 
" style="fill: none; stroke: #555555; stroke-width: 0.8; stroke-linejoin: miter; stroke-linecap: square"/>
   </g>
   <g id="patch_4">
    <path d="M 142.284375 560.251075 
L 867.684375 560.251075 
" style="fill: none; stroke: #555555; stroke-width: 0.8; stroke-linejoin: miter; stroke-linecap: square"/>
   </g>
   <g id="patch_5">
    <path d="M 670.849294 57.551593 
L 680.362736 52.768534 
L 670.849294 47.985475 
L 661.335851 52.768534 
z
" clip-path="url(#pbb40510019)" style="fill: #0072b5; stroke: #000000; stroke-width: 0.8; stroke-linejoin: miter"/>
   </g>
   <g id="text_25">
    <!-- 0.844  (0.792–0.896) -->
    <g style="fill: #262626" transform="translate(896.700375 55.275878) scale(0.09 -0.09)">
     <defs>
      <path id="DejaVuSansMono-30" d="M 1509 2344 
Q 1509 2516 1629 2641 
Q 1750 2766 1919 2766 
Q 2094 2766 2219 2641 
Q 2344 2516 2344 2344 
Q 2344 2169 2220 2047 
Q 2097 1925 1919 1925 
Q 1744 1925 1626 2044 
Q 1509 2163 1509 2344 
z
M 1925 4250 
Q 1484 4250 1267 3775 
Q 1050 3300 1050 2328 
Q 1050 1359 1267 884 
Q 1484 409 1925 409 
Q 2369 409 2586 884 
Q 2803 1359 2803 2328 
Q 2803 3300 2586 3775 
Q 2369 4250 1925 4250 
z
M 1925 4750 
Q 2672 4750 3055 4137 
Q 3438 3525 3438 2328 
Q 3438 1134 3055 521 
Q 2672 -91 1925 -91 
Q 1178 -91 797 521 
Q 416 1134 416 2328 
Q 416 3525 797 4137 
Q 1178 4750 1925 4750 
z
" transform="scale(0.015625)"/>
      <path id="DejaVuSansMono-2e" d="M 1528 953 
L 2316 953 
L 2316 0 
L 1528 0 
L 1528 953 
z
" transform="scale(0.015625)"/>
      <path id="DejaVuSansMono-38" d="M 1925 2216 
Q 1503 2216 1273 1980 
Q 1044 1744 1044 1313 
Q 1044 881 1276 642 
Q 1509 403 1925 403 
Q 2350 403 2579 639 
Q 2809 875 2809 1313 
Q 2809 1741 2576 1978 
Q 2344 2216 1925 2216 
z
M 1375 2478 
Q 972 2581 745 2862 
Q 519 3144 519 3541 
Q 519 4097 897 4423 
Q 1275 4750 1925 4750 
Q 2578 4750 2956 4423 
Q 3334 4097 3334 3541 
Q 3334 3144 3107 2862 
Q 2881 2581 2478 2478 
Q 2947 2375 3195 2062 
Q 3444 1750 3444 1253 
Q 3444 622 3041 265 
Q 2638 -91 1925 -91 
Q 1213 -91 811 264 
Q 409 619 409 1247 
Q 409 1747 657 2061 
Q 906 2375 1375 2478 
z
M 1147 3481 
Q 1147 3106 1347 2909 
Q 1547 2713 1925 2713 
Q 2306 2713 2506 2909 
Q 2706 3106 2706 3481 
Q 2706 3863 2507 4063 
Q 2309 4263 1925 4263 
Q 1547 4263 1347 4061 
Q 1147 3859 1147 3481 
z
" transform="scale(0.015625)"/>
      <path id="DejaVuSansMono-34" d="M 2297 4091 
L 825 1625 
L 2297 1625 
L 2297 4091 
z
M 2194 4666 
L 2925 4666 
L 2925 1625 
L 3547 1625 
L 3547 1113 
L 2925 1113 
L 2925 0 
L 2297 0 
L 2297 1113 
L 319 1113 
L 319 1709 
L 2194 4666 
z
" transform="scale(0.015625)"/>
      <path id="DejaVuSansMono-20" transform="scale(0.015625)"/>
      <path id="DejaVuSansMono-28" d="M 2766 4856 
Q 2350 4144 2145 3436 
Q 1941 2728 1941 2009 
Q 1941 1294 2145 584 
Q 2350 -125 2766 -844 
L 2266 -844 
Q 1794 -100 1562 604 
Q 1331 1309 1331 2009 
Q 1331 2706 1562 3412 
Q 1794 4119 2266 4856 
L 2766 4856 
z
" transform="scale(0.015625)"/>
      <path id="DejaVuSansMono-37" d="M 434 4666 
L 3372 4666 
L 3372 4397 
L 1703 0 
L 1044 0 
L 2669 4134 
L 434 4134 
L 434 4666 
z
" transform="scale(0.015625)"/>
      <path id="DejaVuSansMono-39" d="M 1863 2069 
Q 2266 2069 2495 2359 
Q 2725 2650 2725 3163 
Q 2725 3675 2495 3965 
Q 2266 4256 1863 4256 
Q 1444 4256 1231 3979 
Q 1019 3703 1019 3163 
Q 1019 2619 1230 2344 
Q 1441 2069 1863 2069 
z
M 738 97 
L 738 678 
Q 934 563 1156 502 
Q 1378 441 1619 441 
Q 2219 441 2526 892 
Q 2834 1344 2834 2222 
Q 2688 1909 2422 1742 
Q 2156 1575 1813 1575 
Q 1138 1575 767 1990 
Q 397 2406 397 3169 
Q 397 3922 776 4336 
Q 1156 4750 1850 4750 
Q 2663 4750 3041 4165 
Q 3419 3581 3419 2328 
Q 3419 1150 2964 529 
Q 2509 -91 1644 -91 
Q 1416 -91 1184 -42 
Q 953 6 738 97 
z
" transform="scale(0.015625)"/>
      <path id="DejaVuSansMono-32" d="M 1166 531 
L 3309 531 
L 3309 0 
L 475 0 
L 475 531 
Q 1059 1147 1496 1619 
Q 1934 2091 2100 2284 
Q 2413 2666 2522 2902 
Q 2631 3138 2631 3384 
Q 2631 3775 2401 3997 
Q 2172 4219 1772 4219 
Q 1488 4219 1175 4116 
Q 863 4013 513 3803 
L 513 4441 
Q 834 4594 1145 4672 
Q 1456 4750 1759 4750 
Q 2444 4750 2861 4386 
Q 3278 4022 3278 3431 
Q 3278 3131 3139 2831 
Q 3000 2531 2688 2169 
Q 2513 1966 2180 1606 
Q 1847 1247 1166 531 
z
" transform="scale(0.015625)"/>
      <path id="DejaVuSansMono-2013" d="M 0 1978 
L 3853 1978 
L 3853 1538 
L 0 1538 
L 0 1978 
z
" transform="scale(0.015625)"/>
      <path id="DejaVuSansMono-36" d="M 3097 4563 
L 3097 3981 
Q 2900 4097 2678 4158 
Q 2456 4219 2216 4219 
Q 1616 4219 1306 3767 
Q 997 3316 997 2438 
Q 1147 2750 1412 2917 
Q 1678 3084 2022 3084 
Q 2697 3084 3067 2670 
Q 3438 2256 3438 1497 
Q 3438 741 3056 325 
Q 2675 -91 1984 -91 
Q 1172 -91 794 492 
Q 416 1075 416 2328 
Q 416 3509 870 4129 
Q 1325 4750 2188 4750 
Q 2419 4750 2650 4701 
Q 2881 4653 3097 4563 
z
M 1972 2591 
Q 1569 2591 1337 2300 
Q 1106 2009 1106 1497 
Q 1106 984 1337 693 
Q 1569 403 1972 403 
Q 2391 403 2603 679 
Q 2816 956 2816 1497 
Q 2816 2041 2603 2316 
Q 2391 2591 1972 2591 
z
" transform="scale(0.015625)"/>
      <path id="DejaVuSansMono-29" d="M 1088 4856 
L 1588 4856 
Q 2059 4119 2290 3412 
Q 2522 2706 2522 2009 
Q 2522 1306 2290 600 
Q 2059 -106 1588 -844 
L 1088 -844 
Q 1503 -119 1708 590 
Q 1913 1300 1913 2009 
Q 1913 2722 1708 3431 
Q 1503 4141 1088 4856 
z
" transform="scale(0.015625)"/>
     </defs>
     <use xlink:href="#DejaVuSansMono-30"/>
     <use xlink:href="#DejaVuSansMono-2e" x="60.205078"/>
     <use xlink:href="#DejaVuSansMono-38" x="120.410156"/>
     <use xlink:href="#DejaVuSansMono-34" x="180.615234"/>
     <use xlink:href="#DejaVuSansMono-34" x="240.820312"/>
     <use xlink:href="#DejaVuSansMono-20" x="301.025391"/>
     <use xlink:href="#DejaVuSansMono-20" x="361.230469"/>
     <use xlink:href="#DejaVuSansMono-28" x="421.435547"/>
     <use xlink:href="#DejaVuSansMono-30" x="481.640625"/>
     <use xlink:href="#DejaVuSansMono-2e" x="541.845703"/>
     <use xlink:href="#DejaVuSansMono-37" x="602.050781"/>
     <use xlink:href="#DejaVuSansMono-39" x="662.255859"/>
     <use xlink:href="#DejaVuSansMono-32" x="722.460938"/>
     <use xlink:href="#DejaVuSansMono-2013" x="782.666016"/>
     <use xlink:href="#DejaVuSansMono-30" x="842.871094"/>
     <use xlink:href="#DejaVuSansMono-2e" x="903.076172"/>
     <use xlink:href="#DejaVuSansMono-38" x="963.28125"/>
     <use xlink:href="#DejaVuSansMono-39" x="1023.486328"/>
     <use xlink:href="#DejaVuSansMono-36" x="1083.691406"/>
     <use xlink:href="#DejaVuSansMono-29" x="1143.896484"/>
    </g>
   </g>
   <g id="patch_6">
    <path d="M 670.519333 89.438651 
L 680.032775 84.655593 
L 670.519333 79.872534 
L 661.00589 84.655593 
z
" clip-path="url(#pbb40510019)" style="fill: #0072b5; stroke: #000000; stroke-width: 0.8; stroke-linejoin: miter"/>
   </g>
   <g id="text_26">
    <!-- 0.844  (0.784–0.899) -->
    <g style="fill: #262626" transform="translate(896.700375 87.162936) scale(0.09 -0.09)">
     <use xlink:href="#DejaVuSansMono-30"/>
     <use xlink:href="#DejaVuSansMono-2e" x="60.205078"/>
     <use xlink:href="#DejaVuSansMono-38" x="120.410156"/>
     <use xlink:href="#DejaVuSansMono-34" x="180.615234"/>
     <use xlink:href="#DejaVuSansMono-34" x="240.820312"/>
     <use xlink:href="#DejaVuSansMono-20" x="301.025391"/>
     <use xlink:href="#DejaVuSansMono-20" x="361.230469"/>
     <use xlink:href="#DejaVuSansMono-28" x="421.435547"/>
     <use xlink:href="#DejaVuSansMono-30" x="481.640625"/>
     <use xlink:href="#DejaVuSansMono-2e" x="541.845703"/>
     <use xlink:href="#DejaVuSansMono-37" x="602.050781"/>
     <use xlink:href="#DejaVuSansMono-38" x="662.255859"/>
     <use xlink:href="#DejaVuSansMono-34" x="722.460938"/>
     <use xlink:href="#DejaVuSansMono-2013" x="782.666016"/>
     <use xlink:href="#DejaVuSansMono-30" x="842.871094"/>
     <use xlink:href="#DejaVuSansMono-2e" x="903.076172"/>
     <use xlink:href="#DejaVuSansMono-38" x="963.28125"/>
     <use xlink:href="#DejaVuSansMono-39" x="1023.486328"/>
     <use xlink:href="#DejaVuSansMono-39" x="1083.691406"/>
     <use xlink:href="#DejaVuSansMono-29" x="1143.896484"/>
    </g>
   </g>
   <g id="patch_7">
    <path d="M 668.374584 121.32571 
L 677.888027 116.542651 
L 668.374584 111.759593 
L 658.861142 116.542651 
z
" clip-path="url(#pbb40510019)" style="fill: #0072b5; stroke: #000000; stroke-width: 0.8; stroke-linejoin: miter"/>
   </g>
   <g id="text_27">
    <!-- 0.842  (0.780–0.899) -->
    <g style="fill: #262626" transform="translate(896.700375 119.049995) scale(0.09 -0.09)">
     <use xlink:href="#DejaVuSansMono-30"/>
     <use xlink:href="#DejaVuSansMono-2e" x="60.205078"/>
     <use xlink:href="#DejaVuSansMono-38" x="120.410156"/>
     <use xlink:href="#DejaVuSansMono-34" x="180.615234"/>
     <use xlink:href="#DejaVuSansMono-32" x="240.820312"/>
     <use xlink:href="#DejaVuSansMono-20" x="301.025391"/>
     <use xlink:href="#DejaVuSansMono-20" x="361.230469"/>
     <use xlink:href="#DejaVuSansMono-28" x="421.435547"/>
     <use xlink:href="#DejaVuSansMono-30" x="481.640625"/>
     <use xlink:href="#DejaVuSansMono-2e" x="541.845703"/>
     <use xlink:href="#DejaVuSansMono-37" x="602.050781"/>
     <use xlink:href="#DejaVuSansMono-38" x="662.255859"/>
     <use xlink:href="#DejaVuSansMono-30" x="722.460938"/>
     <use xlink:href="#DejaVuSansMono-2013" x="782.666016"/>
     <use xlink:href="#DejaVuSansMono-30" x="842.871094"/>
     <use xlink:href="#DejaVuSansMono-2e" x="903.076172"/>
     <use xlink:href="#DejaVuSansMono-38" x="963.28125"/>
     <use xlink:href="#DejaVuSansMono-39" x="1023.486328"/>
     <use xlink:href="#DejaVuSansMono-39" x="1083.691406"/>
     <use xlink:href="#DejaVuSansMono-29" x="1143.896484"/>
    </g>
   </g>
   <g id="patch_8">
    <path d="M 667.549681 153.212769 
L 677.063124 148.42971 
L 667.549681 143.646651 
L 658.036239 148.42971 
z
" clip-path="url(#pbb40510019)" style="fill: #0072b5; stroke: #000000; stroke-width: 0.8; stroke-linejoin: miter"/>
   </g>
   <g id="text_28">
    <!-- 0.842  (0.784–0.897) -->
    <g style="fill: #262626" transform="translate(896.700375 150.937054) scale(0.09 -0.09)">
     <use xlink:href="#DejaVuSansMono-30"/>
     <use xlink:href="#DejaVuSansMono-2e" x="60.205078"/>
     <use xlink:href="#DejaVuSansMono-38" x="120.410156"/>
     <use xlink:href="#DejaVuSansMono-34" x="180.615234"/>
     <use xlink:href="#DejaVuSansMono-32" x="240.820312"/>
     <use xlink:href="#DejaVuSansMono-20" x="301.025391"/>
     <use xlink:href="#DejaVuSansMono-20" x="361.230469"/>
     <use xlink:href="#DejaVuSansMono-28" x="421.435547"/>
     <use xlink:href="#DejaVuSansMono-30" x="481.640625"/>
     <use xlink:href="#DejaVuSansMono-2e" x="541.845703"/>
     <use xlink:href="#DejaVuSansMono-37" x="602.050781"/>
     <use xlink:href="#DejaVuSansMono-38" x="662.255859"/>
     <use xlink:href="#DejaVuSansMono-34" x="722.460938"/>
     <use xlink:href="#DejaVuSansMono-2013" x="782.666016"/>
     <use xlink:href="#DejaVuSansMono-30" x="842.871094"/>
     <use xlink:href="#DejaVuSansMono-2e" x="903.076172"/>
     <use xlink:href="#DejaVuSansMono-38" x="963.28125"/>
     <use xlink:href="#DejaVuSansMono-39" x="1023.486328"/>
     <use xlink:href="#DejaVuSansMono-37" x="1083.691406"/>
     <use xlink:href="#DejaVuSansMono-29" x="1143.896484"/>
    </g>
   </g>
   <g id="patch_9">
    <path d="M 665.239953 185.099828 
L 674.753395 180.316769 
L 665.239953 175.53371 
L 655.72651 180.316769 
z
" clip-path="url(#pbb40510019)" style="fill: #0072b5; stroke: #000000; stroke-width: 0.8; stroke-linejoin: miter"/>
   </g>
   <g id="text_29">
    <!-- 0.840  (0.780–0.896) -->
    <g style="fill: #262626" transform="translate(896.700375 182.824113) scale(0.09 -0.09)">
     <use xlink:href="#DejaVuSansMono-30"/>
     <use xlink:href="#DejaVuSansMono-2e" x="60.205078"/>
     <use xlink:href="#DejaVuSansMono-38" x="120.410156"/>
     <use xlink:href="#DejaVuSansMono-34" x="180.615234"/>
     <use xlink:href="#DejaVuSansMono-30" x="240.820312"/>
     <use xlink:href="#DejaVuSansMono-20" x="301.025391"/>
     <use xlink:href="#DejaVuSansMono-20" x="361.230469"/>
     <use xlink:href="#DejaVuSansMono-28" x="421.435547"/>
     <use xlink:href="#DejaVuSansMono-30" x="481.640625"/>
     <use xlink:href="#DejaVuSansMono-2e" x="541.845703"/>
     <use xlink:href="#DejaVuSansMono-37" x="602.050781"/>
     <use xlink:href="#DejaVuSansMono-38" x="662.255859"/>
     <use xlink:href="#DejaVuSansMono-30" x="722.460938"/>
     <use xlink:href="#DejaVuSansMono-2013" x="782.666016"/>
     <use xlink:href="#DejaVuSansMono-30" x="842.871094"/>
     <use xlink:href="#DejaVuSansMono-2e" x="903.076172"/>
     <use xlink:href="#DejaVuSansMono-38" x="963.28125"/>
     <use xlink:href="#DejaVuSansMono-39" x="1023.486328"/>
     <use xlink:href="#DejaVuSansMono-36" x="1083.691406"/>
     <use xlink:href="#DejaVuSansMono-29" x="1143.896484"/>
    </g>
   </g>
   <g id="patch_10">
    <path d="M 659.465631 216.986887 
L 668.979073 212.203828 
L 659.465631 207.420769 
L 649.952188 212.203828 
z
" clip-path="url(#pbb40510019)" style="fill: #0072b5; stroke: #000000; stroke-width: 0.8; stroke-linejoin: miter"/>
   </g>
   <g id="text_30">
    <!-- 0.835  (0.776–0.893) -->
    <g style="fill: #262626" transform="translate(896.700375 214.711172) scale(0.09 -0.09)">
     <defs>
      <path id="DejaVuSansMono-33" d="M 2425 2497 
Q 2884 2375 3128 2064 
Q 3372 1753 3372 1288 
Q 3372 644 2939 276 
Q 2506 -91 1741 -91 
Q 1419 -91 1084 -31 
Q 750 28 428 141 
L 428 769 
Q 747 603 1056 522 
Q 1366 441 1672 441 
Q 2191 441 2469 675 
Q 2747 909 2747 1350 
Q 2747 1756 2469 1995 
Q 2191 2234 1716 2234 
L 1234 2234 
L 1234 2753 
L 1716 2753 
Q 2150 2753 2394 2943 
Q 2638 3134 2638 3475 
Q 2638 3834 2411 4026 
Q 2184 4219 1766 4219 
Q 1488 4219 1191 4156 
Q 894 4094 569 3969 
L 569 4550 
Q 947 4650 1242 4700 
Q 1538 4750 1766 4750 
Q 2447 4750 2855 4408 
Q 3263 4066 3263 3500 
Q 3263 3116 3048 2859 
Q 2834 2603 2425 2497 
z
" transform="scale(0.015625)"/>
      <path id="DejaVuSansMono-35" d="M 647 4666 
L 3009 4666 
L 3009 4134 
L 1222 4134 
L 1222 2988 
Q 1356 3038 1492 3061 
Q 1628 3084 1766 3084 
Q 2491 3084 2916 2656 
Q 3341 2228 3341 1497 
Q 3341 759 2895 334 
Q 2450 -91 1678 -91 
Q 1306 -91 998 -41 
Q 691 9 447 109 
L 447 750 
Q 734 594 1025 517 
Q 1316 441 1619 441 
Q 2141 441 2423 716 
Q 2706 991 2706 1497 
Q 2706 1997 2414 2275 
Q 2122 2553 1600 2553 
Q 1347 2553 1106 2495 
Q 866 2438 647 2322 
L 647 4666 
z
" transform="scale(0.015625)"/>
     </defs>
     <use xlink:href="#DejaVuSansMono-30"/>
     <use xlink:href="#DejaVuSansMono-2e" x="60.205078"/>
     <use xlink:href="#DejaVuSansMono-38" x="120.410156"/>
     <use xlink:href="#DejaVuSansMono-33" x="180.615234"/>
     <use xlink:href="#DejaVuSansMono-35" x="240.820312"/>
     <use xlink:href="#DejaVuSansMono-20" x="301.025391"/>
     <use xlink:href="#DejaVuSansMono-20" x="361.230469"/>
     <use xlink:href="#DejaVuSansMono-28" x="421.435547"/>
     <use xlink:href="#DejaVuSansMono-30" x="481.640625"/>
     <use xlink:href="#DejaVuSansMono-2e" x="541.845703"/>
     <use xlink:href="#DejaVuSansMono-37" x="602.050781"/>
     <use xlink:href="#DejaVuSansMono-37" x="662.255859"/>
     <use xlink:href="#DejaVuSansMono-36" x="722.460938"/>
     <use xlink:href="#DejaVuSansMono-2013" x="782.666016"/>
     <use xlink:href="#DejaVuSansMono-30" x="842.871094"/>
     <use xlink:href="#DejaVuSansMono-2e" x="903.076172"/>
     <use xlink:href="#DejaVuSansMono-38" x="963.28125"/>
     <use xlink:href="#DejaVuSansMono-39" x="1023.486328"/>
     <use xlink:href="#DejaVuSansMono-33" x="1083.691406"/>
     <use xlink:href="#DejaVuSansMono-29" x="1143.896484"/>
    </g>
   </g>
   <g id="patch_11">
    <path d="M 658.970689 248.873946 
L 668.484132 244.090887 
L 658.970689 239.307828 
L 649.457246 244.090887 
z
" clip-path="url(#pbb40510019)" style="fill: #0072b5; stroke: #000000; stroke-width: 0.8; stroke-linejoin: miter"/>
   </g>
   <g id="text_31">
    <!-- 0.834  (0.775–0.890) -->
    <g style="fill: #262626" transform="translate(896.700375 246.598231) scale(0.09 -0.09)">
     <use xlink:href="#DejaVuSansMono-30"/>
     <use xlink:href="#DejaVuSansMono-2e" x="60.205078"/>
     <use xlink:href="#DejaVuSansMono-38" x="120.410156"/>
     <use xlink:href="#DejaVuSansMono-33" x="180.615234"/>
     <use xlink:href="#DejaVuSansMono-34" x="240.820312"/>
     <use xlink:href="#DejaVuSansMono-20" x="301.025391"/>
     <use xlink:href="#DejaVuSansMono-20" x="361.230469"/>
     <use xlink:href="#DejaVuSansMono-28" x="421.435547"/>
     <use xlink:href="#DejaVuSansMono-30" x="481.640625"/>
     <use xlink:href="#DejaVuSansMono-2e" x="541.845703"/>
     <use xlink:href="#DejaVuSansMono-37" x="602.050781"/>
     <use xlink:href="#DejaVuSansMono-37" x="662.255859"/>
     <use xlink:href="#DejaVuSansMono-35" x="722.460938"/>
     <use xlink:href="#DejaVuSansMono-2013" x="782.666016"/>
     <use xlink:href="#DejaVuSansMono-30" x="842.871094"/>
     <use xlink:href="#DejaVuSansMono-2e" x="903.076172"/>
     <use xlink:href="#DejaVuSansMono-38" x="963.28125"/>
     <use xlink:href="#DejaVuSansMono-39" x="1023.486328"/>
     <use xlink:href="#DejaVuSansMono-30" x="1083.691406"/>
     <use xlink:href="#DejaVuSansMono-29" x="1143.896484"/>
    </g>
   </g>
   <g id="patch_12">
    <path d="M 656.330999 280.761004 
L 665.844442 275.977946 
L 656.330999 271.194887 
L 646.817556 275.977946 
z
" clip-path="url(#pbb40510019)" style="fill: #0072b5; stroke: #000000; stroke-width: 0.8; stroke-linejoin: miter"/>
   </g>
   <g id="text_32">
    <!-- 0.832  (0.770–0.890) -->
    <g style="fill: #262626" transform="translate(896.700375 278.485289) scale(0.09 -0.09)">
     <use xlink:href="#DejaVuSansMono-30"/>
     <use xlink:href="#DejaVuSansMono-2e" x="60.205078"/>
     <use xlink:href="#DejaVuSansMono-38" x="120.410156"/>
     <use xlink:href="#DejaVuSansMono-33" x="180.615234"/>
     <use xlink:href="#DejaVuSansMono-32" x="240.820312"/>
     <use xlink:href="#DejaVuSansMono-20" x="301.025391"/>
     <use xlink:href="#DejaVuSansMono-20" x="361.230469"/>
     <use xlink:href="#DejaVuSansMono-28" x="421.435547"/>
     <use xlink:href="#DejaVuSansMono-30" x="481.640625"/>
     <use xlink:href="#DejaVuSansMono-2e" x="541.845703"/>
     <use xlink:href="#DejaVuSansMono-37" x="602.050781"/>
     <use xlink:href="#DejaVuSansMono-37" x="662.255859"/>
     <use xlink:href="#DejaVuSansMono-30" x="722.460938"/>
     <use xlink:href="#DejaVuSansMono-2013" x="782.666016"/>
     <use xlink:href="#DejaVuSansMono-30" x="842.871094"/>
     <use xlink:href="#DejaVuSansMono-2e" x="903.076172"/>
     <use xlink:href="#DejaVuSansMono-38" x="963.28125"/>
     <use xlink:href="#DejaVuSansMono-39" x="1023.486328"/>
     <use xlink:href="#DejaVuSansMono-30" x="1083.691406"/>
     <use xlink:href="#DejaVuSansMono-29" x="1143.896484"/>
    </g>
   </g>
   <g id="patch_13">
    <path d="M 655.671076 312.648063 
L 665.184519 307.865004 
L 655.671076 303.081946 
L 646.157634 307.865004 
z
" clip-path="url(#pbb40510019)" style="fill: #0072b5; stroke: #000000; stroke-width: 0.8; stroke-linejoin: miter"/>
   </g>
   <g id="text_33">
    <!-- 0.832  (0.770–0.892) -->
    <g style="fill: #262626" transform="translate(896.700375 310.372348) scale(0.09 -0.09)">
     <use xlink:href="#DejaVuSansMono-30"/>
     <use xlink:href="#DejaVuSansMono-2e" x="60.205078"/>
     <use xlink:href="#DejaVuSansMono-38" x="120.410156"/>
     <use xlink:href="#DejaVuSansMono-33" x="180.615234"/>
     <use xlink:href="#DejaVuSansMono-32" x="240.820312"/>
     <use xlink:href="#DejaVuSansMono-20" x="301.025391"/>
     <use xlink:href="#DejaVuSansMono-20" x="361.230469"/>
     <use xlink:href="#DejaVuSansMono-28" x="421.435547"/>
     <use xlink:href="#DejaVuSansMono-30" x="481.640625"/>
     <use xlink:href="#DejaVuSansMono-2e" x="541.845703"/>
     <use xlink:href="#DejaVuSansMono-37" x="602.050781"/>
     <use xlink:href="#DejaVuSansMono-37" x="662.255859"/>
     <use xlink:href="#DejaVuSansMono-30" x="722.460938"/>
     <use xlink:href="#DejaVuSansMono-2013" x="782.666016"/>
     <use xlink:href="#DejaVuSansMono-30" x="842.871094"/>
     <use xlink:href="#DejaVuSansMono-2e" x="903.076172"/>
     <use xlink:href="#DejaVuSansMono-38" x="963.28125"/>
     <use xlink:href="#DejaVuSansMono-39" x="1023.486328"/>
     <use xlink:href="#DejaVuSansMono-32" x="1083.691406"/>
     <use xlink:href="#DejaVuSansMono-29" x="1143.896484"/>
    </g>
   </g>
   <g id="patch_14">
    <path d="M 655.341115 344.535122 
L 664.854558 339.752063 
L 655.341115 334.969004 
L 645.827673 339.752063 
z
" clip-path="url(#pbb40510019)" style="fill: #0072b5; stroke: #000000; stroke-width: 0.8; stroke-linejoin: miter"/>
   </g>
   <g id="text_34">
    <!-- 0.831  (0.769–0.888) -->
    <g style="fill: #262626" transform="translate(896.700375 342.259407) scale(0.09 -0.09)">
     <defs>
      <path id="DejaVuSansMono-31" d="M 844 531 
L 1825 531 
L 1825 4097 
L 769 3859 
L 769 4434 
L 1819 4666 
L 2450 4666 
L 2450 531 
L 3419 531 
L 3419 0 
L 844 0 
L 844 531 
z
" transform="scale(0.015625)"/>
     </defs>
     <use xlink:href="#DejaVuSansMono-30"/>
     <use xlink:href="#DejaVuSansMono-2e" x="60.205078"/>
     <use xlink:href="#DejaVuSansMono-38" x="120.410156"/>
     <use xlink:href="#DejaVuSansMono-33" x="180.615234"/>
     <use xlink:href="#DejaVuSansMono-31" x="240.820312"/>
     <use xlink:href="#DejaVuSansMono-20" x="301.025391"/>
     <use xlink:href="#DejaVuSansMono-20" x="361.230469"/>
     <use xlink:href="#DejaVuSansMono-28" x="421.435547"/>
     <use xlink:href="#DejaVuSansMono-30" x="481.640625"/>
     <use xlink:href="#DejaVuSansMono-2e" x="541.845703"/>
     <use xlink:href="#DejaVuSansMono-37" x="602.050781"/>
     <use xlink:href="#DejaVuSansMono-36" x="662.255859"/>
     <use xlink:href="#DejaVuSansMono-39" x="722.460938"/>
     <use xlink:href="#DejaVuSansMono-2013" x="782.666016"/>
     <use xlink:href="#DejaVuSansMono-30" x="842.871094"/>
     <use xlink:href="#DejaVuSansMono-2e" x="903.076172"/>
     <use xlink:href="#DejaVuSansMono-38" x="963.28125"/>
     <use xlink:href="#DejaVuSansMono-38" x="1023.486328"/>
     <use xlink:href="#DejaVuSansMono-38" x="1083.691406"/>
     <use xlink:href="#DejaVuSansMono-29" x="1143.896484"/>
    </g>
   </g>
   <g id="patch_15">
    <path d="M 653.85629 376.422181 
L 663.369732 371.639122 
L 653.85629 366.856063 
L 644.342847 371.639122 
z
" clip-path="url(#pbb40510019)" style="fill: #0072b5; stroke: #000000; stroke-width: 0.8; stroke-linejoin: miter"/>
   </g>
   <g id="text_35">
    <!-- 0.830  (0.766–0.889) -->
    <g style="fill: #262626" transform="translate(896.700375 374.146466) scale(0.09 -0.09)">
     <use xlink:href="#DejaVuSansMono-30"/>
     <use xlink:href="#DejaVuSansMono-2e" x="60.205078"/>
     <use xlink:href="#DejaVuSansMono-38" x="120.410156"/>
     <use xlink:href="#DejaVuSansMono-33" x="180.615234"/>
     <use xlink:href="#DejaVuSansMono-30" x="240.820312"/>
     <use xlink:href="#DejaVuSansMono-20" x="301.025391"/>
     <use xlink:href="#DejaVuSansMono-20" x="361.230469"/>
     <use xlink:href="#DejaVuSansMono-28" x="421.435547"/>
     <use xlink:href="#DejaVuSansMono-30" x="481.640625"/>
     <use xlink:href="#DejaVuSansMono-2e" x="541.845703"/>
     <use xlink:href="#DejaVuSansMono-37" x="602.050781"/>
     <use xlink:href="#DejaVuSansMono-36" x="662.255859"/>
     <use xlink:href="#DejaVuSansMono-36" x="722.460938"/>
     <use xlink:href="#DejaVuSansMono-2013" x="782.666016"/>
     <use xlink:href="#DejaVuSansMono-30" x="842.871094"/>
     <use xlink:href="#DejaVuSansMono-2e" x="903.076172"/>
     <use xlink:href="#DejaVuSansMono-38" x="963.28125"/>
     <use xlink:href="#DejaVuSansMono-38" x="1023.486328"/>
     <use xlink:href="#DejaVuSansMono-39" x="1083.691406"/>
     <use xlink:href="#DejaVuSansMono-29" x="1143.896484"/>
    </g>
   </g>
   <g id="patch_16">
    <path d="M 651.546561 408.30924 
L 661.060004 403.526181 
L 651.546561 398.743122 
L 642.033118 403.526181 
z
" clip-path="url(#pbb40510019)" style="fill: #0072b5; stroke: #000000; stroke-width: 0.8; stroke-linejoin: miter"/>
   </g>
   <g id="text_36">
    <!-- 0.828  (0.765–0.887) -->
    <g style="fill: #262626" transform="translate(896.700375 406.033525) scale(0.09 -0.09)">
     <use xlink:href="#DejaVuSansMono-30"/>
     <use xlink:href="#DejaVuSansMono-2e" x="60.205078"/>
     <use xlink:href="#DejaVuSansMono-38" x="120.410156"/>
     <use xlink:href="#DejaVuSansMono-32" x="180.615234"/>
     <use xlink:href="#DejaVuSansMono-38" x="240.820312"/>
     <use xlink:href="#DejaVuSansMono-20" x="301.025391"/>
     <use xlink:href="#DejaVuSansMono-20" x="361.230469"/>
     <use xlink:href="#DejaVuSansMono-28" x="421.435547"/>
     <use xlink:href="#DejaVuSansMono-30" x="481.640625"/>
     <use xlink:href="#DejaVuSansMono-2e" x="541.845703"/>
     <use xlink:href="#DejaVuSansMono-37" x="602.050781"/>
     <use xlink:href="#DejaVuSansMono-36" x="662.255859"/>
     <use xlink:href="#DejaVuSansMono-35" x="722.460938"/>
     <use xlink:href="#DejaVuSansMono-2013" x="782.666016"/>
     <use xlink:href="#DejaVuSansMono-30" x="842.871094"/>
     <use xlink:href="#DejaVuSansMono-2e" x="903.076172"/>
     <use xlink:href="#DejaVuSansMono-38" x="963.28125"/>
     <use xlink:href="#DejaVuSansMono-38" x="1023.486328"/>
     <use xlink:href="#DejaVuSansMono-37" x="1083.691406"/>
     <use xlink:href="#DejaVuSansMono-29" x="1143.896484"/>
    </g>
   </g>
   <g id="patch_17">
    <path d="M 645.607258 440.196299 
L 655.120701 435.41324 
L 645.607258 430.630181 
L 636.093816 435.41324 
z
" clip-path="url(#pbb40510019)" style="fill: #0072b5; stroke: #000000; stroke-width: 0.8; stroke-linejoin: miter"/>
   </g>
   <g id="text_37">
    <!-- 0.823  (0.763–0.880) -->
    <g style="fill: #262626" transform="translate(896.700375 437.920583) scale(0.09 -0.09)">
     <use xlink:href="#DejaVuSansMono-30"/>
     <use xlink:href="#DejaVuSansMono-2e" x="60.205078"/>
     <use xlink:href="#DejaVuSansMono-38" x="120.410156"/>
     <use xlink:href="#DejaVuSansMono-32" x="180.615234"/>
     <use xlink:href="#DejaVuSansMono-33" x="240.820312"/>
     <use xlink:href="#DejaVuSansMono-20" x="301.025391"/>
     <use xlink:href="#DejaVuSansMono-20" x="361.230469"/>
     <use xlink:href="#DejaVuSansMono-28" x="421.435547"/>
     <use xlink:href="#DejaVuSansMono-30" x="481.640625"/>
     <use xlink:href="#DejaVuSansMono-2e" x="541.845703"/>
     <use xlink:href="#DejaVuSansMono-37" x="602.050781"/>
     <use xlink:href="#DejaVuSansMono-36" x="662.255859"/>
     <use xlink:href="#DejaVuSansMono-33" x="722.460938"/>
     <use xlink:href="#DejaVuSansMono-2013" x="782.666016"/>
     <use xlink:href="#DejaVuSansMono-30" x="842.871094"/>
     <use xlink:href="#DejaVuSansMono-2e" x="903.076172"/>
     <use xlink:href="#DejaVuSansMono-38" x="963.28125"/>
     <use xlink:href="#DejaVuSansMono-38" x="1023.486328"/>
     <use xlink:href="#DejaVuSansMono-30" x="1083.691406"/>
     <use xlink:href="#DejaVuSansMono-29" x="1143.896484"/>
    </g>
   </g>
   <g id="patch_18">
    <path d="M 642.307646 472.083357 
L 651.821089 467.300299 
L 642.307646 462.51724 
L 632.794203 467.300299 
z
" clip-path="url(#pbb40510019)" style="fill: #0072b5; stroke: #000000; stroke-width: 0.8; stroke-linejoin: miter"/>
   </g>
   <g id="text_38">
    <!-- 0.820  (0.752–0.882) -->
    <g style="fill: #262626" transform="translate(896.700375 469.807642) scale(0.09 -0.09)">
     <use xlink:href="#DejaVuSansMono-30"/>
     <use xlink:href="#DejaVuSansMono-2e" x="60.205078"/>
     <use xlink:href="#DejaVuSansMono-38" x="120.410156"/>
     <use xlink:href="#DejaVuSansMono-32" x="180.615234"/>
     <use xlink:href="#DejaVuSansMono-30" x="240.820312"/>
     <use xlink:href="#DejaVuSansMono-20" x="301.025391"/>
     <use xlink:href="#DejaVuSansMono-20" x="361.230469"/>
     <use xlink:href="#DejaVuSansMono-28" x="421.435547"/>
     <use xlink:href="#DejaVuSansMono-30" x="481.640625"/>
     <use xlink:href="#DejaVuSansMono-2e" x="541.845703"/>
     <use xlink:href="#DejaVuSansMono-37" x="602.050781"/>
     <use xlink:href="#DejaVuSansMono-35" x="662.255859"/>
     <use xlink:href="#DejaVuSansMono-32" x="722.460938"/>
     <use xlink:href="#DejaVuSansMono-2013" x="782.666016"/>
     <use xlink:href="#DejaVuSansMono-30" x="842.871094"/>
     <use xlink:href="#DejaVuSansMono-2e" x="903.076172"/>
     <use xlink:href="#DejaVuSansMono-38" x="963.28125"/>
     <use xlink:href="#DejaVuSansMono-38" x="1023.486328"/>
     <use xlink:href="#DejaVuSansMono-32" x="1083.691406"/>
     <use xlink:href="#DejaVuSansMono-29" x="1143.896484"/>
    </g>
   </g>
   <g id="patch_19">
    <path d="M 600.072607 503.970416 
L 609.586049 499.187357 
L 600.072607 494.404299 
L 590.559164 499.187357 
z
" clip-path="url(#pbb40510019)" style="fill: #0072b5; stroke: #000000; stroke-width: 0.8; stroke-linejoin: miter"/>
   </g>
   <g id="text_39">
    <!-- 0.785  (0.712–0.855) -->
    <g style="fill: #262626" transform="translate(896.700375 501.694701) scale(0.09 -0.09)">
     <use xlink:href="#DejaVuSansMono-30"/>
     <use xlink:href="#DejaVuSansMono-2e" x="60.205078"/>
     <use xlink:href="#DejaVuSansMono-37" x="120.410156"/>
     <use xlink:href="#DejaVuSansMono-38" x="180.615234"/>
     <use xlink:href="#DejaVuSansMono-35" x="240.820312"/>
     <use xlink:href="#DejaVuSansMono-20" x="301.025391"/>
     <use xlink:href="#DejaVuSansMono-20" x="361.230469"/>
     <use xlink:href="#DejaVuSansMono-28" x="421.435547"/>
     <use xlink:href="#DejaVuSansMono-30" x="481.640625"/>
     <use xlink:href="#DejaVuSansMono-2e" x="541.845703"/>
     <use xlink:href="#DejaVuSansMono-37" x="602.050781"/>
     <use xlink:href="#DejaVuSansMono-31" x="662.255859"/>
     <use xlink:href="#DejaVuSansMono-32" x="722.460938"/>
     <use xlink:href="#DejaVuSansMono-2013" x="782.666016"/>
     <use xlink:href="#DejaVuSansMono-30" x="842.871094"/>
     <use xlink:href="#DejaVuSansMono-2e" x="903.076172"/>
     <use xlink:href="#DejaVuSansMono-38" x="963.28125"/>
     <use xlink:href="#DejaVuSansMono-35" x="1023.486328"/>
     <use xlink:href="#DejaVuSansMono-35" x="1083.691406"/>
     <use xlink:href="#DejaVuSansMono-29" x="1143.896484"/>
    </g>
   </g>
   <g id="patch_20">
    <path d="M 482.193952 535.857475 
L 491.707394 531.074416 
L 482.193952 526.291357 
L 472.680509 531.074416 
z
" clip-path="url(#pbb40510019)" style="fill: #0072b5; stroke: #000000; stroke-width: 0.8; stroke-linejoin: miter"/>
   </g>
   <g id="text_40">
    <!-- 0.686  (0.610–0.766) -->
    <g style="fill: #262626" transform="translate(896.700375 533.58176) scale(0.09 -0.09)">
     <use xlink:href="#DejaVuSansMono-30"/>
     <use xlink:href="#DejaVuSansMono-2e" x="60.205078"/>
     <use xlink:href="#DejaVuSansMono-36" x="120.410156"/>
     <use xlink:href="#DejaVuSansMono-38" x="180.615234"/>
     <use xlink:href="#DejaVuSansMono-36" x="240.820312"/>
     <use xlink:href="#DejaVuSansMono-20" x="301.025391"/>
     <use xlink:href="#DejaVuSansMono-20" x="361.230469"/>
     <use xlink:href="#DejaVuSansMono-28" x="421.435547"/>
     <use xlink:href="#DejaVuSansMono-30" x="481.640625"/>
     <use xlink:href="#DejaVuSansMono-2e" x="541.845703"/>
     <use xlink:href="#DejaVuSansMono-36" x="602.050781"/>
     <use xlink:href="#DejaVuSansMono-31" x="662.255859"/>
     <use xlink:href="#DejaVuSansMono-30" x="722.460938"/>
     <use xlink:href="#DejaVuSansMono-2013" x="782.666016"/>
     <use xlink:href="#DejaVuSansMono-30" x="842.871094"/>
     <use xlink:href="#DejaVuSansMono-2e" x="903.076172"/>
     <use xlink:href="#DejaVuSansMono-37" x="963.28125"/>
     <use xlink:href="#DejaVuSansMono-36" x="1023.486328"/>
     <use xlink:href="#DejaVuSansMono-36" x="1083.691406"/>
     <use xlink:href="#DejaVuSansMono-29" x="1143.896484"/>
    </g>
   </g>
   <g id="text_41">
    <!-- AUC (95% CI) -->
    <g style="fill: #262626" transform="translate(896.700375 32.93103) scale(0.09 -0.09)">
     <defs>
      <path id="DejaVuSansMono-Bold-41" d="M 1925 3822 
L 1491 1913 
L 2363 1913 
L 1925 3822 
z
M 1363 4666 
L 2491 4666 
L 3750 0 
L 2828 0 
L 2541 1153 
L 1306 1153 
L 1025 0 
L 103 0 
L 1363 4666 
z
" transform="scale(0.015625)"/>
      <path id="DejaVuSansMono-Bold-55" d="M 331 1722 
L 331 4666 
L 1253 4666 
L 1253 1491 
Q 1253 1141 1431 942 
Q 1609 744 1925 744 
Q 2241 744 2419 942 
Q 2597 1141 2597 1491 
L 2597 4666 
L 3519 4666 
L 3519 1722 
Q 3519 772 3141 340 
Q 2763 -91 1925 -91 
Q 1091 -91 711 340 
Q 331 772 331 1722 
z
" transform="scale(0.015625)"/>
      <path id="DejaVuSansMono-Bold-43" d="M 3378 134 
Q 3159 22 2918 -34 
Q 2678 -91 2413 -91 
Q 1469 -91 972 531 
Q 475 1153 475 2328 
Q 475 3506 972 4128 
Q 1469 4750 2413 4750 
Q 2678 4750 2922 4694 
Q 3166 4638 3378 4525 
L 3378 3500 
Q 3141 3719 2917 3820 
Q 2694 3922 2456 3922 
Q 1950 3922 1692 3520 
Q 1434 3119 1434 2328 
Q 1434 1541 1692 1139 
Q 1950 738 2456 738 
Q 2694 738 2917 839 
Q 3141 941 3378 1159 
L 3378 134 
z
" transform="scale(0.015625)"/>
      <path id="DejaVuSansMono-Bold-20" transform="scale(0.015625)"/>
      <path id="DejaVuSansMono-Bold-28" d="M 2888 4856 
Q 2475 4109 2275 3409 
Q 2075 2709 2075 2009 
Q 2075 1316 2275 611 
Q 2475 -94 2888 -844 
L 2175 -844 
Q 1678 -122 1437 579 
Q 1197 1281 1197 2009 
Q 1197 2734 1439 3439 
Q 1681 4144 2175 4856 
L 2888 4856 
z
" transform="scale(0.015625)"/>
      <path id="DejaVuSansMono-Bold-39" d="M 634 63 
L 634 903 
Q 881 759 1107 690 
Q 1334 622 1544 622 
Q 2041 622 2302 955 
Q 2563 1288 2578 1950 
Q 2431 1747 2203 1645 
Q 1975 1544 1663 1544 
Q 1034 1544 690 1942 
Q 347 2341 347 3072 
Q 347 3853 731 4281 
Q 1116 4709 1819 4709 
Q 2672 4709 3058 4139 
Q 3444 3569 3444 2297 
Q 3444 1088 2972 483 
Q 2500 -122 1556 -122 
Q 1338 -122 1105 -75 
Q 872 -28 634 63 
z
M 1844 2316 
Q 2141 2316 2298 2533 
Q 2456 2750 2456 3163 
Q 2456 3572 2298 3789 
Q 2141 4006 1844 4006 
Q 1544 4006 1383 3789 
Q 1222 3572 1222 3163 
Q 1222 2753 1383 2534 
Q 1544 2316 1844 2316 
z
" transform="scale(0.015625)"/>
      <path id="DejaVuSansMono-Bold-35" d="M 603 4666 
L 3138 4666 
L 3138 3853 
L 1350 3853 
L 1350 2988 
Q 1463 3031 1591 3051 
Q 1719 3072 1863 3072 
Q 2556 3072 2987 2634 
Q 3419 2197 3419 1497 
Q 3419 763 2951 336 
Q 2484 -91 1678 -91 
Q 1378 -91 1072 -41 
Q 766 9 447 109 
L 447 941 
Q 706 813 979 748 
Q 1253 684 1528 684 
Q 2016 684 2269 892 
Q 2522 1100 2522 1497 
Q 2522 1863 2270 2083 
Q 2019 2303 1600 2303 
Q 1353 2303 1104 2242 
Q 856 2181 603 2059 
L 603 4666 
z
" transform="scale(0.015625)"/>
      <path id="DejaVuSansMono-Bold-25" d="M 103 3475 
Q 103 3894 393 4184 
Q 684 4475 1100 4475 
Q 1516 4475 1808 4183 
Q 2100 3891 2100 3475 
Q 2100 3059 1808 2768 
Q 1516 2478 1100 2478 
Q 684 2478 393 2767 
Q 103 3056 103 3475 
z
M 1100 3903 
Q 922 3903 797 3779 
Q 672 3656 672 3475 
Q 672 3294 797 3170 
Q 922 3047 1100 3047 
Q 1281 3047 1404 3170 
Q 1528 3294 1528 3475 
Q 1528 3653 1403 3778 
Q 1278 3903 1100 3903 
z
M 269 1753 
L 3525 3059 
L 3653 2759 
L 378 1453 
L 269 1753 
z
M 1813 997 
Q 1813 1416 2102 1706 
Q 2391 1997 2809 1997 
Q 3222 1997 3515 1705 
Q 3809 1413 3809 997 
Q 3809 584 3515 292 
Q 3222 0 2809 0 
Q 2391 0 2102 289 
Q 1813 578 1813 997 
z
M 2803 1428 
Q 2628 1428 2504 1303 
Q 2381 1178 2381 997 
Q 2381 816 2503 692 
Q 2625 569 2803 569 
Q 2984 569 3111 694 
Q 3238 819 3238 997 
Q 3238 1175 3109 1301 
Q 2981 1428 2803 1428 
z
" transform="scale(0.015625)"/>
      <path id="DejaVuSansMono-Bold-49" d="M 538 3853 
L 538 4666 
L 3316 4666 
L 3316 3853 
L 2388 3853 
L 2388 813 
L 3316 813 
L 3316 0 
L 538 0 
L 538 813 
L 1466 813 
L 1466 3853 
L 538 3853 
z
" transform="scale(0.015625)"/>
      <path id="DejaVuSansMono-Bold-29" d="M 966 4856 
L 1678 4856 
Q 2172 4144 2414 3439 
Q 2656 2734 2656 2009 
Q 2656 1281 2415 579 
Q 2175 -122 1678 -844 
L 966 -844 
Q 1378 -94 1578 611 
Q 1778 1316 1778 2009 
Q 1778 2709 1578 3409 
Q 1378 4109 966 4856 
z
" transform="scale(0.015625)"/>
     </defs>
     <use xlink:href="#DejaVuSansMono-Bold-41"/>
     <use xlink:href="#DejaVuSansMono-Bold-55" x="60.205078"/>
     <use xlink:href="#DejaVuSansMono-Bold-43" x="120.410156"/>
     <use xlink:href="#DejaVuSansMono-Bold-20" x="180.615234"/>
     <use xlink:href="#DejaVuSansMono-Bold-28" x="240.820312"/>
     <use xlink:href="#DejaVuSansMono-Bold-39" x="301.025391"/>
     <use xlink:href="#DejaVuSansMono-Bold-35" x="361.230469"/>
     <use xlink:href="#DejaVuSansMono-Bold-25" x="421.435547"/>
     <use xlink:href="#DejaVuSansMono-Bold-20" x="481.640625"/>
     <use xlink:href="#DejaVuSansMono-Bold-43" x="541.845703"/>
     <use xlink:href="#DejaVuSansMono-Bold-49" x="602.050781"/>
     <use xlink:href="#DejaVuSansMono-Bold-29" x="662.255859"/>
    </g>
   </g>
   <g id="text_42">
    <!-- Forest Plot — AUC with Bootstrap 95% CI -->
    <g style="fill: #262626" transform="translate(369.37 17.591875) scale(0.13 -0.13)">
     <defs>
      <path id="MicrosoftYaHei-Bold-46" d="M 3319 3997 
L 1591 3997 
L 1591 2753 
L 3181 2753 
L 3181 1909 
L 1591 1909 
L 1591 0 
L 559 0 
L 559 4841 
L 3319 4841 
L 3319 3997 
z
" transform="scale(0.015625)"/>
      <path id="MicrosoftYaHei-Bold-6f" d="M 253 1713 
Q 253 2566 764 3053 
Q 1275 3541 2138 3541 
Q 2972 3541 3462 3061 
Q 3953 2581 3953 1772 
Q 3953 922 3450 419 
Q 2947 -84 2088 -84 
Q 1244 -84 748 398 
Q 253 881 253 1713 
z
M 1275 1725 
Q 1275 691 2119 691 
Q 2928 691 2928 1753 
Q 2928 2766 2113 2766 
Q 1716 2766 1495 2494 
Q 1275 2222 1275 1725 
z
" transform="scale(0.015625)"/>
      <path id="MicrosoftYaHei-Bold-72" d="M 2663 2541 
Q 2478 2647 2216 2647 
Q 1872 2647 1670 2384 
Q 1469 2122 1469 1663 
L 1469 0 
L 459 0 
L 459 3456 
L 1469 3456 
L 1469 2806 
L 1481 2806 
Q 1731 3516 2391 3516 
Q 2569 3516 2663 3475 
L 2663 2541 
z
" transform="scale(0.015625)"/>
      <path id="MicrosoftYaHei-Bold-50" d="M 1591 1688 
L 1591 0 
L 559 0 
L 559 4841 
L 2225 4841 
Q 4031 4841 4031 3309 
Q 4031 2566 3486 2117 
Q 2941 1669 2122 1688 
L 1591 1688 
z
M 1591 4041 
L 1591 2478 
L 2038 2478 
Q 2947 2478 2947 3269 
Q 2947 4041 2047 4041 
L 1591 4041 
z
" transform="scale(0.015625)"/>
      <path id="MicrosoftYaHei-Bold-6c" d="M 444 0 
L 444 5116 
L 1450 5116 
L 1450 0 
L 444 0 
z
" transform="scale(0.015625)"/>
      <path id="MicrosoftYaHei-Bold-2014" d="M 6913 1497 
L 0 1497 
L 0 2209 
L 6913 2209 
L 6913 1497 
z
" transform="scale(0.015625)"/>
      <path id="MicrosoftYaHei-Bold-77" d="M 5391 3456 
L 4391 0 
L 3331 0 
L 2800 2075 
Q 2747 2284 2744 2503 
L 2722 2503 
Q 2700 2256 2656 2088 
L 2084 0 
L 1038 0 
L 53 3456 
L 1084 3456 
L 1588 1163 
Q 1619 1025 1638 784 
L 1659 784 
Q 1675 1016 1719 1175 
L 2338 3456 
L 3294 3456 
L 3847 1159 
Q 3869 1066 3894 778 
L 3919 778 
Q 3928 944 3972 1159 
L 4453 3456 
L 5391 3456 
z
" transform="scale(0.015625)"/>
      <path id="MicrosoftYaHei-Bold-69" d="M 369 4572 
Q 369 4803 533 4948 
Q 697 5094 953 5094 
Q 1216 5094 1378 4945 
Q 1541 4797 1541 4572 
Q 1541 4344 1375 4192 
Q 1209 4041 953 4041 
Q 700 4041 534 4194 
Q 369 4347 369 4572 
z
M 444 0 
L 444 3456 
L 1450 3456 
L 1450 0 
L 444 0 
z
" transform="scale(0.015625)"/>
      <path id="MicrosoftYaHei-Bold-68" d="M 3725 0 
L 2719 0 
L 2719 1969 
Q 2719 2766 2138 2766 
Q 1847 2766 1658 2544 
Q 1469 2322 1469 1969 
L 1469 0 
L 459 0 
L 459 5116 
L 1469 5116 
L 1469 2938 
L 1481 2938 
Q 1878 3541 2550 3541 
Q 3725 3541 3725 2122 
L 3725 0 
z
" transform="scale(0.015625)"/>
      <path id="MicrosoftYaHei-Bold-42" d="M 559 0 
L 559 4841 
L 2278 4841 
Q 3069 4841 3497 4541 
Q 3925 4241 3925 3709 
Q 3925 3316 3659 3019 
Q 3394 2722 2991 2609 
L 2991 2597 
Q 3497 2534 3808 2221 
Q 4119 1909 4119 1438 
Q 4119 778 3650 389 
Q 3181 0 2369 0 
L 559 0 
z
M 1591 4072 
L 1591 2875 
L 2081 2875 
Q 2434 2875 2637 3044 
Q 2841 3213 2841 3516 
Q 2841 4072 2028 4072 
L 1591 4072 
z
M 1591 2097 
L 1591 769 
L 2203 769 
Q 2594 769 2814 950 
Q 3034 1131 3034 1453 
Q 3034 1759 2815 1928 
Q 2597 2097 2194 2097 
L 1591 2097 
z
" transform="scale(0.015625)"/>
      <path id="MicrosoftYaHei-Bold-61" d="M 544 3247 
Q 778 3378 1170 3459 
Q 1563 3541 1841 3541 
Q 3291 3541 3291 2088 
L 3291 0 
L 2331 0 
L 2331 503 
L 2319 503 
Q 1966 -84 1284 -84 
Q 794 -84 498 195 
Q 203 475 203 956 
Q 203 1950 1388 2113 
L 2338 2241 
Q 2338 2844 1709 2844 
Q 1091 2844 544 2469 
L 544 3247 
z
M 1684 1566 
Q 1138 1494 1138 1072 
Q 1138 878 1270 759 
Q 1403 641 1628 641 
Q 1938 641 2138 859 
Q 2338 1078 2338 1403 
L 2338 1650 
L 1684 1566 
z
" transform="scale(0.015625)"/>
      <path id="MicrosoftYaHei-Bold-70" d="M 1469 416 
L 1469 -1591 
L 459 -1591 
L 459 3456 
L 1469 3456 
L 1469 2928 
L 1481 2928 
Q 1878 3541 2603 3541 
Q 3263 3541 3634 3080 
Q 4006 2619 4006 1825 
Q 4006 959 3575 437 
Q 3144 -84 2444 -84 
Q 1809 -84 1481 416 
L 1469 416 
z
M 1453 1528 
Q 1453 1159 1653 925 
Q 1853 691 2172 691 
Q 2550 691 2761 984 
Q 2972 1278 2972 1816 
Q 2972 2766 2231 2766 
Q 1888 2766 1670 2503 
Q 1453 2241 1453 1828 
L 1453 1528 
z
" transform="scale(0.015625)"/>
      <path id="MicrosoftYaHei-Bold-39" d="M 544 941 
Q 931 691 1456 691 
Q 2628 691 2653 2216 
L 2634 2222 
Q 2316 1731 1650 1731 
Q 1047 1731 658 2154 
Q 269 2578 269 3222 
Q 269 3978 737 4450 
Q 1206 4922 1959 4922 
Q 2744 4922 3191 4325 
Q 3638 3728 3638 2659 
Q 3638 1391 3098 653 
Q 2559 -84 1547 -84 
Q 975 -84 544 100 
L 544 941 
z
M 1259 3313 
Q 1259 2928 1445 2709 
Q 1631 2491 1953 2491 
Q 2241 2491 2427 2700 
Q 2613 2909 2613 3219 
Q 2613 3591 2427 3869 
Q 2241 4147 1928 4147 
Q 1625 4147 1442 3906 
Q 1259 3666 1259 3313 
z
" transform="scale(0.015625)"/>
      <path id="MicrosoftYaHei-Bold-35" d="M 541 125 
L 541 997 
Q 1044 691 1613 691 
Q 2041 691 2283 902 
Q 2525 1113 2525 1472 
Q 2525 2225 1494 2225 
Q 1113 2225 616 2169 
L 797 4841 
L 3359 4841 
L 3359 4009 
L 1613 4009 
L 1544 2991 
Q 1803 3013 2022 3013 
Q 2731 3013 3142 2625 
Q 3553 2238 3553 1575 
Q 3553 844 3056 380 
Q 2559 -84 1706 -84 
Q 1016 -84 541 125 
z
" transform="scale(0.015625)"/>
      <path id="MicrosoftYaHei-Bold-25" d="M 297 3597 
Q 297 4191 626 4548 
Q 956 4906 1519 4906 
Q 2056 4906 2354 4581 
Q 2653 4256 2653 3684 
Q 2653 3097 2322 2744 
Q 1991 2391 1438 2391 
Q 919 2391 608 2722 
Q 297 3053 297 3597 
z
M 984 3631 
Q 984 2959 1478 2959 
Q 1981 2959 1981 3659 
Q 1981 4338 1500 4338 
Q 984 4338 984 3631 
z
M 4938 4841 
L 1791 -3 
L 1006 -3 
L 4147 4841 
L 4938 4841 
z
M 3297 1141 
Q 3297 1741 3631 2095 
Q 3966 2450 4522 2450 
Q 5059 2450 5357 2131 
Q 5656 1813 5656 1234 
Q 5656 641 5322 286 
Q 4988 -69 4438 -69 
Q 3922 -69 3609 264 
Q 3297 597 3297 1141 
z
M 3981 1175 
Q 3981 500 4478 500 
Q 4978 500 4978 1200 
Q 4978 1528 4845 1704 
Q 4713 1881 4491 1881 
Q 3981 1881 3981 1175 
z
" transform="scale(0.015625)"/>
      <path id="MicrosoftYaHei-Bold-49" d="M 1588 4841 
L 1588 0 
L 556 0 
L 556 4841 
L 1588 4841 
z
" transform="scale(0.015625)"/>
     </defs>
     <use xlink:href="#MicrosoftYaHei-Bold-46"/>
     <use xlink:href="#MicrosoftYaHei-Bold-6f" x="55.810547"/>
     <use xlink:href="#MicrosoftYaHei-Bold-72" x="121.533203"/>
     <use xlink:href="#MicrosoftYaHei-Bold-65" x="163.416016"/>
     <use xlink:href="#MicrosoftYaHei-Bold-73" x="221.619141"/>
     <use xlink:href="#MicrosoftYaHei-Bold-74" x="270.984375"/>
     <use xlink:href="#MicrosoftYaHei-Bold-20" x="312.390625"/>
     <use xlink:href="#MicrosoftYaHei-Bold-50" x="342.175781"/>
     <use xlink:href="#MicrosoftYaHei-Bold-6c" x="407.898438"/>
     <use xlink:href="#MicrosoftYaHei-Bold-6f" x="437.488281"/>
     <use xlink:href="#MicrosoftYaHei-Bold-74" x="503.210938"/>
     <use xlink:href="#MicrosoftYaHei-Bold-20" x="544.617188"/>
     <use xlink:href="#MicrosoftYaHei-Bold-2014" x="574.402344"/>
     <use xlink:href="#MicrosoftYaHei-Bold-20" x="682.410156"/>
     <use xlink:href="#MicrosoftYaHei-Bold-41" x="712.195312"/>
     <use xlink:href="#MicrosoftYaHei-Bold-55" x="785.515625"/>
     <use xlink:href="#MicrosoftYaHei-Bold-43" x="863.152344"/>
     <use xlink:href="#MicrosoftYaHei-Bold-20" x="930.486328"/>
     <use xlink:href="#MicrosoftYaHei-Bold-77" x="960.271484"/>
     <use xlink:href="#MicrosoftYaHei-Bold-69" x="1045.427734"/>
     <use xlink:href="#MicrosoftYaHei-Bold-74" x="1075.017578"/>
     <use xlink:href="#MicrosoftYaHei-Bold-68" x="1116.423828"/>
     <use xlink:href="#MicrosoftYaHei-Bold-20" x="1180.974609"/>
     <use xlink:href="#MicrosoftYaHei-Bold-42" x="1210.759766"/>
     <use xlink:href="#MicrosoftYaHei-Bold-6f" x="1279.119141"/>
     <use xlink:href="#MicrosoftYaHei-Bold-6f" x="1344.841797"/>
     <use xlink:href="#MicrosoftYaHei-Bold-74" x="1410.564453"/>
     <use xlink:href="#MicrosoftYaHei-Bold-73" x="1451.970703"/>
     <use xlink:href="#MicrosoftYaHei-Bold-74" x="1501.335938"/>
     <use xlink:href="#MicrosoftYaHei-Bold-72" x="1542.742188"/>
     <use xlink:href="#MicrosoftYaHei-Bold-61" x="1585.125"/>
     <use xlink:href="#MicrosoftYaHei-Bold-70" x="1642.888672"/>
     <use xlink:href="#MicrosoftYaHei-Bold-20" x="1709.490234"/>
     <use xlink:href="#MicrosoftYaHei-Bold-39" x="1739.275391"/>
     <use xlink:href="#MicrosoftYaHei-Bold-35" x="1800.945312"/>
     <use xlink:href="#MicrosoftYaHei-Bold-25" x="1862.615234"/>
     <use xlink:href="#MicrosoftYaHei-Bold-20" x="1955.730469"/>
     <use xlink:href="#MicrosoftYaHei-Bold-43" x="1985.515625"/>
     <use xlink:href="#MicrosoftYaHei-Bold-49" x="2052.849609"/>
    </g>
   </g>
  </g>
 </g>
 <defs>
  <clipPath id="pbb40510019">
   <rect x="142.284375" y="23.591875" width="725.4" height="536.6592"/>
  </clipPath>
 </defs>
</svg>
