<?xml version="1.0" encoding="utf-8" standalone="no"?>
<!DOCTYPE svg PUBLIC "-//W3C//DTD SVG 1.1//EN"
  "http://www.w3.org/Graphics/SVG/1.1/DTD/svg11.dtd">
<svg xmlns:xlink="http://www.w3.org/1999/xlink" width="835.644562pt" height="553.661188pt" viewBox="0 0 835.644562 553.661188" xmlns="http://www.w3.org/2000/svg" version="1.1">
 <metadata>
  <rdf:RDF xmlns:dc="http://purl.org/dc/elements/1.1/" xmlns:cc="http://creativecommons.org/ns#" xmlns:rdf="http://www.w3.org/1999/02/22-rdf-syntax-ns#">
   <cc:Work>
    <dc:type rdf:resource="http://purl.org/dc/dcmitype/StillImage"/>
    <dc:date>2026-04-09T02:35:59.311164</dc:date>
    <dc:format>image/svg+xml</dc:format>
    <dc:creator>
     <cc:Agent>
      <dc:title>Matplotlib v3.9.4, https://matplotlib.org/</dc:title>
     </cc:Agent>
    </dc:creator>
   </cc:Work>
  </rdf:RDF>
 </metadata>
 <defs>
  <style type="text/css">*{stroke-linejoin: round; stroke-linecap: butt}</style>
 </defs>
 <g id="figure_1">
  <g id="patch_1">
   <path d="M 0 553.661188 
L 835.644562 553.661188 
L 835.644562 0 
L 0 0 
z
" style="fill: #ffffff"/>
  </g>
  <g id="axes_1">
   <g id="patch_2">
    <path d="M 46.379063 510.761344 
L 632.279063 510.761344 
L 632.279063 39.521344 
L 46.379063 39.521344 
z
" style="fill: #ffffff"/>
   </g>
   <g id="matplotlib.axis_1">
    <g id="xtick_1">
     <g id="line2d_1">
      <path d="M 96.031605 510.761344 
L 96.031605 39.521344 
" clip-path="url(#p2ed8a01ce7)" style="fill: none; stroke-dasharray: 3.7,1.6; stroke-dashoffset: 0; stroke: #cccccc; stroke-opacity: 0.2"/>
     </g>
     <g id="text_1">
      <!-- 0.5 -->
      <g style="fill: #262626" transform="translate(88.963636 528.255094) scale(0.1 -0.1)">
       <defs>
        <path id="MicrosoftYaHei-30" d="M 284 2325 
Q 284 3606 709 4264 
Q 1134 4922 1941 4922 
Q 3478 4922 3478 2441 
Q 3478 1216 3045 567 
Q 2613 -81 1831 -81 
Q 1094 -81 689 534 
Q 284 1150 284 2325 
z
M 909 2353 
Q 909 425 1888 425 
Q 2850 425 2850 2384 
Q 2850 4413 1906 4413 
Q 909 4413 909 2353 
z
" transform="scale(0.015625)"/>
        <path id="MicrosoftYaHei-2e" d="M 372 322 
Q 372 491 487 606 
Q 603 722 775 722 
Q 950 722 1065 605 
Q 1181 488 1181 322 
Q 1181 159 1065 42 
Q 950 -75 772 -75 
Q 600 -75 486 42 
Q 372 159 372 322 
z
" transform="scale(0.015625)"/>
        <path id="MicrosoftYaHei-35" d="M 3294 1494 
Q 3294 784 2823 350 
Q 2353 -84 1559 -84 
Q 878 -84 544 119 
L 544 744 
Q 1034 425 1544 425 
Q 2050 425 2361 704 
Q 2672 984 2672 1447 
Q 2672 1909 2348 2167 
Q 2025 2425 1434 2425 
Q 978 2425 613 2384 
L 791 4841 
L 3053 4841 
L 3053 4303 
L 1306 4303 
L 1206 2931 
L 1647 2950 
Q 2416 2950 2855 2567 
Q 3294 2184 3294 1494 
z
" transform="scale(0.015625)"/>
       </defs>
       <use xlink:href="#MicrosoftYaHei-30"/>
       <use xlink:href="#MicrosoftYaHei-2e" x="58.642578"/>
       <use xlink:href="#MicrosoftYaHei-35" x="82.714844"/>
      </g>
     </g>
    </g>
    <g id="xtick_2">
     <g id="line2d_2">
      <path d="M 195.33669 510.761344 
L 195.33669 39.521344 
" clip-path="url(#p2ed8a01ce7)" style="fill: none; stroke-dasharray: 3.7,1.6; stroke-dashoffset: 0; stroke: #cccccc; stroke-opacity: 0.2"/>
     </g>
     <g id="text_2">
      <!-- 0.6 -->
      <g style="fill: #262626" transform="translate(188.268721 528.255094) scale(0.1 -0.1)">
       <defs>
        <path id="MicrosoftYaHei-36" d="M 3181 4219 
Q 2803 4413 2391 4413 
Q 1763 4413 1381 3866 
Q 1000 3319 994 2372 
L 1009 2372 
Q 1353 3038 2106 3038 
Q 2734 3038 3109 2628 
Q 3484 2219 3484 1541 
Q 3484 831 3051 375 
Q 2619 -81 1947 -81 
Q 1209 -81 789 495 
Q 369 1072 369 2131 
Q 369 3413 920 4167 
Q 1472 4922 2372 4922 
Q 2888 4922 3181 4781 
L 3181 4219 
z
M 1031 1584 
Q 1031 1106 1286 765 
Q 1541 425 1963 425 
Q 2363 425 2613 719 
Q 2863 1013 2863 1475 
Q 2863 1975 2627 2253 
Q 2391 2531 1956 2531 
Q 1544 2531 1287 2250 
Q 1031 1969 1031 1584 
z
" transform="scale(0.015625)"/>
       </defs>
       <use xlink:href="#MicrosoftYaHei-30"/>
       <use xlink:href="#MicrosoftYaHei-2e" x="58.642578"/>
       <use xlink:href="#MicrosoftYaHei-36" x="82.714844"/>
      </g>
     </g>
    </g>
    <g id="xtick_3">
     <g id="line2d_3">
      <path d="M 294.641774 510.761344 
L 294.641774 39.521344 
" clip-path="url(#p2ed8a01ce7)" style="fill: none; stroke-dasharray: 3.7,1.6; stroke-dashoffset: 0; stroke: #cccccc; stroke-opacity: 0.2"/>
     </g>
     <g id="text_3">
      <!-- 0.7 -->
      <g style="fill: #262626" transform="translate(287.573806 528.255094) scale(0.1 -0.1)">
       <defs>
        <path id="MicrosoftYaHei-37" d="M 3422 4463 
Q 2659 3131 2223 1998 
Q 1788 866 1684 0 
L 1047 0 
Q 1163 853 1594 1947 
Q 2025 3041 2747 4300 
L 347 4300 
L 347 4841 
L 3422 4841 
L 3422 4463 
z
" transform="scale(0.015625)"/>
       </defs>
       <use xlink:href="#MicrosoftYaHei-30"/>
       <use xlink:href="#MicrosoftYaHei-2e" x="58.642578"/>
       <use xlink:href="#MicrosoftYaHei-37" x="82.714844"/>
      </g>
     </g>
    </g>
    <g id="xtick_4">
     <g id="line2d_4">
      <path d="M 393.946859 510.761344 
L 393.946859 39.521344 
" clip-path="url(#p2ed8a01ce7)" style="fill: none; stroke-dasharray: 3.7,1.6; stroke-dashoffset: 0; stroke: #cccccc; stroke-opacity: 0.2"/>
     </g>
     <g id="text_4">
      <!-- 0.8 -->
      <g style="fill: #262626" transform="translate(386.87889 528.255094) scale(0.1 -0.1)">
       <defs>
        <path id="MicrosoftYaHei-38" d="M 306 1350 
Q 306 1769 556 2122 
Q 806 2475 1200 2625 
Q 884 2803 700 3081 
Q 516 3359 516 3684 
Q 516 4028 692 4312 
Q 869 4597 1183 4759 
Q 1497 4922 1875 4922 
Q 2256 4922 2572 4761 
Q 2888 4600 3063 4315 
Q 3238 4031 3238 3684 
Q 3238 3366 3058 3086 
Q 2878 2806 2559 2625 
Q 2953 2472 3200 2119 
Q 3447 1766 3447 1350 
Q 3447 938 3250 611 
Q 3053 284 2690 103 
Q 2328 -78 1875 -78 
Q 1425 -78 1065 103 
Q 706 284 506 612 
Q 306 941 306 1350 
z
M 906 1378 
Q 906 947 1172 687 
Q 1438 428 1878 428 
Q 2309 428 2582 692 
Q 2856 956 2856 1378 
Q 2856 1778 2579 2051 
Q 2303 2325 1878 2325 
Q 1456 2325 1181 2058 
Q 906 1791 906 1378 
z
M 1081 3634 
Q 1081 3309 1312 3076 
Q 1544 2844 1878 2844 
Q 2206 2844 2445 3078 
Q 2684 3313 2684 3634 
Q 2684 3963 2454 4191 
Q 2225 4419 1878 4419 
Q 1534 4419 1307 4195 
Q 1081 3972 1081 3634 
z
" transform="scale(0.015625)"/>
       </defs>
       <use xlink:href="#MicrosoftYaHei-30"/>
       <use xlink:href="#MicrosoftYaHei-2e" x="58.642578"/>
       <use xlink:href="#MicrosoftYaHei-38" x="82.714844"/>
      </g>
     </g>
    </g>
    <g id="xtick_5">
     <g id="line2d_5">
      <path d="M 493.251944 510.761344 
L 493.251944 39.521344 
" clip-path="url(#p2ed8a01ce7)" style="fill: none; stroke-dasharray: 3.7,1.6; stroke-dashoffset: 0; stroke: #cccccc; stroke-opacity: 0.2"/>
     </g>
     <g id="text_5">
      <!-- 0.9 -->
      <g style="fill: #262626" transform="translate(486.183975 528.255094) scale(0.1 -0.1)">
       <defs>
        <path id="MicrosoftYaHei-39" d="M 578 656 
Q 978 425 1441 425 
Q 2091 425 2448 937 
Q 2806 1450 2806 2394 
Q 2800 2388 2794 2394 
Q 2475 1788 1722 1788 
Q 1113 1788 713 2206 
Q 313 2625 313 3294 
Q 313 4006 750 4464 
Q 1188 4922 1884 4922 
Q 2606 4922 3012 4355 
Q 3419 3788 3419 2703 
Q 3419 1363 2894 641 
Q 2369 -81 1441 -81 
Q 931 -81 578 84 
L 578 656 
z
M 931 3372 
Q 931 2884 1181 2598 
Q 1431 2313 1872 2313 
Q 2253 2313 2512 2573 
Q 2772 2834 2772 3206 
Q 2772 3728 2514 4070 
Q 2256 4413 1834 4413 
Q 1444 4413 1187 4116 
Q 931 3819 931 3372 
z
" transform="scale(0.015625)"/>
       </defs>
       <use xlink:href="#MicrosoftYaHei-30"/>
       <use xlink:href="#MicrosoftYaHei-2e" x="58.642578"/>
       <use xlink:href="#MicrosoftYaHei-39" x="82.714844"/>
      </g>
     </g>
    </g>
    <g id="xtick_6">
     <g id="line2d_6">
      <path d="M 592.557029 510.761344 
L 592.557029 39.521344 
" clip-path="url(#p2ed8a01ce7)" style="fill: none; stroke-dasharray: 3.7,1.6; stroke-dashoffset: 0; stroke: #cccccc; stroke-opacity: 0.2"/>
     </g>
     <g id="text_6">
      <!-- 1.0 -->
      <g style="fill: #262626" transform="translate(585.48906 528.255094) scale(0.1 -0.1)">
       <defs>
        <path id="MicrosoftYaHei-31" d="M 1781 0 
L 1781 4141 
Q 1638 3997 1295 3819 
Q 953 3641 663 3569 
L 663 4169 
Q 1047 4275 1484 4508 
Q 1922 4741 2156 4947 
L 2388 4947 
L 2388 0 
L 1781 0 
z
" transform="scale(0.015625)"/>
       </defs>
       <use xlink:href="#MicrosoftYaHei-31"/>
       <use xlink:href="#MicrosoftYaHei-2e" x="58.642578"/>
       <use xlink:href="#MicrosoftYaHei-30" x="82.714844"/>
      </g>
     </g>
    </g>
    <g id="text_7">
     <!-- Specificity -->
     <g style="fill: #262626" transform="translate(310.925859 543.673375) scale(0.11 -0.11)">
      <defs>
       <path id="MicrosoftYaHei-Bold-53" d="M 338 1219 
Q 922 734 1666 734 
Q 2088 734 2300 879 
Q 2513 1025 2513 1253 
Q 2513 1450 2344 1625 
Q 2175 1800 1453 2100 
Q 319 2581 319 3500 
Q 319 4175 833 4548 
Q 1347 4922 2194 4922 
Q 2903 4922 3384 4738 
L 3384 3769 
Q 2897 4100 2244 4100 
Q 1863 4100 1634 3961 
Q 1406 3822 1406 3588 
Q 1406 3400 1562 3242 
Q 1719 3084 2334 2816 
Q 3056 2506 3326 2162 
Q 3597 1819 3597 1344 
Q 3597 647 3103 281 
Q 2609 -84 1700 -84 
Q 869 -84 338 184 
L 338 1219 
z
" transform="scale(0.015625)"/>
       <path id="MicrosoftYaHei-Bold-70" d="M 1469 416 
L 1469 -1591 
L 459 -1591 
L 459 3456 
L 1469 3456 
L 1469 2928 
L 1481 2928 
Q 1878 3541 2603 3541 
Q 3263 3541 3634 3080 
Q 4006 2619 4006 1825 
Q 4006 959 3575 437 
Q 3144 -84 2444 -84 
Q 1809 -84 1481 416 
L 1469 416 
z
M 1453 1528 
Q 1453 1159 1653 925 
Q 1853 691 2172 691 
Q 2550 691 2761 984 
Q 2972 1278 2972 1816 
Q 2972 2766 2231 2766 
Q 1888 2766 1670 2503 
Q 1453 2241 1453 1828 
L 1453 1528 
z
" transform="scale(0.015625)"/>
       <path id="MicrosoftYaHei-Bold-65" d="M 3528 1444 
L 1253 1444 
Q 1306 641 2222 641 
Q 2794 641 3231 922 
L 3231 181 
Q 2759 -84 1994 -84 
Q 1169 -84 711 381 
Q 253 847 253 1678 
Q 253 2506 740 3023 
Q 1228 3541 1966 3541 
Q 2700 3541 3114 3095 
Q 3528 2650 3528 1872 
L 3528 1444 
z
M 2588 2075 
Q 2588 2850 1959 2850 
Q 1700 2850 1500 2637 
Q 1300 2425 1250 2075 
L 2588 2075 
z
" transform="scale(0.015625)"/>
       <path id="MicrosoftYaHei-Bold-63" d="M 3050 128 
Q 2688 -84 2019 -84 
Q 1228 -84 740 397 
Q 253 878 253 1644 
Q 253 2525 778 3033 
Q 1303 3541 2178 3541 
Q 2769 3541 3053 3378 
L 3053 2513 
Q 2706 2766 2297 2766 
Q 1834 2766 1554 2484 
Q 1275 2203 1275 1713 
Q 1275 1238 1540 964 
Q 1806 691 2263 691 
Q 2666 691 3050 947 
L 3050 128 
z
" transform="scale(0.015625)"/>
       <path id="MicrosoftYaHei-Bold-69" d="M 369 4572 
Q 369 4803 533 4948 
Q 697 5094 953 5094 
Q 1216 5094 1378 4945 
Q 1541 4797 1541 4572 
Q 1541 4344 1375 4192 
Q 1209 4041 953 4041 
Q 700 4041 534 4194 
Q 369 4347 369 4572 
z
M 444 0 
L 444 3456 
L 1450 3456 
L 1450 0 
L 444 0 
z
" transform="scale(0.015625)"/>
       <path id="MicrosoftYaHei-Bold-66" d="M 2653 4338 
Q 2447 4419 2263 4419 
Q 1744 4419 1744 3844 
L 1744 3456 
L 2531 3456 
L 2531 2703 
L 1744 2703 
L 1744 0 
L 734 0 
L 734 2703 
L 156 2703 
L 156 3456 
L 734 3456 
L 734 3900 
Q 734 4491 1118 4844 
Q 1503 5197 2128 5197 
Q 2447 5197 2653 5131 
L 2653 4338 
z
" transform="scale(0.015625)"/>
       <path id="MicrosoftYaHei-Bold-74" d="M 2494 41 
Q 2266 -84 1803 -84 
Q 703 -84 703 1072 
L 703 2703 
L 134 2703 
L 134 3456 
L 703 3456 
L 703 4216 
L 1706 4503 
L 1706 3456 
L 2494 3456 
L 2494 2703 
L 1706 2703 
L 1706 1247 
Q 1706 694 2144 694 
Q 2313 694 2494 794 
L 2494 41 
z
" transform="scale(0.015625)"/>
       <path id="MicrosoftYaHei-Bold-79" d="M 3691 3456 
L 2266 -309 
Q 1769 -1622 778 -1622 
Q 388 -1622 172 -1541 
L 172 -731 
Q 375 -847 619 -847 
Q 1031 -847 1200 -447 
L 1391 6 
L -6 3456 
L 1113 3456 
L 1788 1291 
Q 1850 1094 1878 850 
L 1897 850 
Q 1919 1016 2000 1284 
L 2691 3456 
L 3691 3456 
z
" transform="scale(0.015625)"/>
      </defs>
      <use xlink:href="#MicrosoftYaHei-Bold-53"/>
      <use xlink:href="#MicrosoftYaHei-Bold-70" x="60.15625"/>
      <use xlink:href="#MicrosoftYaHei-Bold-65" x="126.757812"/>
      <use xlink:href="#MicrosoftYaHei-Bold-63" x="184.960938"/>
      <use xlink:href="#MicrosoftYaHei-Bold-69" x="236.621094"/>
      <use xlink:href="#MicrosoftYaHei-Bold-66" x="266.210938"/>
      <use xlink:href="#MicrosoftYaHei-Bold-69" x="306.738281"/>
      <use xlink:href="#MicrosoftYaHei-Bold-63" x="336.328125"/>
      <use xlink:href="#MicrosoftYaHei-Bold-69" x="387.988281"/>
      <use xlink:href="#MicrosoftYaHei-Bold-74" x="417.578125"/>
      <use xlink:href="#MicrosoftYaHei-Bold-79" x="458.984375"/>
     </g>
    </g>
   </g>
   <g id="matplotlib.axis_2">
    <g id="ytick_1">
     <g id="line2d_7">
      <path d="M 46.379063 470.825751 
L 632.279063 470.825751 
" clip-path="url(#p2ed8a01ce7)" style="fill: none; stroke-dasharray: 3.7,1.6; stroke-dashoffset: 0; stroke: #cccccc; stroke-opacity: 0.2"/>
     </g>
     <g id="text_8">
      <!-- 0.5 -->
      <g style="fill: #262626" transform="translate(22.743125 474.822626) scale(0.1 -0.1)">
       <use xlink:href="#MicrosoftYaHei-30"/>
       <use xlink:href="#MicrosoftYaHei-2e" x="58.642578"/>
       <use xlink:href="#MicrosoftYaHei-35" x="82.714844"/>
      </g>
     </g>
    </g>
    <g id="ytick_2">
     <g id="line2d_8">
      <path d="M 46.379063 390.954564 
L 632.279063 390.954564 
" clip-path="url(#p2ed8a01ce7)" style="fill: none; stroke-dasharray: 3.7,1.6; stroke-dashoffset: 0; stroke: #cccccc; stroke-opacity: 0.2"/>
     </g>
     <g id="text_9">
      <!-- 0.6 -->
      <g style="fill: #262626" transform="translate(22.743125 394.951439) scale(0.1 -0.1)">
       <use xlink:href="#MicrosoftYaHei-30"/>
       <use xlink:href="#MicrosoftYaHei-2e" x="58.642578"/>
       <use xlink:href="#MicrosoftYaHei-36" x="82.714844"/>
      </g>
     </g>
    </g>
    <g id="ytick_3">
     <g id="line2d_9">
      <path d="M 46.379063 311.083378 
L 632.279063 311.083378 
" clip-path="url(#p2ed8a01ce7)" style="fill: none; stroke-dasharray: 3.7,1.6; stroke-dashoffset: 0; stroke: #cccccc; stroke-opacity: 0.2"/>
     </g>
     <g id="text_10">
      <!-- 0.7 -->
      <g style="fill: #262626" transform="translate(22.743125 315.080253) scale(0.1 -0.1)">
       <use xlink:href="#MicrosoftYaHei-30"/>
       <use xlink:href="#MicrosoftYaHei-2e" x="58.642578"/>
       <use xlink:href="#MicrosoftYaHei-37" x="82.714844"/>
      </g>
     </g>
    </g>
    <g id="ytick_4">
     <g id="line2d_10">
      <path d="M 46.379063 231.212191 
L 632.279063 231.212191 
" clip-path="url(#p2ed8a01ce7)" style="fill: none; stroke-dasharray: 3.7,1.6; stroke-dashoffset: 0; stroke: #cccccc; stroke-opacity: 0.2"/>
     </g>
     <g id="text_11">
      <!-- 0.8 -->
      <g style="fill: #262626" transform="translate(22.743125 235.209066) scale(0.1 -0.1)">
       <use xlink:href="#MicrosoftYaHei-30"/>
       <use xlink:href="#MicrosoftYaHei-2e" x="58.642578"/>
       <use xlink:href="#MicrosoftYaHei-38" x="82.714844"/>
      </g>
     </g>
    </g>
    <g id="ytick_5">
     <g id="line2d_11">
      <path d="M 46.379063 151.341005 
L 632.279063 151.341005 
" clip-path="url(#p2ed8a01ce7)" style="fill: none; stroke-dasharray: 3.7,1.6; stroke-dashoffset: 0; stroke: #cccccc; stroke-opacity: 0.2"/>
     </g>
     <g id="text_12">
      <!-- 0.9 -->
      <g style="fill: #262626" transform="translate(22.743125 155.33788) scale(0.1 -0.1)">
       <use xlink:href="#MicrosoftYaHei-30"/>
       <use xlink:href="#MicrosoftYaHei-2e" x="58.642578"/>
       <use xlink:href="#MicrosoftYaHei-39" x="82.714844"/>
      </g>
     </g>
    </g>
    <g id="ytick_6">
     <g id="line2d_12">
      <path d="M 46.379063 71.469818 
L 632.279063 71.469818 
" clip-path="url(#p2ed8a01ce7)" style="fill: none; stroke-dasharray: 3.7,1.6; stroke-dashoffset: 0; stroke: #cccccc; stroke-opacity: 0.2"/>
     </g>
     <g id="text_13">
      <!-- 1.0 -->
      <g style="fill: #262626" transform="translate(22.743125 75.466693) scale(0.1 -0.1)">
       <use xlink:href="#MicrosoftYaHei-31"/>
       <use xlink:href="#MicrosoftYaHei-2e" x="58.642578"/>
       <use xlink:href="#MicrosoftYaHei-30" x="82.714844"/>
      </g>
     </g>
    </g>
    <g id="text_14">
     <!-- Sensitivity -->
     <g style="fill: #262626" transform="translate(15.955313 303.700094) rotate(-90) scale(0.11 -0.11)">
      <defs>
       <path id="MicrosoftYaHei-Bold-6e" d="M 3744 0 
L 2741 0 
L 2741 1928 
Q 2741 2766 2138 2766 
Q 1850 2766 1659 2542 
Q 1469 2319 1469 1972 
L 1469 0 
L 459 0 
L 459 3456 
L 1469 3456 
L 1469 2906 
L 1481 2906 
Q 1859 3541 2594 3541 
Q 3744 3541 3744 2116 
L 3744 0 
z
" transform="scale(0.015625)"/>
       <path id="MicrosoftYaHei-Bold-73" d="M 369 928 
Q 888 613 1384 613 
Q 2009 613 2009 947 
Q 2009 1184 1494 1344 
Q 850 1544 609 1789 
Q 369 2034 369 2453 
Q 369 2963 781 3252 
Q 1194 3541 1863 3541 
Q 2338 3541 2778 3400 
L 2778 2606 
Q 2375 2844 1891 2844 
Q 1650 2844 1503 2758 
Q 1356 2672 1356 2531 
Q 1356 2294 1794 2147 
Q 2263 1991 2498 1862 
Q 2734 1734 2857 1525 
Q 2981 1316 2981 1041 
Q 2981 506 2553 211 
Q 2125 -84 1409 -84 
Q 847 -84 369 94 
L 369 928 
z
" transform="scale(0.015625)"/>
       <path id="MicrosoftYaHei-Bold-76" d="M 3688 3456 
L 2391 0 
L 1250 0 
L 16 3456 
L 1097 3456 
L 1731 1281 
Q 1834 925 1847 684 
L 1863 684 
Q 1888 931 1984 1263 
L 2631 3456 
L 3688 3456 
z
" transform="scale(0.015625)"/>
      </defs>
      <use xlink:href="#MicrosoftYaHei-Bold-53"/>
      <use xlink:href="#MicrosoftYaHei-Bold-65" x="60.15625"/>
      <use xlink:href="#MicrosoftYaHei-Bold-6e" x="118.359375"/>
      <use xlink:href="#MicrosoftYaHei-Bold-73" x="183.154297"/>
      <use xlink:href="#MicrosoftYaHei-Bold-69" x="232.519531"/>
      <use xlink:href="#MicrosoftYaHei-Bold-74" x="262.109375"/>
      <use xlink:href="#MicrosoftYaHei-Bold-69" x="303.515625"/>
      <use xlink:href="#MicrosoftYaHei-Bold-76" x="333.105469"/>
      <use xlink:href="#MicrosoftYaHei-Bold-69" x="390.820312"/>
      <use xlink:href="#MicrosoftYaHei-Bold-74" x="420.410156"/>
      <use xlink:href="#MicrosoftYaHei-Bold-79" x="461.816406"/>
     </g>
    </g>
   </g>
   <g id="line2d_13">
    <path d="M 96.031605 311.083378 
L 101.047013 315.117276 
L 106.062422 319.151174 
L 111.07783 323.185073 
L 116.093238 327.218971 
L 121.108646 331.252869 
L 126.124055 335.286767 
L 131.139463 339.320666 
L 136.154871 343.354564 
L 141.17028 347.388462 
L 146.185688 351.422361 
L 151.201096 355.456259 
L 156.216505 359.490157 
L 161.231913 363.524056 
L 166.247321 367.557954 
L 171.26273 371.591852 
L 176.278138 375.625751 
L 181.293546 379.659649 
L 186.308955 383.693547 
L 191.324363 387.727445 
L 196.339771 391.761344 
L 201.35518 395.795242 
L 206.370588 399.82914 
L 211.385996 403.863039 
L 216.401405 407.896937 
L 221.416813 411.930835 
L 226.432221 415.964734 
L 231.44763 419.998632 
L 236.463038 424.03253 
L 241.478446 428.066428 
L 246.493854 432.100327 
L 251.509263 436.134225 
L 256.524671 440.168123 
L 261.540079 444.202022 
L 266.555488 448.23592 
L 271.570896 452.269818 
L 276.586304 456.303717 
L 281.601713 460.337615 
L 286.617121 464.371513 
L 291.632529 468.405412 
" clip-path="url(#p2ed8a01ce7)" style="fill: none; stroke-dasharray: 0.8,1.32; stroke-dashoffset: 0; stroke: #aaaaaa; stroke-opacity: 0.6; stroke-width: 0.8"/>
   </g>
   <g id="line2d_14">
    <path d="M 96.031605 151.341005 
L 101.047013 155.374903 
L 106.062422 159.408801 
L 111.07783 163.4427 
L 116.093238 167.476598 
L 121.108646 171.510496 
L 126.124055 175.544395 
L 131.139463 179.578293 
L 136.154871 183.612191 
L 141.17028 187.64609 
L 146.185688 191.679988 
L 151.201096 195.713886 
L 156.216505 199.747784 
L 161.231913 203.781683 
L 166.247321 207.815581 
L 171.26273 211.849479 
L 176.278138 215.883378 
L 181.293546 219.917276 
L 186.308955 223.951174 
L 191.324363 227.985073 
L 196.339771 232.018971 
L 201.35518 236.052869 
L 206.370588 240.086767 
L 211.385996 244.120666 
L 216.401405 248.154564 
L 221.416813 252.188462 
L 226.432221 256.222361 
L 231.44763 260.256259 
L 236.463038 264.290157 
L 241.478446 268.324056 
L 246.493854 272.357954 
L 251.509263 276.391852 
L 256.524671 280.425751 
L 261.540079 284.459649 
L 266.555488 288.493547 
L 271.570896 292.527445 
L 276.586304 296.561344 
L 281.601713 300.595242 
L 286.617121 304.62914 
L 291.632529 308.663039 
L 296.647938 312.696937 
L 301.663346 316.730835 
L 306.678754 320.764734 
L 311.694163 324.798632 
L 316.709571 328.83253 
L 321.724979 332.866428 
L 326.740388 336.900327 
L 331.755796 340.934225 
L 336.771204 344.968123 
L 341.786613 349.002022 
L 346.802021 353.03592 
L 351.817429 357.069818 
L 356.832838 361.103717 
L 361.848246 365.137615 
L 366.863654 369.171513 
L 371.879062 373.205412 
L 376.894471 377.23931 
L 381.909879 381.273208 
L 386.925287 385.307106 
L 391.940696 389.341005 
L 396.956104 393.374903 
L 401.971512 397.408801 
L 406.986921 401.4427 
L 412.002329 405.476598 
L 417.017737 409.510496 
L 422.033146 413.544395 
L 427.048554 417.578293 
L 432.063962 421.612191 
L 437.079371 425.64609 
L 442.094779 429.679988 
L 447.110187 433.713886 
L 452.125596 437.747784 
L 457.141004 441.781683 
L 462.156412 445.815581 
L 467.171821 449.849479 
L 472.187229 453.883378 
L 477.202637 457.917276 
L 482.218046 461.951174 
L 487.233454 465.985073 
L 492.248862 470.018971 
" clip-path="url(#p2ed8a01ce7)" style="fill: none; stroke-dasharray: 0.8,1.32; stroke-dashoffset: 0; stroke: #aaaaaa; stroke-opacity: 0.6; stroke-width: 0.8"/>
   </g>
   <g id="line2d_15">
    <path d="M 146.185688 31.937615 
L 151.201096 35.971513 
L 156.216505 40.005412 
L 161.231913 44.03931 
L 166.247321 48.073208 
L 171.26273 52.107106 
L 176.278138 56.141005 
L 181.293546 60.174903 
L 186.308955 64.208801 
L 191.324363 68.2427 
L 196.339771 72.276598 
L 201.35518 76.310496 
L 206.370588 80.344395 
L 211.385996 84.378293 
L 216.401405 88.412191 
L 221.416813 92.44609 
L 226.432221 96.479988 
L 231.44763 100.513886 
L 236.463038 104.547784 
L 241.478446 108.581683 
L 246.493854 112.615581 
L 251.509263 116.649479 
L 256.524671 120.683378 
L 261.540079 124.717276 
L 266.555488 128.751174 
L 271.570896 132.785073 
L 276.586304 136.818971 
L 281.601713 140.852869 
L 286.617121 144.886767 
L 291.632529 148.920666 
L 296.647938 152.954564 
L 301.663346 156.988462 
L 306.678754 161.022361 
L 311.694163 165.056259 
L 316.709571 169.090157 
L 321.724979 173.124056 
L 326.740388 177.157954 
L 331.755796 181.191852 
L 336.771204 185.225751 
L 341.786613 189.259649 
L 346.802021 193.293547 
L 351.817429 197.327445 
L 356.832838 201.361344 
L 361.848246 205.395242 
L 366.863654 209.42914 
L 371.879062 213.463039 
L 376.894471 217.496937 
L 381.909879 221.530835 
L 386.925287 225.564734 
L 391.940696 229.598632 
L 396.956104 233.63253 
L 401.971512 237.666428 
L 406.986921 241.700327 
L 412.002329 245.734225 
L 417.017737 249.768123 
L 422.033146 253.802022 
L 427.048554 257.83592 
L 432.063962 261.869818 
L 437.079371 265.903717 
L 442.094779 269.937615 
L 447.110187 273.971513 
L 452.125596 278.005412 
L 457.141004 282.03931 
L 462.156412 286.073208 
L 467.171821 290.107106 
L 472.187229 294.141005 
L 477.202637 298.174903 
L 482.218046 302.208801 
L 487.233454 306.2427 
L 492.248862 310.276598 
L 497.264271 314.310496 
L 502.279679 318.344395 
L 507.295087 322.378293 
L 512.310495 326.412191 
L 517.325904 330.44609 
L 522.341312 334.479988 
L 527.35672 338.513886 
L 532.372129 342.547784 
L 537.387537 346.581683 
L 542.402945 350.615581 
L 547.418354 354.649479 
L 552.433762 358.683378 
L 557.44917 362.717276 
L 562.464579 366.751174 
L 567.479987 370.785073 
L 572.495395 374.818971 
L 577.510804 378.852869 
L 582.526212 382.886767 
L 587.54162 386.920666 
L 592.557029 390.954564 
" clip-path="url(#p2ed8a01ce7)" style="fill: none; stroke-dasharray: 0.8,1.32; stroke-dashoffset: 0; stroke: #aaaaaa; stroke-opacity: 0.6; stroke-width: 0.8"/>
   </g>
   <g id="line2d_16">
    <path d="M 346.802021 33.551174 
L 351.817429 37.585073 
L 356.832838 41.618971 
L 361.848246 45.652869 
L 366.863654 49.686767 
L 371.879062 53.720666 
L 376.894471 57.754564 
L 381.909879 61.788462 
L 386.925287 65.822361 
L 391.940696 69.856259 
L 396.956104 73.890157 
L 401.971512 77.924056 
L 406.986921 81.957954 
L 412.002329 85.991852 
L 417.017737 90.025751 
L 422.033146 94.059649 
L 427.048554 98.093547 
L 432.063962 102.127445 
L 437.079371 106.161344 
L 442.094779 110.195242 
L 447.110187 114.22914 
L 452.125596 118.263039 
L 457.141004 122.296937 
L 462.156412 126.330835 
L 467.171821 130.364734 
L 472.187229 134.398632 
L 477.202637 138.43253 
L 482.218046 142.466428 
L 487.233454 146.500327 
L 492.248862 150.534225 
L 497.264271 154.568123 
L 502.279679 158.602022 
L 507.295087 162.63592 
L 512.310495 166.669818 
L 517.325904 170.703717 
L 522.341312 174.737615 
L 527.35672 178.771513 
L 532.372129 182.805412 
L 537.387537 186.83931 
L 542.402945 190.873208 
L 547.418354 194.907106 
L 552.433762 198.941005 
L 557.44917 202.974903 
L 562.464579 207.008801 
L 567.479987 211.0427 
L 572.495395 215.076598 
L 577.510804 219.110496 
L 582.526212 223.144395 
L 587.54162 227.178293 
L 592.557029 231.212191 
" clip-path="url(#p2ed8a01ce7)" style="fill: none; stroke-dasharray: 0.8,1.32; stroke-dashoffset: 0; stroke: #aaaaaa; stroke-opacity: 0.6; stroke-width: 0.8"/>
   </g>
   <g id="patch_3">
    <path d="M 46.379063 510.761344 
L 46.379063 39.521344 
" style="fill: none; stroke: #555555; stroke-width: 0.8; stroke-linejoin: miter; stroke-linecap: square"/>
   </g>
   <g id="patch_4">
    <path d="M 46.379063 510.761344 
L 632.279062 510.761344 
" style="fill: none; stroke: #555555; stroke-width: 0.8; stroke-linejoin: miter; stroke-linecap: square"/>
   </g>
   <g id="text_15">
    <!-- J=0.2 -->
    <g style="fill: #999999" transform="translate(197.570248 367.662303) rotate(-315) scale(0.07 -0.07)">
     <defs>
      <path id="MicrosoftYaHei-4a" d="M 1950 1756 
Q 1950 878 1578 398 
Q 1206 -81 566 -81 
Q 269 -81 75 6 
L 75 616 
Q 269 475 563 475 
Q 1325 475 1325 1756 
L 1325 4841 
L 1950 4841 
L 1950 1756 
z
" transform="scale(0.015625)"/>
      <path id="MicrosoftYaHei-3d" d="M 3972 2497 
L 788 2497 
L 788 2969 
L 3972 2969 
L 3972 2497 
z
M 3972 1053 
L 788 1053 
L 788 1525 
L 3972 1525 
L 3972 1053 
z
" transform="scale(0.015625)"/>
      <path id="MicrosoftYaHei-32" d="M 2666 3572 
Q 2666 3963 2419 4186 
Q 2172 4409 1747 4409 
Q 1447 4409 1140 4256 
Q 834 4103 569 3819 
L 569 4413 
Q 806 4659 1107 4790 
Q 1409 4922 1816 4922 
Q 2472 4922 2872 4570 
Q 3272 4219 3272 3619 
Q 3272 3084 3026 2693 
Q 2781 2303 2188 1894 
Q 1581 1475 1376 1294 
Q 1172 1113 1090 947 
Q 1009 781 1009 544 
L 3416 544 
L 3416 0 
L 372 0 
L 372 241 
Q 372 659 486 951 
Q 600 1244 862 1520 
Q 1125 1797 1681 2184 
Q 2250 2584 2458 2886 
Q 2666 3188 2666 3572 
z
" transform="scale(0.015625)"/>
     </defs>
     <use xlink:href="#MicrosoftYaHei-4a"/>
     <use xlink:href="#MicrosoftYaHei-3d" x="39.599609"/>
     <use xlink:href="#MicrosoftYaHei-30" x="113.769531"/>
     <use xlink:href="#MicrosoftYaHei-2e" x="172.412109"/>
     <use xlink:href="#MicrosoftYaHei-32" x="196.484375"/>
    </g>
   </g>
   <g id="text_16">
    <!-- J=0.4 -->
    <g style="fill: #999999" transform="translate(297.878414 288.597896) rotate(-315) scale(0.07 -0.07)">
     <defs>
      <path id="MicrosoftYaHei-34" d="M 2906 4841 
L 2906 1644 
L 3631 1644 
L 3631 1138 
L 2906 1138 
L 2906 0 
L 2313 0 
L 2313 1138 
L 53 1138 
L 53 1616 
Q 656 2294 1265 3178 
Q 1875 4063 2272 4841 
L 2906 4841 
z
M 741 1644 
L 2313 1644 
L 2313 3950 
Q 1988 3366 1616 2817 
Q 1244 2269 741 1644 
z
" transform="scale(0.015625)"/>
     </defs>
     <use xlink:href="#MicrosoftYaHei-4a"/>
     <use xlink:href="#MicrosoftYaHei-3d" x="39.599609"/>
     <use xlink:href="#MicrosoftYaHei-30" x="113.769531"/>
     <use xlink:href="#MicrosoftYaHei-2e" x="172.412109"/>
     <use xlink:href="#MicrosoftYaHei-34" x="196.484375"/>
    </g>
   </g>
   <g id="text_17">
    <!-- J=0.6 -->
    <g style="fill: #999999" transform="translate(373.109539 189.363997) rotate(-315) scale(0.07 -0.07)">
     <use xlink:href="#MicrosoftYaHei-4a"/>
     <use xlink:href="#MicrosoftYaHei-3d" x="39.599609"/>
     <use xlink:href="#MicrosoftYaHei-30" x="113.769531"/>
     <use xlink:href="#MicrosoftYaHei-2e" x="172.412109"/>
     <use xlink:href="#MicrosoftYaHei-36" x="196.484375"/>
    </g>
   </g>
   <g id="text_18">
    <!-- J=0.8 -->
    <g style="fill: #999999" transform="translate(473.417705 110.299591) rotate(-315) scale(0.07 -0.07)">
     <use xlink:href="#MicrosoftYaHei-4a"/>
     <use xlink:href="#MicrosoftYaHei-3d" x="39.599609"/>
     <use xlink:href="#MicrosoftYaHei-30" x="113.769531"/>
     <use xlink:href="#MicrosoftYaHei-2e" x="172.412109"/>
     <use xlink:href="#MicrosoftYaHei-38" x="196.484375"/>
    </g>
   </g>
   <g id="PathCollection_1">
    <defs>
     <path id="m2bd14d6a72" d="M 0 9.91561 
C 2.629651 9.91561 5.151952 8.870839 7.011395 7.011395 
C 8.870839 5.151952 9.91561 2.629651 9.91561 0 
C 9.91561 -2.629651 8.870839 -5.151952 7.011395 -7.011395 
C 5.151952 -8.870839 2.629651 -9.91561 0 -9.91561 
C -2.629651 -9.91561 -5.151952 -8.870839 -7.011395 -7.011395 
C -8.870839 -5.151952 -9.91561 -2.629651 -9.91561 0 
C -9.91561 2.629651 -8.870839 5.151952 -7.011395 7.011395 
C -5.151952 8.870839 -2.629651 9.91561 0 9.91561 
z
" style="stroke: #000000; stroke-opacity: 0.8; stroke-width: 0.6"/>
    </defs>
    <g clip-path="url(#p2ed8a01ce7)">
     <use xlink:href="#m2bd14d6a72" x="395.407228" y="282.450311" style="fill: #f77189; fill-opacity: 0.8; stroke: #000000; stroke-opacity: 0.8; stroke-width: 0.6"/>
    </g>
   </g>
   <g id="PathCollection_2">
    <defs>
     <path id="m0884e51f22" d="M 0 10.047962 
C 2.664751 10.047962 5.220719 8.989245 7.104982 7.104982 
C 8.989245 5.220719 10.047962 2.664751 10.047962 0 
C 10.047962 -2.664751 8.989245 -5.220719 7.104982 -7.104982 
C 5.220719 -8.989245 2.664751 -10.047962 0 -10.047962 
C -2.664751 -10.047962 -5.220719 -8.989245 -7.104982 -7.104982 
C -8.989245 -5.220719 -10.047962 -2.664751 -10.047962 0 
C -10.047962 2.664751 -8.989245 5.220719 -7.104982 7.104982 
C -5.220719 8.989245 -2.664751 10.047962 0 10.047962 
z
" style="stroke: #000000; stroke-opacity: 0.8; stroke-width: 0.6"/>
    </defs>
    <g clip-path="url(#p2ed8a01ce7)">
     <use xlink:href="#m0884e51f22" x="475.727517" y="342.730452" style="fill: #f77732; fill-opacity: 0.8; stroke: #000000; stroke-opacity: 0.8; stroke-width: 0.6"/>
    </g>
   </g>
   <g id="PathCollection_3">
    <defs>
     <path id="m0c17580d87" d="M 0 10.137938 
C 2.688612 10.137938 5.267468 9.06974 7.168604 7.168604 
C 9.06974 5.267468 10.137938 2.688612 10.137938 0 
C 10.137938 -2.688612 9.06974 -5.267468 7.168604 -7.168604 
C 5.267468 -9.06974 2.688612 -10.137938 0 -10.137938 
C -2.688612 -10.137938 -5.267468 -9.06974 -7.168604 -7.168604 
C -9.06974 -5.267468 -10.137938 -2.688612 -10.137938 0 
C -10.137938 2.688612 -9.06974 5.267468 -7.168604 7.168604 
C -5.267468 9.06974 -2.688612 10.137938 0 10.137938 
z
" style="stroke: #000000; stroke-opacity: 0.8; stroke-width: 0.6"/>
    </defs>
    <g clip-path="url(#p2ed8a01ce7)">
     <use xlink:href="#m0c17580d87" x="461.123828" y="312.590381" style="fill: #ce9032; fill-opacity: 0.8; stroke: #000000; stroke-opacity: 0.8; stroke-width: 0.6"/>
    </g>
   </g>
   <g id="PathCollection_4">
    <defs>
     <path id="m5c80665828" d="M 0 10 
C 2.652031 10 5.195799 8.946337 7.071068 7.071068 
C 8.946337 5.195799 10 2.652031 10 0 
C 10 -2.652031 8.946337 -5.195799 7.071068 -7.071068 
C 5.195799 -8.946337 2.652031 -10 0 -10 
C -2.652031 -10 -5.195799 -8.946337 -7.071068 -7.071068 
C -8.946337 -5.195799 -10 -2.652031 -10 0 
C -10 2.652031 -8.946337 5.195799 -7.071068 7.071068 
C -5.195799 8.946337 -2.652031 10 0 10 
z
" style="stroke: #000000; stroke-opacity: 0.8; stroke-width: 0.6"/>
    </defs>
    <g clip-path="url(#p2ed8a01ce7)">
     <use xlink:href="#m5c80665828" x="424.614606" y="297.520346" style="fill: #b39b32; fill-opacity: 0.8; stroke: #000000; stroke-opacity: 0.8; stroke-width: 0.6"/>
    </g>
   </g>
   <g id="PathCollection_5">
    <defs>
     <path id="m0c2f42a9bb" d="M 0 9.959596 
C 2.641316 9.959596 5.174805 8.91019 7.042498 7.042498 
C 8.91019 5.174805 9.959596 2.641316 9.959596 0 
C 9.959596 -2.641316 8.91019 -5.174805 7.042498 -7.042498 
C 5.174805 -8.91019 2.641316 -9.959596 0 -9.959596 
C -2.641316 -9.959596 -5.174805 -8.91019 -7.042498 -7.042498 
C -8.91019 -5.174805 -9.959596 -2.641316 -9.959596 0 
C -9.959596 2.641316 -8.91019 5.174805 -7.042498 7.042498 
C -5.174805 8.91019 -2.641316 9.959596 0 9.959596 
z
" style="stroke: #000000; stroke-opacity: 0.8; stroke-width: 0.6"/>
    </defs>
    <g clip-path="url(#p2ed8a01ce7)">
     <use xlink:href="#m0c2f42a9bb" x="373.501695" y="252.31024" style="fill: #97a431; fill-opacity: 0.8; stroke: #000000; stroke-opacity: 0.8; stroke-width: 0.6"/>
    </g>
   </g>
   <g id="PathCollection_6">
    <defs>
     <path id="mf375cf58dc" d="M 0 9.764673 
C 2.589622 9.764673 5.073527 8.735805 6.904666 6.904666 
C 8.735805 5.073527 9.764673 2.589622 9.764673 0 
C 9.764673 -2.589622 8.735805 -5.073527 6.904666 -6.904666 
C 5.073527 -8.735805 2.589622 -9.764673 0 -9.764673 
C -2.589622 -9.764673 -5.073527 -8.735805 -6.904666 -6.904666 
C -8.735805 -5.073527 -9.764673 -2.589622 -9.764673 0 
C -9.764673 2.589622 -8.735805 5.073527 -6.904666 6.904666 
C -5.073527 8.735805 -2.589622 9.764673 0 9.764673 
z
" style="stroke: #000000; stroke-opacity: 0.8; stroke-width: 0.6"/>
    </defs>
    <g clip-path="url(#p2ed8a01ce7)">
     <use xlink:href="#mf375cf58dc" x="336.992472" y="252.31024" style="fill: #6cad31; fill-opacity: 0.8; stroke: #000000; stroke-opacity: 0.8; stroke-width: 0.6"/>
    </g>
   </g>
   <g id="PathCollection_7">
    <defs>
     <path id="meb8b7e9dc4" d="M 0 9.725975 
C 2.579359 9.725975 5.053421 8.701185 6.877303 6.877303 
C 8.701185 5.053421 9.725975 2.579359 9.725975 0 
C 9.725975 -2.579359 8.701185 -5.053421 6.877303 -6.877303 
C 5.053421 -8.701185 2.579359 -9.725975 0 -9.725975 
C -2.579359 -9.725975 -5.053421 -8.701185 -6.877303 -6.877303 
C -8.701185 -5.053421 -9.725975 -2.579359 -9.725975 0 
C -9.725975 2.579359 -8.701185 5.053421 -6.877303 6.877303 
C -5.053421 8.701185 -2.579359 9.725975 0 9.725975 
z
" style="stroke: #000000; stroke-opacity: 0.8; stroke-width: 0.6"/>
    </defs>
    <g clip-path="url(#p2ed8a01ce7)">
     <use xlink:href="#meb8b7e9dc4" x="424.614606" y="342.730452" style="fill: #32b166; fill-opacity: 0.8; stroke: #000000; stroke-opacity: 0.8; stroke-width: 0.6"/>
    </g>
   </g>
   <g id="PathCollection_8">
    <defs>
     <path id="mc39cf76ee7" d="M 0 9.917694 
C 2.630203 9.917694 5.153034 8.872703 7.012869 7.012869 
C 8.872703 5.153034 9.917694 2.630203 9.917694 0 
C 9.917694 -2.630203 8.872703 -5.153034 7.012869 -7.012869 
C 5.153034 -8.872703 2.630203 -9.917694 0 -9.917694 
C -2.630203 -9.917694 -5.153034 -8.872703 -7.012869 -7.012869 
C -8.872703 -5.153034 -9.917694 -2.630203 -9.917694 0 
C -9.917694 2.630203 -8.872703 5.153034 -7.012869 7.012869 
C -5.153034 8.872703 -2.630203 9.917694 0 9.917694 
z
" style="stroke: #000000; stroke-opacity: 0.8; stroke-width: 0.6"/>
    </defs>
    <g clip-path="url(#p2ed8a01ce7)">
     <use xlink:href="#mc39cf76ee7" x="380.803539" y="267.380276" style="fill: #34af8e; fill-opacity: 0.8; stroke: #000000; stroke-opacity: 0.8; stroke-width: 0.6"/>
    </g>
   </g>
   <g id="PathCollection_9">
    <defs>
     <path id="mda8d1a4612" d="M 0 9.851844 
C 2.612739 9.851844 5.11882 8.813791 6.966305 6.966305 
C 8.813791 5.11882 9.851844 2.612739 9.851844 0 
C 9.851844 -2.612739 8.813791 -5.11882 6.966305 -6.966305 
C 5.11882 -8.813791 2.612739 -9.851844 0 -9.851844 
C -2.612739 -9.851844 -5.11882 -8.813791 -6.966305 -6.966305 
C -8.813791 -5.11882 -9.851844 -2.612739 -9.851844 0 
C -9.851844 2.612739 -8.813791 5.11882 -6.966305 6.966305 
C -5.11882 8.813791 -2.612739 9.851844 0 9.851844 
z
" style="stroke: #000000; stroke-opacity: 0.8; stroke-width: 0.6"/>
    </defs>
    <g clip-path="url(#p2ed8a01ce7)">
     <use xlink:href="#mda8d1a4612" x="475.727517" y="372.870522" style="fill: #36ada4; fill-opacity: 0.8; stroke: #000000; stroke-opacity: 0.8; stroke-width: 0.6"/>
    </g>
   </g>
   <g id="PathCollection_10">
    <defs>
     <path id="mc5e935c4f9" d="M 0 10.045352 
C 2.664058 10.045352 5.219363 8.98691 7.103136 7.103136 
C 8.98691 5.219363 10.045352 2.664058 10.045352 0 
C 10.045352 -2.664058 8.98691 -5.219363 7.103136 -7.103136 
C 5.219363 -8.98691 2.664058 -10.045352 0 -10.045352 
C -2.664058 -10.045352 -5.219363 -8.98691 -7.103136 -7.103136 
C -8.98691 -5.219363 -10.045352 -2.664058 -10.045352 0 
C -10.045352 2.664058 -8.98691 5.219363 -7.103136 7.103136 
C -5.219363 8.98691 -2.664058 10.045352 0 10.045352 
z
" style="stroke: #000000; stroke-opacity: 0.8; stroke-width: 0.6"/>
    </defs>
    <g clip-path="url(#p2ed8a01ce7)">
     <use xlink:href="#mc5e935c4f9" x="446.520139" y="312.590381" style="fill: #37abb8; fill-opacity: 0.8; stroke: #000000; stroke-opacity: 0.8; stroke-width: 0.6"/>
    </g>
   </g>
   <g id="PathCollection_11">
    <defs>
     <path id="m8fc56bfff8" d="M 0 10 
C 2.652031 10 5.195799 8.946337 7.071068 7.071068 
C 8.946337 5.195799 10 2.652031 10 0 
C 10 -2.652031 8.946337 -5.195799 7.071068 -7.071068 
C 5.195799 -8.946337 2.652031 -10 0 -10 
C -2.652031 -10 -5.195799 -8.946337 -7.071068 -7.071068 
C -8.946337 -5.195799 -10 -2.652031 -10 0 
C -10 2.652031 -8.946337 5.195799 -7.071068 7.071068 
C -5.195799 8.946337 -2.652031 10 0 10 
z
" style="stroke: #000000; stroke-opacity: 0.8; stroke-width: 0.6"/>
    </defs>
    <g clip-path="url(#p2ed8a01ce7)">
     <use xlink:href="#m8fc56bfff8" x="351.596161" y="222.17017" style="fill: #39a7d0; fill-opacity: 0.8; stroke: #000000; stroke-opacity: 0.8; stroke-width: 0.6"/>
    </g>
   </g>
   <g id="PathCollection_12">
    <defs>
     <path id="m57454c3c8e" d="M 0 10.045352 
C 2.664058 10.045352 5.219363 8.98691 7.103136 7.103136 
C 8.98691 5.219363 10.045352 2.664058 10.045352 0 
C 10.045352 -2.664058 8.98691 -5.219363 7.103136 -7.103136 
C 5.219363 -8.98691 2.664058 -10.045352 0 -10.045352 
C -2.664058 -10.045352 -5.219363 -8.98691 -7.103136 -7.103136 
C -8.98691 -5.219363 -10.045352 -2.664058 -10.045352 0 
C -10.045352 2.664058 -8.98691 5.219363 -7.103136 7.103136 
C -5.219363 8.98691 -2.664058 10.045352 0 10.045352 
z
" style="stroke: #000000; stroke-opacity: 0.8; stroke-width: 0.6"/>
    </defs>
    <g clip-path="url(#p2ed8a01ce7)">
     <use xlink:href="#m57454c3c8e" x="446.520139" y="312.590381" style="fill: #5a9ef4; fill-opacity: 0.8; stroke: #000000; stroke-opacity: 0.8; stroke-width: 0.6"/>
    </g>
   </g>
   <g id="PathCollection_13">
    <defs>
     <path id="mcc1913f189" d="M 0 9.500815 
C 2.519646 9.500815 4.936432 8.499749 6.718091 6.718091 
C 8.499749 4.936432 9.500815 2.519646 9.500815 0 
C 9.500815 -2.519646 8.499749 -4.936432 6.718091 -6.718091 
C 4.936432 -8.499749 2.519646 -9.500815 0 -9.500815 
C -2.519646 -9.500815 -4.936432 -8.499749 -6.718091 -6.718091 
C -8.499749 -4.936432 -9.500815 -2.519646 -9.500815 0 
C -9.500815 2.519646 -8.499749 4.936432 -6.718091 6.718091 
C -4.936432 8.499749 -2.519646 9.500815 0 9.500815 
z
" style="stroke: #000000; stroke-opacity: 0.8; stroke-width: 0.6"/>
    </defs>
    <g clip-path="url(#p2ed8a01ce7)">
     <use xlink:href="#mcc1913f189" x="402.709072" y="357.800487" style="fill: #a48cf4; fill-opacity: 0.8; stroke: #000000; stroke-opacity: 0.8; stroke-width: 0.6"/>
    </g>
   </g>
   <g id="PathCollection_14">
    <defs>
     <path id="mda3bf8ae2a" d="M 0 10 
C 2.652031 10 5.195799 8.946337 7.071068 7.071068 
C 8.946337 5.195799 10 2.652031 10 0 
C 10 -2.652031 8.946337 -5.195799 7.071068 -7.071068 
C 5.195799 -8.946337 2.652031 -10 0 -10 
C -2.652031 -10 -5.195799 -8.946337 -7.071068 -7.071068 
C -8.946337 -5.195799 -10 -2.652031 -10 0 
C -10 2.652031 -8.946337 5.195799 -7.071068 7.071068 
C -5.195799 8.946337 -2.652031 10 0 10 
z
" style="stroke: #000000; stroke-opacity: 0.8; stroke-width: 0.6"/>
    </defs>
    <g clip-path="url(#p2ed8a01ce7)">
     <use xlink:href="#mda3bf8ae2a" x="424.614606" y="297.520346" style="fill: #d673f4; fill-opacity: 0.8; stroke: #000000; stroke-opacity: 0.8; stroke-width: 0.6"/>
    </g>
   </g>
   <g id="PathCollection_15">
    <defs>
     <path id="m8bcff88be0" d="M 0 9.033272 
C 2.395652 9.033272 4.693506 8.081469 6.387488 6.387488 
C 8.081469 4.693506 9.033272 2.395652 9.033272 0 
C 9.033272 -2.395652 8.081469 -4.693506 6.387488 -6.387488 
C 4.693506 -8.081469 2.395652 -9.033272 0 -9.033272 
C -2.395652 -9.033272 -4.693506 -8.081469 -6.387488 -6.387488 
C -8.081469 -4.693506 -9.033272 -2.395652 -9.033272 0 
C -9.033272 2.395652 -8.081469 4.693506 -6.387488 6.387488 
C -4.693506 8.081469 -2.395652 9.033272 0 9.033272 
z
" style="stroke: #000000; stroke-opacity: 0.8; stroke-width: 0.6"/>
    </defs>
    <g clip-path="url(#p2ed8a01ce7)">
     <use xlink:href="#m8bcff88be0" x="315.086939" y="357.800487" style="fill: #f561dd; fill-opacity: 0.8; stroke: #000000; stroke-opacity: 0.8; stroke-width: 0.6"/>
    </g>
   </g>
   <g id="PathCollection_16">
    <defs>
     <path id="ma655acee3a" d="M 0 8.944272 
C 2.372049 8.944272 4.647264 8.001847 6.324555 6.324555 
C 8.001847 4.647264 8.944272 2.372049 8.944272 0 
C 8.944272 -2.372049 8.001847 -4.647264 6.324555 -6.324555 
C 4.647264 -8.001847 2.372049 -8.944272 0 -8.944272 
C -2.372049 -8.944272 -4.647264 -8.001847 -6.324555 -6.324555 
C -8.001847 -4.647264 -8.944272 -2.372049 -8.944272 0 
C -8.944272 2.372049 -8.001847 4.647264 -6.324555 6.324555 
C -4.647264 8.001847 -2.372049 8.944272 0 8.944272 
z
" style="stroke: #000000; stroke-opacity: 0.8; stroke-width: 0.6"/>
    </defs>
    <g clip-path="url(#p2ed8a01ce7)">
     <use xlink:href="#ma655acee3a" x="417.312761" y="448.220698" style="fill: #f66ab5; fill-opacity: 0.8; stroke: #000000; stroke-opacity: 0.8; stroke-width: 0.6"/>
    </g>
   </g>
   <g id="text_19">
    <!-- Sensitivity vs Specificity -->
    <g style="fill: #262626" transform="translate(261.17875 17.756406) scale(0.13 -0.13)">
     <defs>
      <path id="MicrosoftYaHei-Bold-20" transform="scale(0.015625)"/>
     </defs>
     <use xlink:href="#MicrosoftYaHei-Bold-53"/>
     <use xlink:href="#MicrosoftYaHei-Bold-65" x="60.15625"/>
     <use xlink:href="#MicrosoftYaHei-Bold-6e" x="118.359375"/>
     <use xlink:href="#MicrosoftYaHei-Bold-73" x="183.154297"/>
     <use xlink:href="#MicrosoftYaHei-Bold-69" x="232.519531"/>
     <use xlink:href="#MicrosoftYaHei-Bold-74" x="262.109375"/>
     <use xlink:href="#MicrosoftYaHei-Bold-69" x="303.515625"/>
     <use xlink:href="#MicrosoftYaHei-Bold-76" x="333.105469"/>
     <use xlink:href="#MicrosoftYaHei-Bold-69" x="390.820312"/>
     <use xlink:href="#MicrosoftYaHei-Bold-74" x="420.410156"/>
     <use xlink:href="#MicrosoftYaHei-Bold-79" x="461.816406"/>
     <use xlink:href="#MicrosoftYaHei-Bold-20" x="519.238281"/>
     <use xlink:href="#MicrosoftYaHei-Bold-76" x="549.023438"/>
     <use xlink:href="#MicrosoftYaHei-Bold-73" x="606.738281"/>
     <use xlink:href="#MicrosoftYaHei-Bold-20" x="656.103516"/>
     <use xlink:href="#MicrosoftYaHei-Bold-53" x="685.888672"/>
     <use xlink:href="#MicrosoftYaHei-Bold-70" x="746.044922"/>
     <use xlink:href="#MicrosoftYaHei-Bold-65" x="812.646484"/>
     <use xlink:href="#MicrosoftYaHei-Bold-63" x="870.849609"/>
     <use xlink:href="#MicrosoftYaHei-Bold-69" x="922.509766"/>
     <use xlink:href="#MicrosoftYaHei-Bold-66" x="952.099609"/>
     <use xlink:href="#MicrosoftYaHei-Bold-69" x="992.626953"/>
     <use xlink:href="#MicrosoftYaHei-Bold-63" x="1022.216797"/>
     <use xlink:href="#MicrosoftYaHei-Bold-69" x="1073.876953"/>
     <use xlink:href="#MicrosoftYaHei-Bold-74" x="1103.466797"/>
     <use xlink:href="#MicrosoftYaHei-Bold-79" x="1144.873047"/>
    </g>
    <!-- (bubble size ∝ F1-Score, dashed lines = Youden index) -->
    <g style="fill: #262626" transform="translate(161.507344 33.521344) scale(0.13 -0.13)">
     <defs>
      <path id="MicrosoftYaHei-Bold-28" d="M 1606 -1100 
Q 525 97 525 1853 
Q 525 3550 1606 4841 
L 2431 4841 
Q 1406 3497 1406 1853 
Q 1406 216 2438 -1100 
L 1606 -1100 
z
" transform="scale(0.015625)"/>
      <path id="MicrosoftYaHei-Bold-62" d="M 1469 416 
L 1469 0 
L 459 0 
L 459 5116 
L 1469 5116 
L 1469 2928 
L 1481 2928 
Q 1878 3541 2613 3541 
Q 3266 3541 3636 3084 
Q 4006 2628 4006 1825 
Q 4006 966 3581 441 
Q 3156 -84 2453 -84 
Q 1809 -84 1481 416 
L 1469 416 
z
M 1453 1494 
Q 1453 1153 1656 922 
Q 1859 691 2172 691 
Q 2550 691 2761 984 
Q 2972 1278 2972 1816 
Q 2972 2263 2780 2514 
Q 2588 2766 2231 2766 
Q 1894 2766 1673 2512 
Q 1453 2259 1453 1863 
L 1453 1494 
z
" transform="scale(0.015625)"/>
      <path id="MicrosoftYaHei-Bold-75" d="M 3691 0 
L 2688 0 
L 2688 528 
L 2672 528 
Q 2284 -84 1613 -84 
Q 406 -84 406 1372 
L 406 3456 
L 1416 3456 
L 1416 1466 
Q 1416 691 2022 691 
Q 2325 691 2506 903 
Q 2688 1116 2688 1478 
L 2688 3456 
L 3691 3456 
L 3691 0 
z
" transform="scale(0.015625)"/>
      <path id="MicrosoftYaHei-Bold-6c" d="M 444 0 
L 444 5116 
L 1450 5116 
L 1450 0 
L 444 0 
z
" transform="scale(0.015625)"/>
      <path id="MicrosoftYaHei-Bold-7a" d="M 3159 0 
L 88 0 
L 88 409 
L 1856 2703 
L 263 2703 
L 263 3456 
L 3150 3456 
L 3150 2969 
L 1459 753 
L 3159 753 
L 3159 0 
z
" transform="scale(0.015625)"/>
      <path id="MicrosoftYaHei-Bold-221d" d="M 4744 756 
Q 4584 697 4409 697 
Q 3622 697 3109 1631 
Q 2541 703 1819 703 
Q 1256 703 912 1064 
Q 569 1425 569 2003 
Q 569 2541 930 2928 
Q 1291 3316 1819 3316 
Q 2616 3316 3116 2381 
Q 3675 3303 4409 3303 
Q 4588 3303 4744 3250 
L 4603 2834 
Q 4488 2875 4378 2875 
Q 3813 2875 3328 1997 
Q 3763 1141 4378 1141 
Q 4519 1141 4603 1172 
L 4744 756 
z
M 2894 2009 
Q 2447 2881 1850 2881 
Q 1484 2881 1264 2632 
Q 1044 2384 1044 2003 
Q 1044 1641 1270 1397 
Q 1497 1153 1850 1153 
Q 2428 1153 2894 2009 
z
" transform="scale(0.015625)"/>
      <path id="MicrosoftYaHei-Bold-46" d="M 3319 3997 
L 1591 3997 
L 1591 2753 
L 3181 2753 
L 3181 1909 
L 1591 1909 
L 1591 0 
L 559 0 
L 559 4841 
L 3319 4841 
L 3319 3997 
z
" transform="scale(0.015625)"/>
      <path id="MicrosoftYaHei-Bold-31" d="M 2716 4947 
L 2716 0 
L 1700 0 
L 1700 3809 
Q 1513 3647 1188 3517 
Q 863 3388 591 3356 
L 591 4222 
Q 1447 4472 2072 4947 
L 2716 4947 
z
" transform="scale(0.015625)"/>
      <path id="MicrosoftYaHei-Bold-2d" d="M 2328 1497 
L 481 1497 
L 481 2209 
L 2328 2209 
L 2328 1497 
z
" transform="scale(0.015625)"/>
      <path id="MicrosoftYaHei-Bold-6f" d="M 253 1713 
Q 253 2566 764 3053 
Q 1275 3541 2138 3541 
Q 2972 3541 3462 3061 
Q 3953 2581 3953 1772 
Q 3953 922 3450 419 
Q 2947 -84 2088 -84 
Q 1244 -84 748 398 
Q 253 881 253 1713 
z
M 1275 1725 
Q 1275 691 2119 691 
Q 2928 691 2928 1753 
Q 2928 2766 2113 2766 
Q 1716 2766 1495 2494 
Q 1275 2222 1275 1725 
z
" transform="scale(0.015625)"/>
      <path id="MicrosoftYaHei-Bold-72" d="M 2663 2541 
Q 2478 2647 2216 2647 
Q 1872 2647 1670 2384 
Q 1469 2122 1469 1663 
L 1469 0 
L 459 0 
L 459 3456 
L 1469 3456 
L 1469 2806 
L 1481 2806 
Q 1731 3516 2391 3516 
Q 2569 3516 2663 3475 
L 2663 2541 
z
" transform="scale(0.015625)"/>
      <path id="MicrosoftYaHei-Bold-2c" d="M 1419 841 
L 916 -859 
L 134 -859 
L 484 841 
L 1419 841 
z
" transform="scale(0.015625)"/>
      <path id="MicrosoftYaHei-Bold-64" d="M 3794 0 
L 2788 0 
L 2788 488 
L 2772 488 
Q 2406 -84 1691 -84 
Q 1031 -84 642 381 
Q 253 847 253 1650 
Q 253 2500 689 3020 
Q 1125 3541 1828 3541 
Q 2503 3541 2772 3053 
L 2788 3053 
L 2788 5116 
L 3794 5116 
L 3794 0 
z
M 2803 1956 
Q 2803 2306 2592 2536 
Q 2381 2766 2066 2766 
Q 1697 2766 1486 2473 
Q 1275 2181 1275 1681 
Q 1275 1206 1478 948 
Q 1681 691 2038 691 
Q 2372 691 2587 962 
Q 2803 1234 2803 1669 
L 2803 1956 
z
" transform="scale(0.015625)"/>
      <path id="MicrosoftYaHei-Bold-61" d="M 544 3247 
Q 778 3378 1170 3459 
Q 1563 3541 1841 3541 
Q 3291 3541 3291 2088 
L 3291 0 
L 2331 0 
L 2331 503 
L 2319 503 
Q 1966 -84 1284 -84 
Q 794 -84 498 195 
Q 203 475 203 956 
Q 203 1950 1388 2113 
L 2338 2241 
Q 2338 2844 1709 2844 
Q 1091 2844 544 2469 
L 544 3247 
z
M 1684 1566 
Q 1138 1494 1138 1072 
Q 1138 878 1270 759 
Q 1403 641 1628 641 
Q 1938 641 2138 859 
Q 2338 1078 2338 1403 
L 2338 1650 
L 1684 1566 
z
" transform="scale(0.015625)"/>
      <path id="MicrosoftYaHei-Bold-68" d="M 3725 0 
L 2719 0 
L 2719 1969 
Q 2719 2766 2138 2766 
Q 1847 2766 1658 2544 
Q 1469 2322 1469 1969 
L 1469 0 
L 459 0 
L 459 5116 
L 1469 5116 
L 1469 2938 
L 1481 2938 
Q 1878 3541 2550 3541 
Q 3725 3541 3725 2122 
L 3725 0 
z
" transform="scale(0.015625)"/>
      <path id="MicrosoftYaHei-Bold-3d" d="M 4072 2378 
L 797 2378 
L 797 3041 
L 4072 3041 
L 4072 2378 
z
M 4072 916 
L 797 916 
L 797 1578 
L 4072 1578 
L 4072 916 
z
" transform="scale(0.015625)"/>
      <path id="MicrosoftYaHei-Bold-59" d="M 4156 4841 
L 2575 1728 
L 2575 0 
L 1544 0 
L 1544 1709 
L 6 4841 
L 1184 4841 
L 1997 2991 
Q 2022 2934 2113 2609 
L 2125 2609 
Q 2163 2828 2228 2981 
L 3063 4841 
L 4156 4841 
z
" transform="scale(0.015625)"/>
      <path id="MicrosoftYaHei-Bold-78" d="M 3706 3456 
L 2563 1772 
L 3697 0 
L 2531 0 
L 2016 953 
Q 1909 1150 1869 1263 
L 1856 1263 
Q 1800 1113 1716 963 
L 1191 0 
L 31 0 
L 1200 1719 
L 100 3456 
L 1269 3456 
L 1781 2463 
Q 1856 2319 1922 2144 
L 1934 2144 
Q 1966 2250 2078 2466 
L 2606 3456 
L 3706 3456 
z
" transform="scale(0.015625)"/>
      <path id="MicrosoftYaHei-Bold-29" d="M 59 -1100 
Q 1097 216 1097 1853 
Q 1097 3484 59 4841 
L 888 4841 
Q 1978 3544 1978 1853 
Q 1978 113 881 -1100 
L 59 -1100 
z
" transform="scale(0.015625)"/>
     </defs>
     <use xlink:href="#MicrosoftYaHei-Bold-28"/>
     <use xlink:href="#MicrosoftYaHei-Bold-62" x="38.964844"/>
     <use xlink:href="#MicrosoftYaHei-Bold-75" x="105.566406"/>
     <use xlink:href="#MicrosoftYaHei-Bold-62" x="170.361328"/>
     <use xlink:href="#MicrosoftYaHei-Bold-62" x="236.962891"/>
     <use xlink:href="#MicrosoftYaHei-Bold-6c" x="303.564453"/>
     <use xlink:href="#MicrosoftYaHei-Bold-65" x="333.154297"/>
     <use xlink:href="#MicrosoftYaHei-Bold-20" x="391.357422"/>
     <use xlink:href="#MicrosoftYaHei-Bold-73" x="421.142578"/>
     <use xlink:href="#MicrosoftYaHei-Bold-69" x="470.507812"/>
     <use xlink:href="#MicrosoftYaHei-Bold-7a" x="500.097656"/>
     <use xlink:href="#MicrosoftYaHei-Bold-65" x="551.464844"/>
     <use xlink:href="#MicrosoftYaHei-Bold-20" x="609.667969"/>
     <use xlink:href="#MicrosoftYaHei-Bold-221d" x="639.453125"/>
     <use xlink:href="#MicrosoftYaHei-Bold-20" x="727.636719"/>
     <use xlink:href="#MicrosoftYaHei-Bold-46" x="757.421875"/>
     <use xlink:href="#MicrosoftYaHei-Bold-31" x="813.232422"/>
     <use xlink:href="#MicrosoftYaHei-Bold-2d" x="874.902344"/>
     <use xlink:href="#MicrosoftYaHei-Bold-53" x="918.554688"/>
     <use xlink:href="#MicrosoftYaHei-Bold-63" x="978.710938"/>
     <use xlink:href="#MicrosoftYaHei-Bold-6f" x="1030.371094"/>
     <use xlink:href="#MicrosoftYaHei-Bold-72" x="1096.09375"/>
     <use xlink:href="#MicrosoftYaHei-Bold-65" x="1137.976562"/>
     <use xlink:href="#MicrosoftYaHei-Bold-2c" x="1196.179688"/>
     <use xlink:href="#MicrosoftYaHei-Bold-20" x="1224.744141"/>
     <use xlink:href="#MicrosoftYaHei-Bold-64" x="1254.529297"/>
     <use xlink:href="#MicrosoftYaHei-Bold-61" x="1320.984375"/>
     <use xlink:href="#MicrosoftYaHei-Bold-73" x="1378.748047"/>
     <use xlink:href="#MicrosoftYaHei-Bold-68" x="1428.113281"/>
     <use xlink:href="#MicrosoftYaHei-Bold-65" x="1492.664062"/>
     <use xlink:href="#MicrosoftYaHei-Bold-64" x="1550.867188"/>
     <use xlink:href="#MicrosoftYaHei-Bold-20" x="1617.322266"/>
     <use xlink:href="#MicrosoftYaHei-Bold-6c" x="1647.107422"/>
     <use xlink:href="#MicrosoftYaHei-Bold-69" x="1676.697266"/>
     <use xlink:href="#MicrosoftYaHei-Bold-6e" x="1706.287109"/>
     <use xlink:href="#MicrosoftYaHei-Bold-65" x="1771.082031"/>
     <use xlink:href="#MicrosoftYaHei-Bold-73" x="1829.285156"/>
     <use xlink:href="#MicrosoftYaHei-Bold-20" x="1878.650391"/>
     <use xlink:href="#MicrosoftYaHei-Bold-3d" x="1908.435547"/>
     <use xlink:href="#MicrosoftYaHei-Bold-20" x="1984.558594"/>
     <use xlink:href="#MicrosoftYaHei-Bold-59" x="2014.34375"/>
     <use xlink:href="#MicrosoftYaHei-Bold-6f" x="2069.4375"/>
     <use xlink:href="#MicrosoftYaHei-Bold-75" x="2135.160156"/>
     <use xlink:href="#MicrosoftYaHei-Bold-64" x="2199.955078"/>
     <use xlink:href="#MicrosoftYaHei-Bold-65" x="2266.410156"/>
     <use xlink:href="#MicrosoftYaHei-Bold-6e" x="2324.613281"/>
     <use xlink:href="#MicrosoftYaHei-Bold-20" x="2389.408203"/>
     <use xlink:href="#MicrosoftYaHei-Bold-69" x="2419.193359"/>
     <use xlink:href="#MicrosoftYaHei-Bold-6e" x="2448.783203"/>
     <use xlink:href="#MicrosoftYaHei-Bold-64" x="2513.578125"/>
     <use xlink:href="#MicrosoftYaHei-Bold-65" x="2580.033203"/>
     <use xlink:href="#MicrosoftYaHei-Bold-78" x="2638.236328"/>
     <use xlink:href="#MicrosoftYaHei-Bold-29" x="2696.732422"/>
    </g>
   </g>
   <g id="legend_1">
    <g id="patch_5">
     <path d="M 649.597062 506.761344 
L 826.844563 506.761344 
Q 828.444563 506.761344 828.444563 505.161344 
L 828.444563 295.066344 
Q 828.444563 293.466344 826.844563 293.466344 
L 649.597062 293.466344 
Q 647.997062 293.466344 647.997062 295.066344 
L 647.997062 505.161344 
Q 647.997062 506.761344 649.597062 506.761344 
z
" style="fill: #ffffff; opacity: 0.9; stroke: #cccccc; stroke-linejoin: miter"/>
    </g>
    <g id="PathCollection_17">
     <g>
      <use xlink:href="#m2bd14d6a72" x="659.197063" y="300.961344" style="fill: #f77189; fill-opacity: 0.8; stroke: #000000; stroke-opacity: 0.8; stroke-width: 0.6"/>
     </g>
    </g>
    <g id="text_20">
     <!-- SVM (AUC=0.844) -->
     <g style="fill: #262626" transform="translate(673.597062 303.061344) scale(0.08 -0.08)">
      <defs>
       <path id="MicrosoftYaHei-53" d="M 400 909 
Q 622 716 994 591 
Q 1366 466 1700 466 
Q 2719 466 2719 1191 
Q 2719 1394 2609 1556 
Q 2500 1719 2309 1844 
Q 2119 1969 1594 2228 
Q 866 2591 634 2902 
Q 403 3213 403 3613 
Q 403 4216 887 4569 
Q 1372 4922 2109 4922 
Q 2831 4922 3169 4747 
L 3169 4066 
Q 2731 4369 2063 4369 
Q 1619 4369 1339 4183 
Q 1059 3997 1059 3666 
Q 1059 3372 1253 3187 
Q 1447 3003 2094 2684 
Q 2806 2344 3090 2003 
Q 3375 1663 3375 1238 
Q 3375 600 2912 259 
Q 2450 -81 1628 -81 
Q 1341 -81 958 -1 
Q 575 78 400 197 
L 400 909 
z
" transform="scale(0.015625)"/>
       <path id="MicrosoftYaHei-56" d="M 4272 4841 
L 2494 0 
L 1800 0 
L 56 4841 
L 750 4841 
L 2053 1056 
Q 2119 869 2150 622 
L 2166 622 
Q 2191 838 2275 1063 
L 3603 4841 
L 4272 4841 
z
" transform="scale(0.015625)"/>
       <path id="MicrosoftYaHei-4d" d="M 5003 0 
L 5003 3206 
Q 5003 3603 5050 4159 
L 5034 4159 
Q 4953 3809 4891 3672 
L 3294 0 
L 2947 0 
L 1353 3644 
Q 1297 3769 1209 4159 
L 1191 4159 
Q 1222 3822 1222 3178 
L 1222 0 
L 625 0 
L 625 4841 
L 1472 4841 
L 2900 1522 
Q 3063 1141 3116 928 
L 3138 928 
Q 3300 1375 3366 1534 
L 4819 4841 
L 5625 4841 
L 5625 0 
L 5003 0 
z
" transform="scale(0.015625)"/>
       <path id="MicrosoftYaHei-20" transform="scale(0.015625)"/>
       <path id="MicrosoftYaHei-28" d="M 1531 -1100 
Q 478 100 478 1847 
Q 478 3594 1531 4841 
L 2072 4841 
Q 1016 3544 1016 1853 
Q 1016 166 2066 -1100 
L 1531 -1100 
z
" transform="scale(0.015625)"/>
       <path id="MicrosoftYaHei-41" d="M 4428 0 
L 3738 0 
L 3244 1325 
L 1228 1325 
L 763 0 
L 72 0 
L 1916 4841 
L 2584 4841 
L 4428 0 
z
M 3050 1872 
L 2319 3884 
Q 2284 3981 2244 4222 
L 2228 4222 
Q 2194 4003 2150 3884 
L 1425 1872 
L 3050 1872 
z
" transform="scale(0.015625)"/>
       <path id="MicrosoftYaHei-55" d="M 4213 1972 
Q 4213 -81 2350 -81 
Q 566 -81 566 1900 
L 566 4841 
L 1191 4841 
L 1191 1928 
Q 1191 475 2409 475 
Q 3588 475 3588 1881 
L 3588 4841 
L 4213 4841 
L 4213 1972 
z
" transform="scale(0.015625)"/>
       <path id="MicrosoftYaHei-43" d="M 3938 200 
Q 3403 -81 2597 -81 
Q 1556 -81 934 580 
Q 313 1241 313 2328 
Q 313 3497 1013 4209 
Q 1713 4922 2791 4922 
Q 3484 4922 3938 4725 
L 3938 4072 
Q 3419 4359 2797 4359 
Q 1988 4359 1478 3820 
Q 969 3281 969 2366 
Q 969 1497 1444 986 
Q 1919 475 2688 475 
Q 3406 475 3938 800 
L 3938 200 
z
" transform="scale(0.015625)"/>
       <path id="MicrosoftYaHei-29" d="M 78 -1100 
Q 1131 163 1131 1853 
Q 1131 3547 72 4841 
L 616 4841 
Q 1672 3603 1672 1847 
Q 1672 91 616 -1100 
L 78 -1100 
z
" transform="scale(0.015625)"/>
      </defs>
      <use xlink:href="#MicrosoftYaHei-53"/>
      <use xlink:href="#MicrosoftYaHei-56" x="57.714844"/>
      <use xlink:href="#MicrosoftYaHei-4d" x="125.341797"/>
      <use xlink:href="#MicrosoftYaHei-20" x="223.046875"/>
      <use xlink:href="#MicrosoftYaHei-28" x="252.636719"/>
      <use xlink:href="#MicrosoftYaHei-41" x="286.035156"/>
      <use xlink:href="#MicrosoftYaHei-55" x="355.021484"/>
      <use xlink:href="#MicrosoftYaHei-43" x="429.679688"/>
      <use xlink:href="#MicrosoftYaHei-3d" x="496.574219"/>
      <use xlink:href="#MicrosoftYaHei-30" x="570.744141"/>
      <use xlink:href="#MicrosoftYaHei-2e" x="629.386719"/>
      <use xlink:href="#MicrosoftYaHei-38" x="653.458984"/>
      <use xlink:href="#MicrosoftYaHei-34" x="712.101562"/>
      <use xlink:href="#MicrosoftYaHei-34" x="770.744141"/>
      <use xlink:href="#MicrosoftYaHei-29" x="829.386719"/>
     </g>
    </g>
    <g id="PathCollection_18">
     <g>
      <use xlink:href="#m0884e51f22" x="659.197063" y="313.345094" style="fill: #f77732; fill-opacity: 0.8; stroke: #000000; stroke-opacity: 0.8; stroke-width: 0.6"/>
     </g>
    </g>
    <g id="text_21">
     <!-- Random Forest Optimized (AUC=0.844) -->
     <g style="fill: #262626" transform="translate(673.597062 315.445094) scale(0.08 -0.08)">
      <defs>
       <path id="MicrosoftYaHei-52" d="M 4159 0 
L 3422 0 
L 2619 1344 
Q 2378 1747 2178 1892 
Q 1978 2038 1700 2038 
L 1250 2038 
L 1250 0 
L 625 0 
L 625 4841 
L 2100 4841 
Q 2806 4841 3206 4500 
Q 3606 4159 3606 3547 
Q 3606 2541 2531 2241 
L 2531 2225 
Q 2731 2141 2876 1984 
Q 3022 1828 3253 1450 
L 4159 0 
z
M 1250 4294 
L 1250 2584 
L 1988 2584 
Q 2416 2584 2683 2834 
Q 2950 3084 2950 3491 
Q 2950 3869 2706 4081 
Q 2463 4294 1997 4294 
L 1250 4294 
z
" transform="scale(0.015625)"/>
       <path id="MicrosoftYaHei-61" d="M 628 3216 
Q 1144 3538 1819 3538 
Q 3069 3538 3069 2225 
L 3069 0 
L 2463 0 
L 2463 534 
L 2447 534 
Q 2088 -81 1388 -81 
Q 884 -81 587 191 
Q 291 463 291 925 
Q 291 1894 1438 2053 
L 2463 2197 
Q 2463 3044 1763 3044 
Q 1141 3044 628 2625 
L 628 3216 
z
M 1653 1625 
Q 1228 1569 1067 1412 
Q 906 1256 906 975 
Q 906 728 1081 572 
Q 1256 416 1544 416 
Q 1944 416 2203 697 
Q 2463 978 2463 1403 
L 2463 1734 
L 1653 1625 
z
" transform="scale(0.015625)"/>
       <path id="MicrosoftYaHei-6e" d="M 3469 0 
L 2859 0 
L 2859 1966 
Q 2859 3031 2081 3031 
Q 1678 3031 1418 2731 
Q 1159 2431 1159 1972 
L 1159 0 
L 547 0 
L 547 3456 
L 1159 3456 
L 1159 2884 
L 1172 2884 
Q 1563 3538 2306 3538 
Q 2875 3538 3172 3173 
Q 3469 2809 3469 2113 
L 3469 0 
z
" transform="scale(0.015625)"/>
       <path id="MicrosoftYaHei-64" d="M 3547 0 
L 2934 0 
L 2934 575 
L 2922 575 
Q 2544 -81 1747 -81 
Q 1091 -81 703 386 
Q 316 853 316 1647 
Q 316 2503 753 3020 
Q 1191 3538 1897 3538 
Q 2603 3538 2922 2988 
L 2934 2988 
L 2934 5116 
L 3547 5116 
L 3547 0 
z
M 2938 2056 
Q 2938 2472 2664 2751 
Q 2391 3031 1991 3031 
Q 1503 3031 1222 2667 
Q 941 2303 941 1675 
Q 941 1097 1211 761 
Q 1481 425 1931 425 
Q 2375 425 2656 754 
Q 2938 1084 2938 1575 
L 2938 2056 
z
" transform="scale(0.015625)"/>
       <path id="MicrosoftYaHei-6f" d="M 316 1691 
Q 316 2547 794 3042 
Q 1272 3538 2091 3538 
Q 2869 3538 3311 3061 
Q 3753 2584 3753 1744 
Q 3753 925 3281 422 
Q 2809 -81 2016 -81 
Q 1241 -81 778 406 
Q 316 894 316 1691 
z
M 941 1709 
Q 941 1113 1242 769 
Q 1544 425 2053 425 
Q 2578 425 2853 761 
Q 3128 1097 3128 1725 
Q 3128 2356 2853 2693 
Q 2578 3031 2053 3031 
Q 1538 3031 1239 2678 
Q 941 2325 941 1709 
z
" transform="scale(0.015625)"/>
       <path id="MicrosoftYaHei-6d" d="M 5522 0 
L 4909 0 
L 4909 1984 
Q 4909 2547 4734 2789 
Q 4559 3031 4159 3031 
Q 3822 3031 3581 2715 
Q 3341 2400 3341 1969 
L 3341 0 
L 2728 0 
L 2728 2047 
Q 2728 3031 1969 3031 
Q 1619 3031 1389 2731 
Q 1159 2431 1159 1966 
L 1159 0 
L 547 0 
L 547 3456 
L 1159 3456 
L 1159 2909 
L 1172 2909 
Q 1541 3538 2250 3538 
Q 2597 3538 2862 3347 
Q 3128 3156 3231 2831 
Q 3616 3538 4381 3538 
Q 5522 3538 5522 2131 
L 5522 0 
z
" transform="scale(0.015625)"/>
       <path id="MicrosoftYaHei-46" d="M 3119 4284 
L 1250 4284 
L 1250 2666 
L 2981 2666 
L 2981 2116 
L 1250 2116 
L 1250 0 
L 625 0 
L 625 4841 
L 3119 4841 
L 3119 4284 
z
" transform="scale(0.015625)"/>
       <path id="MicrosoftYaHei-72" d="M 2400 2850 
Q 2247 2959 1978 2959 
Q 1622 2959 1390 2626 
Q 1159 2294 1159 1750 
L 1159 0 
L 547 0 
L 547 3456 
L 1159 3456 
L 1159 2753 
L 1172 2753 
Q 1434 3516 2078 3516 
Q 2288 3516 2400 3469 
L 2400 2850 
z
" transform="scale(0.015625)"/>
       <path id="MicrosoftYaHei-65" d="M 3363 1572 
L 944 1572 
Q 959 1019 1246 717 
Q 1534 416 2050 416 
Q 2631 416 3116 788 
L 3116 241 
Q 2659 -81 1906 -81 
Q 1156 -81 736 394 
Q 316 869 316 1713 
Q 316 2506 777 3022 
Q 1238 3538 1922 3538 
Q 2600 3538 2981 3102 
Q 3363 2666 3363 1881 
L 3363 1572 
z
M 2750 2063 
Q 2747 2531 2528 2787 
Q 2309 3044 1913 3044 
Q 1547 3044 1280 2772 
Q 1013 2500 944 2063 
L 2750 2063 
z
" transform="scale(0.015625)"/>
       <path id="MicrosoftYaHei-73" d="M 353 747 
Q 816 413 1350 413 
Q 2066 413 2066 881 
Q 2066 1081 1909 1211 
Q 1753 1341 1275 1519 
Q 700 1750 528 1976 
Q 356 2203 356 2525 
Q 356 2984 745 3261 
Q 1134 3538 1703 3538 
Q 2144 3538 2522 3384 
L 2522 2794 
Q 2134 3044 1644 3044 
Q 1350 3044 1165 2916 
Q 981 2788 981 2578 
Q 981 2372 1114 2256 
Q 1247 2141 1703 1959 
Q 2281 1744 2484 1512 
Q 2688 1281 2688 941 
Q 2688 466 2298 192 
Q 1909 -81 1291 -81 
Q 753 -81 353 122 
L 353 747 
z
" transform="scale(0.015625)"/>
       <path id="MicrosoftYaHei-74" d="M 2206 34 
Q 2006 -75 1666 -75 
Q 738 -75 738 953 
L 738 2950 
L 144 2950 
L 144 3456 
L 738 3456 
L 738 4288 
L 1347 4481 
L 1347 3456 
L 2206 3456 
L 2206 2950 
L 1347 2950 
L 1347 1063 
Q 1347 722 1462 575 
Q 1578 428 1847 428 
Q 2053 428 2206 544 
L 2206 34 
z
" transform="scale(0.015625)"/>
       <path id="MicrosoftYaHei-4f" d="M 313 2363 
Q 313 3534 947 4228 
Q 1581 4922 2666 4922 
Q 3675 4922 4290 4244 
Q 4906 3566 4906 2478 
Q 4906 1300 4275 609 
Q 3644 -81 2588 -81 
Q 1556 -81 934 597 
Q 313 1275 313 2363 
z
M 969 2413 
Q 969 1534 1417 1004 
Q 1866 475 2588 475 
Q 3363 475 3805 983 
Q 4247 1491 4247 2403 
Q 4247 3341 3814 3850 
Q 3381 4359 2628 4359 
Q 1888 4359 1428 3821 
Q 969 3284 969 2413 
z
" transform="scale(0.015625)"/>
       <path id="MicrosoftYaHei-70" d="M 1159 488 
L 1159 -1591 
L 547 -1591 
L 547 3456 
L 1159 3456 
L 1159 2859 
L 1172 2859 
Q 1578 3538 2359 3538 
Q 3022 3538 3398 3073 
Q 3775 2609 3775 1828 
Q 3775 966 3348 442 
Q 2922 -81 2200 -81 
Q 1534 -81 1172 488 
L 1159 488 
z
M 1156 1425 
Q 1156 1003 1428 714 
Q 1700 425 2109 425 
Q 2597 425 2872 800 
Q 3147 1175 3147 1838 
Q 3147 2397 2890 2714 
Q 2634 3031 2191 3031 
Q 1738 3031 1447 2709 
Q 1156 2388 1156 1884 
L 1156 1425 
z
" transform="scale(0.015625)"/>
       <path id="MicrosoftYaHei-69" d="M 472 4675 
Q 472 4838 583 4948 
Q 694 5059 856 5059 
Q 1022 5059 1136 4950 
Q 1250 4841 1250 4675 
Q 1250 4513 1136 4405 
Q 1022 4297 856 4297 
Q 691 4297 581 4405 
Q 472 4513 472 4675 
z
M 544 0 
L 544 3456 
L 1156 3456 
L 1156 0 
L 544 0 
z
" transform="scale(0.015625)"/>
       <path id="MicrosoftYaHei-7a" d="M 2978 0 
L 109 0 
L 109 203 
L 2119 2950 
L 297 2950 
L 297 3456 
L 2991 3456 
L 2991 3256 
L 994 506 
L 2978 506 
L 2978 0 
z
" transform="scale(0.015625)"/>
      </defs>
      <use xlink:href="#MicrosoftYaHei-52"/>
      <use xlink:href="#MicrosoftYaHei-61" x="65.283203"/>
      <use xlink:href="#MicrosoftYaHei-6e" x="120.556641"/>
      <use xlink:href="#MicrosoftYaHei-64" x="182.177734"/>
      <use xlink:href="#MicrosoftYaHei-6f" x="246.142578"/>
      <use xlink:href="#MicrosoftYaHei-6d" x="309.716797"/>
      <use xlink:href="#MicrosoftYaHei-20" x="403.417969"/>
      <use xlink:href="#MicrosoftYaHei-46" x="433.007812"/>
      <use xlink:href="#MicrosoftYaHei-6f" x="486.132812"/>
      <use xlink:href="#MicrosoftYaHei-72" x="549.707031"/>
      <use xlink:href="#MicrosoftYaHei-65" x="586.515625"/>
      <use xlink:href="#MicrosoftYaHei-73" x="643.253906"/>
      <use xlink:href="#MicrosoftYaHei-74" x="689.542969"/>
      <use xlink:href="#MicrosoftYaHei-20" x="726.798828"/>
      <use xlink:href="#MicrosoftYaHei-4f" x="756.388672"/>
      <use xlink:href="#MicrosoftYaHei-70" x="837.882812"/>
      <use xlink:href="#MicrosoftYaHei-74" x="901.75"/>
      <use xlink:href="#MicrosoftYaHei-69" x="939.005859"/>
      <use xlink:href="#MicrosoftYaHei-6d" x="965.617188"/>
      <use xlink:href="#MicrosoftYaHei-69" x="1059.318359"/>
      <use xlink:href="#MicrosoftYaHei-7a" x="1085.929688"/>
      <use xlink:href="#MicrosoftYaHei-65" x="1135.099609"/>
      <use xlink:href="#MicrosoftYaHei-64" x="1191.837891"/>
      <use xlink:href="#MicrosoftYaHei-20" x="1255.802734"/>
      <use xlink:href="#MicrosoftYaHei-28" x="1285.392578"/>
      <use xlink:href="#MicrosoftYaHei-41" x="1318.791016"/>
      <use xlink:href="#MicrosoftYaHei-55" x="1387.777344"/>
      <use xlink:href="#MicrosoftYaHei-43" x="1462.435547"/>
      <use xlink:href="#MicrosoftYaHei-3d" x="1529.330078"/>
      <use xlink:href="#MicrosoftYaHei-30" x="1603.5"/>
      <use xlink:href="#MicrosoftYaHei-2e" x="1662.142578"/>
      <use xlink:href="#MicrosoftYaHei-38" x="1686.214844"/>
      <use xlink:href="#MicrosoftYaHei-34" x="1744.857422"/>
      <use xlink:href="#MicrosoftYaHei-34" x="1803.5"/>
      <use xlink:href="#MicrosoftYaHei-29" x="1862.142578"/>
     </g>
    </g>
    <g id="PathCollection_19">
     <g>
      <use xlink:href="#m0c17580d87" x="659.197063" y="325.728844" style="fill: #ce9032; fill-opacity: 0.8; stroke: #000000; stroke-opacity: 0.8; stroke-width: 0.6"/>
     </g>
    </g>
    <g id="text_22">
     <!-- Random Forest (AUC=0.842) -->
     <g style="fill: #262626" transform="translate(673.597062 327.828844) scale(0.08 -0.08)">
      <use xlink:href="#MicrosoftYaHei-52"/>
      <use xlink:href="#MicrosoftYaHei-61" x="65.283203"/>
      <use xlink:href="#MicrosoftYaHei-6e" x="120.556641"/>
      <use xlink:href="#MicrosoftYaHei-64" x="182.177734"/>
      <use xlink:href="#MicrosoftYaHei-6f" x="246.142578"/>
      <use xlink:href="#MicrosoftYaHei-6d" x="309.716797"/>
      <use xlink:href="#MicrosoftYaHei-20" x="403.417969"/>
      <use xlink:href="#MicrosoftYaHei-46" x="433.007812"/>
      <use xlink:href="#MicrosoftYaHei-6f" x="486.132812"/>
      <use xlink:href="#MicrosoftYaHei-72" x="549.707031"/>
      <use xlink:href="#MicrosoftYaHei-65" x="586.515625"/>
      <use xlink:href="#MicrosoftYaHei-73" x="643.253906"/>
      <use xlink:href="#MicrosoftYaHei-74" x="689.542969"/>
      <use xlink:href="#MicrosoftYaHei-20" x="726.798828"/>
      <use xlink:href="#MicrosoftYaHei-28" x="756.388672"/>
      <use xlink:href="#MicrosoftYaHei-41" x="789.787109"/>
      <use xlink:href="#MicrosoftYaHei-55" x="858.773438"/>
      <use xlink:href="#MicrosoftYaHei-43" x="933.431641"/>
      <use xlink:href="#MicrosoftYaHei-3d" x="1000.326172"/>
      <use xlink:href="#MicrosoftYaHei-30" x="1074.496094"/>
      <use xlink:href="#MicrosoftYaHei-2e" x="1133.138672"/>
      <use xlink:href="#MicrosoftYaHei-38" x="1157.210938"/>
      <use xlink:href="#MicrosoftYaHei-34" x="1215.853516"/>
      <use xlink:href="#MicrosoftYaHei-32" x="1274.496094"/>
      <use xlink:href="#MicrosoftYaHei-29" x="1333.138672"/>
     </g>
    </g>
    <g id="PathCollection_20">
     <g>
      <use xlink:href="#m5c80665828" x="659.197063" y="338.206344" style="fill: #b39b32; fill-opacity: 0.8; stroke: #000000; stroke-opacity: 0.8; stroke-width: 0.6"/>
     </g>
    </g>
    <g id="text_23">
     <!-- Voting Soft (AUC=0.842) -->
     <g style="fill: #262626" transform="translate(673.597062 340.306344) scale(0.08 -0.08)">
      <defs>
       <path id="MicrosoftYaHei-67" d="M 3547 291 
Q 3547 -1628 1684 -1628 
Q 1041 -1628 566 -1388 
L 566 -797 
Q 1144 -1119 1675 -1119 
Q 2934 -1119 2934 206 
L 2934 572 
L 2922 572 
Q 2528 -81 1747 -81 
Q 1097 -81 706 384 
Q 316 850 316 1619 
Q 316 2503 747 3020 
Q 1178 3538 1897 3538 
Q 2588 3538 2922 2988 
L 2934 2988 
L 2934 3456 
L 3547 3456 
L 3547 291 
z
M 2934 2056 
Q 2938 2456 2666 2743 
Q 2394 3031 1997 3031 
Q 1497 3031 1219 2664 
Q 941 2297 941 1656 
Q 941 1106 1209 765 
Q 1478 425 1922 425 
Q 2369 425 2653 750 
Q 2938 1075 2934 1575 
L 2934 2056 
z
" transform="scale(0.015625)"/>
       <path id="MicrosoftYaHei-66" d="M 2319 4594 
Q 2147 4684 1947 4684 
Q 1372 4684 1372 3972 
L 1372 3456 
L 2181 3456 
L 2181 2950 
L 1372 2950 
L 1372 0 
L 766 0 
L 766 2950 
L 175 2950 
L 175 3456 
L 766 3456 
L 766 4000 
Q 766 4556 1086 4873 
Q 1406 5191 1900 5191 
Q 2163 5191 2319 5131 
L 2319 4594 
z
" transform="scale(0.015625)"/>
      </defs>
      <use xlink:href="#MicrosoftYaHei-56"/>
      <use xlink:href="#MicrosoftYaHei-6f" x="60.876953"/>
      <use xlink:href="#MicrosoftYaHei-74" x="124.451172"/>
      <use xlink:href="#MicrosoftYaHei-69" x="161.707031"/>
      <use xlink:href="#MicrosoftYaHei-6e" x="188.318359"/>
      <use xlink:href="#MicrosoftYaHei-67" x="249.939453"/>
      <use xlink:href="#MicrosoftYaHei-20" x="313.904297"/>
      <use xlink:href="#MicrosoftYaHei-53" x="343.494141"/>
      <use xlink:href="#MicrosoftYaHei-6f" x="401.208984"/>
      <use xlink:href="#MicrosoftYaHei-66" x="462.783203"/>
      <use xlink:href="#MicrosoftYaHei-74" x="499.451172"/>
      <use xlink:href="#MicrosoftYaHei-20" x="536.707031"/>
      <use xlink:href="#MicrosoftYaHei-28" x="566.296875"/>
      <use xlink:href="#MicrosoftYaHei-41" x="599.695312"/>
      <use xlink:href="#MicrosoftYaHei-55" x="668.681641"/>
      <use xlink:href="#MicrosoftYaHei-43" x="743.339844"/>
      <use xlink:href="#MicrosoftYaHei-3d" x="810.234375"/>
      <use xlink:href="#MicrosoftYaHei-30" x="884.404297"/>
      <use xlink:href="#MicrosoftYaHei-2e" x="943.046875"/>
      <use xlink:href="#MicrosoftYaHei-38" x="967.119141"/>
      <use xlink:href="#MicrosoftYaHei-34" x="1025.761719"/>
      <use xlink:href="#MicrosoftYaHei-32" x="1084.404297"/>
      <use xlink:href="#MicrosoftYaHei-29" x="1143.046875"/>
     </g>
    </g>
    <g id="PathCollection_21">
     <g>
      <use xlink:href="#m0c2f42a9bb" x="659.197063" y="350.636344" style="fill: #97a431; fill-opacity: 0.8; stroke: #000000; stroke-opacity: 0.8; stroke-width: 0.6"/>
     </g>
    </g>
    <g id="text_24">
     <!-- XGBoost Optimized (AUC=0.840) -->
     <g style="fill: #262626" transform="translate(673.597062 352.736344) scale(0.08 -0.08)">
      <defs>
       <path id="MicrosoftYaHei-58" d="M 4034 0 
L 3275 0 
L 2194 1822 
Q 2156 1884 2084 2072 
L 2069 2072 
Q 2063 2047 1956 1819 
L 844 0 
L 81 0 
L 1691 2431 
L 209 4841 
L 975 4841 
L 1931 3166 
Q 2016 3019 2100 2822 
L 2113 2822 
Q 2188 2991 2297 3181 
L 3297 4841 
L 4013 4841 
L 2500 2441 
L 4034 0 
z
" transform="scale(0.015625)"/>
       <path id="MicrosoftYaHei-47" d="M 4284 331 
Q 3559 -81 2647 -81 
Q 1597 -81 955 583 
Q 313 1247 313 2356 
Q 313 3478 1022 4200 
Q 1731 4922 2841 4922 
Q 3625 4922 4169 4672 
L 4169 3997 
Q 3588 4363 2784 4363 
Q 1994 4363 1481 3822 
Q 969 3281 969 2397 
Q 969 1488 1441 981 
Q 1913 475 2716 475 
Q 3269 475 3656 688 
L 3656 1997 
L 2606 1997 
L 2606 2550 
L 4284 2550 
L 4284 331 
z
" transform="scale(0.015625)"/>
       <path id="MicrosoftYaHei-42" d="M 625 0 
L 625 4841 
L 2047 4841 
Q 2684 4841 3065 4536 
Q 3447 4231 3447 3728 
Q 3447 3328 3220 3022 
Q 2994 2716 2597 2588 
L 2597 2575 
Q 3091 2519 3386 2201 
Q 3681 1884 3681 1397 
Q 3681 772 3232 386 
Q 2784 0 2084 0 
L 625 0 
z
M 1250 4294 
L 1250 2778 
L 1819 2778 
Q 2272 2778 2530 2998 
Q 2788 3219 2788 3609 
Q 2788 4294 1875 4294 
L 1250 4294 
z
M 1250 2234 
L 1250 547 
L 2000 547 
Q 2491 547 2758 773 
Q 3025 1000 3025 1403 
Q 3025 2234 1897 2234 
L 1250 2234 
z
" transform="scale(0.015625)"/>
      </defs>
      <use xlink:href="#MicrosoftYaHei-58"/>
      <use xlink:href="#MicrosoftYaHei-47" x="63.251953"/>
      <use xlink:href="#MicrosoftYaHei-42" x="137.617188"/>
      <use xlink:href="#MicrosoftYaHei-6f" x="200.361328"/>
      <use xlink:href="#MicrosoftYaHei-6f" x="263.935547"/>
      <use xlink:href="#MicrosoftYaHei-73" x="327.509766"/>
      <use xlink:href="#MicrosoftYaHei-74" x="373.798828"/>
      <use xlink:href="#MicrosoftYaHei-20" x="411.054688"/>
      <use xlink:href="#MicrosoftYaHei-4f" x="440.644531"/>
      <use xlink:href="#MicrosoftYaHei-70" x="522.138672"/>
      <use xlink:href="#MicrosoftYaHei-74" x="586.005859"/>
      <use xlink:href="#MicrosoftYaHei-69" x="623.261719"/>
      <use xlink:href="#MicrosoftYaHei-6d" x="649.873047"/>
      <use xlink:href="#MicrosoftYaHei-69" x="743.574219"/>
      <use xlink:href="#MicrosoftYaHei-7a" x="770.185547"/>
      <use xlink:href="#MicrosoftYaHei-65" x="819.355469"/>
      <use xlink:href="#MicrosoftYaHei-64" x="876.09375"/>
      <use xlink:href="#MicrosoftYaHei-20" x="940.058594"/>
      <use xlink:href="#MicrosoftYaHei-28" x="969.648438"/>
      <use xlink:href="#MicrosoftYaHei-41" x="1003.046875"/>
      <use xlink:href="#MicrosoftYaHei-55" x="1072.033203"/>
      <use xlink:href="#MicrosoftYaHei-43" x="1146.691406"/>
      <use xlink:href="#MicrosoftYaHei-3d" x="1213.585938"/>
      <use xlink:href="#MicrosoftYaHei-30" x="1287.755859"/>
      <use xlink:href="#MicrosoftYaHei-2e" x="1346.398438"/>
      <use xlink:href="#MicrosoftYaHei-38" x="1370.470703"/>
      <use xlink:href="#MicrosoftYaHei-34" x="1429.113281"/>
      <use xlink:href="#MicrosoftYaHei-30" x="1487.755859"/>
      <use xlink:href="#MicrosoftYaHei-29" x="1546.398438"/>
     </g>
    </g>
    <g id="PathCollection_22">
     <g>
      <use xlink:href="#mf375cf58dc" x="659.197063" y="363.020094" style="fill: #6cad31; fill-opacity: 0.8; stroke: #000000; stroke-opacity: 0.8; stroke-width: 0.6"/>
     </g>
    </g>
    <g id="text_25">
     <!-- XGBoost (AUC=0.835) -->
     <g style="fill: #262626" transform="translate(673.597062 365.120094) scale(0.08 -0.08)">
      <defs>
       <path id="MicrosoftYaHei-33" d="M 447 809 
Q 944 425 1569 425 
Q 2069 425 2361 670 
Q 2653 916 2653 1328 
Q 2653 2247 1338 2247 
L 934 2247 
L 934 2753 
L 1319 2753 
Q 2484 2753 2484 3616 
Q 2484 4413 1594 4413 
Q 1084 4413 634 4069 
L 634 4647 
Q 1109 4922 1744 4922 
Q 2363 4922 2738 4598 
Q 3113 4275 3113 3759 
Q 3113 2809 2144 2538 
L 2144 2525 
Q 2669 2469 2973 2155 
Q 3278 1841 3278 1372 
Q 3278 719 2808 319 
Q 2338 -81 1556 -81 
Q 869 -81 447 175 
L 447 809 
z
" transform="scale(0.015625)"/>
      </defs>
      <use xlink:href="#MicrosoftYaHei-58"/>
      <use xlink:href="#MicrosoftYaHei-47" x="63.251953"/>
      <use xlink:href="#MicrosoftYaHei-42" x="137.617188"/>
      <use xlink:href="#MicrosoftYaHei-6f" x="200.361328"/>
      <use xlink:href="#MicrosoftYaHei-6f" x="263.935547"/>
      <use xlink:href="#MicrosoftYaHei-73" x="327.509766"/>
      <use xlink:href="#MicrosoftYaHei-74" x="373.798828"/>
      <use xlink:href="#MicrosoftYaHei-20" x="411.054688"/>
      <use xlink:href="#MicrosoftYaHei-28" x="440.644531"/>
      <use xlink:href="#MicrosoftYaHei-41" x="474.042969"/>
      <use xlink:href="#MicrosoftYaHei-55" x="543.029297"/>
      <use xlink:href="#MicrosoftYaHei-43" x="617.6875"/>
      <use xlink:href="#MicrosoftYaHei-3d" x="684.582031"/>
      <use xlink:href="#MicrosoftYaHei-30" x="758.751953"/>
      <use xlink:href="#MicrosoftYaHei-2e" x="817.394531"/>
      <use xlink:href="#MicrosoftYaHei-38" x="841.466797"/>
      <use xlink:href="#MicrosoftYaHei-33" x="900.109375"/>
      <use xlink:href="#MicrosoftYaHei-35" x="958.751953"/>
      <use xlink:href="#MicrosoftYaHei-29" x="1017.394531"/>
     </g>
    </g>
    <g id="PathCollection_23">
     <g>
      <use xlink:href="#meb8b7e9dc4" x="659.197063" y="375.403844" style="fill: #32b166; fill-opacity: 0.8; stroke: #000000; stroke-opacity: 0.8; stroke-width: 0.6"/>
     </g>
    </g>
    <g id="text_26">
     <!-- LightGBM Optimized (AUC=0.834) -->
     <g style="fill: #262626" transform="translate(673.597062 377.503844) scale(0.08 -0.08)">
      <defs>
       <path id="MicrosoftYaHei-4c" d="M 3178 0 
L 625 0 
L 625 4841 
L 1250 4841 
L 1250 553 
L 3178 553 
L 3178 0 
z
" transform="scale(0.015625)"/>
       <path id="MicrosoftYaHei-68" d="M 3466 0 
L 2856 0 
L 2856 1988 
Q 2856 3031 2081 3031 
Q 1684 3031 1421 2726 
Q 1159 2422 1159 1959 
L 1159 0 
L 547 0 
L 547 5116 
L 1159 5116 
L 1159 2888 
L 1172 2888 
Q 1569 3538 2300 3538 
Q 3466 3538 3466 2128 
L 3466 0 
z
" transform="scale(0.015625)"/>
      </defs>
      <use xlink:href="#MicrosoftYaHei-4c"/>
      <use xlink:href="#MicrosoftYaHei-69" x="51.318359"/>
      <use xlink:href="#MicrosoftYaHei-67" x="77.929688"/>
      <use xlink:href="#MicrosoftYaHei-68" x="141.894531"/>
      <use xlink:href="#MicrosoftYaHei-74" x="203.466797"/>
      <use xlink:href="#MicrosoftYaHei-47" x="240.722656"/>
      <use xlink:href="#MicrosoftYaHei-42" x="315.087891"/>
      <use xlink:href="#MicrosoftYaHei-4d" x="377.832031"/>
      <use xlink:href="#MicrosoftYaHei-20" x="475.537109"/>
      <use xlink:href="#MicrosoftYaHei-4f" x="505.126953"/>
      <use xlink:href="#MicrosoftYaHei-70" x="586.621094"/>
      <use xlink:href="#MicrosoftYaHei-74" x="650.488281"/>
      <use xlink:href="#MicrosoftYaHei-69" x="687.744141"/>
      <use xlink:href="#MicrosoftYaHei-6d" x="714.355469"/>
      <use xlink:href="#MicrosoftYaHei-69" x="808.056641"/>
      <use xlink:href="#MicrosoftYaHei-7a" x="834.667969"/>
      <use xlink:href="#MicrosoftYaHei-65" x="883.837891"/>
      <use xlink:href="#MicrosoftYaHei-64" x="940.576172"/>
      <use xlink:href="#MicrosoftYaHei-20" x="1004.541016"/>
      <use xlink:href="#MicrosoftYaHei-28" x="1034.130859"/>
      <use xlink:href="#MicrosoftYaHei-41" x="1067.529297"/>
      <use xlink:href="#MicrosoftYaHei-55" x="1136.515625"/>
      <use xlink:href="#MicrosoftYaHei-43" x="1211.173828"/>
      <use xlink:href="#MicrosoftYaHei-3d" x="1278.068359"/>
      <use xlink:href="#MicrosoftYaHei-30" x="1352.238281"/>
      <use xlink:href="#MicrosoftYaHei-2e" x="1410.880859"/>
      <use xlink:href="#MicrosoftYaHei-38" x="1434.953125"/>
      <use xlink:href="#MicrosoftYaHei-33" x="1493.595703"/>
      <use xlink:href="#MicrosoftYaHei-34" x="1552.238281"/>
      <use xlink:href="#MicrosoftYaHei-29" x="1610.880859"/>
     </g>
    </g>
    <g id="PathCollection_24">
     <g>
      <use xlink:href="#mc39cf76ee7" x="659.197063" y="387.833844" style="fill: #34af8e; fill-opacity: 0.8; stroke: #000000; stroke-opacity: 0.8; stroke-width: 0.6"/>
     </g>
    </g>
    <g id="text_27">
     <!-- Logistic Regression (AUC=0.832) -->
     <g style="fill: #262626" transform="translate(673.597062 389.933844) scale(0.08 -0.08)">
      <defs>
       <path id="MicrosoftYaHei-63" d="M 2934 156 
Q 2538 -81 1978 -81 
Q 1228 -81 772 400 
Q 316 881 316 1647 
Q 316 2497 808 3017 
Q 1300 3538 2125 3538 
Q 2600 3538 2938 3369 
L 2938 2763 
Q 2572 3031 2125 3031 
Q 1600 3031 1270 2667 
Q 941 2303 941 1697 
Q 941 1100 1252 762 
Q 1563 425 2091 425 
Q 2538 425 2934 719 
L 2934 156 
z
" transform="scale(0.015625)"/>
      </defs>
      <use xlink:href="#MicrosoftYaHei-4c"/>
      <use xlink:href="#MicrosoftYaHei-6f" x="51.318359"/>
      <use xlink:href="#MicrosoftYaHei-67" x="114.892578"/>
      <use xlink:href="#MicrosoftYaHei-69" x="178.857422"/>
      <use xlink:href="#MicrosoftYaHei-73" x="205.46875"/>
      <use xlink:href="#MicrosoftYaHei-74" x="251.757812"/>
      <use xlink:href="#MicrosoftYaHei-69" x="289.013672"/>
      <use xlink:href="#MicrosoftYaHei-63" x="315.625"/>
      <use xlink:href="#MicrosoftYaHei-20" x="365.771484"/>
      <use xlink:href="#MicrosoftYaHei-52" x="395.361328"/>
      <use xlink:href="#MicrosoftYaHei-65" x="457.644531"/>
      <use xlink:href="#MicrosoftYaHei-67" x="514.382812"/>
      <use xlink:href="#MicrosoftYaHei-72" x="578.347656"/>
      <use xlink:href="#MicrosoftYaHei-65" x="615.15625"/>
      <use xlink:href="#MicrosoftYaHei-73" x="671.894531"/>
      <use xlink:href="#MicrosoftYaHei-73" x="718.183594"/>
      <use xlink:href="#MicrosoftYaHei-69" x="764.472656"/>
      <use xlink:href="#MicrosoftYaHei-6f" x="791.083984"/>
      <use xlink:href="#MicrosoftYaHei-6e" x="854.658203"/>
      <use xlink:href="#MicrosoftYaHei-20" x="916.279297"/>
      <use xlink:href="#MicrosoftYaHei-28" x="945.869141"/>
      <use xlink:href="#MicrosoftYaHei-41" x="979.267578"/>
      <use xlink:href="#MicrosoftYaHei-55" x="1048.253906"/>
      <use xlink:href="#MicrosoftYaHei-43" x="1122.912109"/>
      <use xlink:href="#MicrosoftYaHei-3d" x="1189.806641"/>
      <use xlink:href="#MicrosoftYaHei-30" x="1263.976562"/>
      <use xlink:href="#MicrosoftYaHei-2e" x="1322.619141"/>
      <use xlink:href="#MicrosoftYaHei-38" x="1346.691406"/>
      <use xlink:href="#MicrosoftYaHei-33" x="1405.333984"/>
      <use xlink:href="#MicrosoftYaHei-32" x="1463.976562"/>
      <use xlink:href="#MicrosoftYaHei-29" x="1522.619141"/>
     </g>
    </g>
    <g id="PathCollection_25">
     <g>
      <use xlink:href="#mda8d1a4612" x="659.197063" y="400.263844" style="fill: #36ada4; fill-opacity: 0.8; stroke: #000000; stroke-opacity: 0.8; stroke-width: 0.6"/>
     </g>
    </g>
    <g id="text_28">
     <!-- Stacking (AUC=0.832) -->
     <g style="fill: #262626" transform="translate(673.597062 402.363844) scale(0.08 -0.08)">
      <defs>
       <path id="MicrosoftYaHei-6b" d="M 3484 0 
L 2650 0 
L 1172 1666 
L 1159 1666 
L 1159 0 
L 547 0 
L 547 5116 
L 1159 5116 
L 1159 1872 
L 1172 1872 
L 2575 3456 
L 3363 3456 
L 1800 1794 
L 3484 0 
z
" transform="scale(0.015625)"/>
      </defs>
      <use xlink:href="#MicrosoftYaHei-53"/>
      <use xlink:href="#MicrosoftYaHei-74" x="54.214844"/>
      <use xlink:href="#MicrosoftYaHei-61" x="91.470703"/>
      <use xlink:href="#MicrosoftYaHei-63" x="146.744141"/>
      <use xlink:href="#MicrosoftYaHei-6b" x="196.890625"/>
      <use xlink:href="#MicrosoftYaHei-69" x="251.333984"/>
      <use xlink:href="#MicrosoftYaHei-6e" x="277.945312"/>
      <use xlink:href="#MicrosoftYaHei-67" x="339.566406"/>
      <use xlink:href="#MicrosoftYaHei-20" x="403.53125"/>
      <use xlink:href="#MicrosoftYaHei-28" x="433.121094"/>
      <use xlink:href="#MicrosoftYaHei-41" x="466.519531"/>
      <use xlink:href="#MicrosoftYaHei-55" x="535.505859"/>
      <use xlink:href="#MicrosoftYaHei-43" x="610.164062"/>
      <use xlink:href="#MicrosoftYaHei-3d" x="677.058594"/>
      <use xlink:href="#MicrosoftYaHei-30" x="751.228516"/>
      <use xlink:href="#MicrosoftYaHei-2e" x="809.871094"/>
      <use xlink:href="#MicrosoftYaHei-38" x="833.943359"/>
      <use xlink:href="#MicrosoftYaHei-33" x="892.585938"/>
      <use xlink:href="#MicrosoftYaHei-32" x="951.228516"/>
      <use xlink:href="#MicrosoftYaHei-29" x="1009.871094"/>
     </g>
    </g>
    <g id="PathCollection_26">
     <g>
      <use xlink:href="#mc5e935c4f9" x="659.197063" y="412.693844" style="fill: #37abb8; fill-opacity: 0.8; stroke: #000000; stroke-opacity: 0.8; stroke-width: 0.6"/>
     </g>
    </g>
    <g id="text_29">
     <!-- LightGBM (AUC=0.831) -->
     <g style="fill: #262626" transform="translate(673.597062 414.793844) scale(0.08 -0.08)">
      <use xlink:href="#MicrosoftYaHei-4c"/>
      <use xlink:href="#MicrosoftYaHei-69" x="51.318359"/>
      <use xlink:href="#MicrosoftYaHei-67" x="77.929688"/>
      <use xlink:href="#MicrosoftYaHei-68" x="141.894531"/>
      <use xlink:href="#MicrosoftYaHei-74" x="203.466797"/>
      <use xlink:href="#MicrosoftYaHei-47" x="240.722656"/>
      <use xlink:href="#MicrosoftYaHei-42" x="315.087891"/>
      <use xlink:href="#MicrosoftYaHei-4d" x="377.832031"/>
      <use xlink:href="#MicrosoftYaHei-20" x="475.537109"/>
      <use xlink:href="#MicrosoftYaHei-28" x="505.126953"/>
      <use xlink:href="#MicrosoftYaHei-41" x="538.525391"/>
      <use xlink:href="#MicrosoftYaHei-55" x="607.511719"/>
      <use xlink:href="#MicrosoftYaHei-43" x="682.169922"/>
      <use xlink:href="#MicrosoftYaHei-3d" x="749.064453"/>
      <use xlink:href="#MicrosoftYaHei-30" x="823.234375"/>
      <use xlink:href="#MicrosoftYaHei-2e" x="881.876953"/>
      <use xlink:href="#MicrosoftYaHei-38" x="905.949219"/>
      <use xlink:href="#MicrosoftYaHei-33" x="964.591797"/>
      <use xlink:href="#MicrosoftYaHei-31" x="1023.234375"/>
      <use xlink:href="#MicrosoftYaHei-29" x="1081.876953"/>
     </g>
    </g>
    <g id="PathCollection_27">
     <g>
      <use xlink:href="#m8fc56bfff8" x="659.197063" y="425.123844" style="fill: #39a7d0; fill-opacity: 0.8; stroke: #000000; stroke-opacity: 0.8; stroke-width: 0.6"/>
     </g>
    </g>
    <g id="text_30">
     <!-- AdaBoost (AUC=0.830) -->
     <g style="fill: #262626" transform="translate(673.597062 427.223844) scale(0.08 -0.08)">
      <use xlink:href="#MicrosoftYaHei-41"/>
      <use xlink:href="#MicrosoftYaHei-64" x="70.361328"/>
      <use xlink:href="#MicrosoftYaHei-61" x="134.326172"/>
      <use xlink:href="#MicrosoftYaHei-42" x="189.599609"/>
      <use xlink:href="#MicrosoftYaHei-6f" x="252.34375"/>
      <use xlink:href="#MicrosoftYaHei-6f" x="315.917969"/>
      <use xlink:href="#MicrosoftYaHei-73" x="379.492188"/>
      <use xlink:href="#MicrosoftYaHei-74" x="425.78125"/>
      <use xlink:href="#MicrosoftYaHei-20" x="463.037109"/>
      <use xlink:href="#MicrosoftYaHei-28" x="492.626953"/>
      <use xlink:href="#MicrosoftYaHei-41" x="526.025391"/>
      <use xlink:href="#MicrosoftYaHei-55" x="595.011719"/>
      <use xlink:href="#MicrosoftYaHei-43" x="669.669922"/>
      <use xlink:href="#MicrosoftYaHei-3d" x="736.564453"/>
      <use xlink:href="#MicrosoftYaHei-30" x="810.734375"/>
      <use xlink:href="#MicrosoftYaHei-2e" x="869.376953"/>
      <use xlink:href="#MicrosoftYaHei-38" x="893.449219"/>
      <use xlink:href="#MicrosoftYaHei-33" x="952.091797"/>
      <use xlink:href="#MicrosoftYaHei-30" x="1010.734375"/>
      <use xlink:href="#MicrosoftYaHei-29" x="1069.376953"/>
     </g>
    </g>
    <g id="PathCollection_28">
     <g>
      <use xlink:href="#m57454c3c8e" x="659.197063" y="437.507594" style="fill: #5a9ef4; fill-opacity: 0.8; stroke: #000000; stroke-opacity: 0.8; stroke-width: 0.6"/>
     </g>
    </g>
    <g id="text_31">
     <!-- Extra Trees (AUC=0.828) -->
     <g style="fill: #262626" transform="translate(673.597062 439.607594) scale(0.08 -0.08)">
      <defs>
       <path id="MicrosoftYaHei-45" d="M 3228 0 
L 625 0 
L 625 4841 
L 3119 4841 
L 3119 4284 
L 1250 4284 
L 1250 2734 
L 2981 2734 
L 2981 2181 
L 1250 2181 
L 1250 553 
L 3228 553 
L 3228 0 
z
" transform="scale(0.015625)"/>
       <path id="MicrosoftYaHei-78" d="M 3163 3456 
L 2006 1716 
L 3147 0 
L 2434 0 
L 1775 1100 
Q 1722 1188 1625 1369 
L 1613 1369 
Q 1609 1350 1456 1100 
L 784 0 
L 81 0 
L 1256 1697 
L 134 3456 
L 847 3456 
L 1494 2300 
Q 1553 2194 1638 2025 
L 1650 2025 
L 2491 3456 
L 3163 3456 
z
" transform="scale(0.015625)"/>
       <path id="MicrosoftYaHei-54" d="M 3550 4284 
L 2153 4284 
L 2153 0 
L 1525 0 
L 1525 4284 
L 134 4284 
L 134 4841 
L 3550 4841 
L 3550 4284 
z
" transform="scale(0.015625)"/>
      </defs>
      <use xlink:href="#MicrosoftYaHei-45"/>
      <use xlink:href="#MicrosoftYaHei-78" x="54.980469"/>
      <use xlink:href="#MicrosoftYaHei-74" x="105.664062"/>
      <use xlink:href="#MicrosoftYaHei-72" x="142.919922"/>
      <use xlink:href="#MicrosoftYaHei-61" x="181.103516"/>
      <use xlink:href="#MicrosoftYaHei-20" x="236.376953"/>
      <use xlink:href="#MicrosoftYaHei-54" x="265.966797"/>
      <use xlink:href="#MicrosoftYaHei-72" x="313.916016"/>
      <use xlink:href="#MicrosoftYaHei-65" x="350.724609"/>
      <use xlink:href="#MicrosoftYaHei-65" x="407.462891"/>
      <use xlink:href="#MicrosoftYaHei-73" x="464.201172"/>
      <use xlink:href="#MicrosoftYaHei-20" x="510.490234"/>
      <use xlink:href="#MicrosoftYaHei-28" x="540.080078"/>
      <use xlink:href="#MicrosoftYaHei-41" x="573.478516"/>
      <use xlink:href="#MicrosoftYaHei-55" x="642.464844"/>
      <use xlink:href="#MicrosoftYaHei-43" x="717.123047"/>
      <use xlink:href="#MicrosoftYaHei-3d" x="784.017578"/>
      <use xlink:href="#MicrosoftYaHei-30" x="858.1875"/>
      <use xlink:href="#MicrosoftYaHei-2e" x="916.830078"/>
      <use xlink:href="#MicrosoftYaHei-38" x="940.902344"/>
      <use xlink:href="#MicrosoftYaHei-32" x="999.544922"/>
      <use xlink:href="#MicrosoftYaHei-38" x="1058.1875"/>
      <use xlink:href="#MicrosoftYaHei-29" x="1116.830078"/>
     </g>
    </g>
    <g id="PathCollection_29">
     <g>
      <use xlink:href="#mcc1913f189" x="659.197063" y="449.891344" style="fill: #a48cf4; fill-opacity: 0.8; stroke: #000000; stroke-opacity: 0.8; stroke-width: 0.6"/>
     </g>
    </g>
    <g id="text_32">
     <!-- Neural Network (AUC=0.823) -->
     <g style="fill: #262626" transform="translate(673.597062 451.991344) scale(0.08 -0.08)">
      <defs>
       <path id="MicrosoftYaHei-4e" d="M 4578 0 
L 3838 0 
L 1403 3766 
Q 1300 3925 1238 4081 
L 1219 4081 
Q 1244 3919 1244 3403 
L 1244 0 
L 625 0 
L 625 4841 
L 1409 4841 
L 3778 1141 
Q 3947 878 3978 806 
L 3991 806 
Q 3959 1013 3959 1513 
L 3959 4841 
L 4578 4841 
L 4578 0 
z
" transform="scale(0.015625)"/>
       <path id="MicrosoftYaHei-75" d="M 3400 0 
L 2784 0 
L 2784 544 
L 2772 544 
Q 2425 -81 1706 -81 
Q 478 -81 478 1388 
L 478 3456 
L 1084 3456 
L 1084 1478 
Q 1084 425 1891 425 
Q 2291 425 2537 720 
Q 2784 1016 2784 1466 
L 2784 3456 
L 3400 3456 
L 3400 0 
z
" transform="scale(0.015625)"/>
       <path id="MicrosoftYaHei-6c" d="M 544 0 
L 544 5116 
L 1156 5116 
L 1156 0 
L 544 0 
z
" transform="scale(0.015625)"/>
       <path id="MicrosoftYaHei-77" d="M 4975 3456 
L 3944 0 
L 3306 0 
L 2619 2425 
Q 2575 2581 2563 2756 
L 2550 2756 
Q 2541 2625 2478 2431 
L 1734 0 
L 1116 0 
L 78 3456 
L 716 3456 
L 1406 894 
Q 1438 778 1453 578 
L 1478 578 
Q 1491 750 1538 903 
L 2281 3456 
L 2847 3456 
L 3572 891 
Q 3603 778 3622 572 
L 3650 572 
Q 3656 709 3706 891 
L 4381 3456 
L 4975 3456 
z
" transform="scale(0.015625)"/>
      </defs>
      <use xlink:href="#MicrosoftYaHei-4e"/>
      <use xlink:href="#MicrosoftYaHei-65" x="81.298828"/>
      <use xlink:href="#MicrosoftYaHei-75" x="138.037109"/>
      <use xlink:href="#MicrosoftYaHei-72" x="199.658203"/>
      <use xlink:href="#MicrosoftYaHei-61" x="237.841797"/>
      <use xlink:href="#MicrosoftYaHei-6c" x="293.115234"/>
      <use xlink:href="#MicrosoftYaHei-20" x="319.726562"/>
      <use xlink:href="#MicrosoftYaHei-4e" x="349.316406"/>
      <use xlink:href="#MicrosoftYaHei-65" x="430.615234"/>
      <use xlink:href="#MicrosoftYaHei-74" x="487.353516"/>
      <use xlink:href="#MicrosoftYaHei-77" x="524.609375"/>
      <use xlink:href="#MicrosoftYaHei-6f" x="603.314453"/>
      <use xlink:href="#MicrosoftYaHei-72" x="666.888672"/>
      <use xlink:href="#MicrosoftYaHei-6b" x="705.072266"/>
      <use xlink:href="#MicrosoftYaHei-20" x="759.515625"/>
      <use xlink:href="#MicrosoftYaHei-28" x="789.105469"/>
      <use xlink:href="#MicrosoftYaHei-41" x="822.503906"/>
      <use xlink:href="#MicrosoftYaHei-55" x="891.490234"/>
      <use xlink:href="#MicrosoftYaHei-43" x="966.148438"/>
      <use xlink:href="#MicrosoftYaHei-3d" x="1033.042969"/>
      <use xlink:href="#MicrosoftYaHei-30" x="1107.212891"/>
      <use xlink:href="#MicrosoftYaHei-2e" x="1165.855469"/>
      <use xlink:href="#MicrosoftYaHei-38" x="1189.927734"/>
      <use xlink:href="#MicrosoftYaHei-32" x="1248.570312"/>
      <use xlink:href="#MicrosoftYaHei-33" x="1307.212891"/>
      <use xlink:href="#MicrosoftYaHei-29" x="1365.855469"/>
     </g>
    </g>
    <g id="PathCollection_30">
     <g>
      <use xlink:href="#mda3bf8ae2a" x="659.197063" y="462.275094" style="fill: #d673f4; fill-opacity: 0.8; stroke: #000000; stroke-opacity: 0.8; stroke-width: 0.6"/>
     </g>
    </g>
    <g id="text_33">
     <!-- Naive Bayes (AUC=0.820) -->
     <g style="fill: #262626" transform="translate(673.597062 464.375094) scale(0.08 -0.08)">
      <defs>
       <path id="MicrosoftYaHei-76" d="M 3331 3456 
L 1963 0 
L 1344 0 
L 44 3456 
L 713 3456 
L 1556 988 
Q 1659 691 1678 491 
L 1694 491 
Q 1725 753 1803 975 
L 2688 3456 
L 3331 3456 
z
" transform="scale(0.015625)"/>
       <path id="MicrosoftYaHei-79" d="M 3359 3456 
L 1791 -522 
Q 1353 -1628 556 -1628 
Q 328 -1628 166 -1578 
L 166 -1041 
Q 344 -1109 509 -1109 
Q 925 -1109 1131 -622 
L 1397 6 
L 41 3456 
L 719 3456 
L 1622 859 
L 1697 575 
L 1713 575 
Q 1731 672 1788 853 
L 2731 3456 
L 3359 3456 
z
" transform="scale(0.015625)"/>
      </defs>
      <use xlink:href="#MicrosoftYaHei-4e"/>
      <use xlink:href="#MicrosoftYaHei-61" x="81.298828"/>
      <use xlink:href="#MicrosoftYaHei-69" x="136.572266"/>
      <use xlink:href="#MicrosoftYaHei-76" x="163.183594"/>
      <use xlink:href="#MicrosoftYaHei-65" x="215.048828"/>
      <use xlink:href="#MicrosoftYaHei-20" x="271.787109"/>
      <use xlink:href="#MicrosoftYaHei-42" x="301.376953"/>
      <use xlink:href="#MicrosoftYaHei-61" x="364.121094"/>
      <use xlink:href="#MicrosoftYaHei-79" x="419.394531"/>
      <use xlink:href="#MicrosoftYaHei-65" x="471.824219"/>
      <use xlink:href="#MicrosoftYaHei-73" x="528.5625"/>
      <use xlink:href="#MicrosoftYaHei-20" x="574.851562"/>
      <use xlink:href="#MicrosoftYaHei-28" x="604.441406"/>
      <use xlink:href="#MicrosoftYaHei-41" x="637.839844"/>
      <use xlink:href="#MicrosoftYaHei-55" x="706.826172"/>
      <use xlink:href="#MicrosoftYaHei-43" x="781.484375"/>
      <use xlink:href="#MicrosoftYaHei-3d" x="848.378906"/>
      <use xlink:href="#MicrosoftYaHei-30" x="922.548828"/>
      <use xlink:href="#MicrosoftYaHei-2e" x="981.191406"/>
      <use xlink:href="#MicrosoftYaHei-38" x="1005.263672"/>
      <use xlink:href="#MicrosoftYaHei-32" x="1063.90625"/>
      <use xlink:href="#MicrosoftYaHei-30" x="1122.548828"/>
      <use xlink:href="#MicrosoftYaHei-29" x="1181.191406"/>
     </g>
    </g>
    <g id="PathCollection_31">
     <g>
      <use xlink:href="#m8bcff88be0" x="659.197063" y="474.705094" style="fill: #f561dd; fill-opacity: 0.8; stroke: #000000; stroke-opacity: 0.8; stroke-width: 0.6"/>
     </g>
    </g>
    <g id="text_34">
     <!-- KNN (AUC=0.785) -->
     <g style="fill: #262626" transform="translate(673.597062 476.805094) scale(0.08 -0.08)">
      <defs>
       <path id="MicrosoftYaHei-4b" d="M 4069 0 
L 3213 0 
L 1394 2200 
Q 1300 2316 1266 2381 
L 1250 2381 
L 1250 0 
L 625 0 
L 625 4841 
L 1250 4841 
L 1250 2563 
L 1266 2563 
Q 1319 2647 1394 2741 
L 3150 4841 
L 3922 4841 
L 1891 2519 
L 4069 0 
z
" transform="scale(0.015625)"/>
      </defs>
      <use xlink:href="#MicrosoftYaHei-4b"/>
      <use xlink:href="#MicrosoftYaHei-4e" x="63.476562"/>
      <use xlink:href="#MicrosoftYaHei-4e" x="144.775391"/>
      <use xlink:href="#MicrosoftYaHei-20" x="226.074219"/>
      <use xlink:href="#MicrosoftYaHei-28" x="255.664062"/>
      <use xlink:href="#MicrosoftYaHei-41" x="289.0625"/>
      <use xlink:href="#MicrosoftYaHei-55" x="358.048828"/>
      <use xlink:href="#MicrosoftYaHei-43" x="432.707031"/>
      <use xlink:href="#MicrosoftYaHei-3d" x="499.601562"/>
      <use xlink:href="#MicrosoftYaHei-30" x="573.771484"/>
      <use xlink:href="#MicrosoftYaHei-2e" x="632.414062"/>
      <use xlink:href="#MicrosoftYaHei-37" x="656.486328"/>
      <use xlink:href="#MicrosoftYaHei-38" x="715.128906"/>
      <use xlink:href="#MicrosoftYaHei-35" x="773.771484"/>
      <use xlink:href="#MicrosoftYaHei-29" x="832.414062"/>
     </g>
    </g>
    <g id="PathCollection_32">
     <g>
      <use xlink:href="#ma655acee3a" x="659.197063" y="487.088844" style="fill: #f66ab5; fill-opacity: 0.8; stroke: #000000; stroke-opacity: 0.8; stroke-width: 0.6"/>
     </g>
    </g>
    <g id="text_35">
     <!-- Decision Tree (AUC=0.686) -->
     <g style="fill: #262626" transform="translate(673.597062 489.188844) scale(0.08 -0.08)">
      <defs>
       <path id="MicrosoftYaHei-44" d="M 625 0 
L 625 4841 
L 2006 4841 
Q 3106 4841 3836 4200 
Q 4566 3559 4566 2481 
Q 4566 1356 3836 678 
Q 3106 0 1956 0 
L 625 0 
z
M 1250 4284 
L 1250 553 
L 1953 553 
Q 2875 553 3392 1056 
Q 3909 1559 3909 2466 
Q 3909 3372 3378 3828 
Q 2847 4284 1981 4284 
L 1250 4284 
z
" transform="scale(0.015625)"/>
      </defs>
      <use xlink:href="#MicrosoftYaHei-44"/>
      <use xlink:href="#MicrosoftYaHei-65" x="76.171875"/>
      <use xlink:href="#MicrosoftYaHei-63" x="132.910156"/>
      <use xlink:href="#MicrosoftYaHei-69" x="183.056641"/>
      <use xlink:href="#MicrosoftYaHei-73" x="209.667969"/>
      <use xlink:href="#MicrosoftYaHei-69" x="255.957031"/>
      <use xlink:href="#MicrosoftYaHei-6f" x="282.568359"/>
      <use xlink:href="#MicrosoftYaHei-6e" x="346.142578"/>
      <use xlink:href="#MicrosoftYaHei-20" x="407.763672"/>
      <use xlink:href="#MicrosoftYaHei-54" x="437.353516"/>
      <use xlink:href="#MicrosoftYaHei-72" x="485.302734"/>
      <use xlink:href="#MicrosoftYaHei-65" x="522.111328"/>
      <use xlink:href="#MicrosoftYaHei-65" x="578.849609"/>
      <use xlink:href="#MicrosoftYaHei-20" x="635.587891"/>
      <use xlink:href="#MicrosoftYaHei-28" x="665.177734"/>
      <use xlink:href="#MicrosoftYaHei-41" x="698.576172"/>
      <use xlink:href="#MicrosoftYaHei-55" x="767.5625"/>
      <use xlink:href="#MicrosoftYaHei-43" x="842.220703"/>
      <use xlink:href="#MicrosoftYaHei-3d" x="909.115234"/>
      <use xlink:href="#MicrosoftYaHei-30" x="983.285156"/>
      <use xlink:href="#MicrosoftYaHei-2e" x="1041.927734"/>
      <use xlink:href="#MicrosoftYaHei-36" x="1066"/>
      <use xlink:href="#MicrosoftYaHei-38" x="1124.642578"/>
      <use xlink:href="#MicrosoftYaHei-36" x="1183.285156"/>
      <use xlink:href="#MicrosoftYaHei-29" x="1241.927734"/>
     </g>
    </g>
    <g id="PathCollection_33">
     <defs>
      <path id="m51950c8ccc" d="M 0 -8.944272 
L -2.008114 -2.763932 
L -8.506508 -2.763932 
L -3.249197 1.055728 
L -5.257311 7.236068 
L -0 3.416408 
L 5.257311 7.236068 
L 3.249197 1.055728 
L 8.506508 -2.763932 
L 2.008114 -2.763932 
z
" style="stroke: #000000"/>
     </defs>
     <g>
      <use xlink:href="#m51950c8ccc" x="659.197063" y="499.472594" style="fill: #ff0000; stroke: #000000"/>
     </g>
    </g>
    <g id="text_36">
     <!-- Ideal -->
     <g style="fill: #262626" transform="translate(673.597062 501.572594) scale(0.08 -0.08)">
      <defs>
       <path id="MicrosoftYaHei-49" d="M 1250 4841 
L 1250 0 
L 625 0 
L 625 4841 
L 1250 4841 
z
" transform="scale(0.015625)"/>
      </defs>
      <use xlink:href="#MicrosoftYaHei-49"/>
      <use xlink:href="#MicrosoftYaHei-64" x="29.394531"/>
      <use xlink:href="#MicrosoftYaHei-65" x="93.359375"/>
      <use xlink:href="#MicrosoftYaHei-61" x="150.097656"/>
      <use xlink:href="#MicrosoftYaHei-6c" x="205.371094"/>
     </g>
    </g>
   </g>
   <g id="PathCollection_34">
    <g clip-path="url(#p2ed8a01ce7)">
     <use xlink:href="#m51950c8ccc" x="592.557029" y="71.469818" style="fill: #ff0000; stroke: #000000"/>
    </g>
   </g>
  </g>
 </g>
 <defs>
  <clipPath id="p2ed8a01ce7">
   <rect x="46.379063" y="39.521344" width="585.9" height="471.24"/>
  </clipPath>
 </defs>
</svg>
