<?xml version="1.0" encoding="utf-8" standalone="no"?>
<!DOCTYPE svg PUBLIC "-//W3C//DTD SVG 1.1//EN"
  "http://www.w3.org/Graphics/SVG/1.1/DTD/svg11.dtd">
<svg xmlns:xlink="http://www.w3.org/1999/xlink" width="994.621391pt" height="708.509531pt" viewBox="0 0 994.621391 708.509531" xmlns="http://www.w3.org/2000/svg" version="1.1">
 <metadata>
  <rdf:RDF xmlns:dc="http://purl.org/dc/elements/1.1/" xmlns:cc="http://creativecommons.org/ns#" xmlns:rdf="http://www.w3.org/1999/02/22-rdf-syntax-ns#">
   <cc:Work>
    <dc:type rdf:resource="http://purl.org/dc/dcmitype/StillImage"/>
    <dc:date>2026-04-09T22:35:29.581671</dc:date>
    <dc:format>image/svg+xml</dc:format>
    <dc:creator>
     <cc:Agent>
      <dc:title>Matplotlib v3.9.4, https://matplotlib.org/</dc:title>
     </cc:Agent>
    </dc:creator>
   </cc:Work>
  </rdf:RDF>
 </metadata>
 <defs>
  <style type="text/css">*{stroke-linejoin: round; stroke-linecap: butt}</style>
 </defs>
 <g id="figure_1">
  <g id="patch_1">
   <path d="M 0 708.509531 
L 994.621391 708.509531 
L 994.621391 0 
L 0 0 
z
" style="fill: #ffffff"/>
  </g>
  <g id="axes_1">
   <g id="patch_2">
    <path d="M 95.23625 657.990625 
L 936.83625 657.990625 
L 936.83625 57.346625 
L 95.23625 57.346625 
z
" style="fill: #ffffff"/>
   </g>
   <g id="matplotlib.axis_1">
    <g id="xtick_1">
     <g id="line2d_1">
      <path d="M 95.23625 657.990625 
L 95.23625 57.346625 
" clip-path="url(#p9337f4f58d)" style="fill: none; stroke-dasharray: 3.7,1.6; stroke-dashoffset: 0; stroke: #cccccc; stroke-opacity: 0.15"/>
     </g>
     <g id="text_1">
      <!-- 0.00 -->
      <g style="fill: #262626" transform="translate(82.23625 677.8825) scale(0.13 -0.13)">
       <defs>
        <path id="MicrosoftYaHei-30" d="M 284 2325 
Q 284 3606 709 4264 
Q 1134 4922 1941 4922 
Q 3478 4922 3478 2441 
Q 3478 1216 3045 567 
Q 2613 -81 1831 -81 
Q 1094 -81 689 534 
Q 284 1150 284 2325 
z
M 909 2353 
Q 909 425 1888 425 
Q 2850 425 2850 2384 
Q 2850 4413 1906 4413 
Q 909 4413 909 2353 
z
" transform="scale(0.015625)"/>
        <path id="MicrosoftYaHei-2e" d="M 372 322 
Q 372 491 487 606 
Q 603 722 775 722 
Q 950 722 1065 605 
Q 1181 488 1181 322 
Q 1181 159 1065 42 
Q 950 -75 772 -75 
Q 600 -75 486 42 
Q 372 159 372 322 
z
" transform="scale(0.015625)"/>
       </defs>
       <use xlink:href="#MicrosoftYaHei-30"/>
       <use xlink:href="#MicrosoftYaHei-2e" x="58.642578"/>
       <use xlink:href="#MicrosoftYaHei-30" x="82.714844"/>
       <use xlink:href="#MicrosoftYaHei-30" x="141.357422"/>
      </g>
     </g>
    </g>
    <g id="xtick_2">
     <g id="line2d_2">
      <path d="M 204.075313 657.990625 
L 204.075313 57.346625 
" clip-path="url(#p9337f4f58d)" style="fill: none; stroke-dasharray: 3.7,1.6; stroke-dashoffset: 0; stroke: #cccccc; stroke-opacity: 0.15"/>
     </g>
     <g id="text_2">
      <!-- 0.02 -->
      <g style="fill: #262626" transform="translate(191.075313 677.8825) scale(0.13 -0.13)">
       <defs>
        <path id="MicrosoftYaHei-32" d="M 2666 3572 
Q 2666 3963 2419 4186 
Q 2172 4409 1747 4409 
Q 1447 4409 1140 4256 
Q 834 4103 569 3819 
L 569 4413 
Q 806 4659 1107 4790 
Q 1409 4922 1816 4922 
Q 2472 4922 2872 4570 
Q 3272 4219 3272 3619 
Q 3272 3084 3026 2693 
Q 2781 2303 2188 1894 
Q 1581 1475 1376 1294 
Q 1172 1113 1090 947 
Q 1009 781 1009 544 
L 3416 544 
L 3416 0 
L 372 0 
L 372 241 
Q 372 659 486 951 
Q 600 1244 862 1520 
Q 1125 1797 1681 2184 
Q 2250 2584 2458 2886 
Q 2666 3188 2666 3572 
z
" transform="scale(0.015625)"/>
       </defs>
       <use xlink:href="#MicrosoftYaHei-30"/>
       <use xlink:href="#MicrosoftYaHei-2e" x="58.642578"/>
       <use xlink:href="#MicrosoftYaHei-30" x="82.714844"/>
       <use xlink:href="#MicrosoftYaHei-32" x="141.357422"/>
      </g>
     </g>
    </g>
    <g id="xtick_3">
     <g id="line2d_3">
      <path d="M 312.914376 657.990625 
L 312.914376 57.346625 
" clip-path="url(#p9337f4f58d)" style="fill: none; stroke-dasharray: 3.7,1.6; stroke-dashoffset: 0; stroke: #cccccc; stroke-opacity: 0.15"/>
     </g>
     <g id="text_3">
      <!-- 0.04 -->
      <g style="fill: #262626" transform="translate(299.914376 677.8825) scale(0.13 -0.13)">
       <defs>
        <path id="MicrosoftYaHei-34" d="M 2906 4841 
L 2906 1644 
L 3631 1644 
L 3631 1138 
L 2906 1138 
L 2906 0 
L 2313 0 
L 2313 1138 
L 53 1138 
L 53 1616 
Q 656 2294 1265 3178 
Q 1875 4063 2272 4841 
L 2906 4841 
z
M 741 1644 
L 2313 1644 
L 2313 3950 
Q 1988 3366 1616 2817 
Q 1244 2269 741 1644 
z
" transform="scale(0.015625)"/>
       </defs>
       <use xlink:href="#MicrosoftYaHei-30"/>
       <use xlink:href="#MicrosoftYaHei-2e" x="58.642578"/>
       <use xlink:href="#MicrosoftYaHei-30" x="82.714844"/>
       <use xlink:href="#MicrosoftYaHei-34" x="141.357422"/>
      </g>
     </g>
    </g>
    <g id="xtick_4">
     <g id="line2d_4">
      <path d="M 421.753438 657.990625 
L 421.753438 57.346625 
" clip-path="url(#p9337f4f58d)" style="fill: none; stroke-dasharray: 3.7,1.6; stroke-dashoffset: 0; stroke: #cccccc; stroke-opacity: 0.15"/>
     </g>
     <g id="text_4">
      <!-- 0.06 -->
      <g style="fill: #262626" transform="translate(408.753438 677.8825) scale(0.13 -0.13)">
       <defs>
        <path id="MicrosoftYaHei-36" d="M 3181 4219 
Q 2803 4413 2391 4413 
Q 1763 4413 1381 3866 
Q 1000 3319 994 2372 
L 1009 2372 
Q 1353 3038 2106 3038 
Q 2734 3038 3109 2628 
Q 3484 2219 3484 1541 
Q 3484 831 3051 375 
Q 2619 -81 1947 -81 
Q 1209 -81 789 495 
Q 369 1072 369 2131 
Q 369 3413 920 4167 
Q 1472 4922 2372 4922 
Q 2888 4922 3181 4781 
L 3181 4219 
z
M 1031 1584 
Q 1031 1106 1286 765 
Q 1541 425 1963 425 
Q 2363 425 2613 719 
Q 2863 1013 2863 1475 
Q 2863 1975 2627 2253 
Q 2391 2531 1956 2531 
Q 1544 2531 1287 2250 
Q 1031 1969 1031 1584 
z
" transform="scale(0.015625)"/>
       </defs>
       <use xlink:href="#MicrosoftYaHei-30"/>
       <use xlink:href="#MicrosoftYaHei-2e" x="58.642578"/>
       <use xlink:href="#MicrosoftYaHei-30" x="82.714844"/>
       <use xlink:href="#MicrosoftYaHei-36" x="141.357422"/>
      </g>
     </g>
    </g>
    <g id="xtick_5">
     <g id="line2d_5">
      <path d="M 530.592501 657.990625 
L 530.592501 57.346625 
" clip-path="url(#p9337f4f58d)" style="fill: none; stroke-dasharray: 3.7,1.6; stroke-dashoffset: 0; stroke: #cccccc; stroke-opacity: 0.15"/>
     </g>
     <g id="text_5">
      <!-- 0.08 -->
      <g style="fill: #262626" transform="translate(517.592501 677.8825) scale(0.13 -0.13)">
       <defs>
        <path id="MicrosoftYaHei-38" d="M 306 1350 
Q 306 1769 556 2122 
Q 806 2475 1200 2625 
Q 884 2803 700 3081 
Q 516 3359 516 3684 
Q 516 4028 692 4312 
Q 869 4597 1183 4759 
Q 1497 4922 1875 4922 
Q 2256 4922 2572 4761 
Q 2888 4600 3063 4315 
Q 3238 4031 3238 3684 
Q 3238 3366 3058 3086 
Q 2878 2806 2559 2625 
Q 2953 2472 3200 2119 
Q 3447 1766 3447 1350 
Q 3447 938 3250 611 
Q 3053 284 2690 103 
Q 2328 -78 1875 -78 
Q 1425 -78 1065 103 
Q 706 284 506 612 
Q 306 941 306 1350 
z
M 906 1378 
Q 906 947 1172 687 
Q 1438 428 1878 428 
Q 2309 428 2582 692 
Q 2856 956 2856 1378 
Q 2856 1778 2579 2051 
Q 2303 2325 1878 2325 
Q 1456 2325 1181 2058 
Q 906 1791 906 1378 
z
M 1081 3634 
Q 1081 3309 1312 3076 
Q 1544 2844 1878 2844 
Q 2206 2844 2445 3078 
Q 2684 3313 2684 3634 
Q 2684 3963 2454 4191 
Q 2225 4419 1878 4419 
Q 1534 4419 1307 4195 
Q 1081 3972 1081 3634 
z
" transform="scale(0.015625)"/>
       </defs>
       <use xlink:href="#MicrosoftYaHei-30"/>
       <use xlink:href="#MicrosoftYaHei-2e" x="58.642578"/>
       <use xlink:href="#MicrosoftYaHei-30" x="82.714844"/>
       <use xlink:href="#MicrosoftYaHei-38" x="141.357422"/>
      </g>
     </g>
    </g>
    <g id="xtick_6">
     <g id="line2d_6">
      <path d="M 639.431564 657.990625 
L 639.431564 57.346625 
" clip-path="url(#p9337f4f58d)" style="fill: none; stroke-dasharray: 3.7,1.6; stroke-dashoffset: 0; stroke: #cccccc; stroke-opacity: 0.15"/>
     </g>
     <g id="text_6">
      <!-- 0.10 -->
      <g style="fill: #262626" transform="translate(626.431564 677.8825) scale(0.13 -0.13)">
       <defs>
        <path id="MicrosoftYaHei-31" d="M 1781 0 
L 1781 4141 
Q 1638 3997 1295 3819 
Q 953 3641 663 3569 
L 663 4169 
Q 1047 4275 1484 4508 
Q 1922 4741 2156 4947 
L 2388 4947 
L 2388 0 
L 1781 0 
z
" transform="scale(0.015625)"/>
       </defs>
       <use xlink:href="#MicrosoftYaHei-30"/>
       <use xlink:href="#MicrosoftYaHei-2e" x="58.642578"/>
       <use xlink:href="#MicrosoftYaHei-31" x="82.714844"/>
       <use xlink:href="#MicrosoftYaHei-30" x="141.357422"/>
      </g>
     </g>
    </g>
    <g id="xtick_7">
     <g id="line2d_7">
      <path d="M 748.270627 657.990625 
L 748.270627 57.346625 
" clip-path="url(#p9337f4f58d)" style="fill: none; stroke-dasharray: 3.7,1.6; stroke-dashoffset: 0; stroke: #cccccc; stroke-opacity: 0.15"/>
     </g>
     <g id="text_7">
      <!-- 0.12 -->
      <g style="fill: #262626" transform="translate(735.270627 677.8825) scale(0.13 -0.13)">
       <use xlink:href="#MicrosoftYaHei-30"/>
       <use xlink:href="#MicrosoftYaHei-2e" x="58.642578"/>
       <use xlink:href="#MicrosoftYaHei-31" x="82.714844"/>
       <use xlink:href="#MicrosoftYaHei-32" x="141.357422"/>
      </g>
     </g>
    </g>
    <g id="xtick_8">
     <g id="line2d_8">
      <path d="M 857.10969 657.990625 
L 857.10969 57.346625 
" clip-path="url(#p9337f4f58d)" style="fill: none; stroke-dasharray: 3.7,1.6; stroke-dashoffset: 0; stroke: #cccccc; stroke-opacity: 0.15"/>
     </g>
     <g id="text_8">
      <!-- 0.14 -->
      <g style="fill: #262626" transform="translate(844.10969 677.8825) scale(0.13 -0.13)">
       <use xlink:href="#MicrosoftYaHei-30"/>
       <use xlink:href="#MicrosoftYaHei-2e" x="58.642578"/>
       <use xlink:href="#MicrosoftYaHei-31" x="82.714844"/>
       <use xlink:href="#MicrosoftYaHei-34" x="141.357422"/>
      </g>
     </g>
    </g>
    <g id="text_9">
     <!-- Mean |SHAP Value| -->
     <g style="fill: #262626" transform="translate(443.402266 697.507969) scale(0.15 -0.15)">
      <defs>
       <path id="MicrosoftYaHei-Bold-4d" d="M 4991 0 
L 4991 2938 
Q 4991 3344 5031 3959 
L 5006 3959 
Q 4913 3494 4856 3338 
L 3663 0 
L 2841 0 
L 1631 3306 
Q 1588 3425 1478 3959 
L 1450 3959 
Q 1491 3350 1491 2738 
L 1491 0 
L 559 0 
L 559 4841 
L 2059 4841 
L 3103 1916 
Q 3234 1553 3281 1234 
L 3303 1234 
Q 3400 1631 3503 1922 
L 4550 4841 
L 6009 4841 
L 6009 0 
L 4991 0 
z
" transform="scale(0.015625)"/>
       <path id="MicrosoftYaHei-Bold-65" d="M 3528 1444 
L 1253 1444 
Q 1306 641 2222 641 
Q 2794 641 3231 922 
L 3231 181 
Q 2759 -84 1994 -84 
Q 1169 -84 711 381 
Q 253 847 253 1678 
Q 253 2506 740 3023 
Q 1228 3541 1966 3541 
Q 2700 3541 3114 3095 
Q 3528 2650 3528 1872 
L 3528 1444 
z
M 2588 2075 
Q 2588 2850 1959 2850 
Q 1700 2850 1500 2637 
Q 1300 2425 1250 2075 
L 2588 2075 
z
" transform="scale(0.015625)"/>
       <path id="MicrosoftYaHei-Bold-61" d="M 544 3247 
Q 778 3378 1170 3459 
Q 1563 3541 1841 3541 
Q 3291 3541 3291 2088 
L 3291 0 
L 2331 0 
L 2331 503 
L 2319 503 
Q 1966 -84 1284 -84 
Q 794 -84 498 195 
Q 203 475 203 956 
Q 203 1950 1388 2113 
L 2338 2241 
Q 2338 2844 1709 2844 
Q 1091 2844 544 2469 
L 544 3247 
z
M 1684 1566 
Q 1138 1494 1138 1072 
Q 1138 878 1270 759 
Q 1403 641 1628 641 
Q 1938 641 2138 859 
Q 2338 1078 2338 1403 
L 2338 1650 
L 1684 1566 
z
" transform="scale(0.015625)"/>
       <path id="MicrosoftYaHei-Bold-6e" d="M 3744 0 
L 2741 0 
L 2741 1928 
Q 2741 2766 2138 2766 
Q 1850 2766 1659 2542 
Q 1469 2319 1469 1972 
L 1469 0 
L 459 0 
L 459 3456 
L 1469 3456 
L 1469 2906 
L 1481 2906 
Q 1859 3541 2594 3541 
Q 3744 3541 3744 2116 
L 3744 0 
z
" transform="scale(0.015625)"/>
       <path id="MicrosoftYaHei-Bold-20" transform="scale(0.015625)"/>
       <path id="MicrosoftYaHei-Bold-7c" d="M 1500 -1622 
L 691 -1622 
L 691 5288 
L 1500 5288 
L 1500 -1622 
z
" transform="scale(0.015625)"/>
       <path id="MicrosoftYaHei-Bold-53" d="M 338 1219 
Q 922 734 1666 734 
Q 2088 734 2300 879 
Q 2513 1025 2513 1253 
Q 2513 1450 2344 1625 
Q 2175 1800 1453 2100 
Q 319 2581 319 3500 
Q 319 4175 833 4548 
Q 1347 4922 2194 4922 
Q 2903 4922 3384 4738 
L 3384 3769 
Q 2897 4100 2244 4100 
Q 1863 4100 1634 3961 
Q 1406 3822 1406 3588 
Q 1406 3400 1562 3242 
Q 1719 3084 2334 2816 
Q 3056 2506 3326 2162 
Q 3597 1819 3597 1344 
Q 3597 647 3103 281 
Q 2609 -84 1700 -84 
Q 869 -84 338 184 
L 338 1219 
z
" transform="scale(0.015625)"/>
       <path id="MicrosoftYaHei-Bold-48" d="M 4684 0 
L 3653 0 
L 3653 1997 
L 1591 1997 
L 1591 0 
L 559 0 
L 559 4841 
L 1591 4841 
L 1591 2888 
L 3653 2888 
L 3653 4841 
L 4684 4841 
L 4684 0 
z
" transform="scale(0.015625)"/>
       <path id="MicrosoftYaHei-Bold-41" d="M 4759 0 
L 3634 0 
L 3272 1109 
L 1513 1109 
L 1156 0 
L 38 0 
L 1809 4841 
L 3022 4841 
L 4759 0 
z
M 3028 1906 
L 2478 3584 
Q 2425 3744 2403 4006 
L 2375 4006 
Q 2356 3794 2291 3597 
L 1738 1906 
L 3028 1906 
z
" transform="scale(0.015625)"/>
       <path id="MicrosoftYaHei-Bold-50" d="M 1591 1688 
L 1591 0 
L 559 0 
L 559 4841 
L 2225 4841 
Q 4031 4841 4031 3309 
Q 4031 2566 3486 2117 
Q 2941 1669 2122 1688 
L 1591 1688 
z
M 1591 4041 
L 1591 2478 
L 2038 2478 
Q 2947 2478 2947 3269 
Q 2947 4041 2047 4041 
L 1591 4041 
z
" transform="scale(0.015625)"/>
       <path id="MicrosoftYaHei-Bold-56" d="M 4541 4841 
L 2859 0 
L 1694 0 
L 34 4841 
L 1147 4841 
L 2194 1419 
Q 2272 1166 2291 941 
L 2309 941 
Q 2334 1172 2416 1431 
L 3463 4841 
L 4541 4841 
z
" transform="scale(0.015625)"/>
       <path id="MicrosoftYaHei-Bold-6c" d="M 444 0 
L 444 5116 
L 1450 5116 
L 1450 0 
L 444 0 
z
" transform="scale(0.015625)"/>
       <path id="MicrosoftYaHei-Bold-75" d="M 3691 0 
L 2688 0 
L 2688 528 
L 2672 528 
Q 2284 -84 1613 -84 
Q 406 -84 406 1372 
L 406 3456 
L 1416 3456 
L 1416 1466 
Q 1416 691 2022 691 
Q 2325 691 2506 903 
Q 2688 1116 2688 1478 
L 2688 3456 
L 3691 3456 
L 3691 0 
z
" transform="scale(0.015625)"/>
      </defs>
      <use xlink:href="#MicrosoftYaHei-Bold-4d"/>
      <use xlink:href="#MicrosoftYaHei-Bold-65" x="102.832031"/>
      <use xlink:href="#MicrosoftYaHei-Bold-61" x="161.035156"/>
      <use xlink:href="#MicrosoftYaHei-Bold-6e" x="218.798828"/>
      <use xlink:href="#MicrosoftYaHei-Bold-20" x="283.59375"/>
      <use xlink:href="#MicrosoftYaHei-Bold-7c" x="313.378906"/>
      <use xlink:href="#MicrosoftYaHei-Bold-53" x="347.509766"/>
      <use xlink:href="#MicrosoftYaHei-Bold-48" x="407.666016"/>
      <use xlink:href="#MicrosoftYaHei-Bold-41" x="489.794922"/>
      <use xlink:href="#MicrosoftYaHei-Bold-50" x="564.990234"/>
      <use xlink:href="#MicrosoftYaHei-Bold-20" x="630.712891"/>
      <use xlink:href="#MicrosoftYaHei-Bold-56" x="660.498047"/>
      <use xlink:href="#MicrosoftYaHei-Bold-61" x="723.982422"/>
      <use xlink:href="#MicrosoftYaHei-Bold-6c" x="781.746094"/>
      <use xlink:href="#MicrosoftYaHei-Bold-75" x="811.335938"/>
      <use xlink:href="#MicrosoftYaHei-Bold-65" x="876.130859"/>
      <use xlink:href="#MicrosoftYaHei-Bold-7c" x="934.333984"/>
     </g>
    </g>
   </g>
   <g id="matplotlib.axis_2">
    <g id="ytick_1">
     <g id="text_10">
      <!-- WBC -->
      <g style="fill: #262626" transform="translate(55.653438 625.916287) scale(0.13 -0.13)">
       <defs>
        <path id="MicrosoftYaHei-57" d="M 6431 4841 
L 5075 0 
L 4347 0 
L 3372 3488 
Q 3306 3725 3294 3988 
L 3281 3988 
Q 3263 3728 3194 3494 
L 2209 0 
L 1488 0 
L 84 4841 
L 775 4841 
L 1763 1184 
Q 1828 938 1841 688 
L 1859 688 
Q 1875 875 1963 1184 
L 3009 4841 
L 3625 4841 
L 4625 1156 
Q 4675 975 4706 694 
L 4719 694 
Q 4734 897 4809 1169 
L 5759 4841 
L 6431 4841 
z
" transform="scale(0.015625)"/>
        <path id="MicrosoftYaHei-42" d="M 625 0 
L 625 4841 
L 2047 4841 
Q 2684 4841 3065 4536 
Q 3447 4231 3447 3728 
Q 3447 3328 3220 3022 
Q 2994 2716 2597 2588 
L 2597 2575 
Q 3091 2519 3386 2201 
Q 3681 1884 3681 1397 
Q 3681 772 3232 386 
Q 2784 0 2084 0 
L 625 0 
z
M 1250 4294 
L 1250 2778 
L 1819 2778 
Q 2272 2778 2530 2998 
Q 2788 3219 2788 3609 
Q 2788 4294 1875 4294 
L 1250 4294 
z
M 1250 2234 
L 1250 547 
L 2000 547 
Q 2491 547 2758 773 
Q 3025 1000 3025 1403 
Q 3025 2234 1897 2234 
L 1250 2234 
z
" transform="scale(0.015625)"/>
        <path id="MicrosoftYaHei-43" d="M 3938 200 
Q 3403 -81 2597 -81 
Q 1556 -81 934 580 
Q 313 1241 313 2328 
Q 313 3497 1013 4209 
Q 1713 4922 2791 4922 
Q 3484 4922 3938 4725 
L 3938 4072 
Q 3419 4359 2797 4359 
Q 1988 4359 1478 3820 
Q 969 3281 969 2366 
Q 969 1497 1444 986 
Q 1919 475 2688 475 
Q 3406 475 3938 800 
L 3938 200 
z
" transform="scale(0.015625)"/>
       </defs>
       <use xlink:href="#MicrosoftYaHei-57"/>
       <use xlink:href="#MicrosoftYaHei-42" x="101.757812"/>
       <use xlink:href="#MicrosoftYaHei-43" x="164.501953"/>
      </g>
     </g>
    </g>
    <g id="ytick_2">
     <g id="text_11">
      <!-- PCT -->
      <g style="fill: #262626" transform="translate(61.633438 598.226631) scale(0.13 -0.13)">
       <defs>
        <path id="MicrosoftYaHei-50" d="M 1250 1809 
L 1250 0 
L 625 0 
L 625 4841 
L 2000 4841 
Q 2784 4841 3217 4462 
Q 3650 4084 3650 3381 
Q 3650 2669 3144 2226 
Q 2638 1784 1878 1809 
L 1250 1809 
z
M 1250 4291 
L 1250 2359 
L 1828 2359 
Q 2400 2359 2697 2617 
Q 2994 2875 2994 3356 
Q 2994 4291 1888 4291 
L 1250 4291 
z
" transform="scale(0.015625)"/>
        <path id="MicrosoftYaHei-54" d="M 3550 4284 
L 2153 4284 
L 2153 0 
L 1525 0 
L 1525 4284 
L 134 4284 
L 134 4841 
L 3550 4841 
L 3550 4284 
z
" transform="scale(0.015625)"/>
       </defs>
       <use xlink:href="#MicrosoftYaHei-50"/>
       <use xlink:href="#MicrosoftYaHei-43" x="61.181641"/>
       <use xlink:href="#MicrosoftYaHei-54" x="128.076172"/>
      </g>
     </g>
    </g>
    <g id="ytick_3">
     <g id="text_12">
      <!-- RBC -->
      <g style="fill: #262626" transform="translate(60.396406 570.536976) scale(0.13 -0.13)">
       <defs>
        <path id="MicrosoftYaHei-52" d="M 4159 0 
L 3422 0 
L 2619 1344 
Q 2378 1747 2178 1892 
Q 1978 2038 1700 2038 
L 1250 2038 
L 1250 0 
L 625 0 
L 625 4841 
L 2100 4841 
Q 2806 4841 3206 4500 
Q 3606 4159 3606 3547 
Q 3606 2541 2531 2241 
L 2531 2225 
Q 2731 2141 2876 1984 
Q 3022 1828 3253 1450 
L 4159 0 
z
M 1250 4294 
L 1250 2584 
L 1988 2584 
Q 2416 2584 2683 2834 
Q 2950 3084 2950 3491 
Q 2950 3869 2706 4081 
Q 2463 4294 1997 4294 
L 1250 4294 
z
" transform="scale(0.015625)"/>
       </defs>
       <use xlink:href="#MicrosoftYaHei-52"/>
       <use xlink:href="#MicrosoftYaHei-42" x="65.283203"/>
       <use xlink:href="#MicrosoftYaHei-43" x="128.027344"/>
      </g>
     </g>
    </g>
    <g id="ytick_4">
     <g id="text_13">
      <!-- D_dimer -->
      <g style="fill: #262626" transform="translate(33.709844 542.847321) scale(0.13 -0.13)">
       <defs>
        <path id="MicrosoftYaHei-44" d="M 625 0 
L 625 4841 
L 2006 4841 
Q 3106 4841 3836 4200 
Q 4566 3559 4566 2481 
Q 4566 1356 3836 678 
Q 3106 0 1956 0 
L 625 0 
z
M 1250 4284 
L 1250 553 
L 1953 553 
Q 2875 553 3392 1056 
Q 3909 1559 3909 2466 
Q 3909 3372 3378 3828 
Q 2847 4284 1981 4284 
L 1250 4284 
z
" transform="scale(0.015625)"/>
        <path id="MicrosoftYaHei-5f" d="M 2869 -1634 
L 0 -1634 
L 0 -1231 
L 2869 -1231 
L 2869 -1634 
z
" transform="scale(0.015625)"/>
        <path id="MicrosoftYaHei-64" d="M 3547 0 
L 2934 0 
L 2934 575 
L 2922 575 
Q 2544 -81 1747 -81 
Q 1091 -81 703 386 
Q 316 853 316 1647 
Q 316 2503 753 3020 
Q 1191 3538 1897 3538 
Q 2603 3538 2922 2988 
L 2934 2988 
L 2934 5116 
L 3547 5116 
L 3547 0 
z
M 2938 2056 
Q 2938 2472 2664 2751 
Q 2391 3031 1991 3031 
Q 1503 3031 1222 2667 
Q 941 2303 941 1675 
Q 941 1097 1211 761 
Q 1481 425 1931 425 
Q 2375 425 2656 754 
Q 2938 1084 2938 1575 
L 2938 2056 
z
" transform="scale(0.015625)"/>
        <path id="MicrosoftYaHei-69" d="M 472 4675 
Q 472 4838 583 4948 
Q 694 5059 856 5059 
Q 1022 5059 1136 4950 
Q 1250 4841 1250 4675 
Q 1250 4513 1136 4405 
Q 1022 4297 856 4297 
Q 691 4297 581 4405 
Q 472 4513 472 4675 
z
M 544 0 
L 544 3456 
L 1156 3456 
L 1156 0 
L 544 0 
z
" transform="scale(0.015625)"/>
        <path id="MicrosoftYaHei-6d" d="M 5522 0 
L 4909 0 
L 4909 1984 
Q 4909 2547 4734 2789 
Q 4559 3031 4159 3031 
Q 3822 3031 3581 2715 
Q 3341 2400 3341 1969 
L 3341 0 
L 2728 0 
L 2728 2047 
Q 2728 3031 1969 3031 
Q 1619 3031 1389 2731 
Q 1159 2431 1159 1966 
L 1159 0 
L 547 0 
L 547 3456 
L 1159 3456 
L 1159 2909 
L 1172 2909 
Q 1541 3538 2250 3538 
Q 2597 3538 2862 3347 
Q 3128 3156 3231 2831 
Q 3616 3538 4381 3538 
Q 5522 3538 5522 2131 
L 5522 0 
z
" transform="scale(0.015625)"/>
        <path id="MicrosoftYaHei-65" d="M 3363 1572 
L 944 1572 
Q 959 1019 1246 717 
Q 1534 416 2050 416 
Q 2631 416 3116 788 
L 3116 241 
Q 2659 -81 1906 -81 
Q 1156 -81 736 394 
Q 316 869 316 1713 
Q 316 2506 777 3022 
Q 1238 3538 1922 3538 
Q 2600 3538 2981 3102 
Q 3363 2666 3363 1881 
L 3363 1572 
z
M 2750 2063 
Q 2747 2531 2528 2787 
Q 2309 3044 1913 3044 
Q 1547 3044 1280 2772 
Q 1013 2500 944 2063 
L 2750 2063 
z
" transform="scale(0.015625)"/>
        <path id="MicrosoftYaHei-72" d="M 2400 2850 
Q 2247 2959 1978 2959 
Q 1622 2959 1390 2626 
Q 1159 2294 1159 1750 
L 1159 0 
L 547 0 
L 547 3456 
L 1159 3456 
L 1159 2753 
L 1172 2753 
Q 1434 3516 2078 3516 
Q 2288 3516 2400 3469 
L 2400 2850 
z
" transform="scale(0.015625)"/>
       </defs>
       <use xlink:href="#MicrosoftYaHei-44"/>
       <use xlink:href="#MicrosoftYaHei-5f" x="76.171875"/>
       <use xlink:href="#MicrosoftYaHei-64" x="120.996094"/>
       <use xlink:href="#MicrosoftYaHei-69" x="184.960938"/>
       <use xlink:href="#MicrosoftYaHei-6d" x="211.572266"/>
       <use xlink:href="#MicrosoftYaHei-65" x="305.273438"/>
       <use xlink:href="#MicrosoftYaHei-72" x="362.011719"/>
      </g>
     </g>
    </g>
    <g id="ytick_5">
     <g id="text_14">
      <!-- MONO -->
      <g style="fill: #262626" transform="translate(41.27625 515.157666) scale(0.13 -0.13)">
       <defs>
        <path id="MicrosoftYaHei-4d" d="M 5003 0 
L 5003 3206 
Q 5003 3603 5050 4159 
L 5034 4159 
Q 4953 3809 4891 3672 
L 3294 0 
L 2947 0 
L 1353 3644 
Q 1297 3769 1209 4159 
L 1191 4159 
Q 1222 3822 1222 3178 
L 1222 0 
L 625 0 
L 625 4841 
L 1472 4841 
L 2900 1522 
Q 3063 1141 3116 928 
L 3138 928 
Q 3300 1375 3366 1534 
L 4819 4841 
L 5625 4841 
L 5625 0 
L 5003 0 
z
" transform="scale(0.015625)"/>
        <path id="MicrosoftYaHei-4f" d="M 313 2363 
Q 313 3534 947 4228 
Q 1581 4922 2666 4922 
Q 3675 4922 4290 4244 
Q 4906 3566 4906 2478 
Q 4906 1300 4275 609 
Q 3644 -81 2588 -81 
Q 1556 -81 934 597 
Q 313 1275 313 2363 
z
M 969 2413 
Q 969 1534 1417 1004 
Q 1866 475 2588 475 
Q 3363 475 3805 983 
Q 4247 1491 4247 2403 
Q 4247 3341 3814 3850 
Q 3381 4359 2628 4359 
Q 1888 4359 1428 3821 
Q 969 3284 969 2413 
z
" transform="scale(0.015625)"/>
        <path id="MicrosoftYaHei-4e" d="M 4578 0 
L 3838 0 
L 1403 3766 
Q 1300 3925 1238 4081 
L 1219 4081 
Q 1244 3919 1244 3403 
L 1244 0 
L 625 0 
L 625 4841 
L 1409 4841 
L 3778 1141 
Q 3947 878 3978 806 
L 3991 806 
Q 3959 1013 3959 1513 
L 3959 4841 
L 4578 4841 
L 4578 0 
z
" transform="scale(0.015625)"/>
       </defs>
       <use xlink:href="#MicrosoftYaHei-4d"/>
       <use xlink:href="#MicrosoftYaHei-4f" x="97.705078"/>
       <use xlink:href="#MicrosoftYaHei-4e" x="179.199219"/>
       <use xlink:href="#MicrosoftYaHei-4f" x="260.498047"/>
      </g>
     </g>
    </g>
    <g id="ytick_6">
     <g id="text_15">
      <!-- K -->
      <g style="fill: #262626" transform="translate(77.483281 487.468011) scale(0.13 -0.13)">
       <defs>
        <path id="MicrosoftYaHei-4b" d="M 4069 0 
L 3213 0 
L 1394 2200 
Q 1300 2316 1266 2381 
L 1250 2381 
L 1250 0 
L 625 0 
L 625 4841 
L 1250 4841 
L 1250 2563 
L 1266 2563 
Q 1319 2647 1394 2741 
L 3150 4841 
L 3922 4841 
L 1891 2519 
L 4069 0 
z
" transform="scale(0.015625)"/>
       </defs>
       <use xlink:href="#MicrosoftYaHei-4b"/>
      </g>
     </g>
    </g>
    <g id="ytick_7">
     <g id="text_16">
      <!-- Alb -->
      <g style="fill: #262626" transform="translate(64.826563 459.778356) scale(0.13 -0.13)">
       <defs>
        <path id="MicrosoftYaHei-41" d="M 4428 0 
L 3738 0 
L 3244 1325 
L 1228 1325 
L 763 0 
L 72 0 
L 1916 4841 
L 2584 4841 
L 4428 0 
z
M 3050 1872 
L 2319 3884 
Q 2284 3981 2244 4222 
L 2228 4222 
Q 2194 4003 2150 3884 
L 1425 1872 
L 3050 1872 
z
" transform="scale(0.015625)"/>
        <path id="MicrosoftYaHei-6c" d="M 544 0 
L 544 5116 
L 1156 5116 
L 1156 0 
L 544 0 
z
" transform="scale(0.015625)"/>
        <path id="MicrosoftYaHei-62" d="M 1159 488 
L 1159 0 
L 547 0 
L 547 5116 
L 1159 5116 
L 1159 2859 
L 1172 2859 
Q 1578 3538 2359 3538 
Q 3009 3538 3392 3080 
Q 3775 2622 3775 1828 
Q 3775 953 3345 436 
Q 2916 -81 2200 -81 
Q 1525 -81 1172 488 
L 1159 488 
z
M 1156 1422 
Q 1156 1003 1428 714 
Q 1700 425 2109 425 
Q 2597 425 2872 800 
Q 3147 1175 3147 1838 
Q 3147 2384 2890 2707 
Q 2634 3031 2191 3031 
Q 1741 3031 1448 2709 
Q 1156 2388 1156 1891 
L 1156 1422 
z
" transform="scale(0.015625)"/>
       </defs>
       <use xlink:href="#MicrosoftYaHei-41"/>
       <use xlink:href="#MicrosoftYaHei-6c" x="70.361328"/>
       <use xlink:href="#MicrosoftYaHei-62" x="96.972656"/>
      </g>
     </g>
    </g>
    <g id="ytick_8">
     <g id="text_17">
      <!-- LDH -->
      <g style="fill: #262626" transform="translate(59.108594 432.0887) scale(0.13 -0.13)">
       <defs>
        <path id="MicrosoftYaHei-4c" d="M 3178 0 
L 625 0 
L 625 4841 
L 1250 4841 
L 1250 553 
L 3178 553 
L 3178 0 
z
" transform="scale(0.015625)"/>
        <path id="MicrosoftYaHei-48" d="M 4325 0 
L 3700 0 
L 3700 2181 
L 1250 2181 
L 1250 0 
L 625 0 
L 625 4841 
L 1250 4841 
L 1250 2738 
L 3700 2738 
L 3700 4841 
L 4325 4841 
L 4325 0 
z
" transform="scale(0.015625)"/>
       </defs>
       <use xlink:href="#MicrosoftYaHei-4c"/>
       <use xlink:href="#MicrosoftYaHei-44" x="51.318359"/>
       <use xlink:href="#MicrosoftYaHei-48" x="127.490234"/>
      </g>
     </g>
    </g>
    <g id="ytick_9">
     <g id="text_18">
      <!-- Creatinine -->
      <g style="fill: #262626" transform="translate(22.533906 404.399045) scale(0.13 -0.13)">
       <defs>
        <path id="MicrosoftYaHei-61" d="M 628 3216 
Q 1144 3538 1819 3538 
Q 3069 3538 3069 2225 
L 3069 0 
L 2463 0 
L 2463 534 
L 2447 534 
Q 2088 -81 1388 -81 
Q 884 -81 587 191 
Q 291 463 291 925 
Q 291 1894 1438 2053 
L 2463 2197 
Q 2463 3044 1763 3044 
Q 1141 3044 628 2625 
L 628 3216 
z
M 1653 1625 
Q 1228 1569 1067 1412 
Q 906 1256 906 975 
Q 906 728 1081 572 
Q 1256 416 1544 416 
Q 1944 416 2203 697 
Q 2463 978 2463 1403 
L 2463 1734 
L 1653 1625 
z
" transform="scale(0.015625)"/>
        <path id="MicrosoftYaHei-74" d="M 2206 34 
Q 2006 -75 1666 -75 
Q 738 -75 738 953 
L 738 2950 
L 144 2950 
L 144 3456 
L 738 3456 
L 738 4288 
L 1347 4481 
L 1347 3456 
L 2206 3456 
L 2206 2950 
L 1347 2950 
L 1347 1063 
Q 1347 722 1462 575 
Q 1578 428 1847 428 
Q 2053 428 2206 544 
L 2206 34 
z
" transform="scale(0.015625)"/>
        <path id="MicrosoftYaHei-6e" d="M 3469 0 
L 2859 0 
L 2859 1966 
Q 2859 3031 2081 3031 
Q 1678 3031 1418 2731 
Q 1159 2431 1159 1972 
L 1159 0 
L 547 0 
L 547 3456 
L 1159 3456 
L 1159 2884 
L 1172 2884 
Q 1563 3538 2306 3538 
Q 2875 3538 3172 3173 
Q 3469 2809 3469 2113 
L 3469 0 
z
" transform="scale(0.015625)"/>
       </defs>
       <use xlink:href="#MicrosoftYaHei-43"/>
       <use xlink:href="#MicrosoftYaHei-72" x="66.894531"/>
       <use xlink:href="#MicrosoftYaHei-65" x="103.703125"/>
       <use xlink:href="#MicrosoftYaHei-61" x="160.441406"/>
       <use xlink:href="#MicrosoftYaHei-74" x="215.714844"/>
       <use xlink:href="#MicrosoftYaHei-69" x="252.970703"/>
       <use xlink:href="#MicrosoftYaHei-6e" x="279.582031"/>
       <use xlink:href="#MicrosoftYaHei-69" x="341.203125"/>
       <use xlink:href="#MicrosoftYaHei-6e" x="367.814453"/>
       <use xlink:href="#MicrosoftYaHei-65" x="429.435547"/>
      </g>
     </g>
    </g>
    <g id="ytick_10">
     <g id="text_19">
      <!-- PLR -->
      <g style="fill: #262626" transform="translate(62.624688 376.70939) scale(0.13 -0.13)">
       <use xlink:href="#MicrosoftYaHei-50"/>
       <use xlink:href="#MicrosoftYaHei-4c" x="61.181641"/>
       <use xlink:href="#MicrosoftYaHei-52" x="112.5"/>
      </g>
     </g>
    </g>
    <g id="ytick_11">
     <g id="text_20">
      <!-- PT -->
      <g style="fill: #262626" transform="translate(70.329219 349.019735) scale(0.13 -0.13)">
       <use xlink:href="#MicrosoftYaHei-50"/>
       <use xlink:href="#MicrosoftYaHei-54" x="61.181641"/>
      </g>
     </g>
    </g>
    <g id="ytick_12">
     <g id="text_21">
      <!-- Age -->
      <g style="fill: #262626" transform="translate(60.898125 321.292502) scale(0.13 -0.13)">
       <defs>
        <path id="MicrosoftYaHei-67" d="M 3547 291 
Q 3547 -1628 1684 -1628 
Q 1041 -1628 566 -1388 
L 566 -797 
Q 1144 -1119 1675 -1119 
Q 2934 -1119 2934 206 
L 2934 572 
L 2922 572 
Q 2528 -81 1747 -81 
Q 1097 -81 706 384 
Q 316 850 316 1619 
Q 316 2503 747 3020 
Q 1178 3538 1897 3538 
Q 2588 3538 2922 2988 
L 2934 2988 
L 2934 3456 
L 3547 3456 
L 3547 291 
z
M 2934 2056 
Q 2938 2456 2666 2743 
Q 2394 3031 1997 3031 
Q 1497 3031 1219 2664 
Q 941 2297 941 1656 
Q 941 1106 1209 765 
Q 1478 425 1922 425 
Q 2369 425 2653 750 
Q 2938 1075 2934 1575 
L 2934 2056 
z
" transform="scale(0.015625)"/>
       </defs>
       <use xlink:href="#MicrosoftYaHei-41"/>
       <use xlink:href="#MicrosoftYaHei-67" x="70.361328"/>
       <use xlink:href="#MicrosoftYaHei-65" x="134.326172"/>
      </g>
     </g>
    </g>
    <g id="ytick_13">
     <g id="text_22">
      <!-- Urea -->
      <g style="fill: #262626" transform="translate(56.683281 293.640425) scale(0.13 -0.13)">
       <defs>
        <path id="MicrosoftYaHei-55" d="M 4213 1972 
Q 4213 -81 2350 -81 
Q 566 -81 566 1900 
L 566 4841 
L 1191 4841 
L 1191 1928 
Q 1191 475 2409 475 
Q 3588 475 3588 1881 
L 3588 4841 
L 4213 4841 
L 4213 1972 
z
" transform="scale(0.015625)"/>
       </defs>
       <use xlink:href="#MicrosoftYaHei-55"/>
       <use xlink:href="#MicrosoftYaHei-72" x="74.658203"/>
       <use xlink:href="#MicrosoftYaHei-65" x="111.466797"/>
       <use xlink:href="#MicrosoftYaHei-61" x="168.205078"/>
      </g>
     </g>
    </g>
    <g id="ytick_14">
     <g id="text_23">
      <!-- LC -->
      <g style="fill: #262626" transform="translate(70.824844 265.950769) scale(0.13 -0.13)">
       <use xlink:href="#MicrosoftYaHei-4c"/>
       <use xlink:href="#MicrosoftYaHei-43" x="47.818359"/>
      </g>
     </g>
    </g>
    <g id="ytick_15">
     <g id="text_24">
      <!-- NLR -->
      <g style="fill: #262626" transform="translate(60.010469 238.261114) scale(0.13 -0.13)">
       <use xlink:href="#MicrosoftYaHei-4e"/>
       <use xlink:href="#MicrosoftYaHei-4c" x="81.298828"/>
       <use xlink:href="#MicrosoftYaHei-52" x="132.617188"/>
      </g>
     </g>
    </g>
    <g id="ytick_16">
     <g id="text_25">
      <!-- PLT -->
      <g style="fill: #262626" transform="translate(64.438594 210.571459) scale(0.13 -0.13)">
       <use xlink:href="#MicrosoftYaHei-50"/>
       <use xlink:href="#MicrosoftYaHei-4c" x="61.181641"/>
       <use xlink:href="#MicrosoftYaHei-54" x="106.5"/>
      </g>
     </g>
    </g>
    <g id="ytick_17">
     <g id="text_26">
      <!-- Total protein -->
      <g style="fill: #262626" transform="translate(7.2 182.881804) scale(0.13 -0.13)">
       <defs>
        <path id="MicrosoftYaHei-6f" d="M 316 1691 
Q 316 2547 794 3042 
Q 1272 3538 2091 3538 
Q 2869 3538 3311 3061 
Q 3753 2584 3753 1744 
Q 3753 925 3281 422 
Q 2809 -81 2016 -81 
Q 1241 -81 778 406 
Q 316 894 316 1691 
z
M 941 1709 
Q 941 1113 1242 769 
Q 1544 425 2053 425 
Q 2578 425 2853 761 
Q 3128 1097 3128 1725 
Q 3128 2356 2853 2693 
Q 2578 3031 2053 3031 
Q 1538 3031 1239 2678 
Q 941 2325 941 1709 
z
" transform="scale(0.015625)"/>
        <path id="MicrosoftYaHei-20" transform="scale(0.015625)"/>
        <path id="MicrosoftYaHei-70" d="M 1159 488 
L 1159 -1591 
L 547 -1591 
L 547 3456 
L 1159 3456 
L 1159 2859 
L 1172 2859 
Q 1578 3538 2359 3538 
Q 3022 3538 3398 3073 
Q 3775 2609 3775 1828 
Q 3775 966 3348 442 
Q 2922 -81 2200 -81 
Q 1534 -81 1172 488 
L 1159 488 
z
M 1156 1425 
Q 1156 1003 1428 714 
Q 1700 425 2109 425 
Q 2597 425 2872 800 
Q 3147 1175 3147 1838 
Q 3147 2397 2890 2714 
Q 2634 3031 2191 3031 
Q 1738 3031 1447 2709 
Q 1156 2388 1156 1884 
L 1156 1425 
z
" transform="scale(0.015625)"/>
       </defs>
       <use xlink:href="#MicrosoftYaHei-54"/>
       <use xlink:href="#MicrosoftYaHei-6f" x="46.199219"/>
       <use xlink:href="#MicrosoftYaHei-74" x="109.773438"/>
       <use xlink:href="#MicrosoftYaHei-61" x="147.029297"/>
       <use xlink:href="#MicrosoftYaHei-6c" x="202.302734"/>
       <use xlink:href="#MicrosoftYaHei-20" x="228.914062"/>
       <use xlink:href="#MicrosoftYaHei-70" x="258.503906"/>
       <use xlink:href="#MicrosoftYaHei-72" x="322.371094"/>
       <use xlink:href="#MicrosoftYaHei-6f" x="359.179688"/>
       <use xlink:href="#MicrosoftYaHei-74" x="422.753906"/>
       <use xlink:href="#MicrosoftYaHei-65" x="459.134766"/>
       <use xlink:href="#MicrosoftYaHei-69" x="515.873047"/>
       <use xlink:href="#MicrosoftYaHei-6e" x="542.484375"/>
      </g>
     </g>
    </g>
    <g id="ytick_18">
     <g id="text_27">
      <!-- MONO% -->
      <g style="fill: #262626" transform="translate(29.710313 155.192149) scale(0.13 -0.13)">
       <defs>
        <path id="MicrosoftYaHei-25" d="M 272 3619 
Q 272 4213 589 4563 
Q 906 4913 1444 4913 
Q 1959 4913 2248 4591 
Q 2538 4269 2538 3694 
Q 2538 3122 2219 2765 
Q 1900 2409 1372 2409 
Q 872 2409 572 2740 
Q 272 3072 272 3619 
z
M 753 3650 
Q 753 3247 928 3028 
Q 1103 2809 1406 2809 
Q 1719 2809 1889 3036 
Q 2059 3263 2059 3675 
Q 2059 4078 1892 4298 
Q 1725 4519 1422 4519 
Q 1113 4519 933 4289 
Q 753 4059 753 3650 
z
M 4647 4841 
L 1538 -31 
L 1016 -31 
L 4125 4841 
L 4647 4841 
z
M 3172 1134 
Q 3172 1728 3489 2083 
Q 3806 2438 4341 2438 
Q 4853 2438 5143 2114 
Q 5434 1791 5434 1203 
Q 5434 634 5112 279 
Q 4791 -75 4272 -75 
Q 3769 -75 3470 261 
Q 3172 597 3172 1134 
z
M 3650 1163 
Q 3650 769 3825 548 
Q 4000 328 4303 328 
Q 4616 328 4786 556 
Q 4956 784 4956 1194 
Q 4956 1600 4786 1815 
Q 4616 2031 4319 2031 
Q 4000 2031 3825 1801 
Q 3650 1572 3650 1163 
z
" transform="scale(0.015625)"/>
       </defs>
       <use xlink:href="#MicrosoftYaHei-4d"/>
       <use xlink:href="#MicrosoftYaHei-4f" x="97.705078"/>
       <use xlink:href="#MicrosoftYaHei-4e" x="179.199219"/>
       <use xlink:href="#MicrosoftYaHei-4f" x="260.498047"/>
       <use xlink:href="#MicrosoftYaHei-25" x="341.992188"/>
      </g>
     </g>
    </g>
    <g id="ytick_19">
     <g id="text_28">
      <!-- Prealbumin -->
      <g style="fill: #262626" transform="translate(15.008125 127.502494) scale(0.13 -0.13)">
       <defs>
        <path id="MicrosoftYaHei-75" d="M 3400 0 
L 2784 0 
L 2784 544 
L 2772 544 
Q 2425 -81 1706 -81 
Q 478 -81 478 1388 
L 478 3456 
L 1084 3456 
L 1084 1478 
Q 1084 425 1891 425 
Q 2291 425 2537 720 
Q 2784 1016 2784 1466 
L 2784 3456 
L 3400 3456 
L 3400 0 
z
" transform="scale(0.015625)"/>
       </defs>
       <use xlink:href="#MicrosoftYaHei-50"/>
       <use xlink:href="#MicrosoftYaHei-72" x="61.181641"/>
       <use xlink:href="#MicrosoftYaHei-65" x="97.990234"/>
       <use xlink:href="#MicrosoftYaHei-61" x="154.728516"/>
       <use xlink:href="#MicrosoftYaHei-6c" x="210.001953"/>
       <use xlink:href="#MicrosoftYaHei-62" x="236.613281"/>
       <use xlink:href="#MicrosoftYaHei-75" x="300.480469"/>
       <use xlink:href="#MicrosoftYaHei-6d" x="362.101562"/>
       <use xlink:href="#MicrosoftYaHei-69" x="455.802734"/>
       <use xlink:href="#MicrosoftYaHei-6e" x="482.414062"/>
      </g>
     </g>
    </g>
    <g id="ytick_20">
     <g id="text_29">
      <!-- GR% -->
      <g style="fill: #262626" transform="translate(56.017031 99.812838) scale(0.13 -0.13)">
       <defs>
        <path id="MicrosoftYaHei-47" d="M 4284 331 
Q 3559 -81 2647 -81 
Q 1597 -81 955 583 
Q 313 1247 313 2356 
Q 313 3478 1022 4200 
Q 1731 4922 2841 4922 
Q 3625 4922 4169 4672 
L 4169 3997 
Q 3588 4363 2784 4363 
Q 1994 4363 1481 3822 
Q 969 3281 969 2397 
Q 969 1488 1441 981 
Q 1913 475 2716 475 
Q 3269 475 3656 688 
L 3656 1997 
L 2606 1997 
L 2606 2550 
L 4284 2550 
L 4284 331 
z
" transform="scale(0.015625)"/>
       </defs>
       <use xlink:href="#MicrosoftYaHei-47"/>
       <use xlink:href="#MicrosoftYaHei-52" x="74.365234"/>
       <use xlink:href="#MicrosoftYaHei-25" x="139.648438"/>
      </g>
     </g>
    </g>
   </g>
   <g id="patch_3">
    <path d="M 95.23625 630.688625 
L 95.277822 630.688625 
L 95.277822 610.752073 
L 95.23625 610.752073 
z
" clip-path="url(#p9337f4f58d)" style="fill: #b7d4ea; stroke: #ffffff; stroke-width: 0.6; stroke-linejoin: miter"/>
   </g>
   <g id="patch_4">
    <path d="M 95.23625 602.99897 
L 100.274195 602.99897 
L 100.274195 583.062418 
L 95.23625 583.062418 
z
" clip-path="url(#p9337f4f58d)" style="fill: #b5d4e9; stroke: #ffffff; stroke-width: 0.6; stroke-linejoin: miter"/>
   </g>
   <g id="patch_5">
    <path d="M 95.23625 575.309315 
L 103.602588 575.309315 
L 103.602588 555.372763 
L 95.23625 555.372763 
z
" clip-path="url(#p9337f4f58d)" style="fill: #b4d3e9; stroke: #ffffff; stroke-width: 0.6; stroke-linejoin: miter"/>
   </g>
   <g id="patch_6">
    <path d="M 95.23625 547.619659 
L 108.409068 547.619659 
L 108.409068 527.683108 
L 95.23625 527.683108 
z
" clip-path="url(#p9337f4f58d)" style="fill: #b3d3e8; stroke: #ffffff; stroke-width: 0.6; stroke-linejoin: miter"/>
   </g>
   <g id="patch_7">
    <path d="M 95.23625 519.930004 
L 116.71066 519.930004 
L 116.71066 499.993453 
L 95.23625 499.993453 
z
" clip-path="url(#p9337f4f58d)" style="fill: #b0d2e7; stroke: #ffffff; stroke-width: 0.6; stroke-linejoin: miter"/>
   </g>
   <g id="patch_8">
    <path d="M 95.23625 492.240349 
L 120.654375 492.240349 
L 120.654375 472.303797 
L 95.23625 472.303797 
z
" clip-path="url(#p9337f4f58d)" style="fill: #afd1e7; stroke: #ffffff; stroke-width: 0.6; stroke-linejoin: miter"/>
   </g>
   <g id="patch_9">
    <path d="M 95.23625 464.550694 
L 124.651225 464.550694 
L 124.651225 444.614142 
L 95.23625 444.614142 
z
" clip-path="url(#p9337f4f58d)" style="fill: #afd1e7; stroke: #ffffff; stroke-width: 0.6; stroke-linejoin: miter"/>
   </g>
   <g id="patch_10">
    <path d="M 95.23625 436.861039 
L 135.542887 436.861039 
L 135.542887 416.924487 
L 95.23625 416.924487 
z
" clip-path="url(#p9337f4f58d)" style="fill: #abd0e6; stroke: #ffffff; stroke-width: 0.6; stroke-linejoin: miter"/>
   </g>
   <g id="patch_11">
    <path d="M 95.23625 409.171384 
L 146.166552 409.171384 
L 146.166552 389.234832 
L 95.23625 389.234832 
z
" clip-path="url(#p9337f4f58d)" style="fill: #a9cfe5; stroke: #ffffff; stroke-width: 0.6; stroke-linejoin: miter"/>
   </g>
   <g id="patch_12">
    <path d="M 95.23625 381.481728 
L 160.644175 381.481728 
L 160.644175 361.545177 
L 95.23625 361.545177 
z
" clip-path="url(#p9337f4f58d)" style="fill: #a5cde3; stroke: #ffffff; stroke-width: 0.6; stroke-linejoin: miter"/>
   </g>
   <g id="patch_13">
    <path d="M 95.23625 353.792073 
L 164.641527 353.792073 
L 164.641527 333.855522 
L 95.23625 333.855522 
z
" clip-path="url(#p9337f4f58d)" style="fill: #a4cce3; stroke: #ffffff; stroke-width: 0.6; stroke-linejoin: miter"/>
   </g>
   <g id="patch_14">
    <path d="M 95.23625 326.102418 
L 178.465292 326.102418 
L 178.465292 306.165866 
L 95.23625 306.165866 
z
" clip-path="url(#p9337f4f58d)" style="fill: #a0cbe2; stroke: #ffffff; stroke-width: 0.6; stroke-linejoin: miter"/>
   </g>
   <g id="patch_15">
    <path d="M 95.23625 298.412763 
L 237.688162 298.412763 
L 237.688162 278.476211 
L 95.23625 278.476211 
z
" clip-path="url(#p9337f4f58d)" style="fill: #8dc1dd; stroke: #ffffff; stroke-width: 0.6; stroke-linejoin: miter"/>
   </g>
   <g id="patch_16">
    <path d="M 95.23625 270.723108 
L 271.12202 270.723108 
L 271.12202 250.786556 
L 95.23625 250.786556 
z
" clip-path="url(#p9337f4f58d)" style="fill: #82bbdb; stroke: #ffffff; stroke-width: 0.6; stroke-linejoin: miter"/>
   </g>
   <g id="patch_17">
    <path d="M 95.23625 243.033453 
L 284.550895 243.033453 
L 284.550895 223.096901 
L 95.23625 223.096901 
z
" clip-path="url(#p9337f4f58d)" style="fill: #7db8da; stroke: #ffffff; stroke-width: 0.6; stroke-linejoin: miter"/>
   </g>
   <g id="patch_18">
    <path d="M 95.23625 215.343797 
L 334.195604 215.343797 
L 334.195604 195.407246 
L 95.23625 195.407246 
z
" clip-path="url(#p9337f4f58d)" style="fill: #6dafd7; stroke: #ffffff; stroke-width: 0.6; stroke-linejoin: miter"/>
   </g>
   <g id="patch_19">
    <path d="M 95.23625 187.654142 
L 349.780472 187.654142 
L 349.780472 167.717591 
L 95.23625 167.717591 
z
" clip-path="url(#p9337f4f58d)" style="fill: #69add5; stroke: #ffffff; stroke-width: 0.6; stroke-linejoin: miter"/>
   </g>
   <g id="patch_20">
    <path d="M 95.23625 159.964487 
L 469.042924 159.964487 
L 469.042924 140.027935 
L 95.23625 140.027935 
z
" clip-path="url(#p9337f4f58d)" style="fill: #4997c9; stroke: #ffffff; stroke-width: 0.6; stroke-linejoin: miter"/>
   </g>
   <g id="patch_21">
    <path d="M 95.23625 132.274832 
L 795.309396 132.274832 
L 795.309396 112.33828 
L 95.23625 112.33828 
z
" clip-path="url(#p9337f4f58d)" style="fill: #09529d; stroke: #ffffff; stroke-width: 0.6; stroke-linejoin: miter"/>
   </g>
   <g id="patch_22">
    <path d="M 95.23625 104.585177 
L 896.76006 104.585177 
L 896.76006 84.648625 
L 95.23625 84.648625 
z
" clip-path="url(#p9337f4f58d)" style="fill: #083c7d; stroke: #ffffff; stroke-width: 0.6; stroke-linejoin: miter"/>
   </g>
   <g id="patch_23">
    <path d="M 95.23625 657.990625 
L 95.23625 57.346625 
" style="fill: none; stroke: #262626; stroke-width: 1.25; stroke-linejoin: miter; stroke-linecap: square"/>
   </g>
   <g id="patch_24">
    <path d="M 95.23625 657.990625 
L 936.83625 657.990625 
" style="fill: none; stroke: #262626; stroke-width: 1.25; stroke-linejoin: miter; stroke-linecap: square"/>
   </g>
   <g id="text_30">
    <!-- 0.0000 (0.0%) -->
    <g style="fill: #333333" transform="translate(103.29306 623.749646) scale(0.11 -0.11)">
     <defs>
      <path id="MicrosoftYaHei-Bold-30" d="M 244 2341 
Q 244 3597 706 4259 
Q 1169 4922 2044 4922 
Q 3713 4922 3713 2453 
Q 3713 1238 3259 577 
Q 2806 -84 1950 -84 
Q 244 -84 244 2341 
z
M 1266 2366 
Q 1266 691 1981 691 
Q 2684 691 2684 2416 
Q 2684 4147 2000 4147 
Q 1266 4147 1266 2366 
z
" transform="scale(0.015625)"/>
      <path id="MicrosoftYaHei-Bold-2e" d="M 313 453 
Q 313 688 491 838 
Q 669 988 916 988 
Q 1166 988 1337 834 
Q 1509 681 1509 453 
Q 1509 213 1337 64 
Q 1166 -84 903 -84 
Q 659 -84 486 69 
Q 313 222 313 453 
z
" transform="scale(0.015625)"/>
      <path id="MicrosoftYaHei-Bold-28" d="M 1606 -1100 
Q 525 97 525 1853 
Q 525 3550 1606 4841 
L 2431 4841 
Q 1406 3497 1406 1853 
Q 1406 216 2438 -1100 
L 1606 -1100 
z
" transform="scale(0.015625)"/>
      <path id="MicrosoftYaHei-Bold-25" d="M 297 3597 
Q 297 4191 626 4548 
Q 956 4906 1519 4906 
Q 2056 4906 2354 4581 
Q 2653 4256 2653 3684 
Q 2653 3097 2322 2744 
Q 1991 2391 1438 2391 
Q 919 2391 608 2722 
Q 297 3053 297 3597 
z
M 984 3631 
Q 984 2959 1478 2959 
Q 1981 2959 1981 3659 
Q 1981 4338 1500 4338 
Q 984 4338 984 3631 
z
M 4938 4841 
L 1791 -3 
L 1006 -3 
L 4147 4841 
L 4938 4841 
z
M 3297 1141 
Q 3297 1741 3631 2095 
Q 3966 2450 4522 2450 
Q 5059 2450 5357 2131 
Q 5656 1813 5656 1234 
Q 5656 641 5322 286 
Q 4988 -69 4438 -69 
Q 3922 -69 3609 264 
Q 3297 597 3297 1141 
z
M 3981 1175 
Q 3981 500 4478 500 
Q 4978 500 4978 1200 
Q 4978 1528 4845 1704 
Q 4713 1881 4491 1881 
Q 3981 1881 3981 1175 
z
" transform="scale(0.015625)"/>
      <path id="MicrosoftYaHei-Bold-29" d="M 59 -1100 
Q 1097 216 1097 1853 
Q 1097 3484 59 4841 
L 888 4841 
Q 1978 3544 1978 1853 
Q 1978 113 881 -1100 
L 59 -1100 
z
" transform="scale(0.015625)"/>
     </defs>
     <use xlink:href="#MicrosoftYaHei-Bold-30"/>
     <use xlink:href="#MicrosoftYaHei-Bold-2e" x="61.669922"/>
     <use xlink:href="#MicrosoftYaHei-Bold-30" x="90.234375"/>
     <use xlink:href="#MicrosoftYaHei-Bold-30" x="151.904297"/>
     <use xlink:href="#MicrosoftYaHei-Bold-30" x="213.574219"/>
     <use xlink:href="#MicrosoftYaHei-Bold-30" x="275.244141"/>
     <use xlink:href="#MicrosoftYaHei-Bold-20" x="336.914062"/>
     <use xlink:href="#MicrosoftYaHei-Bold-28" x="366.699219"/>
     <use xlink:href="#MicrosoftYaHei-Bold-30" x="405.664062"/>
     <use xlink:href="#MicrosoftYaHei-Bold-2e" x="467.333984"/>
     <use xlink:href="#MicrosoftYaHei-Bold-30" x="495.898438"/>
     <use xlink:href="#MicrosoftYaHei-Bold-25" x="557.568359"/>
     <use xlink:href="#MicrosoftYaHei-Bold-29" x="650.683594"/>
    </g>
   </g>
   <g id="text_31">
    <!-- 0.0009 (0.2%) -->
    <g style="fill: #333333" transform="translate(108.289433 596.059991) scale(0.11 -0.11)">
     <defs>
      <path id="MicrosoftYaHei-Bold-39" d="M 544 941 
Q 931 691 1456 691 
Q 2628 691 2653 2216 
L 2634 2222 
Q 2316 1731 1650 1731 
Q 1047 1731 658 2154 
Q 269 2578 269 3222 
Q 269 3978 737 4450 
Q 1206 4922 1959 4922 
Q 2744 4922 3191 4325 
Q 3638 3728 3638 2659 
Q 3638 1391 3098 653 
Q 2559 -84 1547 -84 
Q 975 -84 544 100 
L 544 941 
z
M 1259 3313 
Q 1259 2928 1445 2709 
Q 1631 2491 1953 2491 
Q 2241 2491 2427 2700 
Q 2613 2909 2613 3219 
Q 2613 3591 2427 3869 
Q 2241 4147 1928 4147 
Q 1625 4147 1442 3906 
Q 1259 3666 1259 3313 
z
" transform="scale(0.015625)"/>
      <path id="MicrosoftYaHei-Bold-32" d="M 1500 841 
L 3553 841 
L 3553 0 
L 334 0 
L 334 359 
Q 334 738 473 1050 
Q 613 1363 856 1633 
Q 1100 1903 1613 2266 
Q 2081 2616 2268 2886 
Q 2456 3156 2456 3459 
Q 2456 4113 1744 4113 
Q 1119 4113 550 3613 
L 550 4513 
Q 1184 4922 1975 4922 
Q 2700 4922 3122 4551 
Q 3544 4181 3544 3531 
Q 3544 3169 3422 2876 
Q 3300 2584 3069 2328 
Q 2838 2072 2328 1713 
Q 1838 1363 1669 1172 
Q 1500 981 1500 841 
z
" transform="scale(0.015625)"/>
     </defs>
     <use xlink:href="#MicrosoftYaHei-Bold-30"/>
     <use xlink:href="#MicrosoftYaHei-Bold-2e" x="61.669922"/>
     <use xlink:href="#MicrosoftYaHei-Bold-30" x="90.234375"/>
     <use xlink:href="#MicrosoftYaHei-Bold-30" x="151.904297"/>
     <use xlink:href="#MicrosoftYaHei-Bold-30" x="213.574219"/>
     <use xlink:href="#MicrosoftYaHei-Bold-39" x="275.244141"/>
     <use xlink:href="#MicrosoftYaHei-Bold-20" x="336.914062"/>
     <use xlink:href="#MicrosoftYaHei-Bold-28" x="366.699219"/>
     <use xlink:href="#MicrosoftYaHei-Bold-30" x="405.664062"/>
     <use xlink:href="#MicrosoftYaHei-Bold-2e" x="467.333984"/>
     <use xlink:href="#MicrosoftYaHei-Bold-32" x="495.898438"/>
     <use xlink:href="#MicrosoftYaHei-Bold-25" x="557.568359"/>
     <use xlink:href="#MicrosoftYaHei-Bold-29" x="650.683594"/>
    </g>
   </g>
   <g id="text_32">
    <!-- 0.0015 (0.3%) -->
    <g style="fill: #333333" transform="translate(111.617826 568.370336) scale(0.11 -0.11)">
     <defs>
      <path id="MicrosoftYaHei-Bold-31" d="M 2716 4947 
L 2716 0 
L 1700 0 
L 1700 3809 
Q 1513 3647 1188 3517 
Q 863 3388 591 3356 
L 591 4222 
Q 1447 4472 2072 4947 
L 2716 4947 
z
" transform="scale(0.015625)"/>
      <path id="MicrosoftYaHei-Bold-35" d="M 541 125 
L 541 997 
Q 1044 691 1613 691 
Q 2041 691 2283 902 
Q 2525 1113 2525 1472 
Q 2525 2225 1494 2225 
Q 1113 2225 616 2169 
L 797 4841 
L 3359 4841 
L 3359 4009 
L 1613 4009 
L 1544 2991 
Q 1803 3013 2022 3013 
Q 2731 3013 3142 2625 
Q 3553 2238 3553 1575 
Q 3553 844 3056 380 
Q 2559 -84 1706 -84 
Q 1016 -84 541 125 
z
" transform="scale(0.015625)"/>
      <path id="MicrosoftYaHei-Bold-33" d="M 494 1053 
Q 978 691 1625 691 
Q 2034 691 2275 872 
Q 2516 1053 2516 1388 
Q 2516 1731 2230 1912 
Q 1944 2094 1428 2094 
L 997 2094 
L 997 2872 
L 1394 2872 
Q 2369 2872 2369 3528 
Q 2369 4147 1622 4147 
Q 1134 4147 675 3828 
L 675 4663 
Q 1175 4922 1853 4922 
Q 2541 4922 2969 4605 
Q 3397 4288 3397 3725 
Q 3397 2775 2434 2531 
L 2434 2516 
Q 2941 2459 3244 2145 
Q 3547 1831 3547 1381 
Q 3547 691 3042 303 
Q 2538 -84 1697 -84 
Q 950 -84 494 163 
L 494 1053 
z
" transform="scale(0.015625)"/>
     </defs>
     <use xlink:href="#MicrosoftYaHei-Bold-30"/>
     <use xlink:href="#MicrosoftYaHei-Bold-2e" x="61.669922"/>
     <use xlink:href="#MicrosoftYaHei-Bold-30" x="90.234375"/>
     <use xlink:href="#MicrosoftYaHei-Bold-30" x="151.904297"/>
     <use xlink:href="#MicrosoftYaHei-Bold-31" x="213.574219"/>
     <use xlink:href="#MicrosoftYaHei-Bold-35" x="275.244141"/>
     <use xlink:href="#MicrosoftYaHei-Bold-20" x="336.914062"/>
     <use xlink:href="#MicrosoftYaHei-Bold-28" x="366.699219"/>
     <use xlink:href="#MicrosoftYaHei-Bold-30" x="405.664062"/>
     <use xlink:href="#MicrosoftYaHei-Bold-2e" x="467.333984"/>
     <use xlink:href="#MicrosoftYaHei-Bold-33" x="495.898438"/>
     <use xlink:href="#MicrosoftYaHei-Bold-25" x="557.568359"/>
     <use xlink:href="#MicrosoftYaHei-Bold-29" x="650.683594"/>
    </g>
   </g>
   <g id="text_33">
    <!-- 0.0024 (0.4%) -->
    <g style="fill: #333333" transform="translate(116.424306 540.68068) scale(0.11 -0.11)">
     <defs>
      <path id="MicrosoftYaHei-Bold-34" d="M 3184 4841 
L 3184 1766 
L 3869 1766 
L 3869 1031 
L 3184 1031 
L 3184 0 
L 2266 0 
L 2266 1031 
L 103 1031 
L 103 1772 
Q 775 2522 1362 3359 
Q 1950 4197 2250 4841 
L 3184 4841 
z
M 997 1766 
L 2266 1766 
L 2266 3541 
Q 2116 3259 1836 2859 
Q 1556 2459 997 1766 
z
" transform="scale(0.015625)"/>
     </defs>
     <use xlink:href="#MicrosoftYaHei-Bold-30"/>
     <use xlink:href="#MicrosoftYaHei-Bold-2e" x="61.669922"/>
     <use xlink:href="#MicrosoftYaHei-Bold-30" x="90.234375"/>
     <use xlink:href="#MicrosoftYaHei-Bold-30" x="151.904297"/>
     <use xlink:href="#MicrosoftYaHei-Bold-32" x="213.574219"/>
     <use xlink:href="#MicrosoftYaHei-Bold-34" x="275.244141"/>
     <use xlink:href="#MicrosoftYaHei-Bold-20" x="336.914062"/>
     <use xlink:href="#MicrosoftYaHei-Bold-28" x="366.699219"/>
     <use xlink:href="#MicrosoftYaHei-Bold-30" x="405.664062"/>
     <use xlink:href="#MicrosoftYaHei-Bold-2e" x="467.333984"/>
     <use xlink:href="#MicrosoftYaHei-Bold-34" x="495.898438"/>
     <use xlink:href="#MicrosoftYaHei-Bold-25" x="557.568359"/>
     <use xlink:href="#MicrosoftYaHei-Bold-29" x="650.683594"/>
    </g>
   </g>
   <g id="text_34">
    <!-- 0.0039 (0.7%) -->
    <g style="fill: #333333" transform="translate(124.725898 512.991025) scale(0.11 -0.11)">
     <defs>
      <path id="MicrosoftYaHei-Bold-37" d="M 3675 4225 
Q 3088 3172 2798 2528 
Q 2509 1884 2328 1275 
Q 2147 666 2050 0 
L 966 0 
Q 1122 947 1517 1917 
Q 1913 2888 2609 4009 
L 300 4009 
L 300 4841 
L 3675 4841 
L 3675 4225 
z
" transform="scale(0.015625)"/>
     </defs>
     <use xlink:href="#MicrosoftYaHei-Bold-30"/>
     <use xlink:href="#MicrosoftYaHei-Bold-2e" x="61.669922"/>
     <use xlink:href="#MicrosoftYaHei-Bold-30" x="90.234375"/>
     <use xlink:href="#MicrosoftYaHei-Bold-30" x="151.904297"/>
     <use xlink:href="#MicrosoftYaHei-Bold-33" x="213.574219"/>
     <use xlink:href="#MicrosoftYaHei-Bold-39" x="275.244141"/>
     <use xlink:href="#MicrosoftYaHei-Bold-20" x="336.914062"/>
     <use xlink:href="#MicrosoftYaHei-Bold-28" x="366.699219"/>
     <use xlink:href="#MicrosoftYaHei-Bold-30" x="405.664062"/>
     <use xlink:href="#MicrosoftYaHei-Bold-2e" x="467.333984"/>
     <use xlink:href="#MicrosoftYaHei-Bold-37" x="495.898438"/>
     <use xlink:href="#MicrosoftYaHei-Bold-25" x="557.568359"/>
     <use xlink:href="#MicrosoftYaHei-Bold-29" x="650.683594"/>
    </g>
   </g>
   <g id="text_35">
    <!-- 0.0047 (0.8%) -->
    <g style="fill: #333333" transform="translate(128.669613 485.30137) scale(0.11 -0.11)">
     <defs>
      <path id="MicrosoftYaHei-Bold-38" d="M 269 1303 
Q 269 1725 512 2053 
Q 756 2381 1219 2534 
Q 850 2719 648 3003 
Q 447 3288 447 3634 
Q 447 3997 645 4292 
Q 844 4588 1200 4755 
Q 1556 4922 1997 4922 
Q 2441 4922 2800 4758 
Q 3159 4594 3359 4298 
Q 3559 4003 3559 3647 
Q 3559 3309 3339 3018 
Q 3119 2728 2747 2559 
Q 3200 2403 3453 2076 
Q 3706 1750 3706 1313 
Q 3706 697 3228 309 
Q 2750 -78 1988 -78 
Q 1225 -78 747 309 
Q 269 697 269 1303 
z
M 1278 1394 
Q 1278 1056 1472 853 
Q 1666 650 1991 650 
Q 2303 650 2503 853 
Q 2703 1056 2703 1394 
Q 2703 1709 2500 1920 
Q 2297 2131 1991 2131 
Q 1675 2131 1476 1920 
Q 1278 1709 1278 1394 
z
M 1428 3531 
Q 1428 3266 1592 3077 
Q 1756 2888 2006 2888 
Q 2247 2888 2415 3072 
Q 2584 3256 2584 3531 
Q 2584 3806 2420 3997 
Q 2256 4188 2006 4188 
Q 1750 4188 1589 3997 
Q 1428 3806 1428 3531 
z
" transform="scale(0.015625)"/>
     </defs>
     <use xlink:href="#MicrosoftYaHei-Bold-30"/>
     <use xlink:href="#MicrosoftYaHei-Bold-2e" x="61.669922"/>
     <use xlink:href="#MicrosoftYaHei-Bold-30" x="90.234375"/>
     <use xlink:href="#MicrosoftYaHei-Bold-30" x="151.904297"/>
     <use xlink:href="#MicrosoftYaHei-Bold-34" x="213.574219"/>
     <use xlink:href="#MicrosoftYaHei-Bold-37" x="275.244141"/>
     <use xlink:href="#MicrosoftYaHei-Bold-20" x="336.914062"/>
     <use xlink:href="#MicrosoftYaHei-Bold-28" x="366.699219"/>
     <use xlink:href="#MicrosoftYaHei-Bold-30" x="405.664062"/>
     <use xlink:href="#MicrosoftYaHei-Bold-2e" x="467.333984"/>
     <use xlink:href="#MicrosoftYaHei-Bold-38" x="495.898438"/>
     <use xlink:href="#MicrosoftYaHei-Bold-25" x="557.568359"/>
     <use xlink:href="#MicrosoftYaHei-Bold-29" x="650.683594"/>
    </g>
   </g>
   <g id="text_36">
    <!-- 0.0054 (0.9%) -->
    <g style="fill: #333333" transform="translate(132.666463 457.611715) scale(0.11 -0.11)">
     <use xlink:href="#MicrosoftYaHei-Bold-30"/>
     <use xlink:href="#MicrosoftYaHei-Bold-2e" x="61.669922"/>
     <use xlink:href="#MicrosoftYaHei-Bold-30" x="90.234375"/>
     <use xlink:href="#MicrosoftYaHei-Bold-30" x="151.904297"/>
     <use xlink:href="#MicrosoftYaHei-Bold-35" x="213.574219"/>
     <use xlink:href="#MicrosoftYaHei-Bold-34" x="275.244141"/>
     <use xlink:href="#MicrosoftYaHei-Bold-20" x="336.914062"/>
     <use xlink:href="#MicrosoftYaHei-Bold-28" x="366.699219"/>
     <use xlink:href="#MicrosoftYaHei-Bold-30" x="405.664062"/>
     <use xlink:href="#MicrosoftYaHei-Bold-2e" x="467.333984"/>
     <use xlink:href="#MicrosoftYaHei-Bold-39" x="495.898438"/>
     <use xlink:href="#MicrosoftYaHei-Bold-25" x="557.568359"/>
     <use xlink:href="#MicrosoftYaHei-Bold-29" x="650.683594"/>
    </g>
   </g>
   <g id="text_37">
    <!-- 0.0074 (1.2%) -->
    <g style="fill: #333333" transform="translate(143.558125 429.92206) scale(0.11 -0.11)">
     <use xlink:href="#MicrosoftYaHei-Bold-30"/>
     <use xlink:href="#MicrosoftYaHei-Bold-2e" x="61.669922"/>
     <use xlink:href="#MicrosoftYaHei-Bold-30" x="90.234375"/>
     <use xlink:href="#MicrosoftYaHei-Bold-30" x="151.904297"/>
     <use xlink:href="#MicrosoftYaHei-Bold-37" x="213.574219"/>
     <use xlink:href="#MicrosoftYaHei-Bold-34" x="275.244141"/>
     <use xlink:href="#MicrosoftYaHei-Bold-20" x="336.914062"/>
     <use xlink:href="#MicrosoftYaHei-Bold-28" x="366.699219"/>
     <use xlink:href="#MicrosoftYaHei-Bold-31" x="405.664062"/>
     <use xlink:href="#MicrosoftYaHei-Bold-2e" x="467.333984"/>
     <use xlink:href="#MicrosoftYaHei-Bold-32" x="495.898438"/>
     <use xlink:href="#MicrosoftYaHei-Bold-25" x="557.568359"/>
     <use xlink:href="#MicrosoftYaHei-Bold-29" x="650.683594"/>
    </g>
   </g>
   <g id="text_38">
    <!-- 0.0094 (1.5%) -->
    <g style="fill: #333333" transform="translate(154.18179 402.232405) scale(0.11 -0.11)">
     <use xlink:href="#MicrosoftYaHei-Bold-30"/>
     <use xlink:href="#MicrosoftYaHei-Bold-2e" x="61.669922"/>
     <use xlink:href="#MicrosoftYaHei-Bold-30" x="90.234375"/>
     <use xlink:href="#MicrosoftYaHei-Bold-30" x="151.904297"/>
     <use xlink:href="#MicrosoftYaHei-Bold-39" x="213.574219"/>
     <use xlink:href="#MicrosoftYaHei-Bold-34" x="275.244141"/>
     <use xlink:href="#MicrosoftYaHei-Bold-20" x="336.914062"/>
     <use xlink:href="#MicrosoftYaHei-Bold-28" x="366.699219"/>
     <use xlink:href="#MicrosoftYaHei-Bold-31" x="405.664062"/>
     <use xlink:href="#MicrosoftYaHei-Bold-2e" x="467.333984"/>
     <use xlink:href="#MicrosoftYaHei-Bold-35" x="495.898438"/>
     <use xlink:href="#MicrosoftYaHei-Bold-25" x="557.568359"/>
     <use xlink:href="#MicrosoftYaHei-Bold-29" x="650.683594"/>
    </g>
   </g>
   <g id="text_39">
    <!-- 0.0120 (2.0%) -->
    <g style="fill: #333333" transform="translate(168.659413 374.542749) scale(0.11 -0.11)">
     <use xlink:href="#MicrosoftYaHei-Bold-30"/>
     <use xlink:href="#MicrosoftYaHei-Bold-2e" x="61.669922"/>
     <use xlink:href="#MicrosoftYaHei-Bold-30" x="90.234375"/>
     <use xlink:href="#MicrosoftYaHei-Bold-31" x="151.904297"/>
     <use xlink:href="#MicrosoftYaHei-Bold-32" x="213.574219"/>
     <use xlink:href="#MicrosoftYaHei-Bold-30" x="275.244141"/>
     <use xlink:href="#MicrosoftYaHei-Bold-20" x="336.914062"/>
     <use xlink:href="#MicrosoftYaHei-Bold-28" x="366.699219"/>
     <use xlink:href="#MicrosoftYaHei-Bold-32" x="405.664062"/>
     <use xlink:href="#MicrosoftYaHei-Bold-2e" x="467.333984"/>
     <use xlink:href="#MicrosoftYaHei-Bold-30" x="495.898438"/>
     <use xlink:href="#MicrosoftYaHei-Bold-25" x="557.568359"/>
     <use xlink:href="#MicrosoftYaHei-Bold-29" x="650.683594"/>
    </g>
   </g>
   <g id="text_40">
    <!-- 0.0128 (2.1%) -->
    <g style="fill: #333333" transform="translate(172.656765 346.853094) scale(0.11 -0.11)">
     <use xlink:href="#MicrosoftYaHei-Bold-30"/>
     <use xlink:href="#MicrosoftYaHei-Bold-2e" x="61.669922"/>
     <use xlink:href="#MicrosoftYaHei-Bold-30" x="90.234375"/>
     <use xlink:href="#MicrosoftYaHei-Bold-31" x="151.904297"/>
     <use xlink:href="#MicrosoftYaHei-Bold-32" x="213.574219"/>
     <use xlink:href="#MicrosoftYaHei-Bold-38" x="275.244141"/>
     <use xlink:href="#MicrosoftYaHei-Bold-20" x="336.914062"/>
     <use xlink:href="#MicrosoftYaHei-Bold-28" x="366.699219"/>
     <use xlink:href="#MicrosoftYaHei-Bold-32" x="405.664062"/>
     <use xlink:href="#MicrosoftYaHei-Bold-2e" x="467.333984"/>
     <use xlink:href="#MicrosoftYaHei-Bold-31" x="495.898438"/>
     <use xlink:href="#MicrosoftYaHei-Bold-25" x="557.568359"/>
     <use xlink:href="#MicrosoftYaHei-Bold-29" x="650.683594"/>
    </g>
   </g>
   <g id="text_41">
    <!-- 0.0153 (2.5%) -->
    <g style="fill: #333333" transform="translate(186.48053 319.163439) scale(0.11 -0.11)">
     <use xlink:href="#MicrosoftYaHei-Bold-30"/>
     <use xlink:href="#MicrosoftYaHei-Bold-2e" x="61.669922"/>
     <use xlink:href="#MicrosoftYaHei-Bold-30" x="90.234375"/>
     <use xlink:href="#MicrosoftYaHei-Bold-31" x="151.904297"/>
     <use xlink:href="#MicrosoftYaHei-Bold-35" x="213.574219"/>
     <use xlink:href="#MicrosoftYaHei-Bold-33" x="275.244141"/>
     <use xlink:href="#MicrosoftYaHei-Bold-20" x="336.914062"/>
     <use xlink:href="#MicrosoftYaHei-Bold-28" x="366.699219"/>
     <use xlink:href="#MicrosoftYaHei-Bold-32" x="405.664062"/>
     <use xlink:href="#MicrosoftYaHei-Bold-2e" x="467.333984"/>
     <use xlink:href="#MicrosoftYaHei-Bold-35" x="495.898438"/>
     <use xlink:href="#MicrosoftYaHei-Bold-25" x="557.568359"/>
     <use xlink:href="#MicrosoftYaHei-Bold-29" x="650.683594"/>
    </g>
   </g>
   <g id="text_42">
    <!-- 0.0262 (4.3%) -->
    <g style="fill: #333333" transform="translate(245.7034 291.473784) scale(0.11 -0.11)">
     <defs>
      <path id="MicrosoftYaHei-Bold-36" d="M 3378 3938 
Q 3009 4147 2575 4147 
Q 2016 4147 1680 3708 
Q 1344 3269 1344 2572 
L 1363 2572 
Q 1709 3103 2391 3103 
Q 3000 3103 3358 2686 
Q 3716 2269 3716 1600 
Q 3716 869 3250 392 
Q 2784 -84 2059 -84 
Q 1228 -84 786 516 
Q 344 1116 344 2159 
Q 344 3388 917 4155 
Q 1491 4922 2513 4922 
Q 3063 4922 3378 4791 
L 3378 3938 
z
M 1378 1591 
Q 1378 1216 1565 953 
Q 1753 691 2059 691 
Q 2369 691 2547 931 
Q 2725 1172 2725 1534 
Q 2725 2350 2053 2350 
Q 1750 2350 1564 2134 
Q 1378 1919 1378 1591 
z
" transform="scale(0.015625)"/>
     </defs>
     <use xlink:href="#MicrosoftYaHei-Bold-30"/>
     <use xlink:href="#MicrosoftYaHei-Bold-2e" x="61.669922"/>
     <use xlink:href="#MicrosoftYaHei-Bold-30" x="90.234375"/>
     <use xlink:href="#MicrosoftYaHei-Bold-32" x="151.904297"/>
     <use xlink:href="#MicrosoftYaHei-Bold-36" x="213.574219"/>
     <use xlink:href="#MicrosoftYaHei-Bold-32" x="275.244141"/>
     <use xlink:href="#MicrosoftYaHei-Bold-20" x="336.914062"/>
     <use xlink:href="#MicrosoftYaHei-Bold-28" x="366.699219"/>
     <use xlink:href="#MicrosoftYaHei-Bold-34" x="405.664062"/>
     <use xlink:href="#MicrosoftYaHei-Bold-2e" x="467.333984"/>
     <use xlink:href="#MicrosoftYaHei-Bold-33" x="495.898438"/>
     <use xlink:href="#MicrosoftYaHei-Bold-25" x="557.568359"/>
     <use xlink:href="#MicrosoftYaHei-Bold-29" x="650.683594"/>
    </g>
   </g>
   <g id="text_43">
    <!-- 0.0323 (5.3%) -->
    <g style="fill: #333333" transform="translate(279.137258 263.784129) scale(0.11 -0.11)">
     <use xlink:href="#MicrosoftYaHei-Bold-30"/>
     <use xlink:href="#MicrosoftYaHei-Bold-2e" x="61.669922"/>
     <use xlink:href="#MicrosoftYaHei-Bold-30" x="90.234375"/>
     <use xlink:href="#MicrosoftYaHei-Bold-33" x="151.904297"/>
     <use xlink:href="#MicrosoftYaHei-Bold-32" x="213.574219"/>
     <use xlink:href="#MicrosoftYaHei-Bold-33" x="275.244141"/>
     <use xlink:href="#MicrosoftYaHei-Bold-20" x="336.914062"/>
     <use xlink:href="#MicrosoftYaHei-Bold-28" x="366.699219"/>
     <use xlink:href="#MicrosoftYaHei-Bold-35" x="405.664062"/>
     <use xlink:href="#MicrosoftYaHei-Bold-2e" x="467.333984"/>
     <use xlink:href="#MicrosoftYaHei-Bold-33" x="495.898438"/>
     <use xlink:href="#MicrosoftYaHei-Bold-25" x="557.568359"/>
     <use xlink:href="#MicrosoftYaHei-Bold-29" x="650.683594"/>
    </g>
   </g>
   <g id="text_44">
    <!-- 0.0348 (5.8%) -->
    <g style="fill: #333333" transform="translate(292.566133 236.094474) scale(0.11 -0.11)">
     <use xlink:href="#MicrosoftYaHei-Bold-30"/>
     <use xlink:href="#MicrosoftYaHei-Bold-2e" x="61.669922"/>
     <use xlink:href="#MicrosoftYaHei-Bold-30" x="90.234375"/>
     <use xlink:href="#MicrosoftYaHei-Bold-33" x="151.904297"/>
     <use xlink:href="#MicrosoftYaHei-Bold-34" x="213.574219"/>
     <use xlink:href="#MicrosoftYaHei-Bold-38" x="275.244141"/>
     <use xlink:href="#MicrosoftYaHei-Bold-20" x="336.914062"/>
     <use xlink:href="#MicrosoftYaHei-Bold-28" x="366.699219"/>
     <use xlink:href="#MicrosoftYaHei-Bold-35" x="405.664062"/>
     <use xlink:href="#MicrosoftYaHei-Bold-2e" x="467.333984"/>
     <use xlink:href="#MicrosoftYaHei-Bold-38" x="495.898438"/>
     <use xlink:href="#MicrosoftYaHei-Bold-25" x="557.568359"/>
     <use xlink:href="#MicrosoftYaHei-Bold-29" x="650.683594"/>
    </g>
   </g>
   <g id="text_45">
    <!-- 0.0439 (7.3%) -->
    <g style="fill: #333333" transform="translate(342.210842 208.404818) scale(0.11 -0.11)">
     <use xlink:href="#MicrosoftYaHei-Bold-30"/>
     <use xlink:href="#MicrosoftYaHei-Bold-2e" x="61.669922"/>
     <use xlink:href="#MicrosoftYaHei-Bold-30" x="90.234375"/>
     <use xlink:href="#MicrosoftYaHei-Bold-34" x="151.904297"/>
     <use xlink:href="#MicrosoftYaHei-Bold-33" x="213.574219"/>
     <use xlink:href="#MicrosoftYaHei-Bold-39" x="275.244141"/>
     <use xlink:href="#MicrosoftYaHei-Bold-20" x="336.914062"/>
     <use xlink:href="#MicrosoftYaHei-Bold-28" x="366.699219"/>
     <use xlink:href="#MicrosoftYaHei-Bold-37" x="405.664062"/>
     <use xlink:href="#MicrosoftYaHei-Bold-2e" x="467.333984"/>
     <use xlink:href="#MicrosoftYaHei-Bold-33" x="495.898438"/>
     <use xlink:href="#MicrosoftYaHei-Bold-25" x="557.568359"/>
     <use xlink:href="#MicrosoftYaHei-Bold-29" x="650.683594"/>
    </g>
   </g>
   <g id="text_46">
    <!-- 0.0468 (7.7%) -->
    <g style="fill: #333333" transform="translate(357.79571 180.715163) scale(0.11 -0.11)">
     <use xlink:href="#MicrosoftYaHei-Bold-30"/>
     <use xlink:href="#MicrosoftYaHei-Bold-2e" x="61.669922"/>
     <use xlink:href="#MicrosoftYaHei-Bold-30" x="90.234375"/>
     <use xlink:href="#MicrosoftYaHei-Bold-34" x="151.904297"/>
     <use xlink:href="#MicrosoftYaHei-Bold-36" x="213.574219"/>
     <use xlink:href="#MicrosoftYaHei-Bold-38" x="275.244141"/>
     <use xlink:href="#MicrosoftYaHei-Bold-20" x="336.914062"/>
     <use xlink:href="#MicrosoftYaHei-Bold-28" x="366.699219"/>
     <use xlink:href="#MicrosoftYaHei-Bold-37" x="405.664062"/>
     <use xlink:href="#MicrosoftYaHei-Bold-2e" x="467.333984"/>
     <use xlink:href="#MicrosoftYaHei-Bold-37" x="495.898438"/>
     <use xlink:href="#MicrosoftYaHei-Bold-25" x="557.568359"/>
     <use xlink:href="#MicrosoftYaHei-Bold-29" x="650.683594"/>
    </g>
   </g>
   <g id="text_47">
    <!-- 0.0687 (11.4%) -->
    <g style="fill: #333333" transform="translate(477.058162 153.025508) scale(0.11 -0.11)">
     <use xlink:href="#MicrosoftYaHei-Bold-30"/>
     <use xlink:href="#MicrosoftYaHei-Bold-2e" x="61.669922"/>
     <use xlink:href="#MicrosoftYaHei-Bold-30" x="90.234375"/>
     <use xlink:href="#MicrosoftYaHei-Bold-36" x="151.904297"/>
     <use xlink:href="#MicrosoftYaHei-Bold-38" x="213.574219"/>
     <use xlink:href="#MicrosoftYaHei-Bold-37" x="275.244141"/>
     <use xlink:href="#MicrosoftYaHei-Bold-20" x="336.914062"/>
     <use xlink:href="#MicrosoftYaHei-Bold-28" x="366.699219"/>
     <use xlink:href="#MicrosoftYaHei-Bold-31" x="405.664062"/>
     <use xlink:href="#MicrosoftYaHei-Bold-31" x="467.333984"/>
     <use xlink:href="#MicrosoftYaHei-Bold-2e" x="529.003906"/>
     <use xlink:href="#MicrosoftYaHei-Bold-34" x="557.568359"/>
     <use xlink:href="#MicrosoftYaHei-Bold-25" x="619.238281"/>
     <use xlink:href="#MicrosoftYaHei-Bold-29" x="712.353516"/>
    </g>
   </g>
   <g id="text_48">
    <!-- 0.1286 (21.3%) -->
    <g style="fill: #333333" transform="translate(803.324634 125.335853) scale(0.11 -0.11)">
     <use xlink:href="#MicrosoftYaHei-Bold-30"/>
     <use xlink:href="#MicrosoftYaHei-Bold-2e" x="61.669922"/>
     <use xlink:href="#MicrosoftYaHei-Bold-31" x="90.234375"/>
     <use xlink:href="#MicrosoftYaHei-Bold-32" x="151.904297"/>
     <use xlink:href="#MicrosoftYaHei-Bold-38" x="213.574219"/>
     <use xlink:href="#MicrosoftYaHei-Bold-36" x="275.244141"/>
     <use xlink:href="#MicrosoftYaHei-Bold-20" x="336.914062"/>
     <use xlink:href="#MicrosoftYaHei-Bold-28" x="366.699219"/>
     <use xlink:href="#MicrosoftYaHei-Bold-32" x="405.664062"/>
     <use xlink:href="#MicrosoftYaHei-Bold-31" x="467.333984"/>
     <use xlink:href="#MicrosoftYaHei-Bold-2e" x="529.003906"/>
     <use xlink:href="#MicrosoftYaHei-Bold-33" x="557.568359"/>
     <use xlink:href="#MicrosoftYaHei-Bold-25" x="619.238281"/>
     <use xlink:href="#MicrosoftYaHei-Bold-29" x="712.353516"/>
    </g>
   </g>
   <g id="text_49">
    <!-- 0.1473 (24.4%) -->
    <g style="fill: #333333" transform="translate(904.775298 97.646198) scale(0.11 -0.11)">
     <use xlink:href="#MicrosoftYaHei-Bold-30"/>
     <use xlink:href="#MicrosoftYaHei-Bold-2e" x="61.669922"/>
     <use xlink:href="#MicrosoftYaHei-Bold-31" x="90.234375"/>
     <use xlink:href="#MicrosoftYaHei-Bold-34" x="151.904297"/>
     <use xlink:href="#MicrosoftYaHei-Bold-37" x="213.574219"/>
     <use xlink:href="#MicrosoftYaHei-Bold-33" x="275.244141"/>
     <use xlink:href="#MicrosoftYaHei-Bold-20" x="336.914062"/>
     <use xlink:href="#MicrosoftYaHei-Bold-28" x="366.699219"/>
     <use xlink:href="#MicrosoftYaHei-Bold-32" x="405.664062"/>
     <use xlink:href="#MicrosoftYaHei-Bold-34" x="467.333984"/>
     <use xlink:href="#MicrosoftYaHei-Bold-2e" x="529.003906"/>
     <use xlink:href="#MicrosoftYaHei-Bold-34" x="557.568359"/>
     <use xlink:href="#MicrosoftYaHei-Bold-25" x="619.238281"/>
     <use xlink:href="#MicrosoftYaHei-Bold-29" x="712.353516"/>
    </g>
   </g>
   <g id="text_50">
    <!-- Based on 150 samples | Explainer: KernelExplainer -->
    <g style="fill: #999999" transform="translate(112.06825 694.029265) scale(0.1 -0.1)">
     <defs>
      <path id="MicrosoftYaHei-73" d="M 353 747 
Q 816 413 1350 413 
Q 2066 413 2066 881 
Q 2066 1081 1909 1211 
Q 1753 1341 1275 1519 
Q 700 1750 528 1976 
Q 356 2203 356 2525 
Q 356 2984 745 3261 
Q 1134 3538 1703 3538 
Q 2144 3538 2522 3384 
L 2522 2794 
Q 2134 3044 1644 3044 
Q 1350 3044 1165 2916 
Q 981 2788 981 2578 
Q 981 2372 1114 2256 
Q 1247 2141 1703 1959 
Q 2281 1744 2484 1512 
Q 2688 1281 2688 941 
Q 2688 466 2298 192 
Q 1909 -81 1291 -81 
Q 753 -81 353 122 
L 353 747 
z
" transform="scale(0.015625)"/>
      <path id="MicrosoftYaHei-35" d="M 3294 1494 
Q 3294 784 2823 350 
Q 2353 -84 1559 -84 
Q 878 -84 544 119 
L 544 744 
Q 1034 425 1544 425 
Q 2050 425 2361 704 
Q 2672 984 2672 1447 
Q 2672 1909 2348 2167 
Q 2025 2425 1434 2425 
Q 978 2425 613 2384 
L 791 4841 
L 3053 4841 
L 3053 4303 
L 1306 4303 
L 1206 2931 
L 1647 2950 
Q 2416 2950 2855 2567 
Q 3294 2184 3294 1494 
z
" transform="scale(0.015625)"/>
      <path id="MicrosoftYaHei-7c" d="M 1134 -1628 
L 597 -1628 
L 597 5284 
L 1134 5284 
L 1134 -1628 
z
" transform="scale(0.015625)"/>
      <path id="MicrosoftYaHei-45" d="M 3228 0 
L 625 0 
L 625 4841 
L 3119 4841 
L 3119 4284 
L 1250 4284 
L 1250 2734 
L 2981 2734 
L 2981 2181 
L 1250 2181 
L 1250 553 
L 3228 553 
L 3228 0 
z
" transform="scale(0.015625)"/>
      <path id="MicrosoftYaHei-78" d="M 3163 3456 
L 2006 1716 
L 3147 0 
L 2434 0 
L 1775 1100 
Q 1722 1188 1625 1369 
L 1613 1369 
Q 1609 1350 1456 1100 
L 784 0 
L 81 0 
L 1256 1697 
L 134 3456 
L 847 3456 
L 1494 2300 
Q 1553 2194 1638 2025 
L 1650 2025 
L 2491 3456 
L 3163 3456 
z
" transform="scale(0.015625)"/>
      <path id="MicrosoftYaHei-3a" d="M 372 3134 
Q 372 3303 490 3415 
Q 609 3528 775 3528 
Q 944 3528 1062 3414 
Q 1181 3300 1181 3134 
Q 1181 2969 1065 2853 
Q 950 2738 772 2738 
Q 603 2738 487 2853 
Q 372 2969 372 3134 
z
M 372 322 
Q 372 491 487 606 
Q 603 722 775 722 
Q 950 722 1065 605 
Q 1181 488 1181 322 
Q 1181 159 1065 42 
Q 950 -75 772 -75 
Q 600 -75 486 42 
Q 372 159 372 322 
z
" transform="scale(0.015625)"/>
     </defs>
     <use xlink:href="#MicrosoftYaHei-42"/>
     <use xlink:href="#MicrosoftYaHei-61" x="62.744141"/>
     <use xlink:href="#MicrosoftYaHei-73" x="118.017578"/>
     <use xlink:href="#MicrosoftYaHei-65" x="164.306641"/>
     <use xlink:href="#MicrosoftYaHei-64" x="221.044922"/>
     <use xlink:href="#MicrosoftYaHei-20" x="285.009766"/>
     <use xlink:href="#MicrosoftYaHei-6f" x="314.599609"/>
     <use xlink:href="#MicrosoftYaHei-6e" x="378.173828"/>
     <use xlink:href="#MicrosoftYaHei-20" x="439.794922"/>
     <use xlink:href="#MicrosoftYaHei-31" x="469.384766"/>
     <use xlink:href="#MicrosoftYaHei-35" x="528.027344"/>
     <use xlink:href="#MicrosoftYaHei-30" x="586.669922"/>
     <use xlink:href="#MicrosoftYaHei-20" x="645.3125"/>
     <use xlink:href="#MicrosoftYaHei-73" x="674.902344"/>
     <use xlink:href="#MicrosoftYaHei-61" x="721.191406"/>
     <use xlink:href="#MicrosoftYaHei-6d" x="776.464844"/>
     <use xlink:href="#MicrosoftYaHei-70" x="870.166016"/>
     <use xlink:href="#MicrosoftYaHei-6c" x="934.033203"/>
     <use xlink:href="#MicrosoftYaHei-65" x="960.644531"/>
     <use xlink:href="#MicrosoftYaHei-73" x="1017.382812"/>
     <use xlink:href="#MicrosoftYaHei-20" x="1063.671875"/>
     <use xlink:href="#MicrosoftYaHei-7c" x="1093.261719"/>
     <use xlink:href="#MicrosoftYaHei-20" x="1120.166016"/>
     <use xlink:href="#MicrosoftYaHei-45" x="1149.755859"/>
     <use xlink:href="#MicrosoftYaHei-78" x="1204.736328"/>
     <use xlink:href="#MicrosoftYaHei-70" x="1255.419922"/>
     <use xlink:href="#MicrosoftYaHei-6c" x="1319.287109"/>
     <use xlink:href="#MicrosoftYaHei-61" x="1345.898438"/>
     <use xlink:href="#MicrosoftYaHei-69" x="1401.171875"/>
     <use xlink:href="#MicrosoftYaHei-6e" x="1427.783203"/>
     <use xlink:href="#MicrosoftYaHei-65" x="1489.404297"/>
     <use xlink:href="#MicrosoftYaHei-72" x="1546.142578"/>
     <use xlink:href="#MicrosoftYaHei-3a" x="1588.701172"/>
     <use xlink:href="#MicrosoftYaHei-20" x="1612.773438"/>
     <use xlink:href="#MicrosoftYaHei-4b" x="1642.363281"/>
     <use xlink:href="#MicrosoftYaHei-65" x="1704.464844"/>
     <use xlink:href="#MicrosoftYaHei-72" x="1761.203125"/>
     <use xlink:href="#MicrosoftYaHei-6e" x="1799.136719"/>
     <use xlink:href="#MicrosoftYaHei-65" x="1860.757812"/>
     <use xlink:href="#MicrosoftYaHei-6c" x="1917.496094"/>
     <use xlink:href="#MicrosoftYaHei-45" x="1944.107422"/>
     <use xlink:href="#MicrosoftYaHei-78" x="1999.087891"/>
     <use xlink:href="#MicrosoftYaHei-70" x="2049.771484"/>
     <use xlink:href="#MicrosoftYaHei-6c" x="2113.638672"/>
     <use xlink:href="#MicrosoftYaHei-61" x="2140.25"/>
     <use xlink:href="#MicrosoftYaHei-69" x="2195.523438"/>
     <use xlink:href="#MicrosoftYaHei-6e" x="2222.134766"/>
     <use xlink:href="#MicrosoftYaHei-65" x="2283.755859"/>
     <use xlink:href="#MicrosoftYaHei-72" x="2340.494141"/>
    </g>
   </g>
   <g id="text_51">
    <!-- SHAP Feature Importance — Logistic Regression -->
    <g style="fill: #262626" transform="translate(308.573828 20.730937) scale(0.17 -0.17)">
     <defs>
      <path id="MicrosoftYaHei-Bold-46" d="M 3319 3997 
L 1591 3997 
L 1591 2753 
L 3181 2753 
L 3181 1909 
L 1591 1909 
L 1591 0 
L 559 0 
L 559 4841 
L 3319 4841 
L 3319 3997 
z
" transform="scale(0.015625)"/>
      <path id="MicrosoftYaHei-Bold-74" d="M 2494 41 
Q 2266 -84 1803 -84 
Q 703 -84 703 1072 
L 703 2703 
L 134 2703 
L 134 3456 
L 703 3456 
L 703 4216 
L 1706 4503 
L 1706 3456 
L 2494 3456 
L 2494 2703 
L 1706 2703 
L 1706 1247 
Q 1706 694 2144 694 
Q 2313 694 2494 794 
L 2494 41 
z
" transform="scale(0.015625)"/>
      <path id="MicrosoftYaHei-Bold-72" d="M 2663 2541 
Q 2478 2647 2216 2647 
Q 1872 2647 1670 2384 
Q 1469 2122 1469 1663 
L 1469 0 
L 459 0 
L 459 3456 
L 1469 3456 
L 1469 2806 
L 1481 2806 
Q 1731 3516 2391 3516 
Q 2569 3516 2663 3475 
L 2663 2541 
z
" transform="scale(0.015625)"/>
      <path id="MicrosoftYaHei-Bold-49" d="M 1588 4841 
L 1588 0 
L 556 0 
L 556 4841 
L 1588 4841 
z
" transform="scale(0.015625)"/>
      <path id="MicrosoftYaHei-Bold-6d" d="M 5881 0 
L 4875 0 
L 4875 1972 
Q 4875 2766 4297 2766 
Q 4028 2766 3850 2525 
Q 3672 2284 3672 1938 
L 3672 0 
L 2666 0 
L 2666 1997 
Q 2666 2766 2094 2766 
Q 1809 2766 1639 2536 
Q 1469 2306 1469 1928 
L 1469 0 
L 459 0 
L 459 3456 
L 1469 3456 
L 1469 2916 
L 1481 2916 
Q 1663 3213 1963 3377 
Q 2263 3541 2594 3541 
Q 3322 3541 3591 2888 
Q 3991 3541 4753 3541 
Q 5881 3541 5881 2147 
L 5881 0 
z
" transform="scale(0.015625)"/>
      <path id="MicrosoftYaHei-Bold-70" d="M 1469 416 
L 1469 -1591 
L 459 -1591 
L 459 3456 
L 1469 3456 
L 1469 2928 
L 1481 2928 
Q 1878 3541 2603 3541 
Q 3263 3541 3634 3080 
Q 4006 2619 4006 1825 
Q 4006 959 3575 437 
Q 3144 -84 2444 -84 
Q 1809 -84 1481 416 
L 1469 416 
z
M 1453 1528 
Q 1453 1159 1653 925 
Q 1853 691 2172 691 
Q 2550 691 2761 984 
Q 2972 1278 2972 1816 
Q 2972 2766 2231 2766 
Q 1888 2766 1670 2503 
Q 1453 2241 1453 1828 
L 1453 1528 
z
" transform="scale(0.015625)"/>
      <path id="MicrosoftYaHei-Bold-6f" d="M 253 1713 
Q 253 2566 764 3053 
Q 1275 3541 2138 3541 
Q 2972 3541 3462 3061 
Q 3953 2581 3953 1772 
Q 3953 922 3450 419 
Q 2947 -84 2088 -84 
Q 1244 -84 748 398 
Q 253 881 253 1713 
z
M 1275 1725 
Q 1275 691 2119 691 
Q 2928 691 2928 1753 
Q 2928 2766 2113 2766 
Q 1716 2766 1495 2494 
Q 1275 2222 1275 1725 
z
" transform="scale(0.015625)"/>
      <path id="MicrosoftYaHei-Bold-63" d="M 3050 128 
Q 2688 -84 2019 -84 
Q 1228 -84 740 397 
Q 253 878 253 1644 
Q 253 2525 778 3033 
Q 1303 3541 2178 3541 
Q 2769 3541 3053 3378 
L 3053 2513 
Q 2706 2766 2297 2766 
Q 1834 2766 1554 2484 
Q 1275 2203 1275 1713 
Q 1275 1238 1540 964 
Q 1806 691 2263 691 
Q 2666 691 3050 947 
L 3050 128 
z
" transform="scale(0.015625)"/>
      <path id="MicrosoftYaHei-Bold-2014" d="M 6913 1497 
L 0 1497 
L 0 2209 
L 6913 2209 
L 6913 1497 
z
" transform="scale(0.015625)"/>
      <path id="MicrosoftYaHei-Bold-4c" d="M 3400 0 
L 559 0 
L 559 4841 
L 1591 4841 
L 1591 844 
L 3400 844 
L 3400 0 
z
" transform="scale(0.015625)"/>
      <path id="MicrosoftYaHei-Bold-67" d="M 3800 381 
Q 3800 -581 3251 -1101 
Q 2703 -1622 1672 -1622 
Q 972 -1622 559 -1422 
L 559 -559 
Q 1097 -872 1644 -872 
Q 2184 -872 2489 -583 
Q 2794 -294 2794 219 
L 2794 506 
L 2778 506 
Q 2413 -84 1691 -84 
Q 1038 -84 645 381 
Q 253 847 253 1628 
Q 253 2500 686 3020 
Q 1119 3541 1822 3541 
Q 2459 3541 2778 3044 
L 2794 3044 
L 2794 3456 
L 3800 3456 
L 3800 381 
z
M 2803 1950 
Q 2803 2294 2595 2530 
Q 2388 2766 2072 2766 
Q 1703 2766 1489 2477 
Q 1275 2188 1275 1666 
Q 1275 1213 1481 952 
Q 1688 691 2028 691 
Q 2372 691 2587 956 
Q 2803 1222 2803 1647 
L 2803 1950 
z
" transform="scale(0.015625)"/>
      <path id="MicrosoftYaHei-Bold-69" d="M 369 4572 
Q 369 4803 533 4948 
Q 697 5094 953 5094 
Q 1216 5094 1378 4945 
Q 1541 4797 1541 4572 
Q 1541 4344 1375 4192 
Q 1209 4041 953 4041 
Q 700 4041 534 4194 
Q 369 4347 369 4572 
z
M 444 0 
L 444 3456 
L 1450 3456 
L 1450 0 
L 444 0 
z
" transform="scale(0.015625)"/>
      <path id="MicrosoftYaHei-Bold-73" d="M 369 928 
Q 888 613 1384 613 
Q 2009 613 2009 947 
Q 2009 1184 1494 1344 
Q 850 1544 609 1789 
Q 369 2034 369 2453 
Q 369 2963 781 3252 
Q 1194 3541 1863 3541 
Q 2338 3541 2778 3400 
L 2778 2606 
Q 2375 2844 1891 2844 
Q 1650 2844 1503 2758 
Q 1356 2672 1356 2531 
Q 1356 2294 1794 2147 
Q 2263 1991 2498 1862 
Q 2734 1734 2857 1525 
Q 2981 1316 2981 1041 
Q 2981 506 2553 211 
Q 2125 -84 1409 -84 
Q 847 -84 369 94 
L 369 928 
z
" transform="scale(0.015625)"/>
      <path id="MicrosoftYaHei-Bold-52" d="M 4553 0 
L 3366 0 
L 2606 1259 
Q 2372 1650 2222 1762 
Q 2072 1875 1903 1875 
L 1591 1875 
L 1591 0 
L 559 0 
L 559 4841 
L 2256 4841 
Q 3984 4841 3984 3528 
Q 3984 3034 3695 2681 
Q 3406 2328 2900 2184 
L 2900 2172 
Q 3234 2059 3641 1434 
L 4553 0 
z
M 1591 4056 
L 1591 2663 
L 2097 2663 
Q 2459 2663 2679 2873 
Q 2900 3084 2900 3400 
Q 2900 4056 2116 4056 
L 1591 4056 
z
" transform="scale(0.015625)"/>
     </defs>
     <use xlink:href="#MicrosoftYaHei-Bold-53"/>
     <use xlink:href="#MicrosoftYaHei-Bold-48" x="60.15625"/>
     <use xlink:href="#MicrosoftYaHei-Bold-41" x="142.285156"/>
     <use xlink:href="#MicrosoftYaHei-Bold-50" x="217.480469"/>
     <use xlink:href="#MicrosoftYaHei-Bold-20" x="283.203125"/>
     <use xlink:href="#MicrosoftYaHei-Bold-46" x="312.988281"/>
     <use xlink:href="#MicrosoftYaHei-Bold-65" x="368.798828"/>
     <use xlink:href="#MicrosoftYaHei-Bold-61" x="427.001953"/>
     <use xlink:href="#MicrosoftYaHei-Bold-74" x="484.765625"/>
     <use xlink:href="#MicrosoftYaHei-Bold-75" x="526.171875"/>
     <use xlink:href="#MicrosoftYaHei-Bold-72" x="590.966797"/>
     <use xlink:href="#MicrosoftYaHei-Bold-65" x="632.849609"/>
     <use xlink:href="#MicrosoftYaHei-Bold-20" x="691.052734"/>
     <use xlink:href="#MicrosoftYaHei-Bold-49" x="720.837891"/>
     <use xlink:href="#MicrosoftYaHei-Bold-6d" x="754.382812"/>
     <use xlink:href="#MicrosoftYaHei-Bold-70" x="852.576172"/>
     <use xlink:href="#MicrosoftYaHei-Bold-6f" x="919.177734"/>
     <use xlink:href="#MicrosoftYaHei-Bold-72" x="984.900391"/>
     <use xlink:href="#MicrosoftYaHei-Bold-74" x="1030.408203"/>
     <use xlink:href="#MicrosoftYaHei-Bold-61" x="1071.814453"/>
     <use xlink:href="#MicrosoftYaHei-Bold-6e" x="1129.578125"/>
     <use xlink:href="#MicrosoftYaHei-Bold-63" x="1194.373047"/>
     <use xlink:href="#MicrosoftYaHei-Bold-65" x="1246.033203"/>
     <use xlink:href="#MicrosoftYaHei-Bold-20" x="1304.236328"/>
     <use xlink:href="#MicrosoftYaHei-Bold-2014" x="1334.021484"/>
     <use xlink:href="#MicrosoftYaHei-Bold-20" x="1442.029297"/>
     <use xlink:href="#MicrosoftYaHei-Bold-4c" x="1471.814453"/>
     <use xlink:href="#MicrosoftYaHei-Bold-6f" x="1526.501953"/>
     <use xlink:href="#MicrosoftYaHei-Bold-67" x="1592.224609"/>
     <use xlink:href="#MicrosoftYaHei-Bold-69" x="1658.679688"/>
     <use xlink:href="#MicrosoftYaHei-Bold-73" x="1688.269531"/>
     <use xlink:href="#MicrosoftYaHei-Bold-74" x="1737.634766"/>
     <use xlink:href="#MicrosoftYaHei-Bold-69" x="1779.041016"/>
     <use xlink:href="#MicrosoftYaHei-Bold-63" x="1808.630859"/>
     <use xlink:href="#MicrosoftYaHei-Bold-20" x="1860.291016"/>
     <use xlink:href="#MicrosoftYaHei-Bold-52" x="1890.076172"/>
     <use xlink:href="#MicrosoftYaHei-Bold-65" x="1957.150391"/>
     <use xlink:href="#MicrosoftYaHei-Bold-67" x="2015.353516"/>
     <use xlink:href="#MicrosoftYaHei-Bold-72" x="2081.808594"/>
     <use xlink:href="#MicrosoftYaHei-Bold-65" x="2123.691406"/>
     <use xlink:href="#MicrosoftYaHei-Bold-73" x="2181.894531"/>
     <use xlink:href="#MicrosoftYaHei-Bold-73" x="2231.259766"/>
     <use xlink:href="#MicrosoftYaHei-Bold-69" x="2280.625"/>
     <use xlink:href="#MicrosoftYaHei-Bold-6f" x="2310.214844"/>
     <use xlink:href="#MicrosoftYaHei-Bold-6e" x="2375.9375"/>
    </g>
    <!-- (External Validation AUC = 0.824) -->
    <g style="fill: #262626" transform="translate(373.025078 41.346625) scale(0.17 -0.17)">
     <defs>
      <path id="MicrosoftYaHei-Bold-45" d="M 3425 0 
L 559 0 
L 559 4841 
L 3313 4841 
L 3313 3997 
L 1591 3997 
L 1591 2856 
L 3191 2856 
L 3191 2016 
L 1591 2016 
L 1591 844 
L 3425 844 
L 3425 0 
z
" transform="scale(0.015625)"/>
      <path id="MicrosoftYaHei-Bold-78" d="M 3706 3456 
L 2563 1772 
L 3697 0 
L 2531 0 
L 2016 953 
Q 1909 1150 1869 1263 
L 1856 1263 
Q 1800 1113 1716 963 
L 1191 0 
L 31 0 
L 1200 1719 
L 100 3456 
L 1269 3456 
L 1781 2463 
Q 1856 2319 1922 2144 
L 1934 2144 
Q 1966 2250 2078 2466 
L 2606 3456 
L 3706 3456 
z
" transform="scale(0.015625)"/>
      <path id="MicrosoftYaHei-Bold-64" d="M 3794 0 
L 2788 0 
L 2788 488 
L 2772 488 
Q 2406 -84 1691 -84 
Q 1031 -84 642 381 
Q 253 847 253 1650 
Q 253 2500 689 3020 
Q 1125 3541 1828 3541 
Q 2503 3541 2772 3053 
L 2788 3053 
L 2788 5116 
L 3794 5116 
L 3794 0 
z
M 2803 1956 
Q 2803 2306 2592 2536 
Q 2381 2766 2066 2766 
Q 1697 2766 1486 2473 
Q 1275 2181 1275 1681 
Q 1275 1206 1478 948 
Q 1681 691 2038 691 
Q 2372 691 2587 962 
Q 2803 1234 2803 1669 
L 2803 1956 
z
" transform="scale(0.015625)"/>
      <path id="MicrosoftYaHei-Bold-55" d="M 4466 2081 
Q 4466 -84 2453 -84 
Q 509 -84 509 2025 
L 509 4841 
L 1544 4841 
L 1544 2019 
Q 1544 809 2497 809 
Q 3434 809 3434 1975 
L 3434 4841 
L 4466 4841 
L 4466 2081 
z
" transform="scale(0.015625)"/>
      <path id="MicrosoftYaHei-Bold-43" d="M 4013 175 
Q 3484 -84 2634 -84 
Q 1541 -84 898 570 
Q 256 1225 256 2316 
Q 256 3463 973 4192 
Q 1691 4922 2825 4922 
Q 3534 4922 4013 4738 
L 4013 3741 
Q 3522 4028 2900 4028 
Q 2191 4028 1766 3575 
Q 1341 3122 1341 2391 
Q 1341 1678 1744 1243 
Q 2147 809 2834 809 
Q 3481 809 4013 1122 
L 4013 175 
z
" transform="scale(0.015625)"/>
      <path id="MicrosoftYaHei-Bold-3d" d="M 4072 2378 
L 797 2378 
L 797 3041 
L 4072 3041 
L 4072 2378 
z
M 4072 916 
L 797 916 
L 797 1578 
L 4072 1578 
L 4072 916 
z
" transform="scale(0.015625)"/>
     </defs>
     <use xlink:href="#MicrosoftYaHei-Bold-28"/>
     <use xlink:href="#MicrosoftYaHei-Bold-45" x="38.964844"/>
     <use xlink:href="#MicrosoftYaHei-Bold-78" x="96.142578"/>
     <use xlink:href="#MicrosoftYaHei-Bold-74" x="154.638672"/>
     <use xlink:href="#MicrosoftYaHei-Bold-65" x="195.544922"/>
     <use xlink:href="#MicrosoftYaHei-Bold-72" x="253.748047"/>
     <use xlink:href="#MicrosoftYaHei-Bold-6e" x="296.380859"/>
     <use xlink:href="#MicrosoftYaHei-Bold-61" x="361.175781"/>
     <use xlink:href="#MicrosoftYaHei-Bold-6c" x="418.939453"/>
     <use xlink:href="#MicrosoftYaHei-Bold-20" x="448.529297"/>
     <use xlink:href="#MicrosoftYaHei-Bold-56" x="478.314453"/>
     <use xlink:href="#MicrosoftYaHei-Bold-61" x="541.798828"/>
     <use xlink:href="#MicrosoftYaHei-Bold-6c" x="599.5625"/>
     <use xlink:href="#MicrosoftYaHei-Bold-69" x="629.152344"/>
     <use xlink:href="#MicrosoftYaHei-Bold-64" x="658.742188"/>
     <use xlink:href="#MicrosoftYaHei-Bold-61" x="725.197266"/>
     <use xlink:href="#MicrosoftYaHei-Bold-74" x="782.960938"/>
     <use xlink:href="#MicrosoftYaHei-Bold-69" x="824.367188"/>
     <use xlink:href="#MicrosoftYaHei-Bold-6f" x="853.957031"/>
     <use xlink:href="#MicrosoftYaHei-Bold-6e" x="919.679688"/>
     <use xlink:href="#MicrosoftYaHei-Bold-20" x="984.474609"/>
     <use xlink:href="#MicrosoftYaHei-Bold-41" x="1014.259766"/>
     <use xlink:href="#MicrosoftYaHei-Bold-55" x="1087.580078"/>
     <use xlink:href="#MicrosoftYaHei-Bold-43" x="1165.216797"/>
     <use xlink:href="#MicrosoftYaHei-Bold-20" x="1232.550781"/>
     <use xlink:href="#MicrosoftYaHei-Bold-3d" x="1262.335938"/>
     <use xlink:href="#MicrosoftYaHei-Bold-20" x="1338.458984"/>
     <use xlink:href="#MicrosoftYaHei-Bold-30" x="1368.244141"/>
     <use xlink:href="#MicrosoftYaHei-Bold-2e" x="1429.914062"/>
     <use xlink:href="#MicrosoftYaHei-Bold-38" x="1458.478516"/>
     <use xlink:href="#MicrosoftYaHei-Bold-32" x="1520.148438"/>
     <use xlink:href="#MicrosoftYaHei-Bold-34" x="1581.818359"/>
     <use xlink:href="#MicrosoftYaHei-Bold-29" x="1643.488281"/>
    </g>
   </g>
  </g>
 </g>
 <defs>
  <clipPath id="p9337f4f58d">
   <rect x="95.23625" y="57.346625" width="841.6" height="600.644"/>
  </clipPath>
 </defs>
</svg>
