<?xml version="1.0" encoding="utf-8" standalone="no"?>
<!DOCTYPE svg PUBLIC "-//W3C//DTD SVG 1.1//EN"
  "http://www.w3.org/Graphics/SVG/1.1/DTD/svg11.dtd">
<svg xmlns:xlink="http://www.w3.org/1999/xlink" width="996.705pt" height="563.227469pt" viewBox="0 0 996.705 563.227469" xmlns="http://www.w3.org/2000/svg" version="1.1">
 <metadata>
  <rdf:RDF xmlns:dc="http://purl.org/dc/elements/1.1/" xmlns:cc="http://creativecommons.org/ns#" xmlns:rdf="http://www.w3.org/1999/02/22-rdf-syntax-ns#">
   <cc:Work>
    <dc:type rdf:resource="http://purl.org/dc/dcmitype/StillImage"/>
    <dc:date>2026-04-09T22:37:33.385154</dc:date>
    <dc:format>image/svg+xml</dc:format>
    <dc:creator>
     <cc:Agent>
      <dc:title>Matplotlib v3.9.4, https://matplotlib.org/</dc:title>
     </cc:Agent>
    </dc:creator>
   </cc:Work>
  </rdf:RDF>
 </metadata>
 <defs>
  <style type="text/css">*{stroke-linejoin: round; stroke-linecap: butt}</style>
 </defs>
 <g id="figure_1">
  <g id="patch_1">
   <path d="M 0 563.227469 
L 996.705 563.227469 
L 996.705 0 
L 0 0 
z
" style="fill: #ffffff"/>
  </g>
  <g id="axes_1">
   <g id="patch_2">
    <path d="M 89.195 515.280281 
L 989.505 515.280281 
L 989.505 51.308281 
L 89.195 51.308281 
z
" style="fill: #ffffff"/>
   </g>
   <g id="matplotlib.axis_1">
    <g id="xtick_1">
     <g id="line2d_1">
      <path d="M 249.504973 515.280281 
L 249.504973 51.308281 
" clip-path="url(#pe1dd612acc)" style="fill: none; stroke-dasharray: 3.7,1.6; stroke-dashoffset: 0; stroke: #cccccc; stroke-opacity: 0.15"/>
     </g>
     <g id="text_1">
      <!-- -0.1 -->
      <g style="fill: #262626" transform="translate(238.427473 534.372781) scale(0.12 -0.12)">
       <defs>
        <path id="MicrosoftYaHei-2d" d="M 2328 1681 
L 488 1681 
L 488 2153 
L 2328 2153 
L 2328 1681 
z
" transform="scale(0.015625)"/>
        <path id="MicrosoftYaHei-30" d="M 284 2325 
Q 284 3606 709 4264 
Q 1134 4922 1941 4922 
Q 3478 4922 3478 2441 
Q 3478 1216 3045 567 
Q 2613 -81 1831 -81 
Q 1094 -81 689 534 
Q 284 1150 284 2325 
z
M 909 2353 
Q 909 425 1888 425 
Q 2850 425 2850 2384 
Q 2850 4413 1906 4413 
Q 909 4413 909 2353 
z
" transform="scale(0.015625)"/>
        <path id="MicrosoftYaHei-2e" d="M 372 322 
Q 372 491 487 606 
Q 603 722 775 722 
Q 950 722 1065 605 
Q 1181 488 1181 322 
Q 1181 159 1065 42 
Q 950 -75 772 -75 
Q 600 -75 486 42 
Q 372 159 372 322 
z
" transform="scale(0.015625)"/>
        <path id="MicrosoftYaHei-31" d="M 1781 0 
L 1781 4141 
Q 1638 3997 1295 3819 
Q 953 3641 663 3569 
L 663 4169 
Q 1047 4275 1484 4508 
Q 1922 4741 2156 4947 
L 2388 4947 
L 2388 0 
L 1781 0 
z
" transform="scale(0.015625)"/>
       </defs>
       <use xlink:href="#MicrosoftYaHei-2d"/>
       <use xlink:href="#MicrosoftYaHei-30" x="43.261719"/>
       <use xlink:href="#MicrosoftYaHei-2e" x="101.904297"/>
       <use xlink:href="#MicrosoftYaHei-31" x="125.976562"/>
      </g>
     </g>
    </g>
    <g id="xtick_2">
     <g id="line2d_2">
      <path d="M 420.631561 515.280281 
L 420.631561 51.308281 
" clip-path="url(#pe1dd612acc)" style="fill: none; stroke-dasharray: 3.7,1.6; stroke-dashoffset: 0; stroke: #cccccc; stroke-opacity: 0.15"/>
     </g>
     <g id="text_2">
      <!-- 0.0 -->
      <g style="fill: #262626" transform="translate(412.149999 534.372781) scale(0.12 -0.12)">
       <use xlink:href="#MicrosoftYaHei-30"/>
       <use xlink:href="#MicrosoftYaHei-2e" x="58.642578"/>
       <use xlink:href="#MicrosoftYaHei-30" x="82.714844"/>
      </g>
     </g>
    </g>
    <g id="xtick_3">
     <g id="line2d_3">
      <path d="M 591.75815 515.280281 
L 591.75815 51.308281 
" clip-path="url(#pe1dd612acc)" style="fill: none; stroke-dasharray: 3.7,1.6; stroke-dashoffset: 0; stroke: #cccccc; stroke-opacity: 0.15"/>
     </g>
     <g id="text_3">
      <!-- 0.1 -->
      <g style="fill: #262626" transform="translate(583.276587 534.372781) scale(0.12 -0.12)">
       <use xlink:href="#MicrosoftYaHei-30"/>
       <use xlink:href="#MicrosoftYaHei-2e" x="58.642578"/>
       <use xlink:href="#MicrosoftYaHei-31" x="82.714844"/>
      </g>
     </g>
    </g>
    <g id="xtick_4">
     <g id="line2d_4">
      <path d="M 762.884738 515.280281 
L 762.884738 51.308281 
" clip-path="url(#pe1dd612acc)" style="fill: none; stroke-dasharray: 3.7,1.6; stroke-dashoffset: 0; stroke: #cccccc; stroke-opacity: 0.15"/>
     </g>
     <g id="text_4">
      <!-- 0.2 -->
      <g style="fill: #262626" transform="translate(754.403175 534.372781) scale(0.12 -0.12)">
       <defs>
        <path id="MicrosoftYaHei-32" d="M 2666 3572 
Q 2666 3963 2419 4186 
Q 2172 4409 1747 4409 
Q 1447 4409 1140 4256 
Q 834 4103 569 3819 
L 569 4413 
Q 806 4659 1107 4790 
Q 1409 4922 1816 4922 
Q 2472 4922 2872 4570 
Q 3272 4219 3272 3619 
Q 3272 3084 3026 2693 
Q 2781 2303 2188 1894 
Q 1581 1475 1376 1294 
Q 1172 1113 1090 947 
Q 1009 781 1009 544 
L 3416 544 
L 3416 0 
L 372 0 
L 372 241 
Q 372 659 486 951 
Q 600 1244 862 1520 
Q 1125 1797 1681 2184 
Q 2250 2584 2458 2886 
Q 2666 3188 2666 3572 
z
" transform="scale(0.015625)"/>
       </defs>
       <use xlink:href="#MicrosoftYaHei-30"/>
       <use xlink:href="#MicrosoftYaHei-2e" x="58.642578"/>
       <use xlink:href="#MicrosoftYaHei-32" x="82.714844"/>
      </g>
     </g>
    </g>
    <g id="xtick_5">
     <g id="line2d_5">
      <path d="M 934.011326 515.280281 
L 934.011326 51.308281 
" clip-path="url(#pe1dd612acc)" style="fill: none; stroke-dasharray: 3.7,1.6; stroke-dashoffset: 0; stroke: #cccccc; stroke-opacity: 0.15"/>
     </g>
     <g id="text_5">
      <!-- 0.3 -->
      <g style="fill: #262626" transform="translate(925.529764 534.372781) scale(0.12 -0.12)">
       <defs>
        <path id="MicrosoftYaHei-33" d="M 447 809 
Q 944 425 1569 425 
Q 2069 425 2361 670 
Q 2653 916 2653 1328 
Q 2653 2247 1338 2247 
L 934 2247 
L 934 2753 
L 1319 2753 
Q 2484 2753 2484 3616 
Q 2484 4413 1594 4413 
Q 1084 4413 634 4069 
L 634 4647 
Q 1109 4922 1744 4922 
Q 2363 4922 2738 4598 
Q 3113 4275 3113 3759 
Q 3113 2809 2144 2538 
L 2144 2525 
Q 2669 2469 2973 2155 
Q 3278 1841 3278 1372 
Q 3278 719 2808 319 
Q 2338 -81 1556 -81 
Q 869 -81 447 175 
L 447 809 
z
" transform="scale(0.015625)"/>
       </defs>
       <use xlink:href="#MicrosoftYaHei-30"/>
       <use xlink:href="#MicrosoftYaHei-2e" x="58.642578"/>
       <use xlink:href="#MicrosoftYaHei-33" x="82.714844"/>
      </g>
     </g>
    </g>
    <g id="text_6">
     <!-- Contribution Value -->
     <g style="fill: #262626" transform="translate(472.979062 552.547156) scale(0.14 -0.14)">
      <defs>
       <path id="MicrosoftYaHei-Bold-43" d="M 4013 175 
Q 3484 -84 2634 -84 
Q 1541 -84 898 570 
Q 256 1225 256 2316 
Q 256 3463 973 4192 
Q 1691 4922 2825 4922 
Q 3534 4922 4013 4738 
L 4013 3741 
Q 3522 4028 2900 4028 
Q 2191 4028 1766 3575 
Q 1341 3122 1341 2391 
Q 1341 1678 1744 1243 
Q 2147 809 2834 809 
Q 3481 809 4013 1122 
L 4013 175 
z
" transform="scale(0.015625)"/>
       <path id="MicrosoftYaHei-Bold-6f" d="M 253 1713 
Q 253 2566 764 3053 
Q 1275 3541 2138 3541 
Q 2972 3541 3462 3061 
Q 3953 2581 3953 1772 
Q 3953 922 3450 419 
Q 2947 -84 2088 -84 
Q 1244 -84 748 398 
Q 253 881 253 1713 
z
M 1275 1725 
Q 1275 691 2119 691 
Q 2928 691 2928 1753 
Q 2928 2766 2113 2766 
Q 1716 2766 1495 2494 
Q 1275 2222 1275 1725 
z
" transform="scale(0.015625)"/>
       <path id="MicrosoftYaHei-Bold-6e" d="M 3744 0 
L 2741 0 
L 2741 1928 
Q 2741 2766 2138 2766 
Q 1850 2766 1659 2542 
Q 1469 2319 1469 1972 
L 1469 0 
L 459 0 
L 459 3456 
L 1469 3456 
L 1469 2906 
L 1481 2906 
Q 1859 3541 2594 3541 
Q 3744 3541 3744 2116 
L 3744 0 
z
" transform="scale(0.015625)"/>
       <path id="MicrosoftYaHei-Bold-74" d="M 2494 41 
Q 2266 -84 1803 -84 
Q 703 -84 703 1072 
L 703 2703 
L 134 2703 
L 134 3456 
L 703 3456 
L 703 4216 
L 1706 4503 
L 1706 3456 
L 2494 3456 
L 2494 2703 
L 1706 2703 
L 1706 1247 
Q 1706 694 2144 694 
Q 2313 694 2494 794 
L 2494 41 
z
" transform="scale(0.015625)"/>
       <path id="MicrosoftYaHei-Bold-72" d="M 2663 2541 
Q 2478 2647 2216 2647 
Q 1872 2647 1670 2384 
Q 1469 2122 1469 1663 
L 1469 0 
L 459 0 
L 459 3456 
L 1469 3456 
L 1469 2806 
L 1481 2806 
Q 1731 3516 2391 3516 
Q 2569 3516 2663 3475 
L 2663 2541 
z
" transform="scale(0.015625)"/>
       <path id="MicrosoftYaHei-Bold-69" d="M 369 4572 
Q 369 4803 533 4948 
Q 697 5094 953 5094 
Q 1216 5094 1378 4945 
Q 1541 4797 1541 4572 
Q 1541 4344 1375 4192 
Q 1209 4041 953 4041 
Q 700 4041 534 4194 
Q 369 4347 369 4572 
z
M 444 0 
L 444 3456 
L 1450 3456 
L 1450 0 
L 444 0 
z
" transform="scale(0.015625)"/>
       <path id="MicrosoftYaHei-Bold-62" d="M 1469 416 
L 1469 0 
L 459 0 
L 459 5116 
L 1469 5116 
L 1469 2928 
L 1481 2928 
Q 1878 3541 2613 3541 
Q 3266 3541 3636 3084 
Q 4006 2628 4006 1825 
Q 4006 966 3581 441 
Q 3156 -84 2453 -84 
Q 1809 -84 1481 416 
L 1469 416 
z
M 1453 1494 
Q 1453 1153 1656 922 
Q 1859 691 2172 691 
Q 2550 691 2761 984 
Q 2972 1278 2972 1816 
Q 2972 2263 2780 2514 
Q 2588 2766 2231 2766 
Q 1894 2766 1673 2512 
Q 1453 2259 1453 1863 
L 1453 1494 
z
" transform="scale(0.015625)"/>
       <path id="MicrosoftYaHei-Bold-75" d="M 3691 0 
L 2688 0 
L 2688 528 
L 2672 528 
Q 2284 -84 1613 -84 
Q 406 -84 406 1372 
L 406 3456 
L 1416 3456 
L 1416 1466 
Q 1416 691 2022 691 
Q 2325 691 2506 903 
Q 2688 1116 2688 1478 
L 2688 3456 
L 3691 3456 
L 3691 0 
z
" transform="scale(0.015625)"/>
       <path id="MicrosoftYaHei-Bold-20" transform="scale(0.015625)"/>
       <path id="MicrosoftYaHei-Bold-56" d="M 4541 4841 
L 2859 0 
L 1694 0 
L 34 4841 
L 1147 4841 
L 2194 1419 
Q 2272 1166 2291 941 
L 2309 941 
Q 2334 1172 2416 1431 
L 3463 4841 
L 4541 4841 
z
" transform="scale(0.015625)"/>
       <path id="MicrosoftYaHei-Bold-61" d="M 544 3247 
Q 778 3378 1170 3459 
Q 1563 3541 1841 3541 
Q 3291 3541 3291 2088 
L 3291 0 
L 2331 0 
L 2331 503 
L 2319 503 
Q 1966 -84 1284 -84 
Q 794 -84 498 195 
Q 203 475 203 956 
Q 203 1950 1388 2113 
L 2338 2241 
Q 2338 2844 1709 2844 
Q 1091 2844 544 2469 
L 544 3247 
z
M 1684 1566 
Q 1138 1494 1138 1072 
Q 1138 878 1270 759 
Q 1403 641 1628 641 
Q 1938 641 2138 859 
Q 2338 1078 2338 1403 
L 2338 1650 
L 1684 1566 
z
" transform="scale(0.015625)"/>
       <path id="MicrosoftYaHei-Bold-6c" d="M 444 0 
L 444 5116 
L 1450 5116 
L 1450 0 
L 444 0 
z
" transform="scale(0.015625)"/>
       <path id="MicrosoftYaHei-Bold-65" d="M 3528 1444 
L 1253 1444 
Q 1306 641 2222 641 
Q 2794 641 3231 922 
L 3231 181 
Q 2759 -84 1994 -84 
Q 1169 -84 711 381 
Q 253 847 253 1678 
Q 253 2506 740 3023 
Q 1228 3541 1966 3541 
Q 2700 3541 3114 3095 
Q 3528 2650 3528 1872 
L 3528 1444 
z
M 2588 2075 
Q 2588 2850 1959 2850 
Q 1700 2850 1500 2637 
Q 1300 2425 1250 2075 
L 2588 2075 
z
" transform="scale(0.015625)"/>
      </defs>
      <use xlink:href="#MicrosoftYaHei-Bold-43"/>
      <use xlink:href="#MicrosoftYaHei-Bold-6f" x="67.333984"/>
      <use xlink:href="#MicrosoftYaHei-Bold-6e" x="133.056641"/>
      <use xlink:href="#MicrosoftYaHei-Bold-74" x="197.851562"/>
      <use xlink:href="#MicrosoftYaHei-Bold-72" x="239.257812"/>
      <use xlink:href="#MicrosoftYaHei-Bold-69" x="282.015625"/>
      <use xlink:href="#MicrosoftYaHei-Bold-62" x="311.605469"/>
      <use xlink:href="#MicrosoftYaHei-Bold-75" x="378.207031"/>
      <use xlink:href="#MicrosoftYaHei-Bold-74" x="443.001953"/>
      <use xlink:href="#MicrosoftYaHei-Bold-69" x="484.408203"/>
      <use xlink:href="#MicrosoftYaHei-Bold-6f" x="513.998047"/>
      <use xlink:href="#MicrosoftYaHei-Bold-6e" x="579.720703"/>
      <use xlink:href="#MicrosoftYaHei-Bold-20" x="644.515625"/>
      <use xlink:href="#MicrosoftYaHei-Bold-56" x="674.300781"/>
      <use xlink:href="#MicrosoftYaHei-Bold-61" x="737.785156"/>
      <use xlink:href="#MicrosoftYaHei-Bold-6c" x="795.548828"/>
      <use xlink:href="#MicrosoftYaHei-Bold-75" x="825.138672"/>
      <use xlink:href="#MicrosoftYaHei-Bold-65" x="889.933594"/>
     </g>
    </g>
   </g>
   <g id="matplotlib.axis_2">
    <g id="ytick_1">
     <g id="text_7">
      <!-- GR% -->
      <g style="fill: #262626" transform="translate(52.261875 92.413493) scale(0.12 -0.12)">
       <defs>
        <path id="MicrosoftYaHei-47" d="M 4284 331 
Q 3559 -81 2647 -81 
Q 1597 -81 955 583 
Q 313 1247 313 2356 
Q 313 3478 1022 4200 
Q 1731 4922 2841 4922 
Q 3625 4922 4169 4672 
L 4169 3997 
Q 3588 4363 2784 4363 
Q 1994 4363 1481 3822 
Q 969 3281 969 2397 
Q 969 1488 1441 981 
Q 1913 475 2716 475 
Q 3269 475 3656 688 
L 3656 1997 
L 2606 1997 
L 2606 2550 
L 4284 2550 
L 4284 331 
z
" transform="scale(0.015625)"/>
        <path id="MicrosoftYaHei-52" d="M 4159 0 
L 3422 0 
L 2619 1344 
Q 2378 1747 2178 1892 
Q 1978 2038 1700 2038 
L 1250 2038 
L 1250 0 
L 625 0 
L 625 4841 
L 2100 4841 
Q 2806 4841 3206 4500 
Q 3606 4159 3606 3547 
Q 3606 2541 2531 2241 
L 2531 2225 
Q 2731 2141 2876 1984 
Q 3022 1828 3253 1450 
L 4159 0 
z
M 1250 4294 
L 1250 2584 
L 1988 2584 
Q 2416 2584 2683 2834 
Q 2950 3084 2950 3491 
Q 2950 3869 2706 4081 
Q 2463 4294 1997 4294 
L 1250 4294 
z
" transform="scale(0.015625)"/>
        <path id="MicrosoftYaHei-25" d="M 272 3619 
Q 272 4213 589 4563 
Q 906 4913 1444 4913 
Q 1959 4913 2248 4591 
Q 2538 4269 2538 3694 
Q 2538 3122 2219 2765 
Q 1900 2409 1372 2409 
Q 872 2409 572 2740 
Q 272 3072 272 3619 
z
M 753 3650 
Q 753 3247 928 3028 
Q 1103 2809 1406 2809 
Q 1719 2809 1889 3036 
Q 2059 3263 2059 3675 
Q 2059 4078 1892 4298 
Q 1725 4519 1422 4519 
Q 1113 4519 933 4289 
Q 753 4059 753 3650 
z
M 4647 4841 
L 1538 -31 
L 1016 -31 
L 4125 4841 
L 4647 4841 
z
M 3172 1134 
Q 3172 1728 3489 2083 
Q 3806 2438 4341 2438 
Q 4853 2438 5143 2114 
Q 5434 1791 5434 1203 
Q 5434 634 5112 279 
Q 4791 -75 4272 -75 
Q 3769 -75 3470 261 
Q 3172 597 3172 1134 
z
M 3650 1163 
Q 3650 769 3825 548 
Q 4000 328 4303 328 
Q 4616 328 4786 556 
Q 4956 784 4956 1194 
Q 4956 1600 4786 1815 
Q 4616 2031 4319 2031 
Q 4000 2031 3825 1801 
Q 3650 1572 3650 1163 
z
" transform="scale(0.015625)"/>
       </defs>
       <use xlink:href="#MicrosoftYaHei-47"/>
       <use xlink:href="#MicrosoftYaHei-52" x="74.365234"/>
       <use xlink:href="#MicrosoftYaHei-25" x="139.648438"/>
      </g>
     </g>
    </g>
    <g id="ytick_2">
     <g id="text_8">
      <!-- Prealbumin -->
      <g style="fill: #262626" transform="translate(14.4075 135.897279) scale(0.12 -0.12)">
       <defs>
        <path id="MicrosoftYaHei-50" d="M 1250 1809 
L 1250 0 
L 625 0 
L 625 4841 
L 2000 4841 
Q 2784 4841 3217 4462 
Q 3650 4084 3650 3381 
Q 3650 2669 3144 2226 
Q 2638 1784 1878 1809 
L 1250 1809 
z
M 1250 4291 
L 1250 2359 
L 1828 2359 
Q 2400 2359 2697 2617 
Q 2994 2875 2994 3356 
Q 2994 4291 1888 4291 
L 1250 4291 
z
" transform="scale(0.015625)"/>
        <path id="MicrosoftYaHei-72" d="M 2400 2850 
Q 2247 2959 1978 2959 
Q 1622 2959 1390 2626 
Q 1159 2294 1159 1750 
L 1159 0 
L 547 0 
L 547 3456 
L 1159 3456 
L 1159 2753 
L 1172 2753 
Q 1434 3516 2078 3516 
Q 2288 3516 2400 3469 
L 2400 2850 
z
" transform="scale(0.015625)"/>
        <path id="MicrosoftYaHei-65" d="M 3363 1572 
L 944 1572 
Q 959 1019 1246 717 
Q 1534 416 2050 416 
Q 2631 416 3116 788 
L 3116 241 
Q 2659 -81 1906 -81 
Q 1156 -81 736 394 
Q 316 869 316 1713 
Q 316 2506 777 3022 
Q 1238 3538 1922 3538 
Q 2600 3538 2981 3102 
Q 3363 2666 3363 1881 
L 3363 1572 
z
M 2750 2063 
Q 2747 2531 2528 2787 
Q 2309 3044 1913 3044 
Q 1547 3044 1280 2772 
Q 1013 2500 944 2063 
L 2750 2063 
z
" transform="scale(0.015625)"/>
        <path id="MicrosoftYaHei-61" d="M 628 3216 
Q 1144 3538 1819 3538 
Q 3069 3538 3069 2225 
L 3069 0 
L 2463 0 
L 2463 534 
L 2447 534 
Q 2088 -81 1388 -81 
Q 884 -81 587 191 
Q 291 463 291 925 
Q 291 1894 1438 2053 
L 2463 2197 
Q 2463 3044 1763 3044 
Q 1141 3044 628 2625 
L 628 3216 
z
M 1653 1625 
Q 1228 1569 1067 1412 
Q 906 1256 906 975 
Q 906 728 1081 572 
Q 1256 416 1544 416 
Q 1944 416 2203 697 
Q 2463 978 2463 1403 
L 2463 1734 
L 1653 1625 
z
" transform="scale(0.015625)"/>
        <path id="MicrosoftYaHei-6c" d="M 544 0 
L 544 5116 
L 1156 5116 
L 1156 0 
L 544 0 
z
" transform="scale(0.015625)"/>
        <path id="MicrosoftYaHei-62" d="M 1159 488 
L 1159 0 
L 547 0 
L 547 5116 
L 1159 5116 
L 1159 2859 
L 1172 2859 
Q 1578 3538 2359 3538 
Q 3009 3538 3392 3080 
Q 3775 2622 3775 1828 
Q 3775 953 3345 436 
Q 2916 -81 2200 -81 
Q 1525 -81 1172 488 
L 1159 488 
z
M 1156 1422 
Q 1156 1003 1428 714 
Q 1700 425 2109 425 
Q 2597 425 2872 800 
Q 3147 1175 3147 1838 
Q 3147 2384 2890 2707 
Q 2634 3031 2191 3031 
Q 1741 3031 1448 2709 
Q 1156 2388 1156 1891 
L 1156 1422 
z
" transform="scale(0.015625)"/>
        <path id="MicrosoftYaHei-75" d="M 3400 0 
L 2784 0 
L 2784 544 
L 2772 544 
Q 2425 -81 1706 -81 
Q 478 -81 478 1388 
L 478 3456 
L 1084 3456 
L 1084 1478 
Q 1084 425 1891 425 
Q 2291 425 2537 720 
Q 2784 1016 2784 1466 
L 2784 3456 
L 3400 3456 
L 3400 0 
z
" transform="scale(0.015625)"/>
        <path id="MicrosoftYaHei-6d" d="M 5522 0 
L 4909 0 
L 4909 1984 
Q 4909 2547 4734 2789 
Q 4559 3031 4159 3031 
Q 3822 3031 3581 2715 
Q 3341 2400 3341 1969 
L 3341 0 
L 2728 0 
L 2728 2047 
Q 2728 3031 1969 3031 
Q 1619 3031 1389 2731 
Q 1159 2431 1159 1966 
L 1159 0 
L 547 0 
L 547 3456 
L 1159 3456 
L 1159 2909 
L 1172 2909 
Q 1541 3538 2250 3538 
Q 2597 3538 2862 3347 
Q 3128 3156 3231 2831 
Q 3616 3538 4381 3538 
Q 5522 3538 5522 2131 
L 5522 0 
z
" transform="scale(0.015625)"/>
        <path id="MicrosoftYaHei-69" d="M 472 4675 
Q 472 4838 583 4948 
Q 694 5059 856 5059 
Q 1022 5059 1136 4950 
Q 1250 4841 1250 4675 
Q 1250 4513 1136 4405 
Q 1022 4297 856 4297 
Q 691 4297 581 4405 
Q 472 4513 472 4675 
z
M 544 0 
L 544 3456 
L 1156 3456 
L 1156 0 
L 544 0 
z
" transform="scale(0.015625)"/>
        <path id="MicrosoftYaHei-6e" d="M 3469 0 
L 2859 0 
L 2859 1966 
Q 2859 3031 2081 3031 
Q 1678 3031 1418 2731 
Q 1159 2431 1159 1972 
L 1159 0 
L 547 0 
L 547 3456 
L 1159 3456 
L 1159 2884 
L 1172 2884 
Q 1563 3538 2306 3538 
Q 2875 3538 3172 3173 
Q 3469 2809 3469 2113 
L 3469 0 
z
" transform="scale(0.015625)"/>
       </defs>
       <use xlink:href="#MicrosoftYaHei-50"/>
       <use xlink:href="#MicrosoftYaHei-72" x="61.181641"/>
       <use xlink:href="#MicrosoftYaHei-65" x="97.990234"/>
       <use xlink:href="#MicrosoftYaHei-61" x="154.728516"/>
       <use xlink:href="#MicrosoftYaHei-6c" x="210.001953"/>
       <use xlink:href="#MicrosoftYaHei-62" x="236.613281"/>
       <use xlink:href="#MicrosoftYaHei-75" x="300.480469"/>
       <use xlink:href="#MicrosoftYaHei-6d" x="362.101562"/>
       <use xlink:href="#MicrosoftYaHei-69" x="455.802734"/>
       <use xlink:href="#MicrosoftYaHei-6e" x="482.414062"/>
      </g>
     </g>
    </g>
    <g id="ytick_3">
     <g id="text_9">
      <!-- MONO -->
      <g style="fill: #262626" transform="translate(38.655 179.381065) scale(0.12 -0.12)">
       <defs>
        <path id="MicrosoftYaHei-4d" d="M 5003 0 
L 5003 3206 
Q 5003 3603 5050 4159 
L 5034 4159 
Q 4953 3809 4891 3672 
L 3294 0 
L 2947 0 
L 1353 3644 
Q 1297 3769 1209 4159 
L 1191 4159 
Q 1222 3822 1222 3178 
L 1222 0 
L 625 0 
L 625 4841 
L 1472 4841 
L 2900 1522 
Q 3063 1141 3116 928 
L 3138 928 
Q 3300 1375 3366 1534 
L 4819 4841 
L 5625 4841 
L 5625 0 
L 5003 0 
z
" transform="scale(0.015625)"/>
        <path id="MicrosoftYaHei-4f" d="M 313 2363 
Q 313 3534 947 4228 
Q 1581 4922 2666 4922 
Q 3675 4922 4290 4244 
Q 4906 3566 4906 2478 
Q 4906 1300 4275 609 
Q 3644 -81 2588 -81 
Q 1556 -81 934 597 
Q 313 1275 313 2363 
z
M 969 2413 
Q 969 1534 1417 1004 
Q 1866 475 2588 475 
Q 3363 475 3805 983 
Q 4247 1491 4247 2403 
Q 4247 3341 3814 3850 
Q 3381 4359 2628 4359 
Q 1888 4359 1428 3821 
Q 969 3284 969 2413 
z
" transform="scale(0.015625)"/>
        <path id="MicrosoftYaHei-4e" d="M 4578 0 
L 3838 0 
L 1403 3766 
Q 1300 3925 1238 4081 
L 1219 4081 
Q 1244 3919 1244 3403 
L 1244 0 
L 625 0 
L 625 4841 
L 1409 4841 
L 3778 1141 
Q 3947 878 3978 806 
L 3991 806 
Q 3959 1013 3959 1513 
L 3959 4841 
L 4578 4841 
L 4578 0 
z
" transform="scale(0.015625)"/>
       </defs>
       <use xlink:href="#MicrosoftYaHei-4d"/>
       <use xlink:href="#MicrosoftYaHei-4f" x="97.705078"/>
       <use xlink:href="#MicrosoftYaHei-4e" x="179.199219"/>
       <use xlink:href="#MicrosoftYaHei-4f" x="260.498047"/>
      </g>
     </g>
    </g>
    <g id="ytick_4">
     <g id="text_10">
      <!-- Total protein -->
      <g style="fill: #262626" transform="translate(7.2 222.864852) scale(0.12 -0.12)">
       <defs>
        <path id="MicrosoftYaHei-54" d="M 3550 4284 
L 2153 4284 
L 2153 0 
L 1525 0 
L 1525 4284 
L 134 4284 
L 134 4841 
L 3550 4841 
L 3550 4284 
z
" transform="scale(0.015625)"/>
        <path id="MicrosoftYaHei-6f" d="M 316 1691 
Q 316 2547 794 3042 
Q 1272 3538 2091 3538 
Q 2869 3538 3311 3061 
Q 3753 2584 3753 1744 
Q 3753 925 3281 422 
Q 2809 -81 2016 -81 
Q 1241 -81 778 406 
Q 316 894 316 1691 
z
M 941 1709 
Q 941 1113 1242 769 
Q 1544 425 2053 425 
Q 2578 425 2853 761 
Q 3128 1097 3128 1725 
Q 3128 2356 2853 2693 
Q 2578 3031 2053 3031 
Q 1538 3031 1239 2678 
Q 941 2325 941 1709 
z
" transform="scale(0.015625)"/>
        <path id="MicrosoftYaHei-74" d="M 2206 34 
Q 2006 -75 1666 -75 
Q 738 -75 738 953 
L 738 2950 
L 144 2950 
L 144 3456 
L 738 3456 
L 738 4288 
L 1347 4481 
L 1347 3456 
L 2206 3456 
L 2206 2950 
L 1347 2950 
L 1347 1063 
Q 1347 722 1462 575 
Q 1578 428 1847 428 
Q 2053 428 2206 544 
L 2206 34 
z
" transform="scale(0.015625)"/>
        <path id="MicrosoftYaHei-20" transform="scale(0.015625)"/>
        <path id="MicrosoftYaHei-70" d="M 1159 488 
L 1159 -1591 
L 547 -1591 
L 547 3456 
L 1159 3456 
L 1159 2859 
L 1172 2859 
Q 1578 3538 2359 3538 
Q 3022 3538 3398 3073 
Q 3775 2609 3775 1828 
Q 3775 966 3348 442 
Q 2922 -81 2200 -81 
Q 1534 -81 1172 488 
L 1159 488 
z
M 1156 1425 
Q 1156 1003 1428 714 
Q 1700 425 2109 425 
Q 2597 425 2872 800 
Q 3147 1175 3147 1838 
Q 3147 2397 2890 2714 
Q 2634 3031 2191 3031 
Q 1738 3031 1447 2709 
Q 1156 2388 1156 1884 
L 1156 1425 
z
" transform="scale(0.015625)"/>
       </defs>
       <use xlink:href="#MicrosoftYaHei-54"/>
       <use xlink:href="#MicrosoftYaHei-6f" x="46.199219"/>
       <use xlink:href="#MicrosoftYaHei-74" x="109.773438"/>
       <use xlink:href="#MicrosoftYaHei-61" x="147.029297"/>
       <use xlink:href="#MicrosoftYaHei-6c" x="202.302734"/>
       <use xlink:href="#MicrosoftYaHei-20" x="228.914062"/>
       <use xlink:href="#MicrosoftYaHei-70" x="258.503906"/>
       <use xlink:href="#MicrosoftYaHei-72" x="322.371094"/>
       <use xlink:href="#MicrosoftYaHei-6f" x="359.179688"/>
       <use xlink:href="#MicrosoftYaHei-74" x="422.753906"/>
       <use xlink:href="#MicrosoftYaHei-65" x="459.134766"/>
       <use xlink:href="#MicrosoftYaHei-69" x="515.873047"/>
       <use xlink:href="#MicrosoftYaHei-6e" x="542.484375"/>
      </g>
     </g>
    </g>
    <g id="ytick_5">
     <g id="text_11">
      <!-- NLR -->
      <g style="fill: #262626" transform="translate(55.948125 266.348638) scale(0.12 -0.12)">
       <defs>
        <path id="MicrosoftYaHei-4c" d="M 3178 0 
L 625 0 
L 625 4841 
L 1250 4841 
L 1250 553 
L 3178 553 
L 3178 0 
z
" transform="scale(0.015625)"/>
       </defs>
       <use xlink:href="#MicrosoftYaHei-4e"/>
       <use xlink:href="#MicrosoftYaHei-4c" x="81.298828"/>
       <use xlink:href="#MicrosoftYaHei-52" x="132.617188"/>
      </g>
     </g>
    </g>
    <g id="ytick_6">
     <g id="text_12">
      <!-- PLT -->
      <g style="fill: #262626" transform="translate(60.035625 309.832424) scale(0.12 -0.12)">
       <use xlink:href="#MicrosoftYaHei-50"/>
       <use xlink:href="#MicrosoftYaHei-4c" x="61.181641"/>
       <use xlink:href="#MicrosoftYaHei-54" x="106.5"/>
      </g>
     </g>
    </g>
    <g id="ytick_7">
     <g id="text_13">
      <!-- Urea -->
      <g style="fill: #262626" transform="translate(52.876875 353.316211) scale(0.12 -0.12)">
       <defs>
        <path id="MicrosoftYaHei-55" d="M 4213 1972 
Q 4213 -81 2350 -81 
Q 566 -81 566 1900 
L 566 4841 
L 1191 4841 
L 1191 1928 
Q 1191 475 2409 475 
Q 3588 475 3588 1881 
L 3588 4841 
L 4213 4841 
L 4213 1972 
z
" transform="scale(0.015625)"/>
       </defs>
       <use xlink:href="#MicrosoftYaHei-55"/>
       <use xlink:href="#MicrosoftYaHei-72" x="74.658203"/>
       <use xlink:href="#MicrosoftYaHei-65" x="111.466797"/>
       <use xlink:href="#MicrosoftYaHei-61" x="168.205078"/>
      </g>
     </g>
    </g>
    <g id="ytick_8">
     <g id="text_14">
      <!-- LC -->
      <g style="fill: #262626" transform="translate(65.930625 396.799997) scale(0.12 -0.12)">
       <defs>
        <path id="MicrosoftYaHei-43" d="M 3938 200 
Q 3403 -81 2597 -81 
Q 1556 -81 934 580 
Q 313 1241 313 2328 
Q 313 3497 1013 4209 
Q 1713 4922 2791 4922 
Q 3484 4922 3938 4725 
L 3938 4072 
Q 3419 4359 2797 4359 
Q 1988 4359 1478 3820 
Q 969 3281 969 2366 
Q 969 1497 1444 986 
Q 1919 475 2688 475 
Q 3406 475 3938 800 
L 3938 200 
z
" transform="scale(0.015625)"/>
       </defs>
       <use xlink:href="#MicrosoftYaHei-4c"/>
       <use xlink:href="#MicrosoftYaHei-43" x="47.818359"/>
      </g>
     </g>
    </g>
    <g id="ytick_9">
     <g id="text_15">
      <!-- PT -->
      <g style="fill: #262626" transform="translate(65.473125 440.283783) scale(0.12 -0.12)">
       <use xlink:href="#MicrosoftYaHei-50"/>
       <use xlink:href="#MicrosoftYaHei-54" x="61.181641"/>
      </g>
     </g>
    </g>
    <g id="ytick_10">
     <g id="text_16">
      <!-- PLR -->
      <g style="fill: #262626" transform="translate(58.36125 483.76757) scale(0.12 -0.12)">
       <use xlink:href="#MicrosoftYaHei-50"/>
       <use xlink:href="#MicrosoftYaHei-4c" x="61.181641"/>
       <use xlink:href="#MicrosoftYaHei-52" x="112.5"/>
      </g>
     </g>
    </g>
   </g>
   <g id="patch_3">
    <path d="M 420.631561 87.617243 
L 948.581818 87.617243 
L 948.581818 102.836568 
L 420.631561 102.836568 
z
" clip-path="url(#pe1dd612acc)" style="fill: #20854e; opacity: 0.85; stroke: #ffffff; stroke-width: 0.5; stroke-linejoin: miter"/>
   </g>
   <g id="patch_4">
    <path d="M 420.631561 131.101029 
L 863.911828 131.101029 
L 863.911828 146.320354 
L 420.631561 146.320354 
z
" clip-path="url(#pe1dd612acc)" style="fill: #20854e; opacity: 0.85; stroke: #ffffff; stroke-width: 0.5; stroke-linejoin: miter"/>
   </g>
   <g id="patch_5">
    <path d="M 420.631561 174.584815 
L 130.118182 174.584815 
L 130.118182 189.804141 
L 420.631561 189.804141 
z
" clip-path="url(#pe1dd612acc)" style="fill: #20854e; opacity: 0.85; stroke: #ffffff; stroke-width: 0.5; stroke-linejoin: miter"/>
   </g>
   <g id="patch_6">
    <path d="M 420.631561 218.068602 
L 637.418745 218.068602 
L 637.418745 233.287927 
L 420.631561 233.287927 
z
" clip-path="url(#pe1dd612acc)" style="fill: #20854e; opacity: 0.85; stroke: #ffffff; stroke-width: 0.5; stroke-linejoin: miter"/>
   </g>
   <g id="patch_7">
    <path d="M 420.631561 261.552388 
L 613.064376 261.552388 
L 613.064376 276.771713 
L 420.631561 276.771713 
z
" clip-path="url(#pe1dd612acc)" style="fill: #20854e; opacity: 0.85; stroke: #ffffff; stroke-width: 0.5; stroke-linejoin: miter"/>
   </g>
   <g id="patch_8">
    <path d="M 420.631561 305.036174 
L 582.967806 305.036174 
L 582.967806 320.2555 
L 420.631561 320.2555 
z
" clip-path="url(#pe1dd612acc)" style="fill: #20854e; opacity: 0.85; stroke: #ffffff; stroke-width: 0.5; stroke-linejoin: miter"/>
   </g>
   <g id="patch_9">
    <path d="M 420.631561 348.519961 
L 573.3769 348.519961 
L 573.3769 363.739286 
L 420.631561 363.739286 
z
" clip-path="url(#pe1dd612acc)" style="fill: #20854e; opacity: 0.85; stroke: #ffffff; stroke-width: 0.5; stroke-linejoin: miter"/>
   </g>
   <g id="patch_10">
    <path d="M 420.631561 392.003747 
L 281.071749 392.003747 
L 281.071749 407.223072 
L 420.631561 407.223072 
z
" clip-path="url(#pe1dd612acc)" style="fill: #20854e; opacity: 0.85; stroke: #ffffff; stroke-width: 0.5; stroke-linejoin: miter"/>
   </g>
   <g id="patch_11">
    <path d="M 420.631561 435.487533 
L 493.086122 435.487533 
L 493.086122 450.706859 
L 420.631561 450.706859 
z
" clip-path="url(#pe1dd612acc)" style="fill: #20854e; opacity: 0.85; stroke: #ffffff; stroke-width: 0.5; stroke-linejoin: miter"/>
   </g>
   <g id="patch_12">
    <path d="M 420.631561 478.97132 
L 353.957132 478.97132 
L 353.957132 494.190645 
L 420.631561 494.190645 
z
" clip-path="url(#pe1dd612acc)" style="fill: #20854e; opacity: 0.85; stroke: #ffffff; stroke-width: 0.5; stroke-linejoin: miter"/>
   </g>
   <g id="patch_13">
    <path d="M 420.631561 72.397918 
L 684.655316 72.397918 
L 684.655316 87.617243 
L 420.631561 87.617243 
z
" clip-path="url(#pe1dd612acc)" style="fill: #e18727; opacity: 0.85; stroke: #ffffff; stroke-width: 0.5; stroke-linejoin: miter"/>
   </g>
   <g id="patch_14">
    <path d="M 420.631561 115.881704 
L 682.262676 115.881704 
L 682.262676 131.101029 
L 420.631561 131.101029 
z
" clip-path="url(#pe1dd612acc)" style="fill: #e18727; opacity: 0.85; stroke: #ffffff; stroke-width: 0.5; stroke-linejoin: miter"/>
   </g>
   <g id="patch_15">
    <path d="M 420.631561 159.36549 
L 420.287757 159.36549 
L 420.287757 174.584815 
L 420.631561 174.584815 
z
" clip-path="url(#pe1dd612acc)" style="fill: #e18727; opacity: 0.85; stroke: #ffffff; stroke-width: 0.5; stroke-linejoin: miter"/>
   </g>
   <g id="patch_16">
    <path d="M 420.631561 202.849277 
L 459.816578 202.849277 
L 459.816578 218.068602 
L 420.631561 218.068602 
z
" clip-path="url(#pe1dd612acc)" style="fill: #e18727; opacity: 0.85; stroke: #ffffff; stroke-width: 0.5; stroke-linejoin: miter"/>
   </g>
   <g id="patch_17">
    <path d="M 420.631561 246.333063 
L 817.903934 246.333063 
L 817.903934 261.552388 
L 420.631561 261.552388 
z
" clip-path="url(#pe1dd612acc)" style="fill: #e18727; opacity: 0.85; stroke: #ffffff; stroke-width: 0.5; stroke-linejoin: miter"/>
   </g>
   <g id="patch_18">
    <path d="M 420.631561 289.816849 
L 498.752067 289.816849 
L 498.752067 305.036174 
L 420.631561 305.036174 
z
" clip-path="url(#pe1dd612acc)" style="fill: #e18727; opacity: 0.85; stroke: #ffffff; stroke-width: 0.5; stroke-linejoin: miter"/>
   </g>
   <g id="patch_19">
    <path d="M 420.631561 333.300636 
L 468.0329 333.300636 
L 468.0329 348.519961 
L 420.631561 348.519961 
z
" clip-path="url(#pe1dd612acc)" style="fill: #e18727; opacity: 0.85; stroke: #ffffff; stroke-width: 0.5; stroke-linejoin: miter"/>
   </g>
   <g id="patch_20">
    <path d="M 420.631561 376.784422 
L 348.580726 376.784422 
L 348.580726 392.003747 
L 420.631561 392.003747 
z
" clip-path="url(#pe1dd612acc)" style="fill: #e18727; opacity: 0.85; stroke: #ffffff; stroke-width: 0.5; stroke-linejoin: miter"/>
   </g>
   <g id="patch_21">
    <path d="M 420.631561 420.268208 
L 522.712084 420.268208 
L 522.712084 435.487533 
L 420.631561 435.487533 
z
" clip-path="url(#pe1dd612acc)" style="fill: #e18727; opacity: 0.85; stroke: #ffffff; stroke-width: 0.5; stroke-linejoin: miter"/>
   </g>
   <g id="patch_22">
    <path d="M 420.631561 463.751994 
L 353.211636 463.751994 
L 353.211636 478.97132 
L 420.631561 478.97132 
z
" clip-path="url(#pe1dd612acc)" style="fill: #e18727; opacity: 0.85; stroke: #ffffff; stroke-width: 0.5; stroke-linejoin: miter"/>
   </g>
   <g id="line2d_6">
    <path d="M 420.631561 515.280281 
L 420.631561 51.308281 
" clip-path="url(#pe1dd612acc)" style="fill: none; stroke-dasharray: 2.96,1.28; stroke-dashoffset: 0; stroke: #000000; stroke-width: 0.8"/>
   </g>
   <g id="patch_23">
    <path d="M 89.195 515.280281 
L 89.195 51.308281 
" style="fill: none; stroke: #262626; stroke-width: 1.25; stroke-linejoin: miter; stroke-linecap: square"/>
   </g>
   <g id="patch_24">
    <path d="M 89.195 515.280281 
L 989.505 515.280281 
" style="fill: none; stroke: #262626; stroke-width: 1.25; stroke-linejoin: miter; stroke-linecap: square"/>
   </g>
   <g id="text_17">
    <!-- 0.309 -->
    <g style="fill: #262626" transform="translate(952.00435 97.980812) scale(0.1 -0.1)">
     <defs>
      <path id="MicrosoftYaHei-39" d="M 578 656 
Q 978 425 1441 425 
Q 2091 425 2448 937 
Q 2806 1450 2806 2394 
Q 2800 2388 2794 2394 
Q 2475 1788 1722 1788 
Q 1113 1788 713 2206 
Q 313 2625 313 3294 
Q 313 4006 750 4464 
Q 1188 4922 1884 4922 
Q 2606 4922 3012 4355 
Q 3419 3788 3419 2703 
Q 3419 1363 2894 641 
Q 2369 -81 1441 -81 
Q 931 -81 578 84 
L 578 656 
z
M 931 3372 
Q 931 2884 1181 2598 
Q 1431 2313 1872 2313 
Q 2253 2313 2512 2573 
Q 2772 2834 2772 3206 
Q 2772 3728 2514 4070 
Q 2256 4413 1834 4413 
Q 1444 4413 1187 4116 
Q 931 3819 931 3372 
z
" transform="scale(0.015625)"/>
     </defs>
     <use xlink:href="#MicrosoftYaHei-30"/>
     <use xlink:href="#MicrosoftYaHei-2e" x="58.642578"/>
     <use xlink:href="#MicrosoftYaHei-33" x="82.714844"/>
     <use xlink:href="#MicrosoftYaHei-30" x="141.357422"/>
     <use xlink:href="#MicrosoftYaHei-39" x="200"/>
    </g>
   </g>
   <g id="text_18">
    <!-- 0.259 -->
    <g style="fill: #262626" transform="translate(867.33436 141.464598) scale(0.1 -0.1)">
     <defs>
      <path id="MicrosoftYaHei-35" d="M 3294 1494 
Q 3294 784 2823 350 
Q 2353 -84 1559 -84 
Q 878 -84 544 119 
L 544 744 
Q 1034 425 1544 425 
Q 2050 425 2361 704 
Q 2672 984 2672 1447 
Q 2672 1909 2348 2167 
Q 2025 2425 1434 2425 
Q 978 2425 613 2384 
L 791 4841 
L 3053 4841 
L 3053 4303 
L 1306 4303 
L 1206 2931 
L 1647 2950 
Q 2416 2950 2855 2567 
Q 3294 2184 3294 1494 
z
" transform="scale(0.015625)"/>
     </defs>
     <use xlink:href="#MicrosoftYaHei-30"/>
     <use xlink:href="#MicrosoftYaHei-2e" x="58.642578"/>
     <use xlink:href="#MicrosoftYaHei-32" x="82.714844"/>
     <use xlink:href="#MicrosoftYaHei-35" x="141.357422"/>
     <use xlink:href="#MicrosoftYaHei-39" x="200"/>
    </g>
   </g>
   <g id="text_19">
    <!-- -0.170 -->
    <g style="fill: #262626" transform="translate(96.505025 184.948384) scale(0.1 -0.1)">
     <defs>
      <path id="MicrosoftYaHei-37" d="M 3422 4463 
Q 2659 3131 2223 1998 
Q 1788 866 1684 0 
L 1047 0 
Q 1163 853 1594 1947 
Q 2025 3041 2747 4300 
L 347 4300 
L 347 4841 
L 3422 4841 
L 3422 4463 
z
" transform="scale(0.015625)"/>
     </defs>
     <use xlink:href="#MicrosoftYaHei-2d"/>
     <use xlink:href="#MicrosoftYaHei-30" x="43.261719"/>
     <use xlink:href="#MicrosoftYaHei-2e" x="101.904297"/>
     <use xlink:href="#MicrosoftYaHei-31" x="125.976562"/>
     <use xlink:href="#MicrosoftYaHei-37" x="184.619141"/>
     <use xlink:href="#MicrosoftYaHei-30" x="243.261719"/>
    </g>
   </g>
   <g id="text_20">
    <!-- 0.127 -->
    <g style="fill: #262626" transform="translate(640.841277 228.432171) scale(0.1 -0.1)">
     <use xlink:href="#MicrosoftYaHei-30"/>
     <use xlink:href="#MicrosoftYaHei-2e" x="58.642578"/>
     <use xlink:href="#MicrosoftYaHei-31" x="82.714844"/>
     <use xlink:href="#MicrosoftYaHei-32" x="141.357422"/>
     <use xlink:href="#MicrosoftYaHei-37" x="200"/>
    </g>
   </g>
   <g id="text_21">
    <!-- 0.112 -->
    <g style="fill: #262626" transform="translate(616.486908 271.915957) scale(0.1 -0.1)">
     <use xlink:href="#MicrosoftYaHei-30"/>
     <use xlink:href="#MicrosoftYaHei-2e" x="58.642578"/>
     <use xlink:href="#MicrosoftYaHei-31" x="82.714844"/>
     <use xlink:href="#MicrosoftYaHei-31" x="141.357422"/>
     <use xlink:href="#MicrosoftYaHei-32" x="200"/>
    </g>
   </g>
   <g id="text_22">
    <!-- 0.095 -->
    <g style="fill: #262626" transform="translate(586.390338 315.399743) scale(0.1 -0.1)">
     <use xlink:href="#MicrosoftYaHei-30"/>
     <use xlink:href="#MicrosoftYaHei-2e" x="58.642578"/>
     <use xlink:href="#MicrosoftYaHei-30" x="82.714844"/>
     <use xlink:href="#MicrosoftYaHei-39" x="141.357422"/>
     <use xlink:href="#MicrosoftYaHei-35" x="200"/>
    </g>
   </g>
   <g id="text_23">
    <!-- 0.089 -->
    <g style="fill: #262626" transform="translate(576.799431 358.88353) scale(0.1 -0.1)">
     <defs>
      <path id="MicrosoftYaHei-38" d="M 306 1350 
Q 306 1769 556 2122 
Q 806 2475 1200 2625 
Q 884 2803 700 3081 
Q 516 3359 516 3684 
Q 516 4028 692 4312 
Q 869 4597 1183 4759 
Q 1497 4922 1875 4922 
Q 2256 4922 2572 4761 
Q 2888 4600 3063 4315 
Q 3238 4031 3238 3684 
Q 3238 3366 3058 3086 
Q 2878 2806 2559 2625 
Q 2953 2472 3200 2119 
Q 3447 1766 3447 1350 
Q 3447 938 3250 611 
Q 3053 284 2690 103 
Q 2328 -78 1875 -78 
Q 1425 -78 1065 103 
Q 706 284 506 612 
Q 306 941 306 1350 
z
M 906 1378 
Q 906 947 1172 687 
Q 1438 428 1878 428 
Q 2309 428 2582 692 
Q 2856 956 2856 1378 
Q 2856 1778 2579 2051 
Q 2303 2325 1878 2325 
Q 1456 2325 1181 2058 
Q 906 1791 906 1378 
z
M 1081 3634 
Q 1081 3309 1312 3076 
Q 1544 2844 1878 2844 
Q 2206 2844 2445 3078 
Q 2684 3313 2684 3634 
Q 2684 3963 2454 4191 
Q 2225 4419 1878 4419 
Q 1534 4419 1307 4195 
Q 1081 3972 1081 3634 
z
" transform="scale(0.015625)"/>
     </defs>
     <use xlink:href="#MicrosoftYaHei-30"/>
     <use xlink:href="#MicrosoftYaHei-2e" x="58.642578"/>
     <use xlink:href="#MicrosoftYaHei-30" x="82.714844"/>
     <use xlink:href="#MicrosoftYaHei-38" x="141.357422"/>
     <use xlink:href="#MicrosoftYaHei-39" x="200"/>
    </g>
   </g>
   <g id="text_24">
    <!-- -0.082 -->
    <g style="fill: #262626" transform="translate(247.458592 402.367316) scale(0.1 -0.1)">
     <use xlink:href="#MicrosoftYaHei-2d"/>
     <use xlink:href="#MicrosoftYaHei-30" x="43.261719"/>
     <use xlink:href="#MicrosoftYaHei-2e" x="101.904297"/>
     <use xlink:href="#MicrosoftYaHei-30" x="125.976562"/>
     <use xlink:href="#MicrosoftYaHei-38" x="184.619141"/>
     <use xlink:href="#MicrosoftYaHei-32" x="243.261719"/>
    </g>
   </g>
   <g id="text_25">
    <!-- 0.042 -->
    <g style="fill: #262626" transform="translate(496.508654 445.851102) scale(0.1 -0.1)">
     <defs>
      <path id="MicrosoftYaHei-34" d="M 2906 4841 
L 2906 1644 
L 3631 1644 
L 3631 1138 
L 2906 1138 
L 2906 0 
L 2313 0 
L 2313 1138 
L 53 1138 
L 53 1616 
Q 656 2294 1265 3178 
Q 1875 4063 2272 4841 
L 2906 4841 
z
M 741 1644 
L 2313 1644 
L 2313 3950 
Q 1988 3366 1616 2817 
Q 1244 2269 741 1644 
z
" transform="scale(0.015625)"/>
     </defs>
     <use xlink:href="#MicrosoftYaHei-30"/>
     <use xlink:href="#MicrosoftYaHei-2e" x="58.642578"/>
     <use xlink:href="#MicrosoftYaHei-30" x="82.714844"/>
     <use xlink:href="#MicrosoftYaHei-34" x="141.357422"/>
     <use xlink:href="#MicrosoftYaHei-32" x="200"/>
    </g>
   </g>
   <g id="text_26">
    <!-- -0.039 -->
    <g style="fill: #262626" transform="translate(320.343976 489.334889) scale(0.1 -0.1)">
     <use xlink:href="#MicrosoftYaHei-2d"/>
     <use xlink:href="#MicrosoftYaHei-30" x="43.261719"/>
     <use xlink:href="#MicrosoftYaHei-2e" x="101.904297"/>
     <use xlink:href="#MicrosoftYaHei-30" x="125.976562"/>
     <use xlink:href="#MicrosoftYaHei-33" x="184.619141"/>
     <use xlink:href="#MicrosoftYaHei-39" x="243.261719"/>
    </g>
   </g>
   <g id="text_27">
    <!-- 0.154 -->
    <g style="fill: #262626" transform="translate(688.077847 82.761486) scale(0.1 -0.1)">
     <use xlink:href="#MicrosoftYaHei-30"/>
     <use xlink:href="#MicrosoftYaHei-2e" x="58.642578"/>
     <use xlink:href="#MicrosoftYaHei-31" x="82.714844"/>
     <use xlink:href="#MicrosoftYaHei-35" x="141.357422"/>
     <use xlink:href="#MicrosoftYaHei-34" x="200"/>
    </g>
   </g>
   <g id="text_28">
    <!-- 0.153 -->
    <g style="fill: #262626" transform="translate(685.685208 126.245273) scale(0.1 -0.1)">
     <use xlink:href="#MicrosoftYaHei-30"/>
     <use xlink:href="#MicrosoftYaHei-2e" x="58.642578"/>
     <use xlink:href="#MicrosoftYaHei-31" x="82.714844"/>
     <use xlink:href="#MicrosoftYaHei-35" x="141.357422"/>
     <use xlink:href="#MicrosoftYaHei-33" x="200"/>
    </g>
   </g>
   <g id="text_29">
    <!-- -0.000 -->
    <g style="fill: #262626" transform="translate(386.674601 169.729059) scale(0.1 -0.1)">
     <use xlink:href="#MicrosoftYaHei-2d"/>
     <use xlink:href="#MicrosoftYaHei-30" x="43.261719"/>
     <use xlink:href="#MicrosoftYaHei-2e" x="101.904297"/>
     <use xlink:href="#MicrosoftYaHei-30" x="125.976562"/>
     <use xlink:href="#MicrosoftYaHei-30" x="184.619141"/>
     <use xlink:href="#MicrosoftYaHei-30" x="243.261719"/>
    </g>
   </g>
   <g id="text_30">
    <!-- 0.023 -->
    <g style="fill: #262626" transform="translate(463.23911 213.212845) scale(0.1 -0.1)">
     <use xlink:href="#MicrosoftYaHei-30"/>
     <use xlink:href="#MicrosoftYaHei-2e" x="58.642578"/>
     <use xlink:href="#MicrosoftYaHei-30" x="82.714844"/>
     <use xlink:href="#MicrosoftYaHei-32" x="141.357422"/>
     <use xlink:href="#MicrosoftYaHei-33" x="200"/>
    </g>
   </g>
   <g id="text_31">
    <!-- 0.232 -->
    <g style="fill: #262626" transform="translate(821.326466 256.696632) scale(0.1 -0.1)">
     <use xlink:href="#MicrosoftYaHei-30"/>
     <use xlink:href="#MicrosoftYaHei-2e" x="58.642578"/>
     <use xlink:href="#MicrosoftYaHei-32" x="82.714844"/>
     <use xlink:href="#MicrosoftYaHei-33" x="141.357422"/>
     <use xlink:href="#MicrosoftYaHei-32" x="200"/>
    </g>
   </g>
   <g id="text_32">
    <!-- 0.046 -->
    <g style="fill: #262626" transform="translate(502.174599 300.180418) scale(0.1 -0.1)">
     <defs>
      <path id="MicrosoftYaHei-36" d="M 3181 4219 
Q 2803 4413 2391 4413 
Q 1763 4413 1381 3866 
Q 1000 3319 994 2372 
L 1009 2372 
Q 1353 3038 2106 3038 
Q 2734 3038 3109 2628 
Q 3484 2219 3484 1541 
Q 3484 831 3051 375 
Q 2619 -81 1947 -81 
Q 1209 -81 789 495 
Q 369 1072 369 2131 
Q 369 3413 920 4167 
Q 1472 4922 2372 4922 
Q 2888 4922 3181 4781 
L 3181 4219 
z
M 1031 1584 
Q 1031 1106 1286 765 
Q 1541 425 1963 425 
Q 2363 425 2613 719 
Q 2863 1013 2863 1475 
Q 2863 1975 2627 2253 
Q 2391 2531 1956 2531 
Q 1544 2531 1287 2250 
Q 1031 1969 1031 1584 
z
" transform="scale(0.015625)"/>
     </defs>
     <use xlink:href="#MicrosoftYaHei-30"/>
     <use xlink:href="#MicrosoftYaHei-2e" x="58.642578"/>
     <use xlink:href="#MicrosoftYaHei-30" x="82.714844"/>
     <use xlink:href="#MicrosoftYaHei-34" x="141.357422"/>
     <use xlink:href="#MicrosoftYaHei-36" x="200"/>
    </g>
   </g>
   <g id="text_33">
    <!-- 0.028 -->
    <g style="fill: #262626" transform="translate(471.455432 343.664204) scale(0.1 -0.1)">
     <use xlink:href="#MicrosoftYaHei-30"/>
     <use xlink:href="#MicrosoftYaHei-2e" x="58.642578"/>
     <use xlink:href="#MicrosoftYaHei-30" x="82.714844"/>
     <use xlink:href="#MicrosoftYaHei-32" x="141.357422"/>
     <use xlink:href="#MicrosoftYaHei-38" x="200"/>
    </g>
   </g>
   <g id="text_34">
    <!-- -0.042 -->
    <g style="fill: #262626" transform="translate(314.96757 387.147991) scale(0.1 -0.1)">
     <use xlink:href="#MicrosoftYaHei-2d"/>
     <use xlink:href="#MicrosoftYaHei-30" x="43.261719"/>
     <use xlink:href="#MicrosoftYaHei-2e" x="101.904297"/>
     <use xlink:href="#MicrosoftYaHei-30" x="125.976562"/>
     <use xlink:href="#MicrosoftYaHei-34" x="184.619141"/>
     <use xlink:href="#MicrosoftYaHei-32" x="243.261719"/>
    </g>
   </g>
   <g id="text_35">
    <!-- 0.060 -->
    <g style="fill: #262626" transform="translate(526.134615 430.631777) scale(0.1 -0.1)">
     <use xlink:href="#MicrosoftYaHei-30"/>
     <use xlink:href="#MicrosoftYaHei-2e" x="58.642578"/>
     <use xlink:href="#MicrosoftYaHei-30" x="82.714844"/>
     <use xlink:href="#MicrosoftYaHei-36" x="141.357422"/>
     <use xlink:href="#MicrosoftYaHei-30" x="200"/>
    </g>
   </g>
   <g id="text_36">
    <!-- -0.039 -->
    <g style="fill: #262626" transform="translate(319.59848 474.115563) scale(0.1 -0.1)">
     <use xlink:href="#MicrosoftYaHei-2d"/>
     <use xlink:href="#MicrosoftYaHei-30" x="43.261719"/>
     <use xlink:href="#MicrosoftYaHei-2e" x="101.904297"/>
     <use xlink:href="#MicrosoftYaHei-30" x="125.976562"/>
     <use xlink:href="#MicrosoftYaHei-33" x="184.619141"/>
     <use xlink:href="#MicrosoftYaHei-39" x="243.261719"/>
    </g>
   </g>
   <g id="text_37">
    <g id="patch_25">
     <path d="M 107.2012 554.341446 
L 213.3187 554.341446 
Q 216.9187 554.341446 216.9187 550.741446 
L 216.9187 538.165821 
Q 216.9187 534.565821 213.3187 534.565821 
L 107.2012 534.565821 
Q 103.6012 534.565821 103.6012 538.165821 
L 103.6012 550.741446 
Q 103.6012 554.341446 107.2012 554.341446 
z
" style="fill: #ffffff; opacity: 0.9; stroke: #cccccc; stroke-linejoin: miter"/>
    </g>
    <!-- Pearson r = 0.715 -->
    <g style="fill: #262626" transform="translate(107.2012 547.758321) scale(0.12 -0.12)">
     <defs>
      <path id="MicrosoftYaHei-Bold-50" d="M 1591 1688 
L 1591 0 
L 559 0 
L 559 4841 
L 2225 4841 
Q 4031 4841 4031 3309 
Q 4031 2566 3486 2117 
Q 2941 1669 2122 1688 
L 1591 1688 
z
M 1591 4041 
L 1591 2478 
L 2038 2478 
Q 2947 2478 2947 3269 
Q 2947 4041 2047 4041 
L 1591 4041 
z
" transform="scale(0.015625)"/>
      <path id="MicrosoftYaHei-Bold-73" d="M 369 928 
Q 888 613 1384 613 
Q 2009 613 2009 947 
Q 2009 1184 1494 1344 
Q 850 1544 609 1789 
Q 369 2034 369 2453 
Q 369 2963 781 3252 
Q 1194 3541 1863 3541 
Q 2338 3541 2778 3400 
L 2778 2606 
Q 2375 2844 1891 2844 
Q 1650 2844 1503 2758 
Q 1356 2672 1356 2531 
Q 1356 2294 1794 2147 
Q 2263 1991 2498 1862 
Q 2734 1734 2857 1525 
Q 2981 1316 2981 1041 
Q 2981 506 2553 211 
Q 2125 -84 1409 -84 
Q 847 -84 369 94 
L 369 928 
z
" transform="scale(0.015625)"/>
      <path id="MicrosoftYaHei-Bold-3d" d="M 4072 2378 
L 797 2378 
L 797 3041 
L 4072 3041 
L 4072 2378 
z
M 4072 916 
L 797 916 
L 797 1578 
L 4072 1578 
L 4072 916 
z
" transform="scale(0.015625)"/>
      <path id="MicrosoftYaHei-Bold-30" d="M 244 2341 
Q 244 3597 706 4259 
Q 1169 4922 2044 4922 
Q 3713 4922 3713 2453 
Q 3713 1238 3259 577 
Q 2806 -84 1950 -84 
Q 244 -84 244 2341 
z
M 1266 2366 
Q 1266 691 1981 691 
Q 2684 691 2684 2416 
Q 2684 4147 2000 4147 
Q 1266 4147 1266 2366 
z
" transform="scale(0.015625)"/>
      <path id="MicrosoftYaHei-Bold-2e" d="M 313 453 
Q 313 688 491 838 
Q 669 988 916 988 
Q 1166 988 1337 834 
Q 1509 681 1509 453 
Q 1509 213 1337 64 
Q 1166 -84 903 -84 
Q 659 -84 486 69 
Q 313 222 313 453 
z
" transform="scale(0.015625)"/>
      <path id="MicrosoftYaHei-Bold-37" d="M 3675 4225 
Q 3088 3172 2798 2528 
Q 2509 1884 2328 1275 
Q 2147 666 2050 0 
L 966 0 
Q 1122 947 1517 1917 
Q 1913 2888 2609 4009 
L 300 4009 
L 300 4841 
L 3675 4841 
L 3675 4225 
z
" transform="scale(0.015625)"/>
      <path id="MicrosoftYaHei-Bold-31" d="M 2716 4947 
L 2716 0 
L 1700 0 
L 1700 3809 
Q 1513 3647 1188 3517 
Q 863 3388 591 3356 
L 591 4222 
Q 1447 4472 2072 4947 
L 2716 4947 
z
" transform="scale(0.015625)"/>
      <path id="MicrosoftYaHei-Bold-35" d="M 541 125 
L 541 997 
Q 1044 691 1613 691 
Q 2041 691 2283 902 
Q 2525 1113 2525 1472 
Q 2525 2225 1494 2225 
Q 1113 2225 616 2169 
L 797 4841 
L 3359 4841 
L 3359 4009 
L 1613 4009 
L 1544 2991 
Q 1803 3013 2022 3013 
Q 2731 3013 3142 2625 
Q 3553 2238 3553 1575 
Q 3553 844 3056 380 
Q 2559 -84 1706 -84 
Q 1016 -84 541 125 
z
" transform="scale(0.015625)"/>
     </defs>
     <use xlink:href="#MicrosoftYaHei-Bold-50"/>
     <use xlink:href="#MicrosoftYaHei-Bold-65" x="62.347656"/>
     <use xlink:href="#MicrosoftYaHei-Bold-61" x="120.550781"/>
     <use xlink:href="#MicrosoftYaHei-Bold-72" x="178.314453"/>
     <use xlink:href="#MicrosoftYaHei-Bold-73" x="221.322266"/>
     <use xlink:href="#MicrosoftYaHei-Bold-6f" x="270.6875"/>
     <use xlink:href="#MicrosoftYaHei-Bold-6e" x="336.410156"/>
     <use xlink:href="#MicrosoftYaHei-Bold-20" x="401.205078"/>
     <use xlink:href="#MicrosoftYaHei-Bold-72" x="430.990234"/>
     <use xlink:href="#MicrosoftYaHei-Bold-20" x="473.373047"/>
     <use xlink:href="#MicrosoftYaHei-Bold-3d" x="503.158203"/>
     <use xlink:href="#MicrosoftYaHei-Bold-20" x="579.28125"/>
     <use xlink:href="#MicrosoftYaHei-Bold-30" x="609.066406"/>
     <use xlink:href="#MicrosoftYaHei-Bold-2e" x="670.736328"/>
     <use xlink:href="#MicrosoftYaHei-Bold-37" x="699.300781"/>
     <use xlink:href="#MicrosoftYaHei-Bold-31" x="760.970703"/>
     <use xlink:href="#MicrosoftYaHei-Bold-35" x="822.640625"/>
    </g>
   </g>
   <g id="text_38">
    <!-- LIME vs SHAP — Sample #52 -->
    <g style="fill: #262626" transform="translate(430.351562 19.190625) scale(0.15 -0.15)">
     <defs>
      <path id="MicrosoftYaHei-Bold-4c" d="M 3400 0 
L 559 0 
L 559 4841 
L 1591 4841 
L 1591 844 
L 3400 844 
L 3400 0 
z
" transform="scale(0.015625)"/>
      <path id="MicrosoftYaHei-Bold-49" d="M 1588 4841 
L 1588 0 
L 556 0 
L 556 4841 
L 1588 4841 
z
" transform="scale(0.015625)"/>
      <path id="MicrosoftYaHei-Bold-4d" d="M 4991 0 
L 4991 2938 
Q 4991 3344 5031 3959 
L 5006 3959 
Q 4913 3494 4856 3338 
L 3663 0 
L 2841 0 
L 1631 3306 
Q 1588 3425 1478 3959 
L 1450 3959 
Q 1491 3350 1491 2738 
L 1491 0 
L 559 0 
L 559 4841 
L 2059 4841 
L 3103 1916 
Q 3234 1553 3281 1234 
L 3303 1234 
Q 3400 1631 3503 1922 
L 4550 4841 
L 6009 4841 
L 6009 0 
L 4991 0 
z
" transform="scale(0.015625)"/>
      <path id="MicrosoftYaHei-Bold-45" d="M 3425 0 
L 559 0 
L 559 4841 
L 3313 4841 
L 3313 3997 
L 1591 3997 
L 1591 2856 
L 3191 2856 
L 3191 2016 
L 1591 2016 
L 1591 844 
L 3425 844 
L 3425 0 
z
" transform="scale(0.015625)"/>
      <path id="MicrosoftYaHei-Bold-76" d="M 3688 3456 
L 2391 0 
L 1250 0 
L 16 3456 
L 1097 3456 
L 1731 1281 
Q 1834 925 1847 684 
L 1863 684 
Q 1888 931 1984 1263 
L 2631 3456 
L 3688 3456 
z
" transform="scale(0.015625)"/>
      <path id="MicrosoftYaHei-Bold-53" d="M 338 1219 
Q 922 734 1666 734 
Q 2088 734 2300 879 
Q 2513 1025 2513 1253 
Q 2513 1450 2344 1625 
Q 2175 1800 1453 2100 
Q 319 2581 319 3500 
Q 319 4175 833 4548 
Q 1347 4922 2194 4922 
Q 2903 4922 3384 4738 
L 3384 3769 
Q 2897 4100 2244 4100 
Q 1863 4100 1634 3961 
Q 1406 3822 1406 3588 
Q 1406 3400 1562 3242 
Q 1719 3084 2334 2816 
Q 3056 2506 3326 2162 
Q 3597 1819 3597 1344 
Q 3597 647 3103 281 
Q 2609 -84 1700 -84 
Q 869 -84 338 184 
L 338 1219 
z
" transform="scale(0.015625)"/>
      <path id="MicrosoftYaHei-Bold-48" d="M 4684 0 
L 3653 0 
L 3653 1997 
L 1591 1997 
L 1591 0 
L 559 0 
L 559 4841 
L 1591 4841 
L 1591 2888 
L 3653 2888 
L 3653 4841 
L 4684 4841 
L 4684 0 
z
" transform="scale(0.015625)"/>
      <path id="MicrosoftYaHei-Bold-41" d="M 4759 0 
L 3634 0 
L 3272 1109 
L 1513 1109 
L 1156 0 
L 38 0 
L 1809 4841 
L 3022 4841 
L 4759 0 
z
M 3028 1906 
L 2478 3584 
Q 2425 3744 2403 4006 
L 2375 4006 
Q 2356 3794 2291 3597 
L 1738 1906 
L 3028 1906 
z
" transform="scale(0.015625)"/>
      <path id="MicrosoftYaHei-Bold-2014" d="M 6913 1497 
L 0 1497 
L 0 2209 
L 6913 2209 
L 6913 1497 
z
" transform="scale(0.015625)"/>
      <path id="MicrosoftYaHei-Bold-6d" d="M 5881 0 
L 4875 0 
L 4875 1972 
Q 4875 2766 4297 2766 
Q 4028 2766 3850 2525 
Q 3672 2284 3672 1938 
L 3672 0 
L 2666 0 
L 2666 1997 
Q 2666 2766 2094 2766 
Q 1809 2766 1639 2536 
Q 1469 2306 1469 1928 
L 1469 0 
L 459 0 
L 459 3456 
L 1469 3456 
L 1469 2916 
L 1481 2916 
Q 1663 3213 1963 3377 
Q 2263 3541 2594 3541 
Q 3322 3541 3591 2888 
Q 3991 3541 4753 3541 
Q 5881 3541 5881 2147 
L 5881 0 
z
" transform="scale(0.015625)"/>
      <path id="MicrosoftYaHei-Bold-70" d="M 1469 416 
L 1469 -1591 
L 459 -1591 
L 459 3456 
L 1469 3456 
L 1469 2928 
L 1481 2928 
Q 1878 3541 2603 3541 
Q 3263 3541 3634 3080 
Q 4006 2619 4006 1825 
Q 4006 959 3575 437 
Q 3144 -84 2444 -84 
Q 1809 -84 1481 416 
L 1469 416 
z
M 1453 1528 
Q 1453 1159 1653 925 
Q 1853 691 2172 691 
Q 2550 691 2761 984 
Q 2972 1278 2972 1816 
Q 2972 2766 2231 2766 
Q 1888 2766 1670 2503 
Q 1453 2241 1453 1828 
L 1453 1528 
z
" transform="scale(0.015625)"/>
      <path id="MicrosoftYaHei-Bold-23" d="M 3969 3594 
L 3844 3016 
L 3188 3016 
L 3000 2156 
L 3725 2156 
L 3584 1578 
L 2881 1578 
L 2616 391 
L 1969 391 
L 2219 1578 
L 1438 1578 
L 1184 391 
L 538 391 
L 784 1578 
L 125 1578 
L 244 2156 
L 909 2156 
L 1091 3016 
L 381 3016 
L 491 3594 
L 1209 3594 
L 1463 4813 
L 2122 4813 
L 1872 3594 
L 2653 3594 
L 2913 4813 
L 3566 4813 
L 3313 3594 
L 3969 3594 
z
M 2538 3016 
L 1744 3016 
L 1556 2156 
L 2347 2156 
L 2538 3016 
z
" transform="scale(0.015625)"/>
      <path id="MicrosoftYaHei-Bold-32" d="M 1500 841 
L 3553 841 
L 3553 0 
L 334 0 
L 334 359 
Q 334 738 473 1050 
Q 613 1363 856 1633 
Q 1100 1903 1613 2266 
Q 2081 2616 2268 2886 
Q 2456 3156 2456 3459 
Q 2456 4113 1744 4113 
Q 1119 4113 550 3613 
L 550 4513 
Q 1184 4922 1975 4922 
Q 2700 4922 3122 4551 
Q 3544 4181 3544 3531 
Q 3544 3169 3422 2876 
Q 3300 2584 3069 2328 
Q 2838 2072 2328 1713 
Q 1838 1363 1669 1172 
Q 1500 981 1500 841 
z
" transform="scale(0.015625)"/>
     </defs>
     <use xlink:href="#MicrosoftYaHei-Bold-4c"/>
     <use xlink:href="#MicrosoftYaHei-Bold-49" x="54.6875"/>
     <use xlink:href="#MicrosoftYaHei-Bold-4d" x="88.232422"/>
     <use xlink:href="#MicrosoftYaHei-Bold-45" x="191.064453"/>
     <use xlink:href="#MicrosoftYaHei-Bold-20" x="248.242188"/>
     <use xlink:href="#MicrosoftYaHei-Bold-76" x="278.027344"/>
     <use xlink:href="#MicrosoftYaHei-Bold-73" x="335.742188"/>
     <use xlink:href="#MicrosoftYaHei-Bold-20" x="385.107422"/>
     <use xlink:href="#MicrosoftYaHei-Bold-53" x="414.892578"/>
     <use xlink:href="#MicrosoftYaHei-Bold-48" x="475.048828"/>
     <use xlink:href="#MicrosoftYaHei-Bold-41" x="557.177734"/>
     <use xlink:href="#MicrosoftYaHei-Bold-50" x="632.373047"/>
     <use xlink:href="#MicrosoftYaHei-Bold-20" x="698.095703"/>
     <use xlink:href="#MicrosoftYaHei-Bold-2014" x="727.880859"/>
     <use xlink:href="#MicrosoftYaHei-Bold-20" x="835.888672"/>
     <use xlink:href="#MicrosoftYaHei-Bold-53" x="865.673828"/>
     <use xlink:href="#MicrosoftYaHei-Bold-61" x="925.830078"/>
     <use xlink:href="#MicrosoftYaHei-Bold-6d" x="983.59375"/>
     <use xlink:href="#MicrosoftYaHei-Bold-70" x="1081.787109"/>
     <use xlink:href="#MicrosoftYaHei-Bold-6c" x="1148.388672"/>
     <use xlink:href="#MicrosoftYaHei-Bold-65" x="1177.978516"/>
     <use xlink:href="#MicrosoftYaHei-Bold-20" x="1236.181641"/>
     <use xlink:href="#MicrosoftYaHei-Bold-23" x="1265.966797"/>
     <use xlink:href="#MicrosoftYaHei-Bold-35" x="1329.980469"/>
     <use xlink:href="#MicrosoftYaHei-Bold-32" x="1391.650391"/>
    </g>
    <!-- Model: Logistic Regression -->
    <g style="fill: #262626" transform="translate(438.096484 37.308281) scale(0.15 -0.15)">
     <defs>
      <path id="MicrosoftYaHei-Bold-64" d="M 3794 0 
L 2788 0 
L 2788 488 
L 2772 488 
Q 2406 -84 1691 -84 
Q 1031 -84 642 381 
Q 253 847 253 1650 
Q 253 2500 689 3020 
Q 1125 3541 1828 3541 
Q 2503 3541 2772 3053 
L 2788 3053 
L 2788 5116 
L 3794 5116 
L 3794 0 
z
M 2803 1956 
Q 2803 2306 2592 2536 
Q 2381 2766 2066 2766 
Q 1697 2766 1486 2473 
Q 1275 2181 1275 1681 
Q 1275 1206 1478 948 
Q 1681 691 2038 691 
Q 2372 691 2587 962 
Q 2803 1234 2803 1669 
L 2803 1956 
z
" transform="scale(0.015625)"/>
      <path id="MicrosoftYaHei-Bold-3a" d="M 313 2969 
Q 313 3200 491 3350 
Q 669 3500 916 3500 
Q 1166 3500 1337 3350 
Q 1509 3200 1509 2969 
Q 1509 2728 1337 2579 
Q 1166 2431 903 2431 
Q 653 2431 483 2584 
Q 313 2738 313 2969 
z
M 313 453 
Q 313 688 491 838 
Q 669 988 916 988 
Q 1166 988 1337 834 
Q 1509 681 1509 453 
Q 1509 213 1337 64 
Q 1166 -84 903 -84 
Q 659 -84 486 69 
Q 313 222 313 453 
z
" transform="scale(0.015625)"/>
      <path id="MicrosoftYaHei-Bold-67" d="M 3800 381 
Q 3800 -581 3251 -1101 
Q 2703 -1622 1672 -1622 
Q 972 -1622 559 -1422 
L 559 -559 
Q 1097 -872 1644 -872 
Q 2184 -872 2489 -583 
Q 2794 -294 2794 219 
L 2794 506 
L 2778 506 
Q 2413 -84 1691 -84 
Q 1038 -84 645 381 
Q 253 847 253 1628 
Q 253 2500 686 3020 
Q 1119 3541 1822 3541 
Q 2459 3541 2778 3044 
L 2794 3044 
L 2794 3456 
L 3800 3456 
L 3800 381 
z
M 2803 1950 
Q 2803 2294 2595 2530 
Q 2388 2766 2072 2766 
Q 1703 2766 1489 2477 
Q 1275 2188 1275 1666 
Q 1275 1213 1481 952 
Q 1688 691 2028 691 
Q 2372 691 2587 956 
Q 2803 1222 2803 1647 
L 2803 1950 
z
" transform="scale(0.015625)"/>
      <path id="MicrosoftYaHei-Bold-63" d="M 3050 128 
Q 2688 -84 2019 -84 
Q 1228 -84 740 397 
Q 253 878 253 1644 
Q 253 2525 778 3033 
Q 1303 3541 2178 3541 
Q 2769 3541 3053 3378 
L 3053 2513 
Q 2706 2766 2297 2766 
Q 1834 2766 1554 2484 
Q 1275 2203 1275 1713 
Q 1275 1238 1540 964 
Q 1806 691 2263 691 
Q 2666 691 3050 947 
L 3050 128 
z
" transform="scale(0.015625)"/>
      <path id="MicrosoftYaHei-Bold-52" d="M 4553 0 
L 3366 0 
L 2606 1259 
Q 2372 1650 2222 1762 
Q 2072 1875 1903 1875 
L 1591 1875 
L 1591 0 
L 559 0 
L 559 4841 
L 2256 4841 
Q 3984 4841 3984 3528 
Q 3984 3034 3695 2681 
Q 3406 2328 2900 2184 
L 2900 2172 
Q 3234 2059 3641 1434 
L 4553 0 
z
M 1591 4056 
L 1591 2663 
L 2097 2663 
Q 2459 2663 2679 2873 
Q 2900 3084 2900 3400 
Q 2900 4056 2116 4056 
L 1591 4056 
z
" transform="scale(0.015625)"/>
     </defs>
     <use xlink:href="#MicrosoftYaHei-Bold-4d"/>
     <use xlink:href="#MicrosoftYaHei-Bold-6f" x="102.832031"/>
     <use xlink:href="#MicrosoftYaHei-Bold-64" x="168.554688"/>
     <use xlink:href="#MicrosoftYaHei-Bold-65" x="235.009766"/>
     <use xlink:href="#MicrosoftYaHei-Bold-6c" x="293.212891"/>
     <use xlink:href="#MicrosoftYaHei-Bold-3a" x="322.802734"/>
     <use xlink:href="#MicrosoftYaHei-Bold-20" x="351.367188"/>
     <use xlink:href="#MicrosoftYaHei-Bold-4c" x="381.152344"/>
     <use xlink:href="#MicrosoftYaHei-Bold-6f" x="435.839844"/>
     <use xlink:href="#MicrosoftYaHei-Bold-67" x="501.5625"/>
     <use xlink:href="#MicrosoftYaHei-Bold-69" x="568.017578"/>
     <use xlink:href="#MicrosoftYaHei-Bold-73" x="597.607422"/>
     <use xlink:href="#MicrosoftYaHei-Bold-74" x="646.972656"/>
     <use xlink:href="#MicrosoftYaHei-Bold-69" x="688.378906"/>
     <use xlink:href="#MicrosoftYaHei-Bold-63" x="717.96875"/>
     <use xlink:href="#MicrosoftYaHei-Bold-20" x="769.628906"/>
     <use xlink:href="#MicrosoftYaHei-Bold-52" x="799.414062"/>
     <use xlink:href="#MicrosoftYaHei-Bold-65" x="866.488281"/>
     <use xlink:href="#MicrosoftYaHei-Bold-67" x="924.691406"/>
     <use xlink:href="#MicrosoftYaHei-Bold-72" x="991.146484"/>
     <use xlink:href="#MicrosoftYaHei-Bold-65" x="1033.029297"/>
     <use xlink:href="#MicrosoftYaHei-Bold-73" x="1091.232422"/>
     <use xlink:href="#MicrosoftYaHei-Bold-73" x="1140.597656"/>
     <use xlink:href="#MicrosoftYaHei-Bold-69" x="1189.962891"/>
     <use xlink:href="#MicrosoftYaHei-Bold-6f" x="1219.552734"/>
     <use xlink:href="#MicrosoftYaHei-Bold-6e" x="1285.275391"/>
    </g>
   </g>
   <g id="legend_1">
    <g id="patch_26">
     <path d="M 869.713125 509.280281 
L 981.105 509.280281 
Q 983.505 509.280281 983.505 506.880281 
L 983.505 470.859656 
Q 983.505 468.459656 981.105 468.459656 
L 869.713125 468.459656 
Q 867.313125 468.459656 867.313125 470.859656 
L 867.313125 506.880281 
Q 867.313125 509.280281 869.713125 509.280281 
z
" style="fill: #ffffff; opacity: 0.92; stroke: #cccccc; stroke-linejoin: miter"/>
    </g>
    <g id="patch_27">
     <path d="M 872.113125 482.852156 
L 896.113125 482.852156 
L 896.113125 474.452156 
L 872.113125 474.452156 
z
" style="fill: #20854e; opacity: 0.85; stroke: #ffffff; stroke-width: 0.5; stroke-linejoin: miter"/>
    </g>
    <g id="text_39">
     <!-- LIME Weight -->
     <g style="fill: #262626" transform="translate(905.713125 482.852156) scale(0.12 -0.12)">
      <defs>
       <path id="MicrosoftYaHei-49" d="M 1250 4841 
L 1250 0 
L 625 0 
L 625 4841 
L 1250 4841 
z
" transform="scale(0.015625)"/>
       <path id="MicrosoftYaHei-45" d="M 3228 0 
L 625 0 
L 625 4841 
L 3119 4841 
L 3119 4284 
L 1250 4284 
L 1250 2734 
L 2981 2734 
L 2981 2181 
L 1250 2181 
L 1250 553 
L 3228 553 
L 3228 0 
z
" transform="scale(0.015625)"/>
       <path id="MicrosoftYaHei-57" d="M 6431 4841 
L 5075 0 
L 4347 0 
L 3372 3488 
Q 3306 3725 3294 3988 
L 3281 3988 
Q 3263 3728 3194 3494 
L 2209 0 
L 1488 0 
L 84 4841 
L 775 4841 
L 1763 1184 
Q 1828 938 1841 688 
L 1859 688 
Q 1875 875 1963 1184 
L 3009 4841 
L 3625 4841 
L 4625 1156 
Q 4675 975 4706 694 
L 4719 694 
Q 4734 897 4809 1169 
L 5759 4841 
L 6431 4841 
z
" transform="scale(0.015625)"/>
       <path id="MicrosoftYaHei-67" d="M 3547 291 
Q 3547 -1628 1684 -1628 
Q 1041 -1628 566 -1388 
L 566 -797 
Q 1144 -1119 1675 -1119 
Q 2934 -1119 2934 206 
L 2934 572 
L 2922 572 
Q 2528 -81 1747 -81 
Q 1097 -81 706 384 
Q 316 850 316 1619 
Q 316 2503 747 3020 
Q 1178 3538 1897 3538 
Q 2588 3538 2922 2988 
L 2934 2988 
L 2934 3456 
L 3547 3456 
L 3547 291 
z
M 2934 2056 
Q 2938 2456 2666 2743 
Q 2394 3031 1997 3031 
Q 1497 3031 1219 2664 
Q 941 2297 941 1656 
Q 941 1106 1209 765 
Q 1478 425 1922 425 
Q 2369 425 2653 750 
Q 2938 1075 2934 1575 
L 2934 2056 
z
" transform="scale(0.015625)"/>
       <path id="MicrosoftYaHei-68" d="M 3466 0 
L 2856 0 
L 2856 1988 
Q 2856 3031 2081 3031 
Q 1684 3031 1421 2726 
Q 1159 2422 1159 1959 
L 1159 0 
L 547 0 
L 547 5116 
L 1159 5116 
L 1159 2888 
L 1172 2888 
Q 1569 3538 2300 3538 
Q 3466 3538 3466 2128 
L 3466 0 
z
" transform="scale(0.015625)"/>
      </defs>
      <use xlink:href="#MicrosoftYaHei-4c"/>
      <use xlink:href="#MicrosoftYaHei-49" x="51.318359"/>
      <use xlink:href="#MicrosoftYaHei-4d" x="80.712891"/>
      <use xlink:href="#MicrosoftYaHei-45" x="178.417969"/>
      <use xlink:href="#MicrosoftYaHei-20" x="233.398438"/>
      <use xlink:href="#MicrosoftYaHei-57" x="262.988281"/>
      <use xlink:href="#MicrosoftYaHei-65" x="362.121094"/>
      <use xlink:href="#MicrosoftYaHei-69" x="418.859375"/>
      <use xlink:href="#MicrosoftYaHei-67" x="445.470703"/>
      <use xlink:href="#MicrosoftYaHei-68" x="509.435547"/>
      <use xlink:href="#MicrosoftYaHei-74" x="571.007812"/>
     </g>
    </g>
    <g id="patch_28">
     <path d="M 872.113125 501.497156 
L 896.113125 501.497156 
L 896.113125 493.097156 
L 872.113125 493.097156 
z
" style="fill: #e18727; opacity: 0.85; stroke: #ffffff; stroke-width: 0.5; stroke-linejoin: miter"/>
    </g>
    <g id="text_40">
     <!-- SHAP Value -->
     <g style="fill: #262626" transform="translate(905.713125 501.497156) scale(0.12 -0.12)">
      <defs>
       <path id="MicrosoftYaHei-53" d="M 400 909 
Q 622 716 994 591 
Q 1366 466 1700 466 
Q 2719 466 2719 1191 
Q 2719 1394 2609 1556 
Q 2500 1719 2309 1844 
Q 2119 1969 1594 2228 
Q 866 2591 634 2902 
Q 403 3213 403 3613 
Q 403 4216 887 4569 
Q 1372 4922 2109 4922 
Q 2831 4922 3169 4747 
L 3169 4066 
Q 2731 4369 2063 4369 
Q 1619 4369 1339 4183 
Q 1059 3997 1059 3666 
Q 1059 3372 1253 3187 
Q 1447 3003 2094 2684 
Q 2806 2344 3090 2003 
Q 3375 1663 3375 1238 
Q 3375 600 2912 259 
Q 2450 -81 1628 -81 
Q 1341 -81 958 -1 
Q 575 78 400 197 
L 400 909 
z
" transform="scale(0.015625)"/>
       <path id="MicrosoftYaHei-48" d="M 4325 0 
L 3700 0 
L 3700 2181 
L 1250 2181 
L 1250 0 
L 625 0 
L 625 4841 
L 1250 4841 
L 1250 2738 
L 3700 2738 
L 3700 4841 
L 4325 4841 
L 4325 0 
z
" transform="scale(0.015625)"/>
       <path id="MicrosoftYaHei-41" d="M 4428 0 
L 3738 0 
L 3244 1325 
L 1228 1325 
L 763 0 
L 72 0 
L 1916 4841 
L 2584 4841 
L 4428 0 
z
M 3050 1872 
L 2319 3884 
Q 2284 3981 2244 4222 
L 2228 4222 
Q 2194 4003 2150 3884 
L 1425 1872 
L 3050 1872 
z
" transform="scale(0.015625)"/>
       <path id="MicrosoftYaHei-56" d="M 4272 4841 
L 2494 0 
L 1800 0 
L 56 4841 
L 750 4841 
L 2053 1056 
Q 2119 869 2150 622 
L 2166 622 
Q 2191 838 2275 1063 
L 3603 4841 
L 4272 4841 
z
" transform="scale(0.015625)"/>
      </defs>
      <use xlink:href="#MicrosoftYaHei-53"/>
      <use xlink:href="#MicrosoftYaHei-48" x="57.714844"/>
      <use xlink:href="#MicrosoftYaHei-41" x="135.058594"/>
      <use xlink:href="#MicrosoftYaHei-50" x="205.419922"/>
      <use xlink:href="#MicrosoftYaHei-20" x="266.601562"/>
      <use xlink:href="#MicrosoftYaHei-56" x="296.191406"/>
      <use xlink:href="#MicrosoftYaHei-61" x="356.068359"/>
      <use xlink:href="#MicrosoftYaHei-6c" x="411.341797"/>
      <use xlink:href="#MicrosoftYaHei-75" x="437.953125"/>
      <use xlink:href="#MicrosoftYaHei-65" x="499.574219"/>
     </g>
    </g>
   </g>
  </g>
 </g>
 <defs>
  <clipPath id="pe1dd612acc">
   <rect x="89.195" y="51.308281" width="900.31" height="463.972"/>
  </clipPath>
 </defs>
</svg>
